<svg xmlns="http://www.w3.org/2000/svg" viewBox="0 0 1024.15 1015.24"><defs><style>.cls-1{fill:#f7f0ed;}.cls-2{fill:#1a1a1a;}.cls-3{fill:#ff7b5c;}</style></defs><g id="approach"><circle class="cls-1" cx="508.98" cy="506.28" r="502.5"/><path class="cls-2" d="M214,492.62V236c0-11.82.51-23.77,0-35.59,0-.17,0-.34,0-.51l-11.54,11.54H787.52c7.9,0,15.82.18,23.72,0,.35,0,.69,0,1,0l-11.54-11.54v176.4c0,6,5.31,11.82,11.54,11.54s11.54-5.07,11.54-11.54V199.92a11.71,11.71,0,0,0-11.54-11.54H227.2c-7.9,0-15.81-.1-23.72,0h-1a11.71,11.71,0,0,0-11.54,11.54V456.53c0,11.84-.31,23.74,0,35.58v.51c0,6,5.31,11.82,11.54,11.54S214,499.09,214,492.62Z"/><path class="cls-2" d="M202.56,418.88H478.81c3.73,0,7.47.05,11.2,0h.49L479,407.35V488l11.54-11.54h-76A11.71,11.71,0,0,0,403,488V589.6c0,4.7-.08,9.4,0,14.09v.2c0,6,5.31,11.82,11.54,11.54s11.54-5.07,11.54-11.54V502.26c0-4.69.1-9.4,0-14.09V488l-11.54,11.54h76A11.71,11.71,0,0,0,502,488V407.35a11.71,11.71,0,0,0-11.54-11.54H214.25c-3.73,0-7.46,0-11.2,0h-.49c-6,0-11.81,5.3-11.53,11.54s5.07,11.53,11.53,11.53Z"/><path class="cls-2" d="M290,405.8v92.29c0,4.26-.07,8.52,0,12.78V511a11.87,11.87,0,0,0,3.38,8.16,11.54,11.54,0,0,0,16.32,0,12,12,0,0,0,3.38-8.16V418.75c0-4.26.06-8.52,0-12.78a1,1,0,0,1,0-.17,11.91,11.91,0,0,0-3.38-8.16,11.75,11.75,0,0,0-8.16-3.38,11.62,11.62,0,0,0-8.16,3.38A12,12,0,0,0,290,405.8Z"/><path class="cls-2" d="M293.13,200V330.38c0,5.48-.07,11,0,16.44v.23a11.91,11.91,0,0,0,3.38,8.16,11.54,11.54,0,0,0,16.32,0,12,12,0,0,0,3.38-8.16V200a11.91,11.91,0,0,0-3.38-8.16,11.54,11.54,0,0,0-16.32,0,12,12,0,0,0-3.38,8.16Z"/><path class="cls-2" d="M455.57,200v74.12l11.54-11.54H377.66c-4.13,0-8.27-.06-12.4,0h-.18a11.91,11.91,0,0,0-8.16,3.38,11.54,11.54,0,0,0,0,16.32,12,12,0,0,0,8.16,3.38h89.45c4.13,0,8.27.07,12.4,0h.18a11.7,11.7,0,0,0,11.54-11.54V200a11.91,11.91,0,0,0-3.38-8.16,11.54,11.54,0,0,0-16.32,0,12,12,0,0,0-3.38,8.16Z"/><path class="cls-2" d="M542.21,201.59V327.85c0,5.8-.08,11.6,0,17.4v.25A11.7,11.7,0,0,0,553.75,357h80c3.68,0,7.37.06,11.05,0H645a11.91,11.91,0,0,0,8.16-3.38,11.54,11.54,0,0,0,0-16.32A12,12,0,0,0,645,334H565c-3.68,0-7.37-.08-11.05,0h-.16l11.54,11.54V219.23c0-5.79.07-11.6,0-17.39a2.08,2.08,0,0,1,0-.25,11.91,11.91,0,0,0-3.38-8.16,11.75,11.75,0,0,0-8.16-3.38,11.62,11.62,0,0,0-8.16,3.38,12,12,0,0,0-3.38,8.16Z"/><path class="cls-2" d="M609.32,262.44h74.44L672.22,250.9v63.58A11.71,11.71,0,0,0,683.76,326h113.9c5.25,0,10.51.08,15.77,0h.22a11.91,11.91,0,0,0,8.16-3.38,11.54,11.54,0,0,0,0-16.32,12,12,0,0,0-8.16-3.38H699.75c-5.25,0-10.51-.09-15.76,0h-.23l11.54,11.54V250.9a11.71,11.71,0,0,0-11.54-11.54H609.32a12,12,0,0,0-8.16,3.38,11.56,11.56,0,0,0,0,16.32,12,12,0,0,0,8.16,3.38Z"/><path class="cls-2" d="M732.5,314.53v80.16c0,3.71-.06,7.42,0,11.12V406a11.88,11.88,0,0,0,3.38,8.16,11.53,11.53,0,0,0,16.31,0,12,12,0,0,0,3.38-8.16V325.81c0-3.7.06-7.41,0-11.12v-.16a11.87,11.87,0,0,0-3.38-8.16,11.53,11.53,0,0,0-16.31,0,12,12,0,0,0-3.38,8.16Z"/><path class="cls-2" d="M189.55,631.61v179.5a11.71,11.71,0,0,0,11.54,11.54H791.75c8,0,16,.11,23.94,0h1a11.72,11.72,0,0,0,11.54-11.54V561.52c0-11.48.29-23,0-34.47,0-.17,0-.33,0-.5,0-6-5.31-11.82-11.54-11.54s-11.54,5.07-11.54,11.54V776.14c0,11.45-.5,23,0,34.47v.5l11.54-11.54H226.08c-8,0-16-.18-23.94,0h-1l11.54,11.54V631.61c0-6-5.31-11.82-11.54-11.54s-11.54,5.07-11.54,11.54Z"/><path class="cls-2" d="M192.93,700.16A19.59,19.59,0,0,0,203.38,705a125.2,125.2,0,0,0,14.08,1.53c11.19.65,22.44.6,33.65.46,24.29-.29,48.57-1.29,72.82-2.52,5.45-.27,10.9-.55,16.34-.88L328.73,692v47.77a11.71,11.71,0,0,0,11.54,11.54H469c6,0,12,.13,17.93,0h.25a11.7,11.7,0,0,0,11.54-11.54v-94.2L487.2,657.11H592.27c6,0,11.81-5.31,11.53-11.54S598.73,634,592.27,634H487.2a11.71,11.71,0,0,0-11.54,11.54v94.2l11.54-11.53H358.45c-6,0-12-.19-17.93,0h-.25l11.54,11.53V692c0-6-5.29-11.91-11.54-11.53-12.11.71-24.24,1.29-36.36,1.82-22.44,1-44.91,1.76-67.37,1.63-9.34-.06-18.8-.09-28.06-1.32l3.06.41a35.59,35.59,0,0,1-4.67-.89c-1.74-.48-2.15-1.51,1.1.6-.17-.12-.38-.19-.56-.3-1.32-.81,2.87,2.42,1.84,1.43-4.35-4.2-12.05-4.65-16.32,0s-4.64,11.83,0,16.31Z"/><path class="cls-2" d="M579.18,475.37l-.53,18.3L577.82,523l-.19,6.69a11.65,11.65,0,0,0,11.53,11.54l20.53-.53,32.44-.83,7.51-.19L638.1,528.1V704.78c0,2.39,0,4.77,0,7.16,0,.1,0,.21,0,.31a11.71,11.71,0,0,0,11.54,11.54h77.5c3.58,0,7.16.05,10.74,0H738a11.71,11.71,0,0,0,11.53-11.54V604.76c0-4.93.09-9.87,0-14.8v-.22L738,601.28h75.61a11.91,11.91,0,0,0,8.16-3.38,11.54,11.54,0,0,0,0-16.32,12,12,0,0,0-8.16-3.38H738a11.71,11.71,0,0,0-11.54,11.54V697.23c0,4.93-.09,9.87,0,14.8v.22L738,700.71h-77.5c-3.58,0-7.16-.07-10.74,0h-.16l11.54,11.54V535.57c0-2.39,0-4.77,0-7.16v-.31c0-6.12-5.28-11.7-11.54-11.54l-20.52.53-32.44.83-7.52.19,11.54,11.54.53-18.29.83-29.3.19-6.69a11.54,11.54,0,1,0-23.07,0Z"/><path class="cls-2" d="M577.63,529.65v78.7a11.87,11.87,0,0,0,3.38,8.16,11.53,11.53,0,0,0,16.31,0,12,12,0,0,0,3.38-8.16v-78.7a11.87,11.87,0,0,0-3.38-8.16,11.72,11.72,0,0,0-8.16-3.38,11.6,11.6,0,0,0-8.15,3.38,12,12,0,0,0-3.38,8.16Z"/><path class="cls-2" d="M272.9,737.06v69.43a11.93,11.93,0,0,0,3.38,8.16,11.54,11.54,0,0,0,16.32,0,12,12,0,0,0,3.38-8.16V737.06a11.91,11.91,0,0,0-3.38-8.16,11.54,11.54,0,0,0-16.32,0,12,12,0,0,0-3.38,8.16Z"/><path class="cls-2" d="M580.73,741.33v71.34a11.87,11.87,0,0,0,3.38,8.16,11.54,11.54,0,0,0,16.32,0,12,12,0,0,0,3.37-8.16V741.33a11.9,11.9,0,0,0-3.37-8.16,11.75,11.75,0,0,0-8.16-3.38,11.62,11.62,0,0,0-8.16,3.38,11.94,11.94,0,0,0-3.38,8.16Z"/><path class="cls-3" d="M205.74,578.31h164l-9.89-9.89V676.58a10,10,0,0,0,9.89,9.89h72.5a10,10,0,0,0,9.89-9.89V556l-9.89,9.89h93a10,10,0,0,0,9.89-9.89V413.34l-9.89,9.89H662.05l-9.89-9.89v40.32a10,10,0,0,0,9.89,9.89H804.33a9.91,9.91,0,0,0,9-6.08c1.64-3.87.57-7.66-2-10.8l-31-37.22c-3.33-4-10.6-3.69-14,0-3.89,4.24-3.55,9.73,0,14l31,37.22v-14l-31,33.34c-3.52,3.79-4,10.28,0,14,3.83,3.51,10.23,4,14,0l31-33.34c3.89-4.18,3.54-9.75,0-14l-31-37.22c-3.33-4-10.6-3.69-14,0-3.89,4.24-3.55,9.73,0,14l31,37.22,7-16.89H662.05l9.89,9.89V413.34a10,10,0,0,0-9.89-9.89H535.28a10,10,0,0,0-9.89,9.89V556l9.89-9.89h-93a10,10,0,0,0-9.89,9.89V676.58l9.89-9.89h-72.5l9.89,9.89V568.42a10,10,0,0,0-9.89-9.89h-164c-5.17,0-10.13,4.55-9.89,9.89a10.06,10.06,0,0,0,9.89,9.89Z"/></g></svg>