<svg xmlns="http://www.w3.org/2000/svg" viewBox="0 0 1024.15 1015.24"><defs><style>.cls-1{fill:#f7f0ed;}.cls-2{stroke:#282521;stroke-miterlimit:10;stroke-width:5.67px;}.cls-3{fill:#ff7b5c;}.cls-4{fill:#fff;}.cls-5{fill:#1a1a1a;}</style></defs><g id="challenge"><circle class="cls-1" cx="514.65" cy="510.5" r="502.5"/><path d="M486.09,290.56c.27.49-6.33-19.87-5.83-19.42-3.88-11.65-9.71-27.19-1.94-48.55-1.94-11.65-25.78-24.74-31.46-32.35a57.7,57.7,0,0,1-5-9.08c-.6-1.21-1.1-2.47-1.59-3.73-2.36-6.15-5.33-12-4.92-18.87.23-3.89-.84-7.85-.65-11.74a93,93,0,0,1,2-17.19,67.13,67.13,0,0,1,6.13-16.17c6.48-11.91,15.84-21.35,27-29,.33-.22.65-.66,1-.66,4.17-.12,6.87-3.62,10.7-4.6,4.06-1,8-2.77,12-3.66A62.44,62.44,0,0,1,506,74a90.21,90.21,0,0,1,12.57,1.14,69.14,69.14,0,0,1,43.32,22.51,80,80,0,0,1,18.51,35.93,67.45,67.45,0,0,1-2.22,40.22c-5.45,14.51-13.4,27.36-26.69,36.21-2.76,1.85-7.77,4.6-9.08,8.69,0,11.66,0,11.66-1.94,15.54a72.86,72.86,0,0,1,1.94,15.54c3.88,71.86-29.13,54.38-56.32,40.78m-2.69-21.89"/><path d="M414.13,348.31c-6.05-6.57-4.39-15.43-9.84-21.57.36,5.35.73,10.71,1.06,16.06a49,49,0,0,1,.18,6.05c-.36,5.67-2,6.62-6.89,3.82-2.81-1.63-5.68-2-10.15-1.37a37.67,37.67,0,0,0,4.09,2c2.87.92,3.46,3.21,3.31,5.72s-2.34,3-4.4,3.38l-2.81.5c3,2.06,5.81,3.3,7.58,5.42s2.61,5.22,4.12,8.46c.58-2.82,1.1-5.17,1.54-7.54.39-2.09.94-4,3.36-4.58,2.58-.57,3.66,1.61,4.84,3.07,1.49,1.84,2.42,4.12,3.71,6.13a19.89,19.89,0,0,0,2.2,2.43c-1.71-6.37-3.35-12.49-5-18.85h-7c3.56-5.07,8.74-5.23,13-7,2.82-1.17,6.12-1.37,9.23-1.54,1.14-.06,2.34,1.24,3.52,1.92-.63,1-1,2.46-1.93,3-2.8,1.79-5.81,3.24-8.72,4.87a14.1,14.1,0,0,0-1.68,1.25c.08,5.86,2.36,10.81,4.94,15.76a29.76,29.76,0,0,1,2.45,7.85c.24,1.2-.06,3.22-.85,3.72a4.29,4.29,0,0,1-4-.26,38.37,38.37,0,0,1-6.43-6.05c-2.24-2.68-4.11-5.67-6.52-9.05-.49,1.33-1.15,2.24-1.11,3.12.18,4.42.55,8.83.83,13.24a31,31,0,0,1,.13,3.33c-.09,2.17-.55,4.22-3.23,4.36-2.4.12-4.33-1.54-4.32-3.53,0-6.27-3.37-11.4-4.93-17.12-1.46-5.33-3.39-6.64-8.79-6.15-3.32.3-6.61.87-9.93,1.18a12.06,12.06,0,0,1-4.37-.21c-1.92-.55-2.79-2.21-1.51-3.86a11.54,11.54,0,0,1,4.54-3.71c3.07-1.22,6.4-1.77,9.6-2.69,2.1-.6,4.16-1.35,6.95-2.27-2.39-1.93-4.25-3.33-6-4.85a33.57,33.57,0,0,1-4.74-4.64,4.17,4.17,0,0,1-.32-3.51c.27-.67,1.86-1.24,2.79-1.14a27.93,27.93,0,0,1,5.32,1.37c4.17,1.3,8.33,2.66,13.05,4.18,0-1.91,0-3,0-4.05-.35-7.94-.73-15.89-1.06-23.83a9.05,9.05,0,0,1,.25-2.75c.81-3,3.29-3.75,5.33-1.49a13.57,13.57,0,0,1,3.15,5.17c2.11,7.86,3.94,15.8,5.83,23.71A10.38,10.38,0,0,1,414.13,348.31Z"/><path d="M663.22,181.94c3.78,5.94,2.37,14.58-2.67,20.17l7.69,4.14c1.79-2.26,2.85-4.53,1.13-7.43-.52-.86-.37-2.13-.47-3.22-.06-.7.22-1.54-.07-2.08-2.37-4.32-2.39-4.29.41-7.48,2-2.23,3.76-4.58,5.83-6.68A37.62,37.62,0,0,1,679.7,176c1,4,1.22,6.75-.93,9.63a40.24,40.24,0,0,0-4.43,8.23c-1.05,2.47-1.21,4.85,1.6,6.81,2.38,1.65,4.32,4,6.4,6a7.2,7.2,0,0,1,2,2.57c.38,1.31.69,3.12.06,4.07-.43.65-2.64.59-3.82.18a59.56,59.56,0,0,1-6.65-3.17c-2,3.25-.57,6.58-.86,9.75-.17,1.88.8,4.56-2.21,4.83-2.58.23-4-1.64-4.51-4-.82-3.61-1.59-7.24-2.46-10.83-.29-1.19-.83-2.31-1.46-4-3.06,1.23-5.74,2.35-8.45,3.37a16.83,16.83,0,0,1-4.71,1.39c-1.09.07-2.78-.53-3.22-1.35a4,4,0,0,1,.47-3.54,11.46,11.46,0,0,1,4.18-3.53c7.86-3.54,12.35-9.16,11.94-18.12A10.22,10.22,0,0,1,663.22,181.94Z"/><path class="cls-2" d="M361.06,184.58c.08-1.25.14-2.29.18-3A432,432,0,0,1,416,171.68l.46,1.09c-.68.62-1.27,1.56-2.07,1.81-3.83,1.19-7.69,2.33-11.6,3.25-5.65,1.34-11.34,2.52-17,3.69C377.72,183.16,369.79,185.79,361.06,184.58Z"/><path class="cls-2" d="M415.88,126.42c-.94.58-2,1.82-2.79,1.66-8.79-1.85-17.7-3.4-25.76-7.71-4.55-2.43-9.09-4.89-13.58-7.45-1.5-.86-2.81-2.06-5.22-3.85A16.33,16.33,0,0,1,379,111.42c8.39,4.65,17.36,7.7,26.45,10.53,3.31,1,6.64,2,10,3C415.56,125.47,415.72,125.94,415.88,126.42Z"/><path class="cls-2" d="M616.94,238.5c-.53,1.92-1.65,2.29-3.25,1.15-5.56-4-11.19-7.82-16.63-11.94-4-3-7.72-6.3-11.49-9.55-1.49-1.28-2.78-2.8-4.54-4.59C586,213.72,609.9,230.67,616.94,238.5Z"/><path class="cls-2" d="M506.73,67.72c-.74-.52-1.91-.9-2.15-1.6-2.73-8-6.4-15.72-7-24.38-.2-2.89-1.52-5.69-2.3-8.54-.42-1.52-.79-3.05-1.34-5.2,3.56,1.09,4.39,3.73,5.05,5.92,2.8,9.33,5.3,18.76,7.87,28.16.42,1.56.61,3.18.91,4.78Z"/><path class="cls-2" d="M422.62,197.14c-.88.83-1.19,1.31-1.63,1.51q-10.9,5.19-21.84,10.28a10.83,10.83,0,0,1-3.19.8c-2.11.23-2.27-1.3-2.54-2.69C402.86,200.45,416.37,195.7,422.62,197.14Z"/><path class="cls-2" d="M608.84,66.05c-2.4,8.29-19.66,26.54-27.34,28.44,2.91-3,5.91-5.95,8.73-9,3.1-3.4,5.89-7.09,9.11-10.37C602.2,72.17,604.07,68,608.84,66.05Z"/><path class="cls-2" d="M420,231.54c4-7.72,10.56-13.36,16.91-19.14.57-.52,1.93-.19,4.35-.36-2.86,3.44-4.88,5.9-6.93,8.33-3.2,3.81-6.38,7.63-9.67,11.36C423.35,233.25,421.76,234.2,420,231.54Z"/><path class="cls-2" d="M621.39,180.51c-.89.77-1.47,1.72-2.11,1.76-8.52.48-22.16-2.53-26-6.05,5.15-2,9.47,1.3,14,1.11C612,177.13,616.84,177.1,621.39,180.51Z"/><path class="cls-2" d="M458.39,94.37C452,89.71,449,83.87,445.57,77.65c1.37-.18,2-.49,2.38-.27,5.14,3.19,8.65,7.92,11.63,13C460,91.11,458.93,92.7,458.39,94.37Z"/><path class="cls-2" d="M590.66,137.17c-1-3.13,1-3.59,2.35-4.13,9.57-3.71,13-4.21,16.23-2.3C603.76,135.18,597.05,135.2,590.66,137.17Z"/><path class="cls-3" d="M516.53,179.2a67.67,67.67,0,0,1-5.88,3.87c-1.88,1-4,1.57-5.82,2.85,4.28,2.6,7.78.59,10.46-1l13.79,5.67c-1.88,11.74-3.76,23.51-5.68,35.58-8.53,1.58-17.22.78-26.43.23-.44-2.32-.88-4.61-1.31-6.91-1.24-6.69-2.41-13.39-3.76-20.05-.6-3-1.62-5.89-2.37-8.84-.69-2.75.22-4.54,3.05-5.54s5.26-2.34,8.16-3.66c.88-1.24,2-2.84,3.15-4.47,3.75-5.51,5.07-11.41,2.63-17.83-1.25-3.3-3.91-5.36-6.46-5.15-2.74.22-4.76,2.37-5.66,6-1.23,5-.76,10.14,1.73,17.83-1,.85-2.1,2.16-3.47,2.75-3,1.28-5,.43-5.64-2.9-.71-3.5-2.51-3-5-2.22v8c-1.93,2.35-6.07-1.12-7.18,3.83l9.05,1.73c2.34,12.49,4.72,25.28,7.22,38.69l-7.39-1.38c-.23-3.21-.2-6.19-.7-9.09-1-5.91-4.18-10.49-8.84-14.3-4.12-3.38-7.91-7.17-11.72-10.92-6.78-6.66-10.85-15-13.61-23.89a63.33,63.33,0,0,1-1.54-31.22c1.49-7.58,4.92-14.47,9.32-21,5.72-8.45,12.39-15.75,21.43-20.48a155.09,155.09,0,0,1,16.75-7,24.89,24.89,0,0,1,6.52-1.21,61.54,61.54,0,0,1,27.57,3.13c7.78,2.84,14.27,7.78,21.3,11.8,2.85,1.63,4.67,5.08,6.91,7.73.48.55.63,1.54,1.19,1.83,6.66,3.47,7.88,10.46,10.54,16.42,1,2.28.95,5,1.49,7.52.76,3.53,1.79,7,2.39,10.55a20.16,20.16,0,0,1-.29,5.29c-.1.9-.67,1.8-.58,2.66.59,5.77-1.92,10.77-3.79,15.95-1.23,3.38-2.46,6.73-3.85,10.05-3,7.16-8.51,12-13.41,17.47-3.42,3.81-7.6,6.94-11,10.75a16.21,16.21,0,0,0-4,11.82c.09,2,0,4,0,6.2l-6.33.51c.27-2.61.38-4.9.76-7.15,1.16-6.9,2.44-13.78,3.61-20.67a11.48,11.48,0,0,0,.12-3.74c-.56-3.34.79-5.56,3.49-7.37,3-2,5.89-4.31,8.7-6.38-.7-3.23-2.17-3.2-4.12-2-1.54,1-3.1,1.9-5.17,3.16-.12-2.23-.6-4.09-.24-5.77.76-3.48-1.26-3.64-4.26-4.09l-2.55,11.71c-4.15,2.42-6.91-1.61-10.74-2.24,1.54-3.19,3.26-5.86,4.13-8.79a76.26,76.26,0,0,0,2.26-11.85,8.62,8.62,0,0,0-1-4.25c-1.19-2.63-2.9-4.74-6.25-4.6-2.74.1-5.92,2-6.5,5.12a90.83,90.83,0,0,0-1,12.59,16.43,16.43,0,0,0,.59,3.27c.64,4.26.63,4.26,5.35,5.39Z"/><path class="cls-4" d="M482.06,259.31c-.88-3.95-1.58-7.06-2.42-10.82,19.67-1.48,38.55-2.8,56.66-10.14.15,3.55.28,6.43.42,9.59C519.43,255,500.86,254.88,482.06,259.31Z"/><path class="cls-4" d="M537.05,264.93c.63,6.21.35,11.77-2.15,16.73-4.51,9-12.27,13.56-20.41,8.65-4-2.42-8.92-3.44-13.44-5-7.38-2.6-13.39-6.67-16.32-14.61l12.46,4.88a52.24,52.24,0,0,0,4.16,6,9.47,9.47,0,0,0,13.56.08c1.51-1.51,2.56-3.51,4.17-4.86a15.75,15.75,0,0,1,5.51-3.13c4.47-1.3,7.57-4.21,10.37-7.67C535.26,265.64,535.86,265.52,537.05,264.93Z"/><path class="cls-4" d="M535.64,232.72c-17.39,8.61-36,11.28-55.74,11.76.42-3.9.79-7.3,1.18-10.86,9.36-1.93,18.54-.76,27.66-.88S526.67,232.72,535.64,232.72Z"/><path class="cls-4" d="M486.29,262.87l50.09-8.32c-1,1.28-1.51,2.65-2.42,3a112.77,112.77,0,0,1-13,4.4c-5.7,1.44-11.53,2.34-17.29,3.53-2.7.55-5.34,1.44-8.06,1.81C492,267.76,489.22,266.11,486.29,262.87Z"/><path class="cls-4" d="M516.63,179.22c-3.84-5.77-1.91-12.12-1.62-18.23.07-1.4,2-2.7,2.91-3.87,3.06,1,3.51,3,3.42,5.13-.22,5.26-.16,10.63-3.66,15.12a17.1,17.1,0,0,0-1.17,1.82Z"/><path class="cls-4" d="M500.17,158.77c4.28,4.64,4.22,7.79-.53,15.73-2.89-2.95-1.67-6.55-1.87-9.71C497.64,162.58,497.2,159.9,500.17,158.77Z"/><path d="M509,292.68c3.57,20,11.66,38.34,22,55.68s22.25,34.14,31.54,52.31c2.55,5,5.57,10.24,7,15.69,1.59,6.13-1.87,9.65-7.07,12.24-9.27,4.62-20.14,7.49-30.21,9.74-18.83,4.2-43.79,4.62-51.83-16.86A80.56,80.56,0,0,1,476.91,408c-1.05-5.63-1.74-11.58-.33-17.21,1.87-7.44,7.29-12.74,13.78-16.43,14.35-8.12,33-9.55,49-6.91,18.34,3,35.32,13,46,28.39,10.79,15.59,14.22,34.58,12.87,53.26-1.64,22.65-10.34,44.25-21,64.08-11.28,21.05-24.92,40.8-38.69,60.28-6.09,8.61-13,16.25-23,20.27-10.76,4.33-22.65,5.58-34,7.15q-38.13,5.24-76.59,7.58-19,1.19-38.09,1.67c-11.88.31-23.87.69-35.72-.61-10.62-1.16-21.65-4-30.05-10.89-7.19-5.93-11.79-14.17-14.57-23-7.15-22.53-6.1-47.29,2-69.4,4-10.83,10.53-18.77,20.95-23.89s22.3-8.54,33.59-11.77c44.18-12.64,92.79-17,136.18.89,34.65,14.31,62.19,41.64,80.85,73.75,21.72,37.36,33.94,79.63,61.78,113.4,6.79,8.22,13.91,15.81,25,17.38,9.5,1.35,19.07-1.38,27.5-5.68,8.92-4.54,16.31-11,22.84-18.52a165.85,165.85,0,0,0,19.19-27c10.27-18.19,16.72-38.55,17.79-59.46,1-19.38-3.39-39.3-17.92-53.1s-35.36-19.63-54.71-23c-23.27-4-47.23-5.47-70.81-5.83-44.14-.67-87.91,6.8-127.9,26-32,15.37-62.63,38.64-79.6,70.47-22.27,41.77-14,89.28-9.67,134.17.54,5.71,1,11.43,1.35,17.17.28,4.91.88,10.11.18,15-1.75,12.15-14.42,12.08-24.2,11.52a133.09,133.09,0,0,1-60.44-18.46c-17.87-10.68-32.56-26.07-40.92-45.28-7.85-18-9.65-38.52-6.52-57.86,6.26-38.78,30.74-72.07,60.9-96.16,16.39-13.09,34.7-24,54.7-30.54,19.14-6.24,40.75-9.23,60.16-2.42,20.59,7.23,32.67,26.22,39.16,46.12,7,21.44,7.2,44.16,6.6,66.48s-2,44.84,1.37,67.07c1.38,9.3,3.92,18.83,11.29,25.25,7,6.11,16.37,8.43,25.49,8.61,20.47.42,38.39-9.4,51.34-24.84,7-8.38,13.14-17.56,19.51-26.43q11.38-15.86,22.76-31.7l11.39-15.86c3.07-4.28,6-9,10.46-12,8.81-6.05,21.51-5,31.71-5.34,20.77-.61,42.26-.73,62.43,4.89,9.26,2.58,18.4,6.55,25.67,13,7.88,7,13,16.16,17.27,25.63,9.21,20.54,13,44.4-1.07,63.7-12,16.47-31.94,26.69-50.72,33.34-22.87,8.1-47.08,11.89-71.11,14.57-21.69,2.42-47.83,7-67.42-5.32-14.26-9-19.86-25.39-23-41.12-5-25.07-9.41-50.25-14.1-75.38-2.06-11-3.47-22.39-6.67-33.13-2.81-9.47-8-17.71-16.16-23.4-8.85-6.14-19.81-9-30.21-11.22a207.77,207.77,0,0,0-32.11-4.06A217,217,0,0,0,377,572.62c-37.94,10-76.07,32.79-91.81,70.37-6.83,16.33-9,35.92-2.29,52.67,8.08,20.34,28.24,30.6,48.25,36.16,40.61,11.29,88.12,7.75,123.65-16.07,8.65-5.79,16.76-12.34,25.5-18a96.44,96.44,0,0,1,29.25-13c22.12-5.46,45.65-3.27,67.79.92,11.21,2.13,22.4,4.71,33.35,7.92,10.11,2.95,20.93,6.83,27.74,15.33,6.45,8.07,8.21,18.73,10,28.61,2.21,12.24,3.71,24.7,2.79,37.15a73.42,73.42,0,0,1-26.31,51.62c-17.27,14.33-40.14,19.59-61.94,22a393.23,393.23,0,0,1-67.14,2c-19.48-1.18-40.73-4.34-56.9-16.11-16.63-12.09-23.27-34.74-20.19-54.59,3.34-21.48,23.37-33.59,42.2-40.5,22.85-8.38,47.48-10.64,71.55-12.88,22-2,45.59-4.06,63.19,12,6.43,5.85,11.38,13,15.82,20.42,5,8.31,10.54,17.41,11.68,27.23,2.66,23.06-27.3,28.06-44.1,30.16-21.52,2.69-44.64,4.27-65.54-2.71-13.47-4.5-34.66-20.06-22.73-36l-1.9,1.46c18-5.67,37.72-5.74,56-1.21,16.12,4,33.32,12,42.21,26.75,8.63,14.3,6.54,32-3.71,44.87-12,15.15-31.55,20.52-47.93,29.41-8.34,4.53-17.1,10.42-21.38,19.22-4.95,10.19-2.79,21.29,4.22,29.89l2.25-5.45-12.07.12a3.22,3.22,0,0,0-3.19,3.19c.45,7.89,2,15.83,8.72,20.79,5.13,3.77,12.5,4.57,18.59,3.14,5.3-1.24,11.51-6.07,7.64-11.89-3.64-5.47-12.43-6.35-18.26-5-8.45,2-13.36,9.77-13.63,18.1a3.22,3.22,0,0,0,3.19,3.18c9.83-.44,23.83-6,22.34-18.12C532.59,925,520,920.6,510.73,924c-4.11,1.5-8.51,4.47-9.73,8.93a8.64,8.64,0,0,0,4.69,9.82c6.05,3.15,18,1.17,20.72-5.85,2-5.14-2.78-8.95-7.1-10.55-7.14-2.66-15.64-2.1-22.92-.36-2.5.59-2.89,3.59-1.41,5.33,10.57,12.39,30.53,15.19,45.56,11.32,2.54-.65,2.81-3.53,1.41-5.33-5-6.42-15-8.38-22.62-6.93-7.48,1.41-14,7.91-10.68,15.84s13.58,9.75,20.93,6.56a20,20,0,0,0,11.82-20.45c-1-10.74-8.67-19.24-17.7-24.43a3.3,3.3,0,0,0-3.87.49,21.71,21.71,0,0,0-7.49,11.79c-.77,3.7-.68,8.83,1.58,12.08s8.67,2.38,12,1.66a15.29,15.29,0,0,0,10.06-6.64,3.24,3.24,0,0,0-1.91-4.69c-14.48-4.72-32.92-2.75-45.07,6.89-2.6,2.07-5.45,4.25-4.16,7.85,1.08,3,3.76,5.38,6.56,6.84,6.33,3.29,14.94,3.77,21-.45,6.43-4.51,7.62-13.63,1.17-18.72-3.19-2.51-7.73,2-4.51,4.51,5.15,4.06,1.13,9.52-4.22,10.6-4.46.9-12.88-.39-14.18-5.7l-.82,3.1c9.95-11.33,29-13.22,42.58-8.77l-1.91-4.68c-2.45,4.08-8.77,4.6-12.91,3.51l1.9,1.47c-2.83-6.1.16-12.09,4.92-16.14l-3.86.5c7,4,13.52,10.51,14.54,18.93.94,7.78-4.36,15.43-12.61,15.63-3.08.07-6.68-1.07-7.91-4.2-1.09-2.77.51-5,3-6.17,6.14-2.92,15.68-1.2,19.93,4.23l1.4-5.33c-13,3.35-30.22,1-39.35-9.68l-1.41,5.33a37.09,37.09,0,0,1,17-.41c1.66.39,7.13,1.6,4.56,3.8-2.09,1.78-14.27,4.23-12.35-1.3,1.09-3.14,6.1-4.74,9-5,3.77-.38,8,1,10.18,4.24,6,8.9-8.6,13.82-14.86,14.1l3.19,3.19c.2-6.19,4.09-11.54,10.54-12.22a14.49,14.49,0,0,1,7.82,1.21c.51.25,1.88.9,2,1.58-.08-.44.19-.19-.43.33a7.25,7.25,0,0,1-1.05.72c-4,2.3-10.33,1.75-14.31-.21-6.28-3.1-7.27-10.36-7.63-16.6l-3.19,3.19,12.07-.12c3,0,3.95-3.37,2.26-5.44-7.68-9.41-6.09-21.46,2.37-29.71,7.34-7.15,17.2-11.44,26.36-15.71,9.61-4.48,19.42-8.84,27.75-15.53a53.8,53.8,0,0,0,17.08-23.43c6.42-17.72.38-37-13.45-49.33-14.86-13.31-35.41-19.46-55-21.09a110.27,110.27,0,0,0-31.55,1.82c-2.49.51-5,1.13-7.42,1.86-2.72.81-3.91,1.94-5.32,4.41a20.63,20.63,0,0,0-2.66,12.07c.86,9.18,7,16.86,14.13,22.28,9.05,6.93,20.24,10.39,31.39,12.12,12.64,2,25.47,1.88,38.19.89,11.78-.91,23.79-2.16,35.21-5.31,9.74-2.68,20-7.12,25.74-15.84,6.06-9.17,4.28-20.42.32-30a134.72,134.72,0,0,0-14.86-26.3c-5.64-7.94-12.42-15.1-20.9-20-10.53-6.12-22.6-8-34.63-8-13.33,0-26.75,1.74-40,3.17-25,2.71-50.91,6.65-73.2,19-8.88,4.93-17.28,11.36-23,19.84-6.87,10.13-8.31,22.56-7.29,34.5C413,805.07,415.61,815.2,421,824a57.78,57.78,0,0,0,23.8,21.2c19.94,9.93,43.29,11.77,65.23,12,24.71.26,50.23-.64,74.44-5.89,22.46-4.88,43.5-15.15,57.61-33.79,14.4-19,17.54-42.71,14.9-65.9-1.33-11.77-2.88-24.44-7.26-35.53a42.11,42.11,0,0,0-21.93-23c-10.91-5.15-22.93-7.88-34.62-10.58a293.62,293.62,0,0,0-37.34-6.38c-23.88-2.36-48.58-.49-70.06,11-20.23,10.85-36.42,27.64-58.27,35.69-22.47,8.28-47.17,10.17-70.86,7.47a141.68,141.68,0,0,1-35.5-8.5c-10.7-4.17-21.42-10.39-27.93-20.13-11.57-17.31-9.32-41-.85-59.08,19.55-41.81,66.64-62.41,110-68.55a205.83,205.83,0,0,1,72.86,2.51c11.43,2.52,24.06,6,32.12,15.1,7.39,8.31,9.06,19.72,11,30.25Q526.21,664,534.08,706c3.35,17.93,7.31,37.15,22,49.54,19.1,16.15,45.68,13.47,68.82,11.1C651,764,677.38,760.41,702.38,752c20.75-7,42.22-17.75,55.89-35.43a55.54,55.54,0,0,0,11.67-31.4c.61-12.34-2.64-24.63-7.3-35.95-4.35-10.56-9.68-21.06-17.83-29.22-7.41-7.41-16.82-12.34-26.7-15.59-21.62-7.1-45.28-7-67.78-6.4-11.12.32-24.14-.43-34.1,5.38-4.71,2.74-8.13,6.9-11.28,11.25-4,5.52-8,11.08-11.94,16.62l-25,34.87c-7,9.74-13.61,20.06-21.81,28.87-7.61,8.19-16.86,14.49-27.75,17.34-10,2.62-21.84,3.18-31.39-1.39-10.41-5-13.44-15.31-15-25.88-1.83-12.22-2.09-24.65-1.93-37,.32-24.53,2.5-49.18-.87-73.61-3.08-22.25-11.33-46.58-28.65-61.85-16.93-14.91-40.13-17.67-61.72-14.5-22.39,3.29-43.6,12.61-62.41,25-35.84,23.61-66.75,58.36-77.42,100.77-5.12,20.35-5.38,42.19.83,62.35,6.69,21.67,20.68,40,39,53.18s40.57,21.2,63,24c10.57,1.3,25.22,3.34,33.82-4.57,7.63-7,6-18.87,5.47-28.14-2.93-49.26-17.09-102.59,8.06-148.59,19.47-35.61,56.24-59.87,93.24-74.27a261.48,261.48,0,0,1,67.19-16.33c27.55-2.93,55.44-1.76,83,.61,22.73,2,47.33,4.83,67.52,16.31,9.76,5.55,17.77,13.48,22.46,23.78,4.34,9.54,5.49,20.22,5.19,30.6-.68,23.52-8.71,46.24-21.31,66-11.58,18.12-28.56,39-51.72,41.12a26.09,26.09,0,0,1-15.65-3.08c-5.31-3.12-9.34-8.43-13.18-13.12a205.86,205.86,0,0,1-20.41-30.56C594,602.25,585.13,580,574.49,558.7c-18.28-36.62-44.75-69.19-81.79-88C447.39,447.7,395,450,347,462.85a274.69,274.69,0,0,0-36.58,12.06c-11.1,4.73-20,11.81-25.31,22.86-10.94,22.94-12.48,50.66-6.13,75.08,2.46,9.45,6.44,18.58,13,25.92,7.5,8.37,17.9,13.2,28.76,15.5,12.34,2.6,25.06,2.61,37.61,2.38q21-.36,42-1.58,41.86-2.42,83.44-8.17c12.21-1.69,24.79-3.16,36.16-8.21,10.38-4.62,17.62-13,24-22.05,15.11-21.4,30.16-43.12,42-66.56,10.89-21.64,19.07-45.28,18.85-69.76-.17-19.83-6.08-39.34-19.23-54.47-13.4-15.42-32.65-24-52.81-25.6-17.31-1.38-37.4,1.39-51.4,12.46A30.73,30.73,0,0,0,469.47,396c-.28,6,.87,12,2.14,17.88a60.23,60.23,0,0,0,4.53,13.83c10.53,21.48,37,21.37,57.23,16.95,10.94-2.39,22.73-5.59,32.73-10.74,4.62-2.38,9-6,10-11.38s-1.34-10.85-3.58-15.75c-9.2-20.12-21.68-38.26-33.26-57C528,331.4,518.91,312.31,515.1,291c-.73-4-6.87-2.32-6.15,1.7Z"/><polygon class="cls-5" points="305.65 271.5 285.65 235.5 317.65 249.5 335.65 224.5 335.65 249.5 359.65 269.5 331.65 269.5 335.65 303.5 315.65 283.5 283.65 285.5 305.65 271.5"/></g></svg>