<svg xmlns="http://www.w3.org/2000/svg" viewBox="0 0 150 150"><defs><style>.cls-1,.cls-3,.cls-4{fill:#1a1a1a;}.cls-2{fill:#fff;}.cls-3,.cls-4{stroke:#1a1a1a;stroke-miterlimit:10;}.cls-3{stroke-width:5.67px;}.cls-4{stroke-width:7.09px;}</style></defs><g id="Layer_2" data-name="Layer 2"><g id="code"><circle class="cls-1" cx="75" cy="75" r="75"/><circle class="cls-2" cx="75" cy="75" r="59.65"/><g id="_4mH0XD.tif" data-name="4mH0XD.tif"><path class="cls-3" d="M66.22,108.4c-1.57-.41-3-1.16-3.41-2.82a5.85,5.85,0,0,1,0-2.94Q71,73.84,79.25,45.08c.76-2.65,2.91-4,5.27-3.3s3.47,3,2.71,5.62L74.09,93.34c-1,3.65-2.16,7.28-3.1,11-.56,2.21-1.71,3.66-4,4.11Z"/><path class="cls-4" d="M120.83,75.44A6.89,6.89,0,0,1,118.59,79q-7.78,7.74-15.53,15.5a4.16,4.16,0,1,1-6-5.79q6.4-6.44,12.82-12.83c.25-.25.48-.51.76-.8-.28-.3-.52-.56-.76-.8q-6.42-6.42-12.83-12.83A4.07,4.07,0,0,1,96,57.14a4,4,0,0,1,3.15-2.86,3.85,3.85,0,0,1,3.68,1.08C108.4,61,114,66.55,119.58,72.2a8.76,8.76,0,0,1,1.25,2.46Z"/><path class="cls-4" d="M29.17,74.46a7.61,7.61,0,0,1,2.31-3.39q7.74-7.69,15.44-15.44A4.16,4.16,0,0,1,53.29,61c-.27.32-.57.61-.87.91L40.08,74.25c-.25.24-.49.51-.77.8l.77.8q6.33,6.34,12.69,12.68A4.2,4.2,0,0,1,54,93.05a4.12,4.12,0,0,1-6.81,1.68c-1.44-1.36-2.81-2.79-4.21-4.19C39.16,86.7,35.33,82.85,31.48,79a7.5,7.5,0,0,1-2.31-3.4Z"/></g></g></g></svg>