<svg xmlns="http://www.w3.org/2000/svg" viewBox="0 0 1024.15 1015.24"><defs><style>.cls-1{fill:#f7f0ed;}.cls-2{fill:#fff;}.cls-3{fill:#ff7b5c;}.cls-4{fill:#1a1a1a;}</style></defs><g id="learning"><circle class="cls-1" cx="512.65" cy="509.5" r="502.5"/></g><g id="old"><path d="M839.55,218.13c-2.72-7.12-5-15.79-9.63-20.26a252.94,252.94,0,0,0-35.74-28.44c-12.74-8.35-27-9.81-41.31-6.08-8.07,2.1-14.92,6.23-17.72,17.25-1.67,6.57-4.57,12.67-6.62,19.13-11.34,35.75-22.75,71.47-33.81,107.35-8.94,29-17.37,58.26-26.15,87.35-1.31,4.35-4,9.72-6,14.8-.46-.33,0,0-1.42,3.09-.07,1.58,6,93.61,9.13,138.05.92,8,.62,7.64,3.62,4.93,8.28-7.49,18.4-14.11,25.1-21.32,16.68-18,37.87-41.79,55.37-60l.44.31c.09-.16,0-.09-.44-.31,11.51-10.77,12.75-26.82,18-39.73,3.65-9,5.37-19.11,8.26-28.58,2.41-7.9,5.19-15.64,7.94-23.38,5.81-16.37,11.72-32.69,17.57-49,.26-.74.25-1.61.46-2.38,1.67-6.2,3.1-12.52,5.1-18.55,8.4-25.27,17-50.45,25.48-75.67C839.24,230.71,842,224.56,839.55,218.13Zm-155,156.12c2.12-3.25,1-9.4,2.38-13.74,3.55-11.17,7.5-22.17,11.62-33.05,3.31-8.76,7.21-16.95,8.83-26.79,1.52-9.25,5.56-17.88,8.24-26.9,4.63-15.57,9-31.24,13.52-46.73l16.43,18.33a66.59,66.59,0,0,1-1.6,7c-8.39,24.29-16.9,48.53-25.29,72.83-5.38,15.59-12.48,30.78-15.38,47C700,390.57,689.82,404.51,687,421.87l-15.27-12.49C676.15,397.91,677.57,384.86,684.51,374.25ZM752.79,251l32.6,13.87a6.16,6.16,0,0,1,.08,2.69c-5.75,15.06-11.72,30-17.39,45.12-6.46,17.27-12.65,34.69-19,52-2.68,7.3-6.35,14.27-8,21.88-4.72,21.75-17.38,39.15-21.65,62.62-7.12-8.93-14.11-16.19-25-15.48,5-17,8.54-34.12,14.76-49.68C726.52,340.85,737.25,294.42,752.79,251ZM744.91,467.7c-6.32,7.21-12.25,15.26-19.4,20.9-7.81,6.16-16.92,9.27-26,3.26q-11.18-7.39-22-15.49a12,12,0,0,1-3.94-6.14c-3.91-15.14-3.79-30.68-2.32-47.21,8.72,6.83,3.62,19.93,10.31,28.6,2.83-.85,6.21-2,9.62-2.87,11.62-2.93,15.81.15,18.9,13.71,2.22,9.73,4.33,11,11.73,5.67,6.66-4.79,13.41-8.81,21.22-8.89,1.45,0,2.89,1,5.09,1.78C746.8,463.81,746.2,466.23,744.91,467.7ZM802.7,311.09c-5.13,15.88-10.54,31.63-15.8,47.45s-10.44,31.56-15.68,47.33-10.43,31.31-15.73,47.21c-4.18-2.11-7.75-4.83-11.6-5.62-4-.82-8.32.22-13.11.49.88-4.11,1.3-8.18,2.6-11.78,20.71-57.27,41.53-114.48,62.45-172H819C814.74,280.86,807.72,295.51,802.7,311.09ZM819,254.24c-18.23-3.41-37.57.2-54.44-11.94-12.47-.44-18.32-13.47-26.71-21.51-5-4.77-4.47-6.71.61-18.23,21.56,33.6,50,48,84.58,44.67C824.55,252.2,822.38,254.88,819,254.24Zm11.17-26.52c-2.62,7.09-8.62,6-13.82,6.43-19.7,1.79-37.37-4.16-52.67-19.63-3.92-4-7.54-9-12.06-11.35-8.67-4.61-8.29-12.94-7.2-23.57,14.27-5.93,28.35-7.75,43-1.67,12.75,5.29,23.13,14.71,33.14,25.12a27.85,27.85,0,0,1,4.72,6.1C828.19,214.76,832.89,220.29,830.14,227.72Z"/><path class="cls-2" d="M752.79,251l32.6,13.87a6.16,6.16,0,0,1,.08,2.69c-5.75,15.06-11.73,30-17.39,45.12-6.46,17.27-12.65,34.69-19,52-2.68,7.3-6.35,14.27-8,21.88-4.72,21.75-17.38,39.15-21.65,62.62-7.12-8.93-14.1-16.19-25-15.48,5-17,8.54-34.12,14.76-49.68C726.52,340.85,737.25,294.42,752.79,251Z"/><path class="cls-3" d="M795.83,264.13H819c-4.22,16.74-11.24,31.39-16.26,47-5.13,15.88-10.54,31.63-15.8,47.45s-10.44,31.56-15.68,47.33-10.43,31.31-15.73,47.21c-4.18-2.11-7.75-4.83-11.6-5.62-4-.82-8.32.22-13.11.49.88-4.11,1.3-8.18,2.6-11.78C754.09,378.9,774.91,321.69,795.83,264.13Z"/><path class="cls-3" d="M729.1,227l16.43,18.33a66.59,66.59,0,0,1-1.6,7c-8.39,24.29-16.9,48.53-25.29,72.83-5.38,15.59-12.48,30.78-15.38,47C700,390.57,689.82,404.51,687,421.87l-15.27-12.49c4.47-11.47,5.89-24.52,12.83-35.13,2.12-3.25,1-9.4,2.38-13.74,3.56-11.17,7.5-22.17,11.62-33.05,3.31-8.76,7.21-16.95,8.83-26.79,1.52-9.25,5.56-17.88,8.24-26.9C720.21,258.2,724.63,242.53,729.1,227Z"/><path class="cls-2" d="M748.09,461c-1.29,2.79-1.89,5.21-3.18,6.68-6.32,7.21-12.25,15.26-19.4,20.9-7.81,6.16-16.92,9.27-26,3.26q-11.18-7.39-22-15.49a12,12,0,0,1-3.94-6.14c-3.91-15.14-3.79-30.68-2.32-47.21,8.72,6.83,3.62,19.93,10.31,28.6,2.83-.85,6.21-2,9.62-2.87,11.62-2.93,15.81.15,18.9,13.71,2.22,9.73,4.33,11,11.73,5.67,6.66-4.79,13.41-8.81,21.22-8.89C744.45,459.23,745.89,460.21,748.09,461Z"/><path class="cls-2" d="M744.39,179.6c14.27-5.93,28.35-7.75,43-1.67,12.75,5.29,23.13,14.71,33.14,25.12a27.85,27.85,0,0,1,4.72,6.1c3,5.61,7.67,11.14,4.92,18.57-2.62,7.09-8.62,6-13.82,6.43-19.7,1.79-37.37-4.16-52.67-19.63-3.92-4-7.54-9-12.06-11.35C742.92,198.56,743.3,190.23,744.39,179.6Zm23,30c3.79,2.94,7,5.49,10.21,7.89,8.81,6.48,19.64,6.2,26.7-.39,3.66-3.41,5.09-7.33,2.9-12.57a66,66,0,0,0-2.78-6.34C799.28,188.86,792,185.56,783,184c-5.49-.95-8.77,0-13.21,3.7-6,5-4.78,10.61-3.31,17C766.89,206.58,767.19,208.54,767.38,209.57Z"/><path class="cls-2" d="M738.43,202.56c21.56,33.6,50,48,84.58,44.67,1.54,5-.63,7.65-4,7-18.23-3.41-37.57.2-54.44-11.94-12.47-.44-18.32-13.47-26.71-21.51C732.84,216,733.35,214.08,738.43,202.56Z"/><path d="M767.38,209.57c-.19-1-.49-3-.93-4.89-1.47-6.37-2.73-12,3.31-17,4.44-3.69,7.72-4.65,13.21-3.7,9,1.56,16.31,4.86,21.44,14.16a66,66,0,0,1,2.78,6.34c2.19,5.24.76,9.16-2.9,12.57-7.06,6.59-17.89,6.87-26.7.39C774.34,215.06,771.17,212.51,767.38,209.57Z"/><path class="cls-4" d="M75.1,597.61c38.67-.81,77.36-1.07,116-1.31,38-.24,76-.49,114-1.32,19.15-.42,38.3-.89,57.43-1.79,19.41-.92,38.8-2.31,58.24-2.31,9.58,0,19.09.78,28.66,1,8,.22,16-.26,24-.73,16.65-1,33.33-.82,50-.82,33.35,0,66.7.31,100,.61l14.26.13c6.58.06,6.58-10.15,0-10.21-34.19-.31-68.38-.67-102.57-.74-16.4,0-32.84-.27-49.23.23-8.2.24-16.37.92-24.56,1.23-8.78.33-17.44-.29-26.2-.66-19.41-.81-38.84.24-58.22,1.28s-38.48,1.7-57.73,2.19c-38,1-76,1.31-114.07,1.56-38.52.26-77,.45-115.56,1.12l-14.55.28c-6.57.14-6.59,10.35,0,10.22Z"/><path class="cls-4" d="M646.27,573.9c-2.38,4.91-4.5,10-3.67,15.54a11.7,11.7,0,0,0,7.92,9.25c3.57,1.3,8.07.73,10.63-2.27a10.14,10.14,0,0,0,2.23-7.39c-.07-1-.23-2.07-.29-3.11,0-.26,0-.51,0-.77s0-.94,0-.39.06-.23.09-.37c.08-.3.29-.8.05-.24a16,16,0,0,0,1.32-3.53,7.46,7.46,0,0,0-.66-4.76A8,8,0,0,0,658.7,572a11.62,11.62,0,0,0-11.62,3.93,15.86,15.86,0,0,0-3.85,11.63,14.27,14.27,0,0,0,2,6.32c1.55,2.45,5.12,3,7.84,2.81,4.79-.36,9.51-3,11.52-7.56s1.84-9.86-1.18-13.83A15.27,15.27,0,0,0,651,569.21a18,18,0,0,0-11.49,4.61,15.51,15.51,0,0,0-5.2,11.2,17.35,17.35,0,0,0,4.71,11.84,16,16,0,0,0,11.58,5.26,16.88,16.88,0,0,0,11.91-5.27,16.28,16.28,0,0,0,4.73-12.1,14.55,14.55,0,0,0-7.08-11.62c-4-2.22-9.15-2-12.42,1.46-2.59,2.71-4,7-2.76,10.66a8.54,8.54,0,0,0,3.87,4.78,4.25,4.25,0,0,0,4.3-7.34c-1-.55.34.4-.11-.05s.46.88,0,0c-.3-.57.23,1,0,0-.12-.61,0,.44,0,.45a2.32,2.32,0,0,1,0-.47c0-.14,0-.33,0-.48,0-.66,0,.31-.07.41a5.73,5.73,0,0,0,.23-1,2.91,2.91,0,0,0,.16-.47c0,.11-.47.91-.11.33.12-.21.77-1.11.33-.63s.2-.2.32-.31c.78-.75-.47.2.1-.09,1-.5-.59.07.09-.09.07,0,.46-.11.47-.13-.13.19-1.14.07-.13,0,.21,0,.43,0,.65,0,.57,0-.68-.25-.17,0,.31.15.73.2,1.07.33-1-.36.14.16.41.32.64.37,0,0-.07-.08.2.18.41.36.61.56s.3.34.46.49c.44.4-.36-.58,0-.07s.5.75.72,1.15c.11.2.2.41.31.61.22.43-.09-.18-.11-.23.14.55.34,1.08.46,1.64.06.3,0,.67,0-.13a4.36,4.36,0,0,0,0,.51c0,.45,0,.89,0,1.33,0,.62.18-.73,0-.14-.06.21-.09.44-.14.65-.13.49-.29.95-.46,1.42.32-.87-.14.22-.29.49s-.4.67-.62,1c-.08.12-.52.68-.17.25s-.12.12-.2.22c-.34.37-.69.73-1.07,1.07l-.51.44c.12-.1.7-.48.06-.06-.37.25-.74.5-1.14.72-.19.11-.39.2-.59.31s-.58.29-.1.06-.13,0-.26.09a8.18,8.18,0,0,1-.8.25c-.43.12-.86.2-1.3.28,1.09-.19-.26,0-.53,0l-.67,0c-.28,0-.72.12.15,0a3.76,3.76,0,0,1-1.26-.28c-.33-.09-1.35-.53-.5-.12-.39-.19-.77-.38-1.14-.59s-.72-.47-1.08-.72c.79.55-.27-.27-.5-.49s-.58-.64-.89-.95.13.19.16.23c-.13-.18-.26-.35-.38-.53-.24-.36-.47-.73-.68-1.11-.1-.19-.19-.39-.3-.58-.39-.7.14.45,0,0a19.5,19.5,0,0,1-.68-2.49c-.1-.5,0,.34,0,.33a2.52,2.52,0,0,1,0-.64c0-.14.08-1.6.06-1.61s-.17.82,0,.33c.06-.21.09-.42.14-.63.1-.4.26-.78.38-1.18.16-.55-.38.63-.06.16.11-.16.18-.36.28-.54.23-.41.49-.78.74-1.17-.51.77.07-.06.32-.33s.5-.51.77-.75l.47-.41c.42-.4-.62.38-.12.1s.78-.52,1.18-.75.74-.38,1.11-.57c-.84.42.08,0,.44-.13s.69-.2,1-.29a6,6,0,0,0,.61-.12c.5-.16-.87.05-.06,0a5.82,5.82,0,0,1,2.46,0c-.05,0-1-.22-.22,0,.2.05.4.08.6.14a10.12,10.12,0,0,1,1.18.38c-.74-.28-.15-.06,0,0,.33.18.66.35,1,.55s.42.27.62.42c-.34-.25-.26-.22,0,0l.52.52c.77.74-.31-.6.27.3.25.39.47.79.68,1.2-.38-.74-.11-.26-.06-.05s.19.67.27,1,0,.75,0-.1c0,.29,0,.58.05.87s0,.34,0,.52c0,1.07.22-.8,0,.24-.12.52-.27,1-.42,1.5s.07-.16.1-.21c-.17.29-.34.61-.5.91s-.47.63.06,0c-.18.22-.38.44-.58.64s-.35.31-.51.47c-.4.4.77-.45-.11.06l-.59.36c-.11.05-1,.45-.43.23s-.18,0-.31.09-.55.16-.83.22-.46.1-.68.13c.58-.09.39-.05-.08,0-.23,0-.46,0-.7,0-.49,0-.64-.09-.07,0a12.15,12.15,0,0,1-1.67-.46l2.55,2c-.14-.22-.26-.45-.4-.67s-.59-.75,0,.05a3.65,3.65,0,0,1-.38-1.17,6.11,6.11,0,0,0-.17-.74c-.21-.54,0,1,0,.06,0-.51-.05-1,0-1.53a2.2,2.2,0,0,1,0-.62l-.07.52c0-.15.05-.31.08-.46.12-.45.21-.9.36-1.34a2.47,2.47,0,0,1,.21-.59c-.4.44-.25.53-.06.17s.54-1,.85-1.46c.15-.25.63-.69,0,0,.14-.15.27-.31.41-.45a5.81,5.81,0,0,1,.43-.43c.05,0,.82-.66.27-.26s.28-.17.33-.2.36-.2.54-.31c.69-.43-.25.17-.26.1a5.53,5.53,0,0,1,.81-.23c.85-.25-.66-.08-.14,0a2.83,2.83,0,0,0,.71,0c.62,0-.14.23-.29-.07,0,0,.46.09.54.11s.92.34.24,0,.19.13.18.14-.79-.72-.29-.21-.53-.82-.11-.09c-.43-.73-.29-.69-.19-.32-.06-.22.08-1.2-.07-.81-.07.18-.33,1,0,.23-.09.24-.22.47-.32.71a12.86,12.86,0,0,0-1.29,5.1,26.18,26.18,0,0,0,.25,3.3c.05.57.1,1.15.1,1.73a6.17,6.17,0,0,1,0,.75c.11-1-.09.11-.16.33.26-.82.14-.35,0-.1-.31.47.74-.77.14-.2-.44.42.33-.17.33-.21a2.2,2.2,0,0,1-.39.25c-.74.34.82-.17.28-.1a2.84,2.84,0,0,0-.57.16c-.43.15-.27-.25.42,0a3.7,3.7,0,0,0-.74,0c-1.16,0,.69.25-.25,0a7.51,7.51,0,0,0-1.13-.33c.19-.12.82.41.28.11l-.59-.31c-.06,0-.54-.37-.56-.36s.8.7,0,0c-.13-.12-.25-.24-.37-.37-.65-.69.07-.08,0,0s-.24-.38-.27-.44c-.5-.87-.13,0,0,.06-.2,0-.47-2.25-.38-1.32a14.46,14.46,0,0,1,0-2.28c0-.74-.24.91.06-.33.11-.42.18-.84.29-1.25.19-.7.42-1.39.66-2.07.1-.27.21-.55.32-.82.32-.85-.1.16.25-.6s.73-1.58,1.11-2.36c1-2,.61-4.69-1.53-5.82-1.9-1-4.78-.61-5.81,1.53Z"/></g></svg>