<svg xmlns="http://www.w3.org/2000/svg" viewBox="0 0 1024.15 1015.24"><defs><style>.cls-1{fill:#f7f0ed;}.cls-2{fill:#1a1a1a;stroke-width:5.67px;}.cls-2,.cls-5{stroke:#282521;}.cls-2,.cls-5,.cls-6{stroke-miterlimit:10;}.cls-3{fill:#ff7b5c;}.cls-4{fill:#282521;}.cls-5,.cls-6{fill:none;}.cls-5{stroke-width:22.68px;}.cls-6{stroke:#000;stroke-width:8.5px;}.cls-7{fill:#a53b3b;}</style></defs><g id="goal"><circle class="cls-1" cx="505.66" cy="508.05" r="502.5"/><path class="cls-2" d="M260,713.13c-.45-1.17-.83-2.14-1.09-2.83a432.21,432.21,0,0,1,45.68-31.72l.88.8c-.37.85-.51,2-1.14,2.51-3,2.68-6,5.31-9.2,7.78-4.58,3.56-9.26,7-13.95,10.42C274.6,704.92,268.48,710.6,260,713.13Z"/><path class="cls-2" d="M206.89,553c.48-1,.74-2.61,1.49-2.88,8.44-3.08,16.83-6.47,26-7.06,5.15-.33,10.3-.64,15.46-.83,1.73-.06,3.48.26,6.47.51a16.3,16.3,0,0,1-10.13,3.53c-9.57.47-18.81,2.62-28,5-3.36.87-6.72,1.78-10.08,2.68Z"/><path class="cls-2" d="M403.53,168.26c-.74-.52-1.91-.9-2.15-1.6-2.73-8-6.41-15.72-7-24.38-.21-2.89-1.52-5.69-2.3-8.54-.42-1.52-.79-3.05-1.35-5.2,3.57,1.08,4.39,3.72,5.05,5.92,2.8,9.33,5.31,18.75,7.87,28.16.43,1.56.62,3.18.91,4.78Z"/><path class="cls-2" d="M224.37,339.33a10,10,0,0,1-2.22.16c-7.83-1.85-15.66-3.71-23.47-5.63a10.54,10.54,0,0,1-3-1.38c-1.8-1.13-1-2.42-.3-3.68C206.87,329.55,220.39,334.3,224.37,339.33Z"/><path class="cls-2" d="M397.82,816.08c4-7.72,10.55-13.36,16.9-19.14.58-.53,1.93-.19,4.35-.36-2.85,3.44-4.87,5.9-6.92,8.33-3.21,3.8-6.39,7.63-9.67,11.36C401.14,817.79,399.55,818.74,397.82,816.08Z"/><path class="cls-3" d="M464.63,327.63c-8.22-1.93-17-.2-24.75,2.81-5.87,2.27-12.57,5-17,9.68-5.52,5.84-8.3,13.8-10.08,21.49a190.35,190.35,0,0,0-4,29.8c-.73,10.46-.94,21-.88,31.45a553.37,553.37,0,0,0,3,57c.65,5.93,1.12,12.09,2.71,17.87,3.16,11.52,6.12,23.14,9.8,34.5,2,6.15,4.22,12.2,6.61,18.2a261.36,261.36,0,0,0,10.45,24c7.5,14.42,17.25,27.76,27.61,40.25a189.22,189.22,0,0,0,14.77,16,106,106,0,0,0,17.54,14.09A58,58,0,0,0,519,652c8,1.62,16.74,2.64,24.9,1.87,9-.84,18-3.23,24.77-9.48,3.71-3.4,6.7-7.72,9.45-11.9,7.26-11,12.74-23.31,17.18-35.68,4.79-13.34,8.21-27.69,8.27-41.93,0-9.32-1.46-18.8-2.8-28s-3.16-18.46-5.42-27.55c-2.17-8.71-4.85-17.28-7.5-25.85-2.56-8.29-5.22-16.55-8.11-24.73-6-17.11-13-34.06-22.13-49.8a169.93,169.93,0,0,0-30.46-39A147.13,147.13,0,0,0,507.4,344.3a124.13,124.13,0,0,0-22.22-11.37,94.48,94.48,0,0,0-20.88-5.73c-3.52-.54-6.64-.58-9.83,1.28a12.76,12.76,0,0,0-4.58,17.45c1.68,2.61,4.42,5.37,7.62,5.87a95.44,95.44,0,0,1,22.59,6.43l-3.05-1.29a114.42,114.42,0,0,1,25,14.8l-2.58-2a143.86,143.86,0,0,1,25.36,25.59l-2-2.58c10.72,13.9,19,29.52,25.79,45.64l-1.28-3c5.18,12.31,9.55,24.94,13.6,37.67,4.19,13.16,8.35,26.37,11.36,39.86q2.65,11.88,4.27,23.94l-.46-3.39c1.44,10.74,2.55,21.37,1.14,32.16l.46-3.39A145.47,145.47,0,0,1,567.19,599l1.29-3c-4.18,9.85-9.09,19.69-15.62,28.22l2-2.59a31.84,31.84,0,0,1-5.32,5.68l2.58-2a18.86,18.86,0,0,1-4,2.25l3-1.28a36.12,36.12,0,0,1-9,2.39l3.39-.46a73.3,73.3,0,0,1-18.36-.46l3.39.46a55.81,55.81,0,0,1-14-3.6l3,1.29a53.86,53.86,0,0,1-11.7-7l2.58,2c-11.31-8.79-20.95-19.8-29.7-31.09l2,2.58a235.56,235.56,0,0,1-14.63-21.12,162.61,162.61,0,0,1-11-21.63l1.28,3a319.33,319.33,0,0,1-12.63-34.73c-1.48-5.06-2.84-10.14-4.22-15.22-1.19-4.37-2.63-8.71-3.61-13.13-.54-2.41-.89-4.87-1.22-7.31l.46,3.39c-1.64-12.33-2.45-24.78-3-37.19-.74-15.71-1-31.46-.34-47.18.33-8.21.9-16.43,2-24.58l-.46,3.39c1-7.15,2.21-14.48,5-21.17l-1.29,3a24.44,24.44,0,0,1,3-5.31l-2,2.58a12.43,12.43,0,0,1,2.15-2.2l-2.58,2a39.41,39.41,0,0,1,8.59-4.65l-3.05,1.29a51.33,51.33,0,0,1,12.42-3.58l-3.39.46a22.68,22.68,0,0,1,5.82-.1l-3.39-.46c.43.07.85.15,1.27.25a13.39,13.39,0,0,0,9.82-1.29,12.74,12.74,0,0,0,4.58-17.45,12.9,12.9,0,0,0-7.62-5.86Z"/><path class="cls-3" d="M340.7,585.33a119.05,119.05,0,0,0,4.66,26.28,158.6,158.6,0,0,0,10,24.71c7.19,14.5,16.36,27.92,25.82,41,9.71,13.46,19.52,26.9,30.12,39.68a209.75,209.75,0,0,0,35.13,34.07,126.94,126.94,0,0,0,46.53,22.06c2.06.5,4.14.93,6.23,1.31,3.43.62,6.72.53,9.82-1.29a12.74,12.74,0,0,0,4.58-17.45c-1.71-2.65-4.4-5.28-7.62-5.86a116.1,116.1,0,0,1-23.93-7.1l3.05,1.28a123.3,123.3,0,0,1-27.07-16l2.58,2c-11.88-9.19-22.25-20.16-31.79-31.72q-4.08-5-8-10l2,2.58c-7.14-9.25-14-18.69-20.86-28.18a334.62,334.62,0,0,1-19.76-30.24,172.54,172.54,0,0,1-8.86-17.87l1.29,3a115.94,115.94,0,0,1-8.16-29l.45,3.39c-.29-2.24-.52-4.48-.67-6.74a13.55,13.55,0,0,0-3.73-9,12.77,12.77,0,0,0-18,0c-2.2,2.4-4,5.66-3.74,9Z"/><path class="cls-3" d="M349.26,227.18a249.18,249.18,0,0,0-56.64,118.5,246.4,246.4,0,0,0-2.8,67.72c2.6,26,8.29,51.57,13.94,77,5.4,24.37,11.25,48.65,17.83,72.73,6,22,12.15,44.08,20.46,65.29a209.74,209.74,0,0,0,24.75,45.91c9.86,13.79,20.5,27.13,31.11,40.35a167.63,167.63,0,0,0,29,28.79c14.31,10.94,30.56,18.7,47.13,25.58,5.21,2.17,10.47,4.19,15.77,6.14,6.27,2.3,14.24-2.58,15.69-8.91,1.64-7.21-2.19-13.23-8.91-15.69q-8-2.93-15.77-6.14c-2.1-.85.35.18.64.28-.66-.22-1.31-.56-2-.84l-3.42-1.51q-3.25-1.45-6.48-3a185.57,185.57,0,0,1-21.47-12Q446,726,444,724.55c-.71-.5-1.41-1-2.11-1.53-.89-.65-3.63-2.9-.12-.06-2.53-2-5-4.08-7.44-6.27a151.18,151.18,0,0,1-12.78-13.28c-4.1-4.77-8-9.72-11.83-14.68q-3.1-4-6.24-8c-1.1-1.41-2.22-2.82-3.33-4.23l-2.46-3.15c-.49-.63-1.87-2.28.14.2-.44-.54-.85-1.11-1.27-1.66-10.19-13.31-19.6-27.13-26.59-42.4-.42-.92-.83-1.84-1.24-2.77s-1.54-3.87-.06-.1c-.82-2.1-1.71-4.17-2.52-6.27-1.63-4.22-3.14-8.49-4.59-12.78-3.73-11-7.09-22.19-10.34-33.38-6.86-23.64-12.94-47.51-18.52-71.49s-11.13-48-15.08-72.33c-.47-2.87-.89-5.75-1.31-8.62-.27-1.9.28,2.24.05.34-.1-.85-.22-1.7-.32-2.54-.21-1.7-.4-3.4-.58-5.1-.61-5.86-1-11.75-1.22-17.64a229.09,229.09,0,0,1,1.15-31.32c.12-1.15.25-2.31.39-3.46l.21-1.73c.29-2.36-.16.6-.1.8-.24-.92.42-2.91.57-3.88.22-1.43.46-2.87.71-4.3q1.35-7.72,3.22-15.34a239.05,239.05,0,0,1,9.42-29.91c.48-1.22,1-2.43,1.45-3.64.22-.54.48-1.07.67-1.62-1,2.86-.56,1.31-.27.64,1.1-2.53,2.22-5,3.4-7.55q3.35-7.1,7.15-14a230.71,230.71,0,0,1,16.75-26c.43-.59.87-1.17,1.31-1.74.28-.37,1.48-1.87.33-.44-1.33,1.65.48-.6.61-.77l1.09-1.36c1.64-2,3.32-4,5-6,4.35-5.05,5.33-13.14,0-18-4.78-4.39-13.39-5.4-18,0Z"/><path class="cls-3" d="M317,290.67a818.47,818.47,0,0,0-7.15,86.24c-.94,27.95-.93,55.92-.9,83.88,0,13.51.18,27.06,1.81,40.49a166.81,166.81,0,0,0,9.91,40.9c9.88,25.31,24.29,48.47,38.28,71.64q21.5,35.64,44.09,70.59,2.81,4.35,5.64,8.69c3.64,5.58,11.47,8.43,17.45,4.57,5.58-3.59,8.47-11.47,4.58-17.45-23.91-36.69-47.38-73.82-69-111.89A301.1,301.1,0,0,1,346,537.27l1.28,3.05a159.19,159.19,0,0,1-11.17-40.2l.46,3.39c-1.73-13-2-26.2-2.09-39.34q-.08-20,.06-40c.15-27,.68-53.95,2.5-80.86,1-15.17,2.49-30.32,4.5-45.4l-.46,3.39c.18-1.28.35-2.55.53-3.83.5-3.55.6-6.6-1.29-9.83A12.76,12.76,0,0,0,322.87,283c-2.58,1.67-5.41,4.43-5.86,7.63Z"/><path d="M493.06,776,557,756.33"/><path class="cls-4" d="M495.33,784.15l49.84-15.3,14.08-4.32c4.24-1.31,7.38-6,5.94-10.46-1.39-4.28-5.91-7.34-10.46-5.94l-49.85,15.3-14.08,4.32c-4.24,1.31-7.38,6-5.94,10.46,1.39,4.28,5.91,7.34,10.47,5.94Z"/><path d="M357.28,223.14c13.39-.68,38.75-5.88,62.7-5.88"/><path class="cls-4" d="M357.28,231.65c6.83-.36,13.62-1.4,20.4-2.3,8.76-1.15,17.53-2.26,26.35-2.93,5.3-.41,10.62-.65,16-.66,4.45,0,8.71-3.91,8.5-8.5a8.65,8.65,0,0,0-8.5-8.51c-17.54,0-34.84,2.75-52.2,4.88-3.49.42-7,.82-10.5,1-4.43.23-8.72,3.74-8.5,8.5.19,4.41,3.74,8.76,8.5,8.51Z"/><path class="cls-5" d="M631.52,443.4c41.17,140,16.62,284.2-59.28,306.53s-174-80.14-215.58-225.69c-40.11-140.29-14.32-279,61.58-301.31S590.35,303.42,631.52,443.4Z"/><ellipse class="cls-6" cx="507.22" cy="483.76" rx="71.97" ry="151.93" transform="translate(-114.61 160.31) rotate(-16.16)"/><path class="cls-3" d="M536.75,481.34c5.59,22.21,2.16,39.2-7,41.58s-22.67-13.56-28-34.14-.49-38,8.73-40.4S531.56,460.73,536.75,481.34Z"/><path class="cls-7" d="M354,229.46a5.55,5.55,0,1,0-5.54-5.55,5.6,5.6,0,0,0,5.54,5.55Z"/><path class="cls-4" d="M347.47,218.05a164.61,164.61,0,0,0-45.37,53c-8.62,15.82-15.66,33-19,50.8a359.85,359.85,0,0,0-5.34,48.68,551.05,551.05,0,0,0,.3,61.1,461,461,0,0,0,8.44,66.11c4.4,21.25,11.42,41.68,19,62,15.92,42.9,35.35,84.72,61.64,122.31a401.88,401.88,0,0,0,46.41,55.27c8.41,8.34,17.12,16.49,26.22,24.07s18.87,14.73,29.8,19.54a83.3,83.3,0,0,0,17.24,5.67c4.35.87,9.4-1.25,10.47-5.94,1-4.23-1.28-9.53-5.94-10.46C480,768,471.56,763.76,461.86,757.1a129.62,129.62,0,0,1-12.22-9.47c-4.27-3.64-8.41-7.42-12.52-11.24-8.77-8.14-17.28-16.52-25.33-25.36q-5.93-6.51-11.55-13.28c-3.54-4.26-6.93-8.52-9.72-12.22a427.32,427.32,0,0,1-35.89-56.38,560.67,560.67,0,0,1-27.25-59.38c-7.88-20-15.59-40.38-21-61.22-2.61-10.09-4.69-20.32-6.39-30.61-1.72-10.49-2.76-18.92-3.79-30.24a547.88,547.88,0,0,1-2.07-61.44c.2-9.22.62-18.45,1.32-27.65q.47-6,1.09-12.08c.2-1.83.4-3.66.63-5.49q.15-1.32.33-2.64a9.05,9.05,0,0,1,.15-1.15c-.58,2.29-.08.62,0,0a165.42,165.42,0,0,1,11.53-42.06c-.49,1.16.25-.55.37-.82.29-.67.59-1.35.9-2,.48-1.08,1-2.15,1.48-3.22,1.27-2.66,2.59-5.3,4-7.9,2.63-4.94,5.49-9.76,8.57-14.42a136.24,136.24,0,0,1,9.16-12.41,146,146,0,0,1,11-11.89q2.85-2.74,5.84-5.32c2.13-1.83,4.06-3.37,5.49-4.45,3.67-2.76,5.56-7.35,3.05-11.64-2.11-3.61-7.94-5.82-11.63-3Z"/><path class="cls-4" d="M381.18,214.44c-16.87,21.49-33.35,43.06-45.56,67.62-6,12.16-11.47,24.81-14.4,38.11a337.49,337.49,0,0,0-5.94,37.55c-5,47.66,0,96.11,10.91,142.63,9.61,40.77,24,80.41,41.85,118.27,11.3,24,23.81,48.08,39.54,69.51,27.2,37.06,66,64.51,110.43,76.73,5.43,1.49,10.93,2.73,16.47,3.77,4.35.81,9.38-1.21,10.46-5.94.95-4.18-1.27-9.59-5.94-10.46a198.31,198.31,0,0,1-32.39-8.89q-3.51-1.3-7-2.73c1.33.54-.32-.14-.64-.28l-1.9-.83q-2.09-.93-4.14-1.9-7.29-3.47-14.27-7.51-7.15-4.15-13.92-8.91-3.22-2.26-6.34-4.65c-1.25-.95,1.5,1.21-.57-.45l-1.3-1q-1.94-1.56-3.84-3.16a197.64,197.64,0,0,1-23-23c-1.82-2.15-3.6-4.33-5.33-6.56l-.22-.29-1-1.36-1.38-1.86q-1.94-2.69-3.79-5.42c-3-4.43-5.86-8.95-8.64-13.52-7.54-12.39-14.46-25.17-20.92-38.16q-5.86-11.78-11.22-23.8c-.91-2-1.8-4.09-2.69-6.14-.48-1.1-1-2.2-1.41-3.29l-.57-1.33c.74,1.73-.11-.27-.27-.65q-2.85-6.84-5.55-13.76A586.94,586.94,0,0,1,346.93,513q-4.32-15.93-7.64-32.13-1.73-8.47-3.16-17-.69-4.08-1.3-8.17l-.57-3.9s-.39-2.88-.17-1.21c-.12-.87-.23-1.74-.34-2.62a403,403,0,0,1-3-70.31q.44-8.83,1.29-17.63c.29-2.87.6-5.74,1-8.6.08-.6.15-1.21.23-1.81a12.36,12.36,0,0,1,.19-1.36c.22-1.51.43-3,.67-4.53,1.94-12.57,4.42-25,9-36.95,8.91-23.21,23.53-45.61,38.94-65.87,3.66-4.81,7.24-9.37,11.18-14.4,2.74-3.49,3.67-8.66,0-12-3.05-2.81-9.09-3.74-12,0Z"/><path d="M870.11,382.64a254.62,254.62,0,0,1,41.55-33.42"/><path class="cls-4" d="M876.12,388.66a256.75,256.75,0,0,1,23.81-20.89l-1.72,1.33q8.6-6.63,17.74-12.53c3.74-2.41,5.62-7.66,3-11.64-2.4-3.73-7.63-5.63-11.63-3.05a267.58,267.58,0,0,0-43.28,34.75c-3.16,3.14-3.37,8.93,0,12a8.67,8.67,0,0,0,12,0Z"/><path d="M874.59,387.75c9.77,3.92,24.95,12.41,42.3,21.85"/><path class="cls-4" d="M872.33,396c.5.2,1,.41,1.51.63l-2-.86c6.12,2.6,12,5.69,17.89,8.81,7.67,4.06,15.27,8.26,22.9,12.42,3.9,2.12,9.44,1.09,11.63-3.05,2.1-4,1.12-9.37-3.05-11.64-8-4.38-16.06-8.82-24.17-13.1a217.52,217.52,0,0,0-20.16-9.61c-1.92-.77-4.86-.14-6.56.86a8.52,8.52,0,0,0-3,11.63,9.92,9.92,0,0,0,5.09,3.91Z"/><path d="M894.26,379.72a130.92,130.92,0,0,1,36.1-25.1"/><path class="cls-4" d="M900.27,385.74A134.39,134.39,0,0,1,912,375.5l-1.72,1.33A132.67,132.67,0,0,1,934.65,362a8.56,8.56,0,0,0,3.91-5.08,8.66,8.66,0,0,0-.86-6.55,8.54,8.54,0,0,0-5.08-3.91,9.51,9.51,0,0,0-6.55.86,138.94,138.94,0,0,0-37.82,26.43c-3.19,3.12-3.36,8.94,0,12a8.67,8.67,0,0,0,12,0Z"/><path d="M889.53,380c2.09-2,5.53-1,8.19.22l23.92,10.62"/><path class="cls-4" d="M895.55,386l.26-.23-1.72,1.33a5.33,5.33,0,0,1,.88-.54l-2,.86a5.87,5.87,0,0,1,1.31-.34l-2.26.31a8.14,8.14,0,0,1,1.78.06l-2.26-.31a16.79,16.79,0,0,1,3.61,1.12l-2-.86c8.11,3.54,16.18,7.18,24.26,10.77a9.28,9.28,0,0,0,6.56.86,8.52,8.52,0,0,0,5.94-10.46c-.64-2-1.93-4.2-3.91-5.08l-18.51-8.22c-3.25-1.44-6.51-3.2-9.92-4.19a14.33,14.33,0,0,0-14,2.9c-3.33,3-3.25,9,0,12a8.7,8.7,0,0,0,12,0Z"/><path d="M851.57,384.94c10.32-12.53,17.71-19.92,29.69-31.63"/><path class="cls-4" d="M857.58,391a405.19,405.19,0,0,1,29.7-31.63c3.18-3.11,3.35-8.94,0-12a8.66,8.66,0,0,0-12,0,405.17,405.17,0,0,0-29.7,31.62,9.19,9.19,0,0,0-2.49,6,8.68,8.68,0,0,0,2.49,6,8.56,8.56,0,0,0,6,2.49c2.12-.09,4.6-.78,6-2.49Z"/><path d="M850.13,387.5C873,405.66,873,405.66,887.66,420.73"/><path class="cls-4" d="M844.12,393.51c10.11,8,20.37,15.92,29.52,25.07,2.69,2.7,5.34,5.43,8,8.16,3.11,3.2,9,3.36,12,0a8.66,8.66,0,0,0,0-12c-4.2-4.31-8.36-8.67-12.76-12.78-4-3.76-8.26-7.25-12.54-10.7q-6.09-4.9-12.23-9.75c-1.83-1.46-3.57-2.5-6-2.5a8.63,8.63,0,0,0-6,2.5,8.53,8.53,0,0,0-2.49,6c.09,2.1.76,4.64,2.49,6Z"/><path class="cls-4" d="M527.29,492.37l73.65-21.05,74-21.14,73.65-21.05,73.65-21,74-21.15,9.07-2.59c4.27-1.22,7.36-6.06,5.94-10.46A8.65,8.65,0,0,0,900.81,368l-73.65,21-74,21.15L679.5,431.19l-73.65,21-74,21.15L522.77,476c-4.28,1.22-7.37,6.06-5.94,10.46a8.65,8.65,0,0,0,10.46,5.94Z"/></g></svg>