<svg xmlns="http://www.w3.org/2000/svg" viewBox="0 0 1024.15 1015.24"><defs><style>.cls-1{fill:#f7f0ed;}.cls-2{fill:#ff7b5c;}.cls-3{fill:#1a1a1a;}</style></defs><g id="learning"><circle class="cls-1" cx="512.65" cy="509.5" r="502.5"/><path d="M524.52,158.69l23.94,4.79a5,5,0,0,0,3.86-9.14,29.13,29.13,0,0,0-26.14-3.75A5.06,5.06,0,0,0,524,159c4.86,5,12.18,4.93,17.92,1.39,6.64-4.09,8.7-11.64,9-19,.34-9-.21-17.43,2-26.25a73.06,73.06,0,0,1,11.71-24.76c3.47-4.82-3.83-9.66-7.85-6.06-18.13,16.23-6.37,42.63-16.53,62.11h8.63c-7.72-16.22-4.5-36.42,7.64-49.59l-7.08-7.07a111,111,0,0,0-21.94,47.68c-1.47,7.88-2.52,16.73,1.77,24a16.85,16.85,0,0,0,18.46,8.12,5,5,0,0,0,3.49-3.5c3.64-14.15-.91-28-.76-42.24.08-6.75,1.77-13.65,7.21-18.13,5.2-4.28,12.55-5.64,19.1-4.64,15,2.28,25.56,16.08,31.84,28.86a84.57,84.57,0,0,1,7.53,47.93l9.82-1.33-6.72-31.91-9.64,2.66c3,7.57-.84,15.83,1.08,23.7,1.61,6.58,6.75,12,13.88,12,19.46-.26,17.84-25.31,17.9-38.43.09-16.32,1.83-34.3-5.22-49.54-6.73-14.52-21.72-20.8-36.67-23.17-17.9-2.85-37.8-3-53.15,8l6.06,7.85A52.14,52.14,0,0,1,586,70c6.17-.76,13.16-.68,18.87,2s9.06,8.45,11.64,14.05c11.93,25.83,15.06,56.09,10.33,84l9.82,1.33-8.11-62.69-3.8-29.39c-.68-5.23-1.33-10.46-2-15.68-.45-3.38-1-6.83-3.33-9.49-5.25-6-17.19-4.56-24.33-4.52-8.51.06-17.11,1.07-25,4.38-14.21,6-24.81,20.59-21.47,36.33.59,2.81,3.62,3.94,6.15,3.49,6.1-1.1,8.39-6.43,13.55-8.82,3.19-1.48,7.14,1.08,10,2.41a104.5,104.5,0,0,1,10.94,5.75c13.3,8.13,24.11,21.41,22,37.82h10a239.47,239.47,0,0,0,.41-49.86c-1.11-11.19-.57-31.5-16.82-29-24.74,3.76-46.79,21.5-56.85,44.21l9.32,2.52c.93-12.15,15.79-13.75,24.92-11.2,8.63,2.42,20.84,8.3,21.24,18.65.2,5.41,8.57,7.06,9.82,1.33,2-9.18,3.22-23.51-3.46-31.24C604,69.6,592,70.59,584,71.88c-18.33,3-35,15.65-42.27,32.75l9.13,1.19c-2.43-9.23.54-18.32,4.46-26.69,1.68-3.59,3.48-7.16,5.47-10.59,2.47-4.27,5.25-6.12,10.07-7.17A177.3,177.3,0,0,1,597.43,58c4.28-.27,10.43-1.46,14.5.28,3.45,1.47,5.26,5.22,7,8.3a156.91,156.91,0,0,1,18.7,98.59c-.89,6.29,8.74,9,9.64,2.65A169,169,0,0,0,633.8,73.69c-3-6.65-6.32-13.93-11.1-19.54-5.13-6-12.15-6.73-19.59-6.47a224.56,224.56,0,0,0-26.78,2.61c-7.37,1.15-15.29,2.12-20.52,8-5.54,6.23-9.16,15.11-12.16,22.79-3.45,8.82-4.88,18.12-2.44,27.39,1,3.8,7.39,5.3,9.14,1.19a47,47,0,0,1,29.39-26.54c6.1-1.87,13.53-3,19.83-1.46,7.51,1.87,5.28,17.91,4.1,23.33l9.83,1.33c-1.21-31.37-63.37-43.87-66.16-7.45-.36,4.79,7.32,7.05,9.32,2.53A67.79,67.79,0,0,1,601.8,63c1.82-.46,5.48-1.84,6.86-.63s1.37,6,1.65,7.8c1,6.84,1.72,13.74,2.12,20.64A240.9,240.9,0,0,1,611.28,131c-.71,6.44,9.18,6.26,10,0,2.51-19.15-10.16-35.76-25.52-45.59a100.67,100.67,0,0,0-12.33-6.61c-4-1.82-8.45-4.23-12.93-4.31a15.06,15.06,0,0,0-9.62,3.6c-2.81,2.17-5.11,5.45-8.76,6.11l6.15,3.49c-2.94-13.9,10.77-24,22.67-26.67,7.19-1.65,14.71-1.52,22-1.19,3.23.14,8.12-.63,9.54,2.62,1.31,3,1.09,7.78,1.51,11l12.67,98c.65,5,8.79,7.46,9.82,1.33a162.16,162.16,0,0,0,.59-51.28c-2.31-15.44-6.59-32.29-14.71-45.8-16.85-28-58.18-15.41-76,4.77-3.53,4,1.16,11.35,6.06,7.85,13.53-9.66,31.17-9.48,46.95-6.74,7.49,1.3,15.38,3.35,21.45,8.17s9.11,12.13,10.5,19.67c1.46,7.93,1.19,16.12,1.15,24.14,0,9.33.7,19.07-.34,28.35-.42,3.72-1.44,8.07-5,10-3.94,2.18-6.33-.56-7-4.37-1.38-7.8,2.16-15.32-.94-23.06-2.36-5.88-11-3.77-9.64,2.66l6.71,31.91c1.27,6,9.18,3.79,9.83-1.33,3.49-27.47-5.6-60-28.11-77.67-10-7.88-23.18-11.72-35.7-7.94-12,3.64-19.86,13.47-21.46,25.83-1.94,15.11,4.55,30.39.71,45.35l3.49-3.5c-6.76,1.67-9-7-8.87-11.91.1-6,1.65-12.12,3.32-17.85a100,100,0,0,1,17-33.29c3.83-4.93-2.6-11.93-7.08-7.07a55.89,55.89,0,0,0-9.19,61.71c1.6,3.36,7,3.17,8.63,0,5.12-9.81,5.64-20.73,6.13-31.56.45-10.15.74-21.27,8.84-28.53L556,85.27a80.93,80.93,0,0,0-14.62,37.65c-.81,6.7,0,13.37-.57,20-.28,3.05-.94,6.35-3.45,8.35-1.83,1.47-4.47,2.43-6.29.56l-2.21,8.36A19.69,19.69,0,0,1,547.27,163l3.85-9.14-23.94-4.78c-6.29-1.25-9,8.38-2.66,9.64Z"/><path d="M773.26,629.78a146.48,146.48,0,0,0,18,28.56c1.57,2,5.5,1.93,7.07,0l19.13-23.68c2.17-2.7,1.82-7.51-2.21-8.36a13.3,13.3,0,0,0-9.27,1.12l7.34,5.65,4.36-12.92c1.54-4.57-3.72-7.24-7.34-5.64l-26,11.44c-5.13,2.26-1.41,11.28,3.85,9.14a366.69,366.69,0,0,0,36.72-17.28c5.14-2.79,1.54-10.35-3.85-9.14a68.25,68.25,0,0,0-21.9,9,70.64,70.64,0,0,0-8.69,6.62c-.76.67-8.32,8.3-8.87,6.32-1.73-6.37-10.57-3.55-9.64,2.66a43.87,43.87,0,0,0,8.64,20.33c2.16,2.82,6.63,3.61,8.63,0a118,118,0,0,0,10.71-26.19l-9.82-1.33L789.67,638l9.31-2.53A46.66,46.66,0,0,0,789.14,622l1.29,4.86.5.07-3.49-3.49,3.35,17.24c1.23,6.31,10.87,3.64,9.64-2.66l-3.35-17.24a4.89,4.89,0,0,0-3.49-3.49c-5.87-1.46-10.64,1.46-12.8,6.91a4.9,4.9,0,0,0,1.28,4.87,38.88,38.88,0,0,1,8.28,11.41c2.28,4.71,9.14,2.1,9.32-2.52l.44-11.85c.21-5.69-8.34-6.72-9.82-1.33a107.38,107.38,0,0,1-9.7,23.81h8.63a38.07,38.07,0,0,1-7.63-18L772,633.3a10.2,10.2,0,0,0,9.18,7.55c5.28.51,9.34-2.67,12.93-6.14,8.48-8.19,18.08-13.8,29.65-16.4l-3.85-9.14a343,343,0,0,1-34.34,16.28l3.86,9.14,26-11.45-7.34-5.64-4.36,12.91c-1.52,4.51,3.71,7.34,7.35,5.65l1.56-.12-2.2-8.36L791.3,651.26h7.07a135.68,135.68,0,0,1-16.48-26.52c-2.77-5.81-11.39-.74-8.63,5Z"/><path d="M797.91,634,791.3,656.1c-1.24,4.14,3.65,7.93,7.34,5.65a26.34,26.34,0,0,0,11.76-29.06c-1-4-5.57-4.46-8.36-2.21-8.47,6.84-11.84,17.8-9.58,28.31,1,4.51,6.88,4.5,9.14,1.2A388.13,388.13,0,0,0,825,620.9c3-5.7-5.65-10.76-8.63-5A388.22,388.22,0,0,1,793,654.94l9.14,1.2c-1.55-7.25,1.34-14,7-18.59l-8.36-2.2a16,16,0,0,1-7.15,17.76l7.34,5.65,6.61-22.06c1.85-6.18-7.8-8.82-9.64-2.66Z"/><path d="M663.79,196.54l28,41.93a5.08,5.08,0,0,0,8.64,0,32.08,32.08,0,0,1,17.34-13.25c5.53-1.87,11.95-5.2,10.2-12.25-1.59-6.37-10.15-9.25-15.57-11.15a58.73,58.73,0,0,0-23.71-3c-3,.22-6,3.05-4.82,6.33a48.49,48.49,0,0,0,9.45,16l6.05-7.85a65.34,65.34,0,0,1-28.08-30.48l-6.84,6.84a64.78,64.78,0,0,1,30.8,34.12,5.1,5.1,0,0,0,7.34,3l9.48-4.62c2.71-1.32,3.42-5.91,1-7.86a239,239,0,0,0-58.25-34.79c-5.93-2.48-8.52,7.19-2.66,9.65A221.66,221.66,0,0,1,706,221.38l1-7.85-9.48,4.63,7.34,3a75.15,75.15,0,0,0-35.39-40.09c-4.67-2.43-8.89,2.35-6.84,6.84A74.16,74.16,0,0,0,694.29,222c5.09,2.81,9.77-3.63,6.06-7.86a35.45,35.45,0,0,1-6.88-11.62l-4.82,6.33a50.89,50.89,0,0,1,17.84,1.63,45.53,45.53,0,0,1,8.21,3.13c1.11.56,2.16,1.37,3.29,1.83.82-1.23.81-1.55,0-.94a5.85,5.85,0,0,1-1.72.74c-10.26,4-18.37,8.7-24.5,18.21h8.64l-28-41.93c-3.55-5.33-12.22-.33-8.64,5Z"/><path class="cls-2" d="M172.68,501.15c21.6-14.39,25.2-10.8,46.79-25.19,17.81-11.87,4.33-74.92,4-96.32a330.19,330.19,0,0,1,39.79-162.27c5.06-9.3,10.87-18.68,19.76-24.4,10.44-6.72,23.52-7.42,35.92-7.93,49-2,98.26-3.94,146.85,2.54,18.18,2.42,36.6,6.17,52.48,15.35,13,7.51,23.76,18.36,33.35,29.91C589.53,278.49,611,336,621.76,394.4s11.61,118.07,12.38,177.42q1.86,143.7,3.73,287.39c.07,6,.09,12.29-2.62,17.66-5.35,10.6-19,13.65-30.9,13.7-26.92.12-52.94-8.81-78.57-17-88.42-28.42-246.9-66.77-338.7-80.84-20.39-3.13-26.2-59.28-27-68.39-6.75-77.06,4.1-91.61,19.79-167.36-14.53-5.18-9-32.39-7.2-55.79"/><path class="cls-3" d="M193,502.09a134.75,134.75,0,0,1,19.3-10.82c5.28-2.36,10.63-4.51,15.73-7.25,5.45-2.92,12-6,16-10.92a31.39,31.39,0,0,0,5.85-12.78c2.62-11.27,2.21-23.22,1.46-34.68-.78-11.86-2.29-23.65-3.57-35.46-3.35-30.93.18-62.85,7.22-93.05a326.7,326.7,0,0,1,17-52.71c3.56-8.45,7.52-16.74,11.8-24.84,3.88-7.33,7.88-14.88,13.72-20.86,12.25-12.53,30.9-11.65,47.11-12.29,20.35-.81,40.72-1.54,61.09-1.57s40.67.61,60.91,2.55c18.58,1.78,37.68,4.15,55.14,11.1,16.59,6.62,29.76,18.62,41.2,32a269,269,0,0,1,29.34,42.36c17.26,30.51,29,63.83,36.92,97.9,18,77.7,16.07,158.6,17.1,237.85,1.06,82.17,2.31,164.35,3.2,246.53.08,7.42.09,15.47-6.49,20.28-5.46,4-12.76,5.1-19.35,5.31-19.1.62-38-4.13-56.18-9.59-27.63-8.31-55-17.3-82.79-25.08Q394,820.75,301.81,801.19c-27.73-5.92-55.55-11.47-83.53-16.1-2.75-.45-5.5-.9-8.26-1.33-1.48-.24-3-.39-4.48-.71l-.94-.22c-.3-.09-.61-.19-.91-.3.63.28.64.28,0,0A8.78,8.78,0,0,1,200.4,780a21.64,21.64,0,0,1-3.66-5c-5-8.56-7.56-18.76-9.62-28.61-1-4.91-1.87-9.85-2.58-14.82-.26-1.77-.36-2.53-.65-5-.17-1.49-.33-3-.48-4.46a431.47,431.47,0,0,1-2.21-45c.18-25.59,5-50.14,10.85-74.95,3.75-15.88,7.45-31.77,10.77-47.74a5.93,5.93,0,0,0-4-7.06c-2-.77-3.32-2.8-4.12-5.33a40.52,40.52,0,0,1-1.41-12.6c.09-10.81,1.69-21.56,2.54-32.33.58-7.36-10.9-7.32-11.48,0-1,12.28-3.11,24.69-2.44,37,.56,10.22,3.55,20.29,13.85,24.28l-4-7.05c-6.1,29.35-14.65,58.39-19.09,88.07-4.17,27.83-3.52,56.2-.59,84.14a254.55,254.55,0,0,0,4.28,27.33c2.3,10.59,5.31,21.72,11.12,31,2.52,4,5.78,8,10,10.29,4.62,2.52,10.13,2.71,15.22,3.54,13.46,2.19,26.88,4.63,40.27,7.2,62.73,12,125,26.69,186.79,42.89,28.5,7.48,56.91,15.32,85.09,23.94,15.35,4.7,30.53,10,46,14.35,18.09,5.13,37.86,9.67,56.79,7.88,7.66-.72,15.64-2.53,22-7.17,7.06-5.2,10.42-12.57,11.22-21.18.91-9.74.06-19.83-.07-29.6l-.42-32.4q-.81-62.7-1.63-125.38-.81-63.22-1.65-126.43c-.61-41.4-1.71-82.89-6.73-124-8.83-72.33-30.43-145.3-78-202-11.83-14.09-25.62-26.88-42.63-34.37-17.54-7.71-36.52-10.61-55.43-12.74-41.18-4.63-82.71-3.59-124-2-17.63.69-38.38-.61-53.63,9.89-14.66,10.1-22.67,28.2-29.94,43.84A339.61,339.61,0,0,0,236.81,336.6c-1.6,15.37-2.6,31.17-1.24,46.6,1,11.59,2.64,23.12,3.66,34.72s2,24.35.3,35.44a48.55,48.55,0,0,1-1.38,6.33,17,17,0,0,1-2.31,5.23c-.09.16-1.09,1.44-.26.44-.26.31-.53.6-.8.89s-.56.54-.85.8c1.39-1.22-1.56,1-1.08.69-3.58,2.36-7.25,4.58-11,6.59-5,2.64-10.19,4.73-15.32,7a133.25,133.25,0,0,0-19.3,10.82c-6.14,4.06-.4,14,5.79,9.91Z"/><path class="cls-3" d="M232.82,476a50.89,50.89,0,0,0,11.66,7c5.73,2.61,11.63,4.83,17.59,6.86,14.24,4.86,28.8,8.79,43.39,12.48,15.07,3.82,30.23,7.31,45.41,10.66,11,2.42,22,4.72,33,7.09,10.15,2.19,20.28,4.45,30.44,6.61,4.28.91,8.55,1.8,12.84,2.67,1.28.26,2.56.52,3.82.87,2.29.64,4.56,1.32,6.85,2,7.29,2,14.61,4,21.94,6q24.5,6.55,49.07,12.9l17.35,4.49a5.74,5.74,0,1,0,3.05-11.06q-28.75-7.44-57.47-15c-9.11-2.41-18.21-4.84-27.29-7.36q-4.75-1.32-9.49-2.7c-1.14-.33-2.28-.62-3.44-.86-3.11-.65-6.23-1.27-9.34-1.93-9.08-1.9-18.13-3.87-27.19-5.85-10.17-2.23-20.36-4.38-30.54-6.57-14.55-3.14-29.07-6.39-43.53-9.89-15.16-3.66-30.28-7.54-45.18-12.11-6.31-1.94-12.58-4-18.74-6.35-1.34-.52-2.68-1.05-4-1.6l-.89-.37c1.86.76.71.3.27.11-.63-.27-1.27-.55-1.89-.84a69.19,69.19,0,0,1-6.2-3.13c-.8-.46-1.58-.94-2.34-1.45l-1.09-.76c-.89-.63.85.68.58.45l-.49-.4c-2.3-1.92-5.89-2.42-8.12,0-1.94,2.12-2.46,6.06,0,8.12Z"/><path class="cls-3" d="M192.24,507c21.36,7,42.73,14,64.19,20.68q31.67,9.86,63.62,18.7c23,6.37,46.08,12.56,69.33,18,16.69,3.9,33.48,7.28,50.36,10.28,19.87,3.53,39.78,6.79,59.66,10.3q4.73.82,9.45,1.68c2.94.52,6.32-.8,7-4,.64-2.8-.84-6.5-4-7.06-21-3.75-42-7.23-62.95-10.89-16.66-2.91-33.27-6.08-49.78-9.82-22.55-5.1-44.91-11-67.21-17.11q-32.68-8.94-65.1-18.86c-21.06-6.47-42-13.29-63-20.14l-8.61-2.82a5.8,5.8,0,0,0-7.06,4,5.87,5.87,0,0,0,4,7.06Z"/><path class="cls-3" d="M564.68,597.78c-6.87,2.34-12.45,6.79-18.37,10.83-1.46,1-2.94,2-4.47,2.86s-3.18,1.59-4.76,2.42c1.58-.82.22-.11-.19,0s-.85.31-1.28.45c-.87.28-1.76.52-2.65.72-.45.1-.91.19-1.37.27l-.7.11c.94-.12,1.09-.14.46-.07-1,.08-2,.15-2.93.16-3.94,0-6.26,3.63-5.54,7.26,1.18,5.89,2.24,11.8,3.27,17.72s2,12,3,18q.42,2.66.81,5.31c.12.8.23,1.6.34,2.4.16,1.11,0,.13,0-.08.1.64.17,1.28.25,1.92q.63,5.05,1.06,10.12c2.42,27.58,1.13,55.3,1.79,82.94a337.91,337.91,0,0,0,4.08,47.33c.49,3,4.32,4.9,7.06,4,3.21-1,4.54-3.88,4-7.06-.29-1.75-.57-3.51-.82-5.27-.05-.32-.09-.64-.14-1s-.28-1.82,0-.39c-.16-1-.25-1.93-.37-2.89q-.6-5-1-10.11c-.58-6.91-.94-13.85-1.15-20.78-.43-13.75-.31-27.51-.34-41.27s-.2-27.66-1.23-41.45-3.17-27.36-5.49-40.94c-1.23-7.21-2.5-14.42-3.94-21.6L528.42,627a38.33,38.33,0,0,0,18.78-5.41c4.79-2.74,9.08-6.23,13.71-9.22,1.27-.81,2.56-1.59,3.89-2.29.63-.32,1.29-.6,1.92-.92s-.75.3-.67.28l.55-.23,1.14-.41c2.83-1,5-4,4-7.06-.91-2.81-4-5-7.06-4Z"/><path class="cls-3" d="M523.72,173.25a238.25,238.25,0,0,0,29.54,5,31.66,31.66,0,0,0,6.3.38,10.72,10.72,0,0,0,8.31-4.51c2.73-4,1.63-9.76,1.29-14.26-.69-9.31-1.81-18.59-2.14-27.92a113.32,113.32,0,0,1,.25-13.79c.1-1.13.23-2.26.36-3.4.08-.68-.06.36,0,.4a4.77,4.77,0,0,1,.13-.9q.13-.9.3-1.8a66.6,66.6,0,0,1,1.54-6.68c.32-1.08.65-2.17,1-3.23,0,0,.23-.59.22-.6s-.52,1-.08.21c0-.09.81-1.47.83-1.45.2.17-.81.77-.11.19a6.66,6.66,0,0,0,.59-.54c0,.11-.89.55-.36.32a4.7,4.7,0,0,0,.69-.39c.48-.34-.37.15-.46.16a4.27,4.27,0,0,0,.75-.27,13.79,13.79,0,0,1,1.56-.42c.47-.11,1-.15,1.45-.27,0,0-1.29.14-.65.1l.7-.07a22.39,22.39,0,0,1,2.59,0c.46,0,.92.06,1.37.1,1,.09-1.4-.24,0,0a24.32,24.32,0,0,1,2.5.56c.82.24,1.62.54,2.43.83.58.21-.62-.26-.58-.24.2.1.42.18.63.28.42.19.83.4,1.24.62.77.4,1.53.85,2.26,1.32q.52.33,1,.69c.2.13.39.28.58.41.61.44-.12-.07-.31-.25,1.34,1.22,2.73,2.33,4,3.65.63.66,1.23,1.35,1.81,2.06l.35.43c.67.83-.23-.29-.23-.29s.77,1,.87,1.19a41.33,41.33,0,0,1,2.85,4.74c.43.81.81,1.65,1.19,2.49.26.58-.23-.54-.22-.53a6.55,6.55,0,0,0,.27.69c.17.45.34.91.5,1.37a42.69,42.69,0,0,1,1.51,5.7c.12.62.23,1.24.33,1.87,0,.24.07.47.11.71.15.86-.11-1,0-.12.13,1.18.26,2.36.34,3.54.67,9.59-.63,19.18-1.83,28.68-.57,4.51-1.46,9.18-1.37,13.74.1,5.47,2.64,10.28,7.56,12.86,4.21,2.2,9,3.39,13.53,4.88l14.22,4.71,7.11,2.36c3.7,1.22,7.11-2,7.27-5.54q.82-18.89,1.22-37.79c.25-11.83.61-23.7.11-35.52-.48-11.27-1.85-22.77-5.87-33.37a58.64,58.64,0,0,0-8.59-15.82A28.44,28.44,0,0,0,621.93,61a71.71,71.71,0,0,0-16-2.26,110.18,110.18,0,0,0-13.72,0,95.19,95.19,0,0,0-27.78,5.7,66.84,66.84,0,0,0-23.87,15c-7,7-11.61,15.74-14.81,25.06-3,8.84-4.77,18.05-7,27.1a126,126,0,0,1-3.86,13c-.21.56-.42,1.12-.64,1.68-.08.22-.17.44-.26.66s-.54,1.21-.12.3-.07.17-.13.3-.19.43-.29.65c-.24.54-.49,1.07-.75,1.6a52.67,52.67,0,0,1-3.3,5.86c-.61.94-1.27,1.85-1.94,2.76-.49.65.91-1.12.12-.18l-.45.56c-.39.46-.78.91-1.18,1.36-2,2.24-2.37,5.94,0,8.12,2.18,2,6,2.39,8.11,0,12.88-14.37,15.38-33.67,20.06-51.64a111.43,111.43,0,0,1,4.1-12.88c.15-.38.91-2,.18-.47.23-.49.43-1,.66-1.48.47-1,1-2.07,1.5-3.08a53.46,53.46,0,0,1,3.55-5.84c.27-.38.55-.77.83-1.14.13-.18.31-.37.42-.56-.72,1.22-.42.54-.14.2.69-.86,1.41-1.69,2.16-2.5a51.88,51.88,0,0,1,4.73-4.53c.35-.3.7-.59,1.06-.87.11-.09,1-.81.23-.19s.13-.09.24-.18c.83-.61,1.68-1.2,2.54-1.77a59.55,59.55,0,0,1,5.67-3.32q1.39-.72,2.82-1.38l1.28-.57c1.11-.49-1,.41-.24.1l.81-.33c2.08-.83,4.2-1.57,6.34-2.21a88.37,88.37,0,0,1,13-2.84c.24,0,.49,0,.72-.1-1.56.31-.68.09-.27,0l1.62-.19c1.14-.12,2.29-.22,3.43-.31,2.23-.16,4.47-.26,6.7-.29a116.12,116.12,0,0,1,13.32.62l1.88.22c.89.1-1.45-.23-.07,0l.83.13a41.08,41.08,0,0,1,4.11.86c1.14.3,2.24.69,3.35,1.1.81.3-1.24-.64,0,0l.74.37c.61.32,1.21.66,1.79,1,.29.19.56.39.84.58.7.47-1-.91,0,0,.39.36.8.7,1.19,1.08s.85.86,1.26,1.31c.22.25.43.51.65.77.77.86-.62-.91.11.11a50.55,50.55,0,0,1,3.84,6.35A24.38,24.38,0,0,1,633.42,88c-.46-1.47.2.52.32.81.29.73.56,1.47.82,2.21.85,2.43,1.57,4.91,2.18,7.41.64,2.66,1.15,5.35,1.55,8,.05.29.09.57.13.86.15,1.06,0-.07,0-.23.13.7.18,1.44.26,2.15.15,1.38.28,2.75.4,4.13.9,11.18.6,22.45.43,33.65q-.3,18.54-1,37.06-.18,4.47-.37,8.94l7.26-5.53-28.44-9.43c-.95-.31-1.91-.62-2.85-1a5.55,5.55,0,0,0-.52-.2c1.18.29.74.34.35.14s-.87-.42-1.29-.67c-.2-.13-.4-.27-.6-.39-.56-.34,0-.36.31.24-.07-.13-1.11-1.26-.52-.45s-.42-.57-.35-.68.42,1.41.15.28l-.19-.76c-.3-1.13.07.38,0,.36a5.81,5.81,0,0,1,0-.8q0-.71,0-1.41c0-1.05.14-2.11.24-3.16.24-2.39.52-4.79.82-7.18,2.25-18.15,5.2-37.91-4.52-54.53-4-6.75-9.77-12.93-16.85-16.44A32,32,0,0,0,579,88.07c-4.28-.31-9.22.38-13,2.62-4.81,2.9-6.57,8.26-7.93,13.4a82.32,82.32,0,0,0-2.36,14.56c-.74,9.24-.06,18.53.75,27.74.42,4.66.87,9.31,1.21,14,.16,2.25.35,4.51.39,6.76a10.5,10.5,0,0,0,0,1.48c0-.06.27-1.17.07-.63-.08.22-.36.94,0,.16s.09-.18,0,0c.79-1.11.51-.59.22-.34.11-.09,1.13-.75.32-.32.22-.12,1.14-.41.39-.21-1,.26.37-.08.48,0a3.48,3.48,0,0,0-.74,0c-.43,0-.86,0-1.29,0-1.1-.06-2.21-.19-3.31-.31s-2.39-.25-3.59-.4L549,166.3c-.31,0-.64-.07-1-.12.5.08.73.1.09,0q-7.17-1-14.26-2.44c-2.36-.49-4.72-1-7.06-1.57-2.92-.69-6.36.92-7.06,4-.67,2.94.88,6.32,4,7.06Z"/><path class="cls-3" d="M724.47,207.83a143.21,143.21,0,0,1,16.81,15.86,138.49,138.49,0,0,1,13.47,17.47,194.88,194.88,0,0,1,20.1,40.43A299.06,299.06,0,0,1,787.26,327a471.87,471.87,0,0,1,6.64,48.44c3.51,37.59,4.91,75.48,11.84,112.67a293.24,293.24,0,0,0,14.37,51.48c2.4,6.25,4.86,12.48,7,18.83,1,3.13,2,6.29,2.79,9.49.38,1.54.73,3.08,1,4.63.13.68.25,1.35.35,2,0,0,.24,1.63.12.73s.08.78.1,1c.13,1.34.21,2.68.22,4,0,.75,0,1.51,0,2.26,0,.49-.38,2.6-.07,1.07-.25,1.23-.51,2.42-.87,3.63-.07.25-.21.5-.27.75.26-1.1.32-.65.12-.27-.31.58-.59,1.17-.94,1.73-.16.27-.4.53-.54.82-.33.66.94-.92.05-.08-.39.36-.72.79-1.11,1.15s-.53.43-.77.67c-.51.52.86-.42.17-.15s-1.37.88-2,1.23c-3.14,1.6-6.51,2.83-9.74,4.23-13.88,6-28.42,12.74-43.71,15.73-.69.14-1.39.26-2.09.38,0,0-1.65.23-.76.12s-.72.07-.71.07a38.62,38.62,0,0,1-4.16.2L769.7,618c-.33-1.27-.62-2.54-.86-3.83-.14-.75-.26-1.5-.38-2.25,0,0-.14-1-.06-.38s-.12-1-.11-1c-.32-2.85-.49-5.72-.58-8.59-.18-6.05,0-12.1.08-18.15.17-11.73.24-24.29-4.24-35.34-2.49-6.13-6.17-11-10.62-15.87s-9.34-9.63-12.81-15.21a45.09,45.09,0,0,1-6-16.94,78,78,0,0,1,.27-20.08c1.6-13,5.78-26.75,8.54-40A297.12,297.12,0,0,0,748.62,398a304.22,304.22,0,0,0-6.53-83.66,298.75,298.75,0,0,0-29.35-78.91q-2.44-4.5-5.06-8.9a5.74,5.74,0,0,0-9.91,5.79,285.4,285.4,0,0,1,31.16,76.13,291.09,291.09,0,0,1,8.59,81.8,275.6,275.6,0,0,1-4.39,40.55c-2.5,13.58-6.44,26.84-8.87,40.43s-3.62,28.15,1,41.46a58.65,58.65,0,0,0,11,18.72c2.26,2.69,4.69,5.24,7.08,7.81,1.11,1.2,2.23,2.41,3.32,3.64.54.61,1.08,1.23,1.6,1.86l.58.69c-.58-.71.17.23.27.37.73,1,1.42,2.12,2,3.23.3.56.59,1.12.87,1.69.16.32.86,2,.52,1.12a48.35,48.35,0,0,1,2.35,8c.27,1.31.5,2.62.69,3.94-.14-1,.09.81.11,1.07.09.78.16,1.56.22,2.34.25,3,.35,6,.39,9,.14,11.94-.89,24,.65,35.87a74.63,74.63,0,0,0,1.64,9,5.85,5.85,0,0,0,5.54,4.22c7.08,0,14.18-1.72,20.9-3.8,8-2.45,15.73-5.55,23.41-8.76,7.42-3.1,15-6.06,22.25-9.54a21.82,21.82,0,0,0,11.37-14.08c1.73-6.4,1.07-13.2-.15-19.62a128.09,128.09,0,0,0-5.73-19.65c-2.25-6.23-4.75-12.36-7-18.58a263.45,263.45,0,0,1-8.39-27.64c-9.17-37.21-11-75.6-14.16-113.66-2.78-33.93-6.72-67.95-17-100.53-9.64-30.48-24.81-59.9-48.27-82.06-2.81-2.66-5.74-5.19-8.77-7.62-2.41-1.93-5.75-2.36-8.11,0-2,2-2.43,6.17,0,8.12Z"/><path class="cls-3" d="M768.94,625.36l56.22-15.57-7.26-5.54c-.07,1.27-.16,2.53-.28,3.79,0,.59-.11,1.19-.17,1.78l-.12,1c-.05.43,0,1.85,0,.25a19.57,19.57,0,0,1-.56,3.55c-.23,1.31-.49,2.61-.77,3.91a102.86,102.86,0,0,1-4.44,14.9c-.19.5-.39,1-.59,1.49s-1.08,2.28-.33.84c-.61,1.18-1.08,2.45-1.64,3.64q-1.66,3.52-3.6,6.91c-1.28,2.25-2.65,4.46-4.1,6.61-.67,1-1.35,2-2.06,2.94-.39.54-.78,1.08-1.19,1.61-.16.21-.33.42-.48.63.87-1.25.09-.12-.08.1a100.85,100.85,0,0,1-12.07,12.72l9,1.16q-5.65-11.12-10.8-22.48-2.52-5.57-4.92-11.19c-.22-.52-.44-1-.65-1.55.39.93,0,0-.17-.39-.4-1-.8-1.92-1.19-2.88-.8-1.93-1.58-3.85-2.35-5.78q-2.61-6.57-5.07-13.21c-1-2.71-3.31-4.51-6.29-4.11-2.57.34-5.29,2.79-5,5.64l3.17,29.28q.8,7.3,1.58,14.61a70.09,70.09,0,0,1,.46,14c0,.13-.14.9,0,.17s0,.22-.08.4c-.09.55-.2,1.09-.32,1.62a29.68,29.68,0,0,1-.92,3.09c-.16.45-.33.91-.51,1.36a5.63,5.63,0,0,0-.31.77s.44-1,.17-.42c-.44.95-.86,1.9-1.31,2.85-1.86,4-3.91,8-4.73,12.33a27.21,27.21,0,0,0,.53,12.62,49.62,49.62,0,0,0,4.53,10.32c1.9,3.41,4,6.72,5.78,10.2.45.88.88,1.78,1.28,2.68.08.17.33.75,0,0s0,.08.1.28c.16.43.32.86.47,1.29.29.87.55,1.75.76,2.64.11.5.19,1,.3,1.52s-.09-.73-.09-.68c0,.34.08.69.11,1a5.85,5.85,0,0,0,3.53,5.25,5.76,5.76,0,0,0,6.27-1.19,50.4,50.4,0,0,0,12.81-24.14c2.1-9,2.52-18.28,2.85-27.46.18-5.06.33-10.13.7-15.18.22-3-2.8-5.87-5.74-5.73a5.87,5.87,0,0,0-5.74,5.73c-.64,8.67-.61,17.37-1.23,26-.16,2.16-.35,4.31-.62,6.46,0,.25-.07.5-.09.75,0-.12.2-1.41.05-.41-.07.5-.14,1-.22,1.48-.16,1-.35,2.08-.56,3.12-.39,2-.87,3.94-1.45,5.87-.28.92-.59,1.84-.92,2.75-.18.51-.37,1-.58,1.52-.08.21-.34,1,0,.15s-.06.11-.15.31a41,41,0,0,1-3.33,6c-.31.46-.63.91-1,1.36-.13.17-.59.85-.11.15s-.12.14-.25.3c-.8,1-1.65,1.91-2.54,2.81l9.8,4.06c-.67-7.82-4.34-14.52-8.24-21.18-.86-1.47-1.72-3-2.54-4.46-.41-.77-.81-1.54-1.19-2.33-.16-.31-.3-.62-.45-.94s-.19-.41-.28-.62c-.43-.93.37.93.11.27a33.11,33.11,0,0,1-1.46-4.66c-.08-.38-.14-.77-.21-1.15-.14-.74.13,1.28.07.53,0-.17,0-.33-.05-.5a20.55,20.55,0,0,1,0-2.72c0-.23.16-1.72.06-.81s0,.12,0,0,.1-.54.16-.8a25.34,25.34,0,0,1,.83-3c.16-.45.32-.9.49-1.34a3.65,3.65,0,0,0,.31-.77s-.44,1-.18.42c.42-1,.85-1.9,1.29-2.84,1.91-4.06,4-8.16,4.9-12.59,2-9.67.08-19.72-1-29.4l-3.57-33-11.27,1.52q8.89,24.09,19.94,47.32,3.11,6.49,6.36,12.9c1.77,3.49,6.41,3.47,9,1.17a108.14,108.14,0,0,0,33.19-55.9,109.35,109.35,0,0,0,2.67-18.89c.21-3.75-3.82-6.48-7.26-5.53l-56.22,15.57a5.74,5.74,0,1,0,3.05,11.07Z"/><path class="cls-3" d="M577.42,566.8c-.5.75-1,1.48-1.56,2.21s.71-.88.24-.3l-.34.42c-.34.42-.69.83-1,1.24a47.49,47.49,0,0,1-3.92,4c-.62.56-1.26,1.1-1.91,1.63a3.74,3.74,0,0,0-.57.45c0-.07,1.13-.83.31-.24-.39.29-.77.57-1.17.85a51.45,51.45,0,0,1-4.74,3c-.79.43-1.59.84-2.41,1.23l-1.14.54-.67.29c-.65.29,1.18-.47.21-.09-1.74.67-3.49,1.3-5.3,1.81A50.45,50.45,0,0,1,548,585c-.24,0-1.68.24-.67.11s-.39,0-.67.07c-1,.09-1.91.17-2.87.21a46.13,46.13,0,0,1-6.11-.13l-1.61-.17c-.77-.09,1.21.18.45.06l-.89-.14c-1.07-.18-2.13-.41-3.18-.66-2.91-.71-6.36.92-7.06,4s.89,6.31,4,7.06c17,4.13,35.2-.74,48.48-12a51.29,51.29,0,0,0,9.49-10.82,5.79,5.79,0,0,0-2.06-7.85,5.87,5.87,0,0,0-7.85,2.06Z"/><path class="cls-3" d="M499.5,174.2c16,.63,32,1.29,47.85,2.83q6,.58,11.95,1.34l.84.11.15,0,.91.13,3,.43c2,.29,3.94.61,5.91.94,7.77,1.33,15.5,3,23.1,5.07a188.86,188.86,0,0,1,22.33,7.62l.6.25-.38-.16a7.48,7.48,0,0,1,1.39.6c.86.37,1.72.75,2.57,1.14,1.71.77,3.4,1.57,5.09,2.39q5,2.44,10,5.18A304.33,304.33,0,0,1,672,227c.52.39-.26-.21-.29-.23l.51.4c.35.26.69.53,1,.8.81.63,1.61,1.25,2.4,1.89,1.49,1.17,3,2.35,4.43,3.54q4.42,3.57,8.77,7.21c5.74,4.81,11.41,9.7,17.06,14.61l4.27,3.7c2.26,2,5.92,2.39,8.11,0,2-2.16,2.42-6,0-8.11-11.51-10-23-20-35-29.48a334.23,334.23,0,0,0-38-26.46,204.57,204.57,0,0,0-43-19.11c-15.68-4.83-31.89-7.63-48.17-9.49-16.11-1.83-32.32-2.63-48.52-3.29l-6-.24a5.79,5.79,0,0,0-5.74,5.74,5.87,5.87,0,0,0,5.74,5.74Z"/><path class="cls-3" d="M633.75,193.72c11.57,4.37,24.19,4.06,36.37,4.54,3,.12,6,.29,9,.6l2.2.26c.29,0,1.12.09-.21,0,.36,0,.73.1,1.09.15,1.54.23,3.06.5,4.58.79a107.48,107.48,0,0,1,16.61,4.66c.83.31,1.65.63,2.48,1l.82.33c.53.22,1.17.44.26.11,1.51.56,3,1.31,4.43,2,3.06,1.48,6,3.11,8.94,4.88a5.8,5.8,0,0,0,7.85-2.06,5.87,5.87,0,0,0-2.06-7.86,111.76,111.76,0,0,0-33.68-13.55A117.65,117.65,0,0,0,673.76,187c-6.07-.36-12.16-.35-18.22-.71-1.66-.1-3.31-.23-5-.4l-.9-.1c-.16,0-1.9-.24-1-.12l-.58-.09-1.32-.21a54.25,54.25,0,0,1-10-2.68c-2.82-1.07-6.42,1.18-7.06,4-.75,3.26,1,5.92,4,7.06Z"/><path class="cls-3" d="M712.1,241.66c-.47-.32-.93-.65-1.38-1a9.68,9.68,0,0,0-.82-.61c.08.05,1.1.87.36.27-1-.78-1.93-1.57-2.87-2.4q-2.55-2.28-4.93-4.76c-3.33-3.45-6.43-7.12-9.51-10.79-6.22-7.41-12.45-14.75-20.23-20.59a47.46,47.46,0,0,0-14.63-7.43,5.8,5.8,0,0,0-7.06,4,5.86,5.86,0,0,0,4,7.06c1.07.32,2.12.71,3.16,1.1s-1-.47-.3-.13l.76.33q.9.4,1.77.87A45.51,45.51,0,0,1,666,211c.44.31.86.67,1.32,1-1.5-1,0,0,.38.33.86.7,1.69,1.42,2.51,2.16,1.74,1.59,3.41,3.25,5,5,6.4,6.8,12,14.31,18.4,21.09a81.05,81.05,0,0,0,12.67,11c2.48,1.72,6.48.54,7.86-2a5.9,5.9,0,0,0-2.06-7.86Z"/><path class="cls-3" d="M716.66,237.48c.11-.47.23-.94.39-1.41.07-.22.15-.45.24-.67-.33.76-.41.94-.22.55a22.26,22.26,0,0,1,1.24-2.18l.3-.44c.36-.49.28-.4-.24.29a10.24,10.24,0,0,0,.94-1.12c.58-.65,1.19-1.28,1.81-1.89,2.48-2.43,5.32-4.56,7.6-7.2a25.51,25.51,0,0,0,5.93-10.89A15.22,15.22,0,0,0,731.52,199c-1.91-2.33-6.16-2.13-8.11,0-2.28,2.48-2,5.63,0,8.11-1.08-1.31-.15-.08.07.26.57.87-.32-1.22-.05-.16.08.32.17.64.25.95.3,1.06,0-1.45,0,0,0,.4,0,.78,0,1.18,0,1.08.31-1.32,0-.17-.2.82-.42,1.6-.68,2.39-.35,1.06.55-1.1,0,0-.17.33-.33.67-.51,1-.42.77-.91,1.48-1.38,2.22-.62.93.77-.9,0,0-.24.28-.47.57-.72.84-.57.64-1.18,1.23-1.8,1.82-5.25,4.93-11.29,9.62-13,17-.66,2.92.89,6.35,4,7.06,2.92.66,6.36-.88,7.06-4Z"/><path class="cls-3" d="M195.76,558.45C232,568.82,268.29,579,304.81,588.3c36.34,9.28,72.9,17.71,109.74,24.7,18.13,3.44,36.33,6.64,54.61,9.2,15.75,2.2,31.69,3.85,47.6,2.85s31.58-4.52,45.27-12.68c3.39-2,7.08-4.28,9.81-7.15s4.51-6.37,6.19-9.93,4-6.71,5.63-10.24a28.13,28.13,0,0,0,2.64-11.12c.22-5.85-.75-11.17-4.89-15.57-3.56-3.8-8.68-6-13.58-7.44-10.23-3.06-21-3.36-31.46-5.45a47.87,47.87,0,0,1-6.43-1.68,5.78,5.78,0,0,0-7.06,4,5.88,5.88,0,0,0,4,7.06c9.45,3.29,19.86,3.45,29.65,5.22,2.51.46,5,1,7.48,1.69,1.12.31,2.23.66,3.32,1.06l1.38.54c-1.65-.66.38.21.74.39a27.63,27.63,0,0,1,2.47,1.46c1.3.86-.75-.76.36.28.38.36.76.7,1.11,1.09l.41.46c.74.75-.51-.95-.26-.32a10.11,10.11,0,0,0,.72,1.16c.74,1.21-.21-.82.05,0l.48,1.67c.33,1.23,0-1.29,0,.28,0,.62,0,1.22,0,1.84a41.66,41.66,0,0,1-.22,4.6c.17-1.41-.18.71-.28,1.07a17.46,17.46,0,0,1-.73,2.22c.34-.83-.07.08-.13.2-.26.46-.49.94-.75,1.39-.55,1-1.19,1.89-1.78,2.84-1.91,3.06-3.16,6.46-4.89,9.62-1.83,3.35-3.05,4.37-6.33,6.59a73.34,73.34,0,0,1-9.22,5.3c-.88.42-1.77.83-2.66,1.22-.11,0-1,.42-.25.11l-1.09.44q-2.73,1.07-5.53,2a98.25,98.25,0,0,1-20.62,4c-15.13,1.36-30.4.16-45.43-1.79l-1.22-.17-.61-.08-2.73-.38-5.71-.85c-4.52-.69-9-1.41-13.53-2.15q-13.53-2.22-27-4.72c-35.81-6.63-71.34-14.64-106.66-23.49s-70.65-18.62-105.78-28.61l-12.88-3.67a5.74,5.74,0,0,0-3.06,11.06Z"/><path class="cls-3" d="M574.87,570.92c.32,25.29-1.75,50.55-4,75.72-2.29,25.82-4.94,51.62-6,77.53-.48,11.8-.1,23.6-.44,35.4-.08,2.72-.23,5.43-.48,8.13q-.08.9-.18,1.8c0,.39-.09.79-.14,1.19,0,0-.13,1,0,.42-.07.5-.41,2.54-.62,3.63a60.66,60.66,0,0,1-2,7.6,29.67,29.67,0,0,1-2.74,6.16,28.2,28.2,0,0,1-9.52,10.22,32.56,32.56,0,0,1-3.32,1.84c-.28.14-1.4.64-1.18.55.49-.2-.4.15-.39.15l-1.38.5a47.31,47.31,0,0,1-7.73,1.86,4,4,0,0,1-.85.11l-2.11.19c-1.42.1-2.84.15-4.27.17-2.79,0-5.58-.11-8.37-.36-1.35-.12-2.7-.26-4-.43-.67-.09-.16,0,0,0l-1.24-.18c-.73-.1-1.45-.22-2.17-.33-2.74-.45-5.48-1-8.2-1.53a790.35,790.35,0,0,1-154.28-49.13q-9.27-4.07-18.44-8.36c-3.29-1.54-6.52-3.17-9.94-4.41q-4.8-1.75-9.67-3.34a307.65,307.65,0,0,0-40-10.15A338.59,338.59,0,0,0,230.45,721c-2.63-.16-5.26-.32-7.89-.54-1.28-.1-2.55-.22-3.83-.35l-2.06-.24-.87-.1c.63.08.09,0-.23,0-2.69-.4-5.36-.88-8-1.54-1.2-.3-2.38-.64-3.56-1l-1.59-.55-.79-.29s-1.4-.56-.86-.33a41.13,41.13,0,0,1-6-3.38c-.22-.16-1.25-1-.58-.42-.49-.41-1-.82-1.44-1.26a28.45,28.45,0,0,1-2.67-2.82c-.41-.5-.05,0,0,.05-.25-.34-.5-.69-.74-1.05-.35-.52-.69-1.06-1-1.61s-.71-1.28-1-1.94a7.75,7.75,0,0,1-.55-1.22,42.09,42.09,0,0,1-2.15-8.27c-.11-.66,0-.2,0-.06-.06-.43-.1-.86-.15-1.28-.07-.65-.12-1.29-.17-1.94-.12-1.52-.18-3-.21-4.56,0-3,0-6.08.18-9.11q.48-10.26,1.12-20.52c1.63-26.6,4.2-52.79,9.43-78.85q2-9.93,4.46-19.75A5.74,5.74,0,0,0,188.16,555c-6.75,27-10.65,54.59-12.92,82.3q-1.71,20.72-2.56,41.49c-.49,12.19.19,25.56,7.84,35.67,15,19.81,43.48,17,65.44,19.29a297.63,297.63,0,0,1,40.62,7.19q10.13,2.51,20.05,5.69,5.06,1.62,10,3.42c3.08,1.11,6,2.58,8.95,4a804.27,804.27,0,0,0,77.77,31.54,792,792,0,0,0,79.94,23c12.39,2.87,24.94,5.9,37.67,6.79,11.5.8,23.87-.53,33.77-6.89,21-13.49,21.3-40,21.17-62.3-.14-26.12,2.16-52.2,4.5-78.18,2.36-26.28,5-52.58,5.75-79q.25-9,.16-18.1a5.74,5.74,0,0,0-11.48,0Z"/><path class="cls-3" d="M307,188.4q19.62-3.9,39.41-6.89c3.22-.48,6.44-.95,9.66-1.39l2.42-.33c1.57-.22-.8.1.17,0l1.21-.16L365,179q9.81-1.23,19.64-2.24C411,174,437.51,172.58,464,172.39q22.46-.16,44.89.88a5.79,5.79,0,0,0,5.74-5.74,5.87,5.87,0,0,0-5.74-5.74q-40-1.84-80,.11-40.5,2-80.67,7.83Q326,172.94,304,177.33c-2.95.59-4.92,4.26-4,7.06a5.88,5.88,0,0,0,7.06,4Z"/><path class="cls-3" d="M719.14,505.7l6.68,81.14L727.48,607l.39,4.73c.06.74.14,1.49.17,2.24,0,.12.1,1.19,0,1.25l.12-.71a6.82,6.82,0,0,1-.19.78c-.05,0,.56-1,.1-.33l.52-.63a4.73,4.73,0,0,1-.44.46c0-.14,1.22-.74.41-.33l-.28.17c-.53.27-.37.21.49-.17a8.91,8.91,0,0,0-1.46.42c-.44.1-1.24.09.32,0-.35,0-.69.07-1,.09-2.85.19-5.75,0-8.6,0-3.05-.06-6.1-.14-9.15-.22-6-.16-12.06-.31-18.09-.19-14.14.28-28.15,2.2-41.12,8.07-2.75,1.24-3.62,5.43-2.06,7.85,1.82,2.83,4.91,3.39,7.85,2.06a13.11,13.11,0,0,1,1.21-.54c-1.18.4-.42.17-.16.07l2-.8c1.5-.56,3-1.06,4.55-1.52a83.63,83.63,0,0,1,8.88-2.1l2.14-.36,1.07-.17c1.51-.24,3.05-.36,4.57-.5,3-.27,6-.44,9-.53,12.27-.37,24.53.7,36.8.43,3.08-.07,6.45-.54,9.07-2.3a11.44,11.44,0,0,0,4.89-10.44c-.35-6.82-1.11-13.64-1.67-20.45L734.43,552l-3.82-46.29c-.24-3-2.46-5.89-5.73-5.74-2.9.13-6,2.53-5.74,5.74Z"/><path class="cls-3" d="M655.92,666.43c16.5-3.24,32.85-7.18,49.29-10.71q6.45-1.38,12.92-2.66c4.25-.84,8.61-1.73,12.35-4,7-4.34,10.43-12.14,11-20.1.24-3.23-.2-6.49-.14-9.73.06-3.56-1.32-6.62-2.85-9.77-1.32-2.71-5.39-3.65-7.85-2.06a5.88,5.88,0,0,0-2.06,7.85c.34.71.64,1.43,1,2.13-.76-1.53-.23-.56-.08-.15s.18.53.26.79.1.4.15.6c.25.93-.18-.61-.09-.81a5.76,5.76,0,0,0,0,1.23c0,2.66.21,5.3.21,8,0,.72,0,1.44-.09,2.15,0,.18,0,.36,0,.54,0,.64.1-.65.1-.63a9.58,9.58,0,0,0-.25,1.42c-.14.7-.31,1.4-.52,2.09-.11.34-.22.68-.34,1-.06.17-.13.34-.18.5-.23.68.54-1.15.1-.22-.3.64-.62,1.26-1,1.87-.17.3-.36.6-.56.89s-.2.28-.3.43c-.37.58.94-1.09.15-.2-.46.52-.92,1-1.43,1.51-.26.23-.56.43-.8.68,0,0,1-.68.46-.37-.2.12-.39.27-.59.39a13.43,13.43,0,0,1-1.27.73c-.19.1-.4.18-.58.29-.61.33.39-.19.38-.15-.06.3-2.34.79-2.67.88-1.84.52-3.73.87-5.61,1.24q-6.12,1.21-12.23,2.52c-7.73,1.65-15.43,3.41-23.14,5.13-8.93,2-17.87,4-26.85,5.72-3,.58-4.91,4.27-4,7.06a5.88,5.88,0,0,0,7.06,4Z"/><path class="cls-3" d="M726.82,649.4c11,19.3,22.46,38.4,31.65,58.64.54,1.18,1.07,2.37,1.59,3.56.25.56.49,1.13.74,1.7.16.37.33.75.48,1.13-.35-.85-.21-.49.06.15,1,2.41,2,4.85,2.89,7.3q2.94,7.77,5.29,15.74,2.43,8.31,4.17,16.79c.55,2.64,1,5.3,1.45,8l.27,1.8c.19,1.35-.13-1,0-.12,0,.34.09.68.13,1,.17,1.35.31,2.69.44,4a108.23,108.23,0,0,1,.35,15.8c-.07,1.33-.17,2.67-.3,4-.06.53-.11,1.06-.18,1.59s0,1.64,0,.06a8,8,0,0,1-.18,1.19,72.4,72.4,0,0,1-1.56,7.56,63.81,63.81,0,0,1-2.38,7.28c0,.1-.5,1.31-.16.41s-.13.29-.17.39c-.24.54-.49,1.07-.74,1.61-.6,1.24-1.24,2.46-1.93,3.65-.59,1-1.22,2-1.88,3-.37.56-.75,1.1-1.14,1.64l-.43.59c-.81,1.09-.19,0,0,0-.25,0-2.07,2.49-2.33,2.78-.8.89-1.62,1.75-2.48,2.59a66.79,66.79,0,0,1-5.22,4.58c-.63.51,1.16-.87.18-.13l-.58.42c-.47.36-1,.7-1.44,1.05-1,.68-2,1.34-3,2a98.2,98.2,0,0,1-12.51,6.6l-1.69.73c-1.16.5.95-.39.18-.07l-.85.35c-1.15.47-2.3.93-3.46,1.37-2.27.87-4.56,1.69-6.86,2.48-4.69,1.61-9.43,3.09-14.17,4.56-10.26,3.18-20.46,6.43-30.39,10.55a254.86,254.86,0,0,0-33.18,16.59c-2.48,1.49-4.93,3-7.36,4.6s-3.79,5.16-2.06,7.85c1.62,2.52,5.15,3.8,7.85,2.06a245.59,245.59,0,0,1,32-17.52c1.32-.59,2.64-1.18,4-1.75l1-.45c1-.42.07,0-.11,0,.84-.37,1.69-.7,2.54-1q4.23-1.73,8.53-3.28c4.94-1.8,9.95-3.41,15-5,19.3-6,39.46-11.66,55.41-24.68a62.43,62.43,0,0,0,18.45-25.56c4.05-10.2,5.36-21.5,5.11-32.42A156.32,156.32,0,0,0,783,743.35a219.65,219.65,0,0,0-10.54-31.82c-8.7-20.92-20-40.52-31.24-60.14l-4.44-7.79a5.74,5.74,0,0,0-9.91,5.8Z"/><path d="M200.81,762.79a37,37,0,0,0,13.13,10.6,5.13,5.13,0,0,0,6.84-1.79c1.28-2.19.65-5.67-1.79-6.84a30.48,30.48,0,0,1-11.11-9c-1.65-2.13-5.33-1.74-7.07,0-2.11,2.11-1.66,4.93,0,7.07Z"/><path d="M298.93,237.15a80.07,80.07,0,0,0-26.08,55.12c-.35,6.43,9.65,6.41,10,0a70,70,0,0,1,23.15-48c4.79-4.33-2.3-11.38-7.07-7.07Z"/><path d="M265.3,324.83a346.46,346.46,0,0,0-9.74,59.25c-.49,6.42,9.51,6.39,10,0A330.59,330.59,0,0,1,275,327.49c1.59-6.24-8.05-8.9-9.65-2.66Z"/><path d="M261.74,404.73l-7.8,47.91c-1,6.3,8.61,9,9.65,2.66l7.79-47.92c1-6.29-8.61-9-9.64-2.65Z"/><path d="M628.24,829c1,8.43-2,16.87-9,22-5.14,3.76-.16,12.44,5,8.63,9.72-7.11,15.37-18.49,14-30.62-.73-6.32-10.74-6.4-10,0Z"/><path d="M552.77,840a204.8,204.8,0,0,0,31.6,11.16c6.24,1.63,8.89-8,2.66-9.64a189.77,189.77,0,0,1-29.21-10.15c-5.83-2.59-10.92,6-5.05,8.63Z"/></g></svg>