<svg xmlns="http://www.w3.org/2000/svg" viewBox="0 0 1005 1005"><circle cx="502.5" cy="502.5" r="502.5" style="fill:#f7f0ed"/><path d="m844.08 590.09-2.91-110.8-133.2 3.58 91.56-96.71-80.36-76.11-87.98 92.9V274.91H520.38v138.34l-100.51-95.14-76.11 80.59 96.71 91.55-133.2 3.59 2.91 111.03 133.42-3.81-91.78 96.93 80.59 76.11 87.97-92.9v127.82h110.81V670.9l100.51 94.92 76.11-80.36-96.7-91.56 132.97-3.81z" style="fill:#1a1a1a;isolation:isolate;opacity:.86"/><path d="m656.49 520.47-2.91-110.8-133.2 3.58 91.56-96.71-80.36-76.11-87.98 92.9V205.29H332.79v138.34l-100.51-95.14-76.11 80.59 96.71 91.55-133.2 3.59 2.91 111.03 133.42-3.81-91.78 96.93 80.59 76.11 87.97-92.9V739.4H443.6V601.29l100.51 94.91 76.11-80.36-96.7-91.56 132.97-3.81z" style="fill:#ff7b5c"/></svg>