<svg xmlns="http://www.w3.org/2000/svg" viewBox="0 0 1005 1005"><defs><style>.cls-1{fill:#f7f0ed;}.cls-2{fill:#1a1a1a;isolation:isolate;opacity:0.86;}.cls-3{fill:#ff7b5c;}</style></defs><g id="learning"><circle class="cls-1" cx="502.5" cy="502.5" r="502.5"/><polygon class="cls-2" points="844.08 590.09 841.17 479.29 707.97 482.87 799.53 386.16 719.17 310.05 631.19 402.95 631.19 274.91 520.38 274.91 520.38 413.25 419.87 318.11 343.76 398.7 440.47 490.25 307.27 493.84 310.18 604.87 443.6 601.06 351.82 697.99 432.41 774.1 520.38 681.2 520.38 809.02 631.19 809.02 631.19 670.9 731.7 765.82 807.81 685.46 711.11 593.9 844.08 590.09"/><polygon class="cls-3" points="656.49 520.47 653.58 409.67 520.38 413.25 611.94 316.54 531.58 240.43 443.6 333.33 443.6 205.29 332.79 205.29 332.79 343.63 232.28 248.49 156.17 329.08 252.88 420.63 119.68 424.22 122.59 535.25 256.01 531.44 164.23 628.37 244.82 704.48 332.79 611.58 332.79 739.4 443.6 739.4 443.6 601.29 544.11 696.2 620.22 615.84 523.52 524.28 656.49 520.47"/></g></svg>