<svg xmlns="http://www.w3.org/2000/svg" viewBox="0 0 1024.15 1015.24"><defs><style>.cls-1{fill:#f7f0ed;}.cls-2,.cls-5{fill:#282521;}.cls-3{fill:#fff;}.cls-4,.cls-6{fill:none;}.cls-4,.cls-5,.cls-6{stroke:#282521;stroke-miterlimit:10;}.cls-4{stroke-width:14.17px;}.cls-5{stroke-width:7.09px;}.cls-6{stroke-width:10.09px;}.cls-7{fill:#ff7b5c;}.cls-8{fill:#dd6d57;}.cls-9{fill:#1a1a1a;}</style></defs><g id="learning"><circle class="cls-1" cx="512.65" cy="506.5" r="502.5"/></g><g id="outcome"><path class="cls-2" d="M832.51,572.89c0,188.32-124,341-341,341-188.33,0-327.59-153.15-341-341-13-182,133.11-333.91,341-341C696.51,224.89,832.51,384.56,832.51,572.89Z"/><path class="cls-3" d="M862.51,564.89c1,202-144.07,351.85-360.7,339.06-170.3-10.06-305.89-151.21-319.3-339.06-13-182,111.73-329.62,319.3-342.94C736.51,206.89,861.57,376.56,862.51,564.89Z"/><path class="cls-4" d="M868.51,559.89c0,188.32-124,341-341,341-188.33,0-327.59-153.15-341-341-13-182,133.11-333.91,341-341C732.51,211.89,868.51,371.56,868.51,559.89Z"/><path class="cls-5" d="M476.19,189.14a16.44,16.44,0,0,0,2.05-.62c3.39-1.52,6.78-3,10.12-4.63a33.57,33.57,0,0,0,14.59-13c8.38-13.95,7.92-28-.66-41.63-9.48-15-23.45-23.43-40.92-25.92-11.05-1.58-21.93-.6-32.26,4-9,4-16.17,10.39-22.45,17.85A40.88,40.88,0,0,0,398,140.75c-3,11-2.45,22.06.37,33,2.12,8.23,7.26,13.9,15,17.29a47,47,0,0,0,13.75,3.66c3.35.37,6.73.56,10.09.85,1.27.11,1.71-.4,1.47-1.66a10.88,10.88,0,0,1-.37-3.28c.21-1.52-.35-1.76-1.69-1.76a33.8,33.8,0,0,1-15-3.06C411,180.68,404.17,167,406.48,154.58a73.62,73.62,0,0,1,3.94-13c2.75-7.19,7.1-13.28,13.81-17.36,2.4-1.45,4.95-2.64,7.45-3.9,10.27-5.21,21-7.64,32.63-6.4,15.88,1.7,27.46,11.7,30.65,27.22,2.3,11.23,0,21.48-7.67,30.25a41.22,41.22,0,0,1-11.85,9c-.63.34-1.43.53-1.07,1.69C475.05,184.33,475.54,186.6,476.19,189.14Z"/><path class="cls-2" d="M470.64,207.18c-.57-6.71-.94-13.23-1.72-19.71-.52-4.31-1.55-8.58-2.48-12.84-.73-3.33-3.13-4.92-6.33-5.5a31.25,31.25,0,0,0-11.08,0c-4,.71-5.13,1.81-5.09,6a72.18,72.18,0,0,0,.75,9.4c1.63,11.72,4.11,23.23,9.32,33.95a9.93,9.93,0,0,0,4.25,4.44c4.83,2.23,11.31-1.67,11.91-6.94C470.51,213,470.5,210,470.64,207.18Z"/><path class="cls-6" d="M507.74,362.3l51,155.8a4.33,4.33,0,0,0,3.72,3L734.13,537a4.34,4.34,0,0,1,.92,8.46L575.48,596.51a4.34,4.34,0,0,0-3,3.8L559,773a4.34,4.34,0,0,1-8.43,1.1L493.32,611.56a4.33,4.33,0,0,0-3.79-2.89l-165-11.56a4.34,4.34,0,0,1-1.09-8.45L485.1,534.24a4.33,4.33,0,0,0,2.94-3.83l11.24-167A4.34,4.34,0,0,1,507.74,362.3Z"/><path class="cls-7" d="M457.41,398.86l88.5,113.72a5.69,5.69,0,0,0,5.66,2.07l143.74-30.12a5.69,5.69,0,0,1,4.69,10L588.18,582.66a5.71,5.71,0,0,0-2.09,5.41l24.25,146.56a5.69,5.69,0,0,1-10.07,4.48l-93.52-117.5a5.69,5.69,0,0,0-5.64-2L360.5,649.37a5.7,5.7,0,0,1-4.65-10.09l122.62-94.06a5.7,5.7,0,0,0,2.06-5.88L447.39,403.71A5.69,5.69,0,0,1,457.41,398.86Z"/><path class="cls-8" d="M499,523.14c22.34-26.91,44.33-50.7,67.59-76.43a4.52,4.52,0,0,1,7.81,3.75q-6.78,43-9.33,86.43c-.53,9-.61,18.92,5.19,25.8,3.29,3.89,8,6.21,12.64,8.41,29.12,14,59.24,29.39,88.67,43.8a4.52,4.52,0,0,1-1.81,8.58c-23.93.92-50.28,1.21-54.21,1-41.21-2.48-24.4-1.82-65.67-1.09-3.17.06-6.44.15-9.31,1.48-3.28,1.53-5.62,4.47-7.85,7.32l-62.3,79.74a4.52,4.52,0,0,1-8-3.83l14.87-62.37a49.85,49.85,0,0,0,.63-20.17c-2.22-12.64-6.06-28.17-14.76-37.21s-13.09-12.11-23.11-20.57c-22.83-19.29-39.93-36.48-66.84-52a3.84,3.84,0,0,0-.51-.15l65.36,6.45c20.4,2,35,5.18,60.9,1"/><path class="cls-9" d="M480.81,313.86c-1.9-14.52-3.92-29-5.93-43.53l-8.53,5q7.62,8.11,15.13,16.34c2.5,2.75,4.93,5.58,7.54,8.24,2,2,4,3.85,6.06,5.73,2.76,2.55,5.4,5.21,7.9,8a5.13,5.13,0,0,0,6.18.8c2.08-1.34,2.67-3.41,2.34-5.76l-5.92-42.59c-.37-2.66-3.89-4.34-6.27-3.57-2.92.95-4,3.44-3.57,6.28l5.92,42.59,8.53-5c-4.09-4.59-8.71-8.55-13.07-12.86-5.15-5.09-9.82-10.7-14.74-16-2.92-3.16-5.87-6.3-8.81-9.45a5.17,5.17,0,0,0-6.19-.79c-2.08,1.34-2.67,3.4-2.34,5.76q1.56,11.28,3.12,22.56l.63,4.64c.11.76.21,1.53.31,2.3.06.38.11.76.16,1.15.14,1.05-.16-1.2,0,.13.45,3.35.89,6.69,1.33,10,.35,2.63,2.1,5.23,5.1,5.1,2.47-.11,5.48-2.27,5.1-5.1Z"/><path class="cls-9" d="M580.39,836.81c-.7-4.93-4.92-8.56-9.36-10.19s-9.78-1-14.26.11c-4.16,1.08-8.16,3.23-10.56,6.9a12.63,12.63,0,0,0,.37,13.67c2.8,4.21,7.16,6.68,12,7.84,3.94.94,8,1.07,11.93,2.24a4.93,4.93,0,0,1,1.54.53s-.82-.4-.28-.12l.72.36c.42.21.82.47,1.23.71.09,0,.68.43.12.06s.19.18.31.29c.31.29.57.6.85.9.47.5-.48-.78-.15-.18.08.16.2.3.29.45s.74,1.35.38.65,0,0,.05.21.16.55.23.83c.23.87,0-1.1,0,.17,0,.17,0,.33,0,.5,0,.93,0-.27.05-.35-.07.06-.1.4-.13.49l-.05.16q-.23.63,0,0c.27-.18.17-.34,0,0-.6.94.54-.51.1-.06-.16.16-.77.62-.84.83.14-.41.76-.52.21-.18l-.44.28c-.35.21-.72.39-1.08.58-.88.43.2-.06.23-.1-.12.16-.66.24-.85.3a42,42,0,0,1-6.64,1.51c-.06,0-.84.1-.26,0s-.6.05-.72.06c-.62,0-1.25.08-1.87.09s-1.24,0-1.86-.06c-1-.06-.25,0,0,0-.38-.06-.76-.13-1.14-.22s-1-.31-1.53-.44c-.67-.18.84.42.22.11l-.64-.32c-.48-.25-.93-.54-1.39-.84-.13-.09-.51-.48-.05,0s-.18-.19-.3-.3-.68-.94-1-1c.13,0,.65,1,.17.19-.12-.2-.25-.4-.36-.6a4.3,4.3,0,0,1-.32-.61c-.07.15.39,1.08.08.09-.05-.17-.08-.34-.13-.51-.34-1.1.07,1.15,0,0-.21-2.66-2.19-5.24-5.1-5.11-2.58.12-5.33,2.26-5.1,5.11a15.38,15.38,0,0,0,7.26,11.83c4,2.63,9.11,3.29,13.79,2.79,4.49-.47,9.29-1.28,13.32-3.45s7.13-6.78,6.6-11.63a15.49,15.49,0,0,0-7.76-11.77c-3.85-2.21-8.17-2.88-12.48-3.52a38.87,38.87,0,0,1-6.24-1.31c-.47-.15-.93-.31-1.39-.5.93.38-.16-.11-.48-.3s-1-.42-1.18-.72c0,.06.89.78.15.1l-.55-.51c-.18-.18-.34-.38-.52-.55-.58-.58.18.11.09.15a8.68,8.68,0,0,1-.69-1.11,4.65,4.65,0,0,0-.25-.5c.1,0,.37,1.17.1.2l-.15-.52c-.27-1.06-.17,0,0,.11-.19-.1.13-1.61-.07-.76s.25-.61.22-.71c.13.42-.47.87-.12.31a6.38,6.38,0,0,0,.32-.57c.19-.36.32-.15,0,0-.28.34-.27.35,0,0l.22-.24c.11-.11.24-.22.35-.34.77-.76-.14,0-.14.07s1-.63,1.14-.72.4-.22.61-.32,1.09-.43.34-.17l.87-.29a25.62,25.62,0,0,1,2.87-.72c.33-.06,1.81-.26.76-.14.6-.07,1.21-.13,1.81-.16a17.19,17.19,0,0,1,2,0l.67.05c-1,0-.08,0,.19,0,.57.12,1.11.32,1.68.47s-.8-.45-.21-.08c.26.16.54.28.8.44l.46.31c.5.29-.65-.67,0,0l.51.51c.57.54-.15,0-.1-.19a6.52,6.52,0,0,0,.39.6c.12.21.33,1.05.21.35s-.05-.08,0,.06c.08.36.16.7.21,1.06.38,2.65,3.89,4.34,6.28,3.56,2.9-.94,4-3.43,3.56-6.27Z"/><path class="cls-9" d="M812.29,511.73q-14.91,1.5-29.72,3.82c-2.65.41-4.35,3.86-3.57,6.28.93,2.87,3.44,4,6.28,3.56,2.27-.35,4.55-.7,6.83-1l3.42-.48c.61-.08.65-.09.11,0l1-.13,1.71-.22q7-.9,14-1.6c2.64-.26,5.23-2.15,5.1-5.1-.11-2.53-2.26-5.39-5.1-5.1Z"/><path class="cls-9" d="M779.82,522.88l5.77,41.5c.37,2.65,3.9,4.33,6.28,3.56,2.91-.94,4-3.43,3.56-6.27l-5.77-41.51c-.37-2.65-3.89-4.33-6.27-3.56-2.92.94-4,3.43-3.57,6.28Z"/><path class="cls-9" d="M792.36,566.65c4.73-.75,9.48-1.46,14.22-2.14,2.3-.33,4.59-.64,6.88-1l1.11-.15,1.47-.19,3.94-.5c2.64-.34,5.23-2.11,5.1-5.11-.11-2.48-2.27-5.46-5.1-5.1q-15.19,1.92-30.33,4.3c-2.65.42-4.35,3.86-3.57,6.28.93,2.87,3.44,4,6.28,3.56Z"/><path class="cls-9" d="M789.36,545.09q6.42-1.25,12.88-2.18l1.71-.23.6-.08,3.18-.39c2.2-.26,4.41-.48,6.62-.68,2.65-.25,5.23-2.18,5.1-5.11-.11-2.55-2.25-5.36-5.1-5.1a278,278,0,0,0-27.7,3.93,5.13,5.13,0,0,0-3.56,6.28,5.23,5.23,0,0,0,6.27,3.56Z"/><path class="cls-9" d="M234.58,599.4l17.66,38.2c.84,1.82,3.25,2.68,5.08,2.44s3.92-1.69,4.24-3.66l7.2-43.37-9.33,1.22c5.52,10.67,11.32,21.19,16.71,31.93q2.25,4.49,4.4,9a5.13,5.13,0,0,0,5.77,2.34,5.37,5.37,0,0,0,3.74-4.92c.79-7.53,1.51-15.06,2.44-22.57.1-.85.21-1.7.32-2.55.05-.43.11-.85.16-1.27-.17,1.22,0-.07,0-.34q.39-2.75.82-5.48c.57-3.57,1.21-7.13,2-10.68.53-2.61-.76-5.64-3.57-6.27-2.55-.59-5.7.76-6.28,3.56-3.1,15-4.5,30.35-6.09,45.6l9.5-2.57c-4.79-10.09-10.05-19.93-15.27-29.8q-2.94-5.57-5.84-11.16a5.09,5.09,0,0,0-5.08-2.44c-1.83.25-3.92,1.69-4.24,3.66l-7.2,43.37,9.33-1.22-17.65-38.2c-1.13-2.43-4.82-3.22-7-1.83a5.25,5.25,0,0,0-1.83,7Z"/></g></svg>