<svg xmlns="http://www.w3.org/2000/svg" viewBox="0 0 150.76 156.21"><defs><style>.cls-1{fill:#1a1a1a;}.cls-2{fill:#fff;}</style></defs><g id="Layer_2" data-name="Layer 2"><g id="PDF"><g id="lJNGqN.tif"><path class="cls-1" d="M121.75,156.21H29c-.34-.1-.67-.23-1-.3a13.65,13.65,0,0,1-10.79-12,65,65,0,0,1-.1-6.7c0-3.5,0-7,0-10.64-1.3,0-2.46,0-3.61,0A13.81,13.81,0,0,1,.7,117.19c-.27-.81-.47-1.65-.7-2.47V56.14c.09-.28.21-.56.28-.85A13.56,13.56,0,0,1,11.81,44.42a52.06,52.06,0,0,1,5.28-.27V42.46q0-14,0-27.9C17.09,5.84,22.91,0,31.6,0H91.24a22.9,22.9,0,0,1,17.29,7.34q9.47,9.93,18.89,19.91a22.09,22.09,0,0,1,5.81,11.38c.33,1.82.39,3.7.58,5.62,1.23,0,2.39,0,3.55,0A13.58,13.58,0,0,1,150.69,57.5q.15,27.91,0,55.82a13.42,13.42,0,0,1-11.34,13c-1.83.3-3.71.27-5.71.4v1.66c0,4.77,0,9.55,0,14.33a13.65,13.65,0,0,1-9.13,12.66C123.6,155.72,122.67,155.94,121.75,156.21ZM75.36,53.4H14.5c-3.57,0-5.34,1.76-5.34,5.32q0,26.69,0,53.37c0,3.64,1.76,5.37,5.44,5.37q60.78,0,121.55,0c3.68,0,5.43-1.74,5.43-5.39V58.85c0-3.75-1.73-5.45-5.53-5.45ZM26.24,44.14h98.23a13.71,13.71,0,0,0-3.7-10.57q-9.45-10.07-19-20A13.75,13.75,0,0,0,91.42,9.16H31.32c-3.24,0-5.07,1.86-5.08,5.14V44.14Zm0,82.53c0,5.22,0,10.29,0,15.37,0,3.15,1.87,5,5,5h88.14c3.24,0,5.06-1.87,5.07-5.15q0-6.93,0-13.88c0-.43,0-.87-.08-1.36Z"/><path class="cls-2" d="M75.36,53.4h60.69c3.8,0,5.53,1.7,5.53,5.45v53.22c0,3.65-1.75,5.39-5.43,5.39q-60.77,0-121.55,0c-3.68,0-5.44-1.73-5.44-5.37q0-26.68,0-53.37c0-3.56,1.77-5.32,5.34-5.32ZM61,85h0c0,5.49,0,11,0,16.46,0,3.36,1.83,5.18,5.2,5.19s6.5,0,9.75-.14a15.63,15.63,0,0,0,12.72-6.75c5.77-8.13,6.06-17,2.2-25.88-2.92-6.74-8.46-10-15.82-10.12-2.95-.05-5.89,0-8.84,0C62.81,63.78,61,65.55,61,69,61,74.36,61,79.69,61,85ZM31.17,92.49c2.09,0,4,.06,5.83,0A14.37,14.37,0,0,0,50.76,78.94,14.09,14.09,0,0,0,38.85,64.11a95,95,0,0,0-11.71-.33C23.78,63.75,22,65.59,22,69q0,16.77.05,33.54c0,3.08,1.88,5.18,4.58,5.2s4.55-2,4.56-5.17S31.17,96,31.17,92.49Zm83-19.9c3,0,5.94,0,8.87,0s5-1.94,5.06-4.57-2.06-4.57-5-4.58H110c-3.18,0-5,1.83-5,5q0,16.85,0,33.69c0,2.92,2,5,4.63,5a4.61,4.61,0,0,0,4.51-4.93c0-3.66,0-7.32,0-11V89.47h4.17c1.37,0,2.75,0,4.12,0a4.51,4.51,0,0,0,4.53-5.13,4.62,4.62,0,0,0-4.81-4c-2.62,0-5.25,0-7.94,0Z"/><path class="cls-2" d="M26.24,44.14V14.3c0-3.28,1.84-5.14,5.08-5.14h60.1a13.75,13.75,0,0,1,10.37,4.36q9.51,10,19,20.05a13.71,13.71,0,0,1,3.7,10.57Z"/><path class="cls-2" d="M26.24,126.67h98.17c0,.49.08.93.08,1.36q0,6.94,0,13.88c0,3.28-1.83,5.14-5.07,5.15H31.28c-3.16,0-5-1.86-5-5C26.23,137,26.24,131.89,26.24,126.67Z"/><path class="cls-1" d="M61,85c0-5.33,0-10.66,0-16,0-3.47,1.78-5.24,5.26-5.25,2.95,0,5.89,0,8.84,0C82.49,63.88,88,67.16,91,73.9c3.86,8.91,3.57,17.75-2.2,25.88A15.63,15.63,0,0,1,76,106.53c-3.25.12-6.5.15-9.75.14s-5.19-1.83-5.2-5.19c0-5.48,0-11,0-16.46Zm9.25,12.41c1.49,0,2.89,0,4.3,0,4.21.12,6.93-2,8.42-5.76a18,18,0,0,0-.11-13.52c-.9-2.31-2.47-4.27-5-4.77a62.14,62.14,0,0,0-7.64-.63Z"/><path class="cls-1" d="M31.17,92.49c0,3.55,0,6.8,0,10s-1.84,5.18-4.56,5.17S22,105.58,22,102.5Q22,85.73,22,69c0-3.37,1.81-5.21,5.17-5.18a95,95,0,0,1,11.71.33A14.09,14.09,0,0,1,50.76,78.94,14.37,14.37,0,0,1,37,92.48C35.13,92.55,33.26,92.49,31.17,92.49Zm.06-19.56V83.35c1.82,0,3.54.06,5.25,0a5.29,5.29,0,0,0,5.17-5.16A5.34,5.34,0,0,0,36.52,73C34.8,72.87,33.07,72.93,31.23,72.93Z"/><path class="cls-1" d="M114.19,72.59v7.73c2.69,0,5.32,0,7.94,0a4.62,4.62,0,0,1,4.81,4,4.51,4.51,0,0,1-4.53,5.13c-1.37,0-2.75,0-4.12,0h-4.17v1.71c0,3.66,0,7.32,0,11a4.61,4.61,0,0,1-4.51,4.93c-2.67,0-4.63-2-4.63-5q0-16.84,0-33.69c0-3.17,1.85-5,5-5h13.12c2.94,0,5,1.92,5,4.58s-2.11,4.54-5.06,4.57S117.2,72.59,114.19,72.59Z"/><path class="cls-2" d="M70.28,97.43V72.76a62.14,62.14,0,0,1,7.64.63c2.5.5,4.07,2.46,5,4.77A18,18,0,0,1,83,91.68c-1.49,3.77-4.21,5.88-8.42,5.76C73.17,97.4,71.77,97.43,70.28,97.43Z"/><path class="cls-2" d="M31.23,72.93c1.84,0,3.57-.06,5.29,0a5.34,5.34,0,0,1,5.13,5.23,5.29,5.29,0,0,1-5.17,5.16c-1.71.07-3.43,0-5.25,0Z"/></g></g></g></svg>