<svg xmlns="http://www.w3.org/2000/svg" viewBox="0 0 514.83 454.62"><defs><style>.cls-1{fill:#1a1a1a;}.cls-1,.cls-2,.cls-3{stroke:#1a1a1a;stroke-miterlimit:10;stroke-width:2.83px;}.cls-2{fill:#f7f0ed;}.cls-3{fill:#ff7b5c;}</style></defs><g id="Layer_2" data-name="Layer 2"><g id="prototype"><g id="O90vPp.tif"><path class="cls-1" d="M513.42,52.69v350c-2.52,7-4.1,14.47-7.74,20.79-11.85,20.6-30.32,29.72-53.93,29.7q-194.33-.15-388.67-.06c-2.32,0-4.66,0-7-.24-24.79-2.15-41.72-15-51-37.92C3.5,411,2.62,406.8,1.42,402.71v-350c2.48-7.19,3.94-15,7.64-21.45C20.71,10.79,38.91,1.4,62.42,1.42q195,.14,390,0c1.66,0,3.33,0,5,.1,20.46,1,36.57,10.06,47,27.57C508.67,36.24,510.49,44.8,513.42,52.69ZM18.65,117.56V123q0,134.25.06,268.48a51.85,51.85,0,0,0,1.47,13.34c5.32,19.9,20.6,31,42.26,31q194.71,0,389.44,0c27.16,0,44.29-17.12,44.3-44.34q0-134.25,0-268.48c0-1.75-.15-3.5-.24-5.41ZM496,99.64c0-14.25.39-27.91-.19-41.52a42,42,0,0,0-4.07-16.26c-8-16.38-21.93-23.2-39.82-23.2q-194.46.07-388.94,0c-1.33,0-2.67,0-4,0-19.38.89-34.55,12.62-38.8,31.5-1.8,8-1.25,16.53-1.47,24.83-.21,8.11,0,16.23,0,24.57Z"/><path class="cls-1" d="M144.71,270.84q-44.73,0-89.47,0c-9.28,0-11.83-2.58-11.84-11.84q0-40.74,0-81.47c0-8.21,2.8-11.15,11-11.15q90.23-.06,180.44,0c8.66,0,11.48,3.18,11.46,11.87q-.1,40.23,0,80.47c0,9.13-2.67,12.12-11.66,12.12Q189.7,270.86,144.71,270.84ZM124.4,218.59,61,189.08v59.08Zm104.17-29.47-63.19,29.49,63.19,29.48ZM92.63,252.55l.11.86H197.21c-.29-.48-.37-.87-.59-1-16.53-7.78-33.06-15.56-49.65-23.21a5.7,5.7,0,0,0-4.22,0C126,236.93,109.32,244.76,92.63,252.55Zm.23-68.67-.29.75c16.83,7.85,33.63,15.77,50.54,23.45,1.34.61,3.57,0,5.09-.63,10.45-4.75,20.81-9.67,31.21-14.53q8.93-4.18,17.85-8.33l-.23-.71Z"/><path class="cls-1" d="M369.79,270.84q-44.73,0-89.47,0c-9.06,0-11.84-3-11.82-12q.12-40.49,0-81c0-8.08,2.88-11.51,10.8-11.52q90.72-.07,181.45,0c7.86,0,10.7,3.05,10.7,11q0,41.24,0,82.48c0,8.15-2.86,11-11.18,11Q415,270.88,369.79,270.84Zm20.64-52.22,63.43,29.54V189Zm-41,0-63.17-29.46v58.94Zm74,34.91c-1.82-1.07-2.47-1.53-3.18-1.86-15.64-7.32-31.24-14.74-47-21.79a10.05,10.05,0,0,0-7.34.33c-15,6.73-29.86,13.77-44.76,20.74-1.24.58-2.39,1.36-4.51,2.58ZM317.9,183.88l-.27.75c16.83,7.85,33.64,15.78,50.56,23.43,1.44.66,3.86-.07,5.53-.83,10.76-4.86,21.43-9.91,32.13-14.92,5.49-2.57,11-5.17,16.45-7.75l-.22-.68Z"/><path class="cls-1" d="M145.12,315.59H233a43.46,43.46,0,0,1,5.48.16,8.47,8.47,0,0,1,.29,16.81,30.61,30.61,0,0,1-5,.21q-89.16,0-178.32-.07a24.12,24.12,0,0,1-5.45-.38,8.37,8.37,0,0,1-6.53-8.85c.57-4.45,3.06-7.32,7.7-7.8a56.91,56.91,0,0,1,6-.15h87.91Z"/><path class="cls-1" d="M370.48,315.54q43.95,0,87.91,0a43.45,43.45,0,0,1,5.48.18,8.45,8.45,0,0,1,.67,16.69,26.91,26.91,0,0,1-5.47.32H279.76c-7-.08-11.14-3.37-11-8.78.11-5.26,4-8.4,10.84-8.41Q325,315.51,370.48,315.54Z"/><path class="cls-1" d="M332.92,382.27q-25.49,0-50.95,0a42.41,42.41,0,0,1-6-.38c-4.69-.68-7.08-3.84-7.15-8.24a7.75,7.75,0,0,1,6.56-8.23,26,26,0,0,1,5.43-.53q52.18,0,104.39,0a21.29,21.29,0,0,1,6.37.84,7.7,7.7,0,0,1,5.53,8c-.13,4-2.22,7-6.34,7.93a30.08,30.08,0,0,1-6.44.56Q358.64,382.31,332.92,382.27Z"/><path class="cls-1" d="M108,364.9c17.14,0,34.28,0,51.43,0a24.44,24.44,0,0,1,6.4.69c4,1.12,6,4.07,5.93,8.18s-2.19,7-6.24,7.94a27.57,27.57,0,0,1-6.42.6q-51.43,0-102.87-.13c-8.53,0-12.65-2.82-12.72-8.59s4.21-8.79,12.55-8.8H108Z"/><path class="cls-1" d="M126,32.65A27.16,27.16,0,0,1,153.18,59.5a27.35,27.35,0,0,1-26.72,27c-14.64.25-27.07-12.12-27.07-27A26.85,26.85,0,0,1,126,32.65Zm.28,36.26a9.35,9.35,0,0,0,9.39-9.46,9.6,9.6,0,0,0-9.47-9.52,9.91,9.91,0,0,0-9.51,9.61A9.55,9.55,0,0,0,126.25,68.91Z"/><path class="cls-1" d="M188.38,32.66a26.9,26.9,0,0,1,.42,53.8c-14.61.2-27.18-12.3-27.15-27A27.09,27.09,0,0,1,188.38,32.66Zm.17,36.25a9.59,9.59,0,0,0,9.62-9.37,10,10,0,0,0-9.52-9.61,9.54,9.54,0,0,0-9.46,9.52A9.3,9.3,0,0,0,188.55,68.91Z"/><path class="cls-1" d="M90.64,59.34c.08,14.86-12.18,27.22-26.89,27.12A26.91,26.91,0,1,1,90.64,59.34ZM63.9,49.91a9.74,9.74,0,0,0-9.52,9.52,9.42,9.42,0,0,0,9.4,9.5,9.57,9.57,0,0,0,9.59-9.38A9.93,9.93,0,0,0,63.9,49.91Z"/><path class="cls-2" d="M124.4,218.59,61,248.16V189.08Z"/><path class="cls-2" d="M228.57,189.12v59l-63.19-29.48Z"/><path class="cls-2" d="M92.63,252.55c16.69-7.79,33.38-15.62,50.12-23.31a5.7,5.7,0,0,1,4.22,0c16.59,7.65,33.12,15.43,49.65,23.21.22.1.3.49.59,1H92.74Z"/><path class="cls-2" d="M92.86,183.88H197l.23.71q-8.92,4.16-17.85,8.33c-10.4,4.86-20.76,9.78-31.21,14.53-1.52.68-3.75,1.24-5.09.63-16.91-7.68-33.71-15.6-50.54-23.45Z"/><path class="cls-2" d="M390.43,218.62,453.86,189v59.14Z"/><path class="cls-2" d="M349.46,218.6l-63.17,29.48V189.14Z"/><path class="cls-2" d="M423.42,253.51H316.62c2.12-1.22,3.27-2,4.51-2.58,14.9-7,29.76-14,44.76-20.74a10.05,10.05,0,0,1,7.34-.33c15.77,7,31.37,14.47,47,21.79C421,252,421.6,252.44,423.42,253.51Z"/><path class="cls-2" d="M317.9,183.88H422.08l.22.68c-5.49,2.58-11,5.18-16.45,7.75-10.7,5-21.37,10.06-32.13,14.92-1.67.76-4.09,1.49-5.53.83-16.92-7.65-33.73-15.58-50.56-23.43Z"/><path class="cls-3" d="M126.25,68.91a9.55,9.55,0,0,1-9.59-9.37,9.91,9.91,0,0,1,9.51-9.61,9.6,9.6,0,0,1,9.47,9.52A9.35,9.35,0,0,1,126.25,68.91Z"/><path class="cls-3" d="M188.55,68.91a9.3,9.3,0,0,1-9.36-9.46,9.54,9.54,0,0,1,9.46-9.52,10,10,0,0,1,9.52,9.61A9.59,9.59,0,0,1,188.55,68.91Z"/><path class="cls-3" d="M63.9,49.91a9.93,9.93,0,0,1,9.47,9.64,9.57,9.57,0,0,1-9.59,9.38,9.42,9.42,0,0,1-9.4-9.5A9.74,9.74,0,0,1,63.9,49.91Z"/></g></g></g></svg>