<svg xmlns="http://www.w3.org/2000/svg" viewBox="0 0 1024.15 1015.24"><defs><style>.cls-1{fill:#f7f0ed;}.cls-2{fill:#fff;}.cls-3,.cls-4{fill:#ff7b5c;}.cls-4,.cls-5{fill-rule:evenodd;}</style></defs><g id="research"><circle class="cls-1" cx="512.65" cy="507.5" r="502.5"/><path d="M538.78,600.56c.62,1.34,96.53-74.85,97.44-73,2.29-1.48,4.25-2.61,6.07-3.94,12.06-8.81,24.34-17.14,37.65-24.13,9-4.73,17.09-11.42,25.13-17.8a15.46,15.46,0,0,1,17.15-1.43c13.61,7.56,27.63,14.34,42.45,21.94,1.37-3.27,2.74-5.91,3.61-8.71,5.83-18.68,11.39-37.44,17.35-56.08,7.37-23,15-46,22.63-69,1.37-4.15,3.42-8.1,4.5-12.31,1.8-7.06,7-9.89,13.23-11.48,11.07-2.82,22.24-2.36,32.48,2.51A200.1,200.1,0,0,1,887.4,364c3.8,2.67,5.85,8.08,8.23,12.5,2.14,4,.21,8-1.16,11.81-5.75,16.22-11.57,32.42-17.23,48.66-1.36,3.89-2.25,7.93-3.33,11.9-.14.5-.1,1.05-.28,1.52-4,10.53-8,21-12,31.58-1.87,5-3.77,10-5.38,15-1.92,6.08-2.91,12.54-5.44,18.34-3.65,8.33-4.46,18-13.06,25.22,7.31,2.82,13.23,4.6,18.69,7.32,10.11,5,19.9,10.73,29.92,16,4.75,2.49,9.73,4.56,14.6,6.83q18.16,8.49,36.31,17c11.42,5.39,23.27,10.09,33.79,17a73.17,73.17,0,0,0,11.48,5.64c1.94.84,3.72,3.52,4.37,5.7,2.05,6.84,3.38,13.88,5.24,20.78,2.35,8.68,5,17.3,7.45,26-5.28,4.51-10,8.45-14.6,12.46-5.84,5.06-11.6,10.19-17.43,15.25a19.35,19.35,0,0,1-4.27,3.29c-8.34,3.85-14.45,10.64-21.59,16.08-2.84,2.16-6.08,3.8-8.92,6-2.6,2-4.78,4.49-7.35,6.5-9.29,7.23-18.56,14.51-28.06,21.46-7.85,5.73-16.06,11-24,16.55-3.5,2.44-6.71,5.28-10.18,7.76q-14.41,10.3-28.95,20.45c-5.25,3.67-11,2-15.79-.16-14.27-6.44-28.14-13.74-42.22-20.59-10.63-5.17-21.4-10-32-15.27-7.6-3.75-15-8-22.54-11.84-17.85-9.14-35.7-18.28-53.65-27.22q-39.4-19.65-79-39c-9.42-4.62-19-8.87-28.52-13.34-5.15-2.43-7.55-6.11-8.79-11.77-2.52-11.57-5.93-22.94-9-34.39a23.22,23.22,0,0,0-1.49-3.17M801.8,772.08c-1.17-6.19-7.55-5.84-11.29-8.8-1.15-.91-3.39-.42-5.14-.58,1.64,1.93,3.5,2.66,5.28,3.56,3.73,1.89,7.41,3.86,11.12,5.8L827,782.62c1.5-.92,3.07-1.76,4.51-2.79,1.17-.84,2.18-1.9,4-3.53-4.32,1-7.59,2.54-10.69,2.25s-5.62-3-8.63-3.69C811.45,773.85,807.28,769.38,801.8,772.08ZM576.91,637.81l-7-5.43-11-5c-1.94-.88-4.41-2.13-2.94-4.34.93-1.39,3.82-1.72,5.9-1.94,1-.11,2.19,1.17,3.36,1.69,7.52,3.3,15.06,6.56,22.59,9.84-12-9.05-25.08-15.59-38.68-21,1.76,8.6,3.12,17,5.26,25.13a72.85,72.85,0,0,0,5.86,14.15c.82,1.6,2.91,2.73,4.64,3.66,5.89,3.14,11.81,6.24,17.85,9.09,7.54,3.55,15.22,6.8,22.81,10.25,2.09,1,4.08,2.11,6.1,3.22,7.36,4,14.71,8,22.14,12.12l4.92-5.31C626,678.11,613.1,673,601,666.45s-26.1-8.82-37.73-17.59l4.41-5.38-8.17-4.21c2.07-4.95,2.09-4.83,5.5-5.33a29.27,29.27,0,0,0,4.89-1.57c.76,5.1,1.48,5.63,7.12,5.26,2.48,1.62,4.85,3.44,7.46,4.82,4.45,2.36,9.43,3.89,12.4,8.47-.84,1.87-1.57,3.47-2.6,5.77l9.57,2.6,5-7.86c-9.42-4.56-18.81-9.17-28.28-13.63C579.56,637.33,578.13,637.78,576.91,637.81ZM987.78,665c-3.11,1-7.12,1-9.15,3-7.15,7.1-15.54,12.39-23.91,17.73-3.79,2.42-8.06,4.08-12,6-3.16-3.59-2.26-4.89.89-7.06C959.16,674,974.42,662.84,989.65,652l-8.13-28.19c-3.12,2.06-5.64,3.66-8.09,5.37-1.46,1-2.73,2.32-4.21,3.3-6,4-12,7.89-18.06,11.73-3.44,2.19-7.15,4-10.47,6.32-6.22,4.37-12.29,8.94-18.32,13.57-3.42,2.62-6.43,5.81-10,8.2-6.59,4.43-13.53,8.33-20.19,12.67-5.39,3.52-10.62,7.28-15.83,11.06s-10.77,7.14-15.27,11.6c-7.57,7.51-16.36,13.17-25.52,18.26-7.3,4-12.78,10-18.81,14.84.92,4,1.65,7.11,2.5,10.81-2.56.38-5.3,1.41-5.79.75-3.8-5-10.24-4.58-14.83-7.57-8.41-5.49-18.31-7.26-27.09-11.76-7.75-4-15.88-7.2-23.71-11-3.14-1.53-6-3.76-9-5.74,1.73-3.92,3.26-4.36,6.78-2.62,8.59,4.23,17.56,7.7,26.37,11.47.17-1.66-.22-2.24-.76-2.52q-17.15-8.73-34.34-17.39c-1.83-.93-3.93-1.39-5.65-2.46q-16.05-10-32-20.18c-6.83-4.38-14.64-5.44-22.08-7.77l-.59,1.42,52.81,27.32c-.15,2-1,4.81-.29,5.27,4.62,3.06,1.55,5.6-.56,8.24,3.4,2.21,6.07,4.4,1.3,7.71l-11-4.36c-1.67,2.7-3.22,5.18-4.82,7.76,1.67,2.15,3.67,4.21,6.13,1.4,3.1-3.54,5.52-1.9,8.69-.14,4.26,2.37,8.92,4,13.4,6l.61-1.32-7-4.56c.58-3.1,1.59-5,4.74-3.82,3.33,1.26,6.66,2.53,9.93,3.93,21.45,9.17,42.93,18.29,64.3,27.67,4.59,2,8.41,1.48,12.19-1.37,7.13-5.34,13.89-11.11,22.23-14.79a33.76,33.76,0,0,0,12-8.66c3.34-4,7.39-6.81,11.37-9.75q21-15.47,42.33-30.39c8.59-6,17.46-11.63,26.25-17.37,3.11-2,6.34-3.89,9.63-5.9,3.64,4.75.37,6.5-2.36,8.33-8.46,5.68-17.18,11-25.36,17-5.82,4.31-10.92,9.59-16.35,14.42l-9.18,5.58c.34.5.69,1,1,1.51,2.56-2.53,6.35-3.42,7.95-7.21l12.88-8.19c4.59-2.91,8.72-6.76,16.33-8.23-1.44,3.51-1.79,5.71-3,7.12a36.73,36.73,0,0,1-6.47,5.19c-4.15,2.92-8.39,5.7-12.58,8.57a7.44,7.44,0,0,0-1.08,1.23l3.56,5.31c5.42-4,10.6-7.66,15.65-11.52,5.48-4.18,10.78-8.6,16.23-12.81Q967.77,680,987.52,664.8l4.68-4.74-1.25-1C989.47,660.76,986.46,661.41,987.78,665Zm-326.45-4.9c3.84,1,6.94,1.7,9.9,2.76,3.63,1.3,7.06,3.17,10.71,4.39,10,3.35,19.54,7.06,28.64,12.88C727,690.63,744.5,699.55,761.65,709a71.92,71.92,0,0,0,12.71,5.51c8.38,2.69,15.71.13,21.48-6.14a205.32,205.32,0,0,0,13.48-16.64c4.77-6.4,6.79-6.93,13.3-2.67,3.87,2.54,7.65,5.34,11.8,7.33,11.53,5.52,23.06,5.11,33.73-2,13.9-9.29,27.55-18.94,41.14-28.67,17.17-12.28,34.17-24.81,51.25-37.22,5.11-3.72,10.24-7.41,15.89-11.48-2-1.29-3.2-2.23-4.54-2.9-13.11-6.59-26-13.75-39.44-19.54-15.92-6.85-30.76-15.58-46-23.68-17-9-34.41-17.31-51.5-25.85-13,12.06-25.55,23.82-38,35.72-5,4.77-9.9,9.44-17.61,11.48-7.54,2-16.22,5.33-18.06,15.83-.66,3.76-3.48,8-8.73,7.83-3.58-4.14-.32-7,1.09-10.09.8-1.76,2.25-3.37,2.51-5.18.8-5.47,4.16-8.61,8.8-10.76,2.27-1.05,4.64-1.89,6.88-2.8-2.69-27.57-8.84-54.13-8.69-80.84C744.5,502,730,491,714.32,483.05c-14.46,9.71-28.58,19.08-42.58,28.62s-28.46,18.55-41.7,29.07-27.13,20.17-40.77,30.1S562.19,590.67,548,600.71a41.45,41.45,0,0,0,3.57,2.46c10.34,5.18,20.72,10.28,31,15.52,2.47,1.25,4.55,3.6,7.12,4.28,10.8,2.86,20.3,8.43,30.06,13.53,10.5,5.47,21.15,10.65,31.77,15.9C655.69,654.45,660.07,656.16,661.33,660.09ZM829,400.06C818.4,428,811.66,457.7,799.67,485.6c-4.32,10-6.51,21-9.78,31.89,8.45-.8,14.17,3.57,20,9,2.51-15,11.79-26.39,14.71-40.29,1-4.87,3.65-9.39,5.48-14.1,4.35-11.17,8.57-22.39,13-33.52,3.89-9.74,8-19.38,12-29.09a3.07,3.07,0,0,0-.15-1.69ZM863.1,407q-21.48,55.6-42.73,110.8c-.89,2.32-1.07,4.91-1.61,7.53,3.73-.32,7-1.12,10.22-.73s5.93,2,9.26,3.18c3.58-10.23,7.11-20.29,10.63-30.37s7-20.29,10.58-30.43,7.22-20.3,10.67-30.51c3.38-10,8.34-19.51,11-30.23Zm-53.43-21.3c-2.95,9.94-5.86,20-8.92,30-1.77,5.79-4.63,11.37-5.49,17.27-.92,6.28-3.68,11.58-6,17.22-2.83,7-5.52,14.1-7.9,21.28-.93,2.79.16,6.64-1.39,8.76-5,6.94-5.69,15.24-8.78,22.64l12.37,7.4c1.63-11.07,9.08-20.21,11-31.92,1.69-10.37,6.71-20.2,10.36-30.24,5.7-15.63,11.49-31.23,17.19-46.87a33.94,33.94,0,0,0,1-4.47ZM832.74,533c-1.74-.43-2.91-1-4-1-6.1.3-11.24,3.06-16.27,6.3-5.59,3.59-7.28,2.88-9.36-3.2-2.89-8.48-6.28-10.29-15.25-8.06-2.64.66-5.23,1.49-7.41,2.12-5.54-5.26-2-13.71-9.07-17.75-.56,10.5-.11,20.33,3.48,29.78a7.8,7.8,0,0,0,3.3,3.76c5.83,3.19,11.76,6.2,17.75,9.08,7.3,3.5,14.31,1.24,20.19-2.91,5.39-3.79,9.74-9.08,14.42-13.83C831.45,536.34,831.83,534.79,832.74,533Zm-12.8-177.82c-.48,6.76-.49,12,6.45,14.67,3.62,1.37,6.62,4.4,9.83,6.79,12.49,9.28,26.5,12.47,41.83,10.71,4-.47,8.77.05,10.57-4.52,1.89-4.79-2-8.13-4.5-11.58a18.79,18.79,0,0,0-3.9-3.7c-8.19-6.26-16.63-11.88-26.78-14.82C841.81,349.34,830.88,351,819.94,355.16Zm-4.46,337c-3.36,10-7.59,18.21-16.85,24.82,17.11,1.14,31.5-2.7,46.87-8.6-6.27-2.1-11.61-3.14-16.17-5.62C824.61,700.14,820.64,696.17,815.48,692.12Zm.61-322.25c-3.56,7.45-3.89,8.69.17,11.54,6.83,4.82,11.86,12.87,21.62,12.74,13.6,7.13,28.59,4.22,43,5.79,2.69.3,4.28-1.47,2.91-4.56C856.8,398.58,834.12,390.42,816.09,369.87Zm10.44,353.9c-.1-.38-.2-.76-.29-1.14-4.56.45-9.12.88-13.68,1.35-4.75.49-9.5,1-14.25,1.54a37.92,37.92,0,0,0,11.08,7,5.55,5.55,0,0,0,4.31-.46C818.08,729.46,822.27,726.56,826.53,723.77Zm-200-73.24c-10.17-8-28.68-16.49-35.42-16.16C602.8,641.73,614,647.51,626.57,650.53Zm53,43.68-12.76-5.79-5.18,6.39L676.2,700Zm-312.33,9.55M787.9,755.6l10.49,4.47C794.88,755.52,792.54,754.39,787.9,755.6Zm-102-41.33c4.86,5,4.88,5,10.7,3.94Zm121.47,49.22c2.87,1.53,5.08,3.07,8.63,1.88C813.21,763.33,811.21,760.84,807.38,763.49ZM829.11,771c-.91-2.37-1.82-4.74-3.31-8.6C825.16,769,825.16,769,829.11,771ZM650,662.05l-.42,1.33a12.23,12.23,0,0,0,2.64,1.2,8.53,8.53,0,0,0,2.53-.25c0-.3,0-.6,0-.9Zm-7.25-4.45-.93,1.42,3.86,2.6.8-1.19Zm252,77.55.68.64,2.1-2.29-.51-.47Z"/><path class="cls-2" d="M661.33,660.09c-1.26-3.93-5.64-5.64-9.79-7.69-10.62-5.25-21.27-10.43-31.77-15.9-9.76-5.1-19.26-10.67-30.06-13.53-2.57-.68-4.65-3-7.12-4.28-10.31-5.24-20.69-10.34-31-15.52a41.45,41.45,0,0,1-3.57-2.46c14.2-10,27.7-20,41.28-29.87s27.52-19.56,40.77-30.1,27.69-19.53,41.7-29.07,28.12-18.91,42.58-28.62c15.65,7.9,30.18,19,48.87,23.13-.15,26.71,6,53.27,8.69,80.84-2.24.91-4.61,1.75-6.88,2.8-4.64,2.15-8,5.29-8.8,10.76-.26,1.81-1.71,3.42-2.51,5.18-1.41,3.09-4.67,6-1.09,10.09,5.25.2,8.07-4.07,8.73-7.83,1.84-10.5,10.52-13.84,18.06-15.83,7.71-2,12.63-6.71,17.61-11.48,12.4-11.9,24.92-23.66,38-35.72,17.09,8.54,34.5,16.81,51.5,25.85,15.24,8.1,30.08,16.83,46,23.68,13.46,5.79,26.33,13,39.44,19.54,1.34.67,2.55,1.61,4.54,2.9-5.65,4.07-10.78,7.76-15.89,11.48-17.08,12.41-34.08,24.94-51.25,37.22-13.59,9.73-27.24,19.38-41.14,28.67-10.67,7.13-22.2,7.54-33.73,2-4.15-2-7.93-4.79-11.8-7.33-6.51-4.26-8.53-3.73-13.3,2.67a205.32,205.32,0,0,1-13.48,16.64c-5.77,6.27-13.1,8.83-21.48,6.14A71.92,71.92,0,0,1,761.65,709c-17.15-9.41-34.62-18.33-51.07-28.84-9.1-5.82-18.66-9.53-28.64-12.88-3.65-1.22-7.08-3.09-10.71-4.39C668.27,661.79,665.17,661.14,661.33,660.09Zm-17.94-48.53c7.78-6.26,15.13-12.23,22.55-18.11,6.23-4.92,12.8-9.43,18.77-14.63,17.12-14.91,34-30.07,51-45.15,3-2.62,2.78-3.48-1.54-7-4.58,3.94-9.24,7.93-13.87,11.94-4.07,3.53-8,7.18-12.18,10.6-11.79,9.71-23.66,19.33-35.49,29-1.8,5.69-7.4,7.81-11.64,10-7.82,4.1-12.84,10.8-18.94,16.5C639.83,606.82,640.19,609.38,643.39,611.56Zm109.9-55.62c-7.57,6.76-14.56,13.13-21.71,19.32-8.88,7.69-17.94,15.19-26.86,22.84-3.19,2.73-5.76,6.76-9.4,8.28-6.77,2.8-11,8.15-16.14,12.71-1.84,1.64-2.75,3.15-1.37,5.23,1.54,2.34,3.42,1.6,5.24.17,1-.8,2.17-1.39,3.14-2.22,15.14-13,32-23.87,46.43-37.84,7.33-7.1,15.33-13.49,21.75-21.54C757.58,558.86,757.71,558.79,753.29,555.94ZM742.1,617.83c-2.69,1.9-5.5,3.28-7.5,5.41-6.53,7-12.79,14.2-19.1,21.38-2.32,2.63-2.84,5.32,1.21,8.73,10.35-9.64,19.51-20.32,28.66-31.51Z"/><path class="cls-2" d="M906.76,708.73c5.42-4.84,10.52-10.12,16.34-14.43,8.18-6,16.9-11.36,25.36-17,2.73-1.83,6-3.58,2.36-8.33-3.29,2-6.52,3.87-9.63,5.9-8.79,5.74-17.66,11.36-26.25,17.37q-21.35,14.94-42.33,30.39c-4,2.94-8,5.76-11.37,9.75a33.76,33.76,0,0,1-12,8.66c-8.34,3.68-15.1,9.45-22.23,14.79-3.78,2.85-7.6,3.38-12.19,1.37-21.37-9.38-42.85-18.5-64.3-27.67-3.27-1.4-6.6-2.67-9.93-3.93-3.15-1.19-4.16.72-4.74,3.82l7,4.56-.61,1.32c-4.48-2-9.14-3.59-13.4-6-3.17-1.76-5.59-3.4-8.69.14-2.46,2.81-4.46.75-6.13-1.4,1.6-2.58,3.15-5.06,4.82-7.76l11,4.36c4.77-3.31,2.1-5.5-1.3-7.71,2.11-2.64,5.18-5.18.56-8.24-.69-.46.14-3.23.29-5.27L676.6,676.1l.59-1.42c7.44,2.33,15.25,3.39,22.08,7.77q15.9,10.21,32,20.18c1.72,1.07,3.82,1.53,5.65,2.46q17.19,8.64,34.34,17.39c.54.28.93.86.76,2.52-8.81-3.77-17.78-7.24-26.37-11.47-3.52-1.74-5.05-1.3-6.78,2.62,3.06,2,5.87,4.21,9,5.74,7.83,3.82,16,7.05,23.71,11,8.78,4.5,18.68,6.27,27.09,11.76,4.59,3,11,2.52,14.83,7.57.49.66,3.23-.37,5.79-.75-.85-3.7-1.58-6.85-2.5-10.81,6-4.83,11.51-10.79,18.81-14.84,9.16-5.09,18-10.75,25.52-18.26,4.5-4.46,10.09-7.85,15.27-11.6s10.44-7.54,15.83-11.06c6.66-4.34,13.6-8.24,20.19-12.67,3.57-2.39,6.58-5.58,10-8.2,6-4.63,12.1-9.2,18.32-13.57,3.32-2.34,7-4.13,10.47-6.32,6.06-3.84,12.07-7.77,18.06-11.73,1.48-1,2.75-2.28,4.21-3.3,2.45-1.71,5-3.31,8.09-5.37L989.65,652c-15.23,10.89-30.49,22-46.06,32.76-3.15,2.17-4.05,3.47-.89,7.06,4-2,8.23-3.62,12-6,8.37-5.34,16.76-10.63,23.91-17.73,2-2,6-2.06,9.15-3l-.21-.16Q967.8,680,948,695.27c-5.45,4.21-10.75,8.63-16.23,12.81-5,3.86-10.23,7.54-15.65,11.52l-3.56-5.31a7.44,7.44,0,0,1,1.08-1.23c4.19-2.87,8.43-5.65,12.58-8.57a36.73,36.73,0,0,0,6.47-5.19c1.25-1.41,1.6-3.61,3-7.12-7.61,1.47-11.74,5.32-16.33,8.23l-12.88,8.19ZM822,746.48a56.32,56.32,0,0,0,6.38-3.1c7.7-5.1,15.24-10.43,23-15.49,11.34-7.43,22.8-14.68,34.17-22.07,6.84-4.44,13.59-9,20.4-13.52,7-4.62,14.72-8.43,20.88-14,7.79-7,16.69-11.75,25.8-16.42a26.91,26.91,0,0,0,5.67-3.89q8.82-7.9,17.39-16.09a8.68,8.68,0,0,0,2.32-3.86,3.81,3.81,0,0,0-.76-3.33c-.69-.54-2.29-.18-3.4.13-.65.18-1.1,1-1.67,1.55-13.85,12.77-29.29,23.38-45.17,33.41-10.39,6.57-21,12.87-31.12,19.77-23.93,16.26-47.63,32.83-71.49,49.17C821.94,740.38,820.31,741.87,822,746.48Z"/><path class="cls-2" d="M829,400.06l26,7.72a3.07,3.07,0,0,1,.15,1.69c-4,9.71-8.09,19.35-12,29.09-4.45,11.13-8.67,22.35-13,33.52-1.83,4.71-4.46,9.23-5.48,14.1-2.92,13.9-12.2,25.31-14.71,40.29-5.87-5.41-11.59-9.78-20-9,3.27-10.9,5.46-21.85,9.78-31.89C811.66,457.7,818.4,428,829,400.06Z"/><path class="cls-3" d="M863.1,407l18.07-.76c-2.71,10.72-7.67,20.21-11,30.23-3.45,10.21-7.12,20.34-10.67,30.51s-7.05,20.29-10.58,30.43-7,20.14-10.63,30.37c-3.33-1.2-6.22-2.81-9.26-3.18s-6.49.41-10.22.73c.54-2.62.72-5.21,1.61-7.53Q841.61,462.43,863.1,407Z"/><path class="cls-3" d="M809.67,385.65l13.47,11.06a33.94,33.94,0,0,1-1,4.47c-5.7,15.64-11.49,31.24-17.19,46.87-3.65,10-8.67,19.87-10.36,30.24-1.91,11.71-9.36,20.85-11,31.92l-12.37-7.4c3.09-7.4,3.74-15.7,8.78-22.64,1.55-2.12.46-6,1.39-8.76,2.38-7.18,5.07-14.26,7.9-21.28,2.28-5.64,5-10.94,6-17.22.86-5.9,3.72-11.48,5.49-17.27C803.81,405.64,806.72,395.59,809.67,385.65Z"/><path class="cls-2" d="M832.74,533c-.91,1.81-1.29,3.36-2.25,4.34-4.68,4.75-9,10-14.42,13.83-5.88,4.15-12.89,6.41-20.19,2.91-6-2.88-11.92-5.89-17.75-9.08a7.8,7.8,0,0,1-3.3-3.76c-3.59-9.45-4-19.28-3.48-29.78,7,4,3.53,12.49,9.07,17.75,2.18-.63,4.77-1.46,7.41-2.12,9-2.23,12.36-.42,15.25,8.06,2.08,6.08,3.77,6.79,9.36,3.2,5-3.24,10.17-6,16.27-6.3C829.83,532,831,532.55,832.74,533Z"/><path class="cls-2" d="M819.94,355.16c10.94-4.21,21.87-5.82,33.5-2.45,10.15,2.94,18.59,8.56,26.78,14.82a18.79,18.79,0,0,1,3.9,3.7c2.52,3.45,6.39,6.79,4.5,11.58-1.8,4.57-6.53,4.05-10.57,4.52-15.33,1.76-29.34-1.43-41.83-10.71-3.21-2.39-6.21-5.42-9.83-6.79C819.45,367.19,819.46,361.92,819.94,355.16Zm19,18.21c3.07,1.73,5.63,3.24,8.25,4.65,7.11,3.82,15.57,3.29,20.85-1.1,2.74-2.28,3.72-4.8,1.82-8.05a38,38,0,0,0-2.39-3.92c-4.33-5.71-10.16-7.56-17.25-8.26-4.32-.42-6.85.29-10.19,2.77-4.54,3.37-3.36,6.86-2,10.84C838.47,371.49,838.76,372.72,839,373.37Z"/><path class="cls-2" d="M815.48,692.12c5.16,4,9.13,8,13.85,10.6,4.56,2.48,9.9,3.52,16.17,5.62-15.37,5.9-29.76,9.74-46.87,8.6C807.89,710.33,812.12,702.07,815.48,692.12Z"/><path class="cls-2" d="M816.09,369.87c18,20.55,40.71,28.71,67.65,25.51,1.37,3.09-.22,4.86-2.91,4.56-14.36-1.57-29.35,1.34-43-5.79-9.76.13-14.79-7.92-21.62-12.74C812.2,378.56,812.53,377.32,816.09,369.87Z"/><path class="cls-2" d="M576.91,637.81c1.22,0,2.65-.48,3.65,0,9.47,4.46,18.86,9.07,28.28,13.63l-5,7.86-9.57-2.6c1-2.3,1.76-3.9,2.6-5.77-3-4.58-8-6.11-12.4-8.47-2.61-1.38-5-3.2-7.46-4.82Z"/><path class="cls-2" d="M826.53,723.77c-4.26,2.79-8.45,5.69-12.83,8.28a5.55,5.55,0,0,1-4.31.46,37.92,37.92,0,0,1-11.08-7c4.75-.52,9.5-1,14.25-1.54,4.56-.47,9.12-.9,13.68-1.35C826.33,723,826.43,723.39,826.53,723.77Z"/><path class="cls-2" d="M801.81,772.09c5.47-2.71,9.64,1.76,14.42,2.77,3,.64,5.67,3.41,8.63,3.69s6.37-1.25,10.69-2.25c-1.83,1.63-2.84,2.69-4,3.53-1.44,1-3,1.87-4.51,2.79l-25.26-10.56Z"/><path class="cls-2" d="M801.77,772.06c-3.71-1.94-7.39-3.91-11.12-5.8-1.78-.9-3.64-1.63-5.28-3.56,1.75.16,4-.33,5.14.58,3.74,3,10.12,2.61,11.29,8.81Z"/><path class="cls-2" d="M787.9,755.6c4.64-1.21,7-.08,10.49,4.47Z"/><path class="cls-2" d="M807.38,763.49c3.83-2.65,5.83-.16,8.63,1.88C812.46,766.56,810.25,765,807.38,763.49Z"/><path class="cls-2" d="M906.55,708.6c-1.6,3.79-5.39,4.68-7.95,7.21-.34-.51-.69-1-1-1.51q4.59-2.79,9.19-5.57Z"/><path class="cls-2" d="M829.11,771c-4-2-4-2-3.31-8.6C827.29,766.24,828.2,768.61,829.11,771Z"/><path class="cls-2" d="M569.89,632.37a29.27,29.27,0,0,1-4.89,1.57c-3.41.5-3.43.38-5.5,5.33l8.17,4.21-4.41,5.38c11.63,8.77,25.68,11.06,37.73,17.59s25,11.66,37.73,17.47l-4.92,5.31c-7.43-4.07-14.78-8.11-22.14-12.12-2-1.11-4-2.27-6.1-3.22-7.59-3.45-15.27-6.7-22.81-10.25-6-2.85-12-5.95-17.85-9.09-1.73-.93-3.82-2.06-4.64-3.66a72.85,72.85,0,0,1-5.86-14.15c-2.14-8.16-3.5-16.53-5.26-25.13,13.6,5.38,26.73,11.92,38.68,21-7.53-3.28-15.07-6.54-22.59-9.84-1.17-.52-2.32-1.8-3.36-1.69-2.08.22-5,.55-5.9,1.94-1.47,2.21,1,3.46,2.94,4.34l11,5Z"/><path class="cls-2" d="M626.57,650.53c-12.61-3-23.77-8.8-35.42-16.16C597.89,634,616.4,642.48,626.57,650.53Z"/><path class="cls-2" d="M679.57,694.21,676.2,700l-14.57-5.2,5.18-6.39Z"/><path class="cls-2" d="M685.91,714.27l10.7,3.94C690.79,719.25,690.77,719.25,685.91,714.27Z"/><path class="cls-2" d="M650,662.05l4.73,1.38c0,.3,0,.6,0,.9a8.53,8.53,0,0,1-2.53.25,12.23,12.23,0,0,1-2.64-1.2Z"/><path class="cls-2" d="M642.75,657.6l3.73,2.83-.8,1.19-3.86-2.6Z"/><path class="cls-2" d="M894.8,735.15l2.27-2.12.51.47-2.1,2.29Z"/><path d="M643.39,611.56c-3.2-2.18-3.56-4.74-1.37-6.79,6.1-5.7,11.12-12.4,18.94-16.5,4.24-2.22,9.84-4.34,11.64-10,11.83-9.66,23.7-19.28,35.49-29,4.15-3.42,8.11-7.07,12.18-10.6,4.63-4,9.29-8,13.87-11.94,4.32,3.48,4.49,4.34,1.54,7-17,15.08-33.85,30.24-51,45.15-6,5.2-12.54,9.71-18.77,14.63C658.52,599.33,651.17,605.3,643.39,611.56Z"/><path d="M753.29,555.94c4.42,2.85,4.29,2.92,1.08,6.95-6.42,8.05-14.42,14.44-21.75,21.54-14.39,14-31.29,24.81-46.43,37.84-1,.83-2.13,1.42-3.14,2.22-1.82,1.43-3.7,2.17-5.24-.17-1.38-2.08-.47-3.59,1.37-5.23,5.12-4.56,9.37-9.91,16.14-12.71,3.64-1.52,6.21-5.55,9.4-8.28,8.92-7.65,18-15.15,26.86-22.84C738.73,569.07,745.72,562.7,753.29,555.94Z"/><path d="M742.1,617.83l3.27,4c-9.15,11.19-18.31,21.87-28.66,31.51-4.05-3.41-3.53-6.1-1.21-8.73,6.31-7.18,12.57-14.4,19.1-21.38C736.6,621.11,739.41,619.73,742.1,617.83Z"/><path d="M822,746.48c-1.64-4.61,0-6.1,2.36-7.72,23.86-16.34,47.56-32.91,71.49-49.17,10.16-6.9,20.73-13.2,31.12-19.77,15.88-10,31.32-20.64,45.17-33.41.57-.52,1-1.37,1.67-1.55,1.11-.31,2.71-.67,3.4-.13a3.81,3.81,0,0,1,.76,3.33,8.68,8.68,0,0,1-2.32,3.86Q967,650.1,958.21,658a26.91,26.91,0,0,1-5.67,3.89c-9.11,4.67-18,9.4-25.8,16.42-6.16,5.55-13.88,9.36-20.88,14-6.81,4.49-13.56,9.08-20.4,13.52-11.37,7.39-22.83,14.64-34.17,22.07-7.72,5.06-15.26,10.39-23,15.49A56.32,56.32,0,0,1,822,746.48Z"/><path d="M839,373.37c-.19-.65-.48-1.88-.89-3.07-1.38-4-2.56-7.47,2-10.84,3.34-2.48,5.87-3.19,10.19-2.77,7.09.7,12.92,2.55,17.25,8.26a38,38,0,0,1,2.39,3.92c1.9,3.25.92,5.77-1.82,8.05-5.28,4.39-13.74,4.92-20.85,1.1C844.58,376.61,842,375.1,839,373.37Z"/><path class="cls-4" d="M435.82,643.43c8.67,14.91,12.07,31.73,6.93,48.52-3,13.47.58,29.25-11.09,39.36-31.41,40.2-103,52-137.87,10.47-18.61-18.29-9.15-43.61-5.08-65.58,3.13-21.35,19.14-36.2,34.91-49.21,8.44-3.53,18.77-9.1,28-7.46,2.23.92,4.51.36,5.38-1.62,3.29-5.88,11-2.76,16.42-3.83C397.48,613.22,424.37,620.24,435.82,643.43Zm19.34-2.58c-21.09-40.65-61.11-49-102.08-36.24-27.85-3.05-55.94,19.34-71.77,41.64-6.83,11.2-11.95,23.27-12,36.59-.7,10-5.09,19.77-2.28,29.88,5.06,45.37,56.41,73.45,99.15,65.38,28.58-1.88,54.2-15.29,74.18-35.34,9.32-7.77,18.72-17.79,19.17-30.55C462,681.67,471.11,670.7,455.16,640.85Z"/><path class="cls-4" d="M341,891.76c-7-10-30-19.62-37-4.31-3.22,5.07,24.61,20.56,28.48,16.68.72-.45,2.05-.17,3,.09C342.44,905.94,346.39,895.93,341,891.76Z"/><path class="cls-4" d="M321.65,802.44c6.86,7.89,19.25,14.57,29.66,9.67,10-5.27-1.68-16.38-7-20.86C338.05,782.73,314.21,792.19,321.65,802.44Z"/><path class="cls-4" d="M347.65,843.86c-2.86-7.6-12.93-4.44-19.22-6.31-6.25-1.08-10,2.82-13.87,6.55-2,11.62,17,13.38,25.19,16.68C346.77,861.57,352.74,849.71,347.65,843.86Z"/><path class="cls-5" d="M338.1,900.53c-7-6.85-15.39-8.71-24.61-5.72-4.44.83-2.87-11.5,1.65-9.76C322.17,886.38,346,889.64,338.1,900.53Zm5-89.11c-3.43-1.48-16.77-.19-16.44-3.92,1.82-4.93,3.15-16.33,10.61-13.6,1.42,1.17-1.3,3.69,2,2.88,7.14-1.66,7.23-1.65,6.49,5.42C345.11,805.23,345,808.92,343.1,811.42Zm-2.61,46c-6.66-2.37-13.08-5.41-20.43-4.92-1.67,0-3-.71-2.58-2.47,1.2-3.19.1-9.79,5.21-8.76C332.26,842,348.08,844.59,340.49,857.44ZM312,920.25c-.79-5.24-3.53-14.67,4.68-14.74,7.19.14,17.82,1.59,20.8,9,.26,2.72-2.76,2.43-4.61,2.41C325.59,916,318.63,920.06,312,920.25ZM320.9,834c.51-4.06.59-17,6.44-15.85,5.14,2,16.5-.42,16.3,7.18-.41,3.37,1.74,12.31-3.91,10.69C333.71,833.56,326.22,836.88,320.9,834Zm18.56,48.89C314.28,870.7,309,885.25,314.74,863c1.6-6.53,14,1.64,18.83,1.72,3,1.14,8,1.29,7.88,5.49C341.06,874.41,342.87,879.65,339.46,882.86ZM292.25,722.41c-12.29-18.22-8.24-43-1.43-62.69,10.36-24.15,36.81-40.17,62.46-43.07,44.44-7.29,92.91,19.31,92.63,68.21,2.93,23.07-8.81,41.89-24.93,57.19C377.17,781,321.5,774.44,292.25,722.41Zm58.05,65.24c1.36-3.82-.8-10.81,3.87-11.64a102,102,0,0,0,74.09-32.07c38.72-35.26,27.34-103.11-18.2-127.13-52.27-31.26-134.46,3.17-135.7,67.66-6,39.86,27.91,75.08,63,88.18,3.84.64,4.73,3.25,4.1,6.82,1.05,13.54-15.59-8-23.42,19.55a129.06,129.06,0,0,0-6,30.33c-1.1,20.72-8.13,40.53-8,61.35,1.8,7-8.28,18.56-2,19.52,4.4,1.95,2.26,8.36,3.55,12.27.56,3.94-3.67,6.18-4.88,9.61-2.77,14.43,22.19,11.89,29.84,6,4.13-3.62,11.66-4.51,13.35-10.24,2.75-22.31,4.27-45,6.16-67.51,1.3-15,5-29.71,4.91-44.87C353.81,807,362.23,789.93,350.3,787.65Z"/><path class="cls-4" d="M519.26,705.8c-1.48-9-51.71-22-42.13-6.61C483.23,700.67,522,718.62,519.26,705.8Z"/><path class="cls-4" d="M517.43,628.51c5.65-11.14-40.41-3.8-45.76-.48-15,12.37,41.5,4.08,45.76.48"/><path class="cls-4" d="M208.78,654.52c9.3,8.63,35.3,15.92,47,10.66C260.74,654,215.1,650.91,208.78,654.52Z"/><path class="cls-4" d="M389.57,802.37c4.42,7.15,16.89,27.19,17.8,7.11C403,784.46,377.34,778.31,389.57,802.37Z"/><path class="cls-4" d="M458.64,555.68c-7.29,5.85-11.91,15-15.49,23.5-3,4.45-.89,15.6,5.49,9.63,3.55-6.26,6.9-12.62,10.37-18.92a37.54,37.54,0,0,1,7.28-9.89C470,553.4,463.53,552.43,458.64,555.68Z"/><path class="cls-4" d="M454.11,758.23c6.49,6.22,18.7,15.36,27.9,12.93C488.86,764.55,448.12,739.26,454.11,758.23Z"/><path class="cls-4" d="M388.66,587.1c13.79-5.46,2.88-42.93-6.18-23.85-1,7.48,4.1,14.63,2.28,21.83C383.53,587.87,387.08,588.16,388.66,587.1Z"/><path class="cls-4" d="M322.77,591.31c11.53,15.39,8.39-27.11,0-28.37C314,564.93,320.18,585.08,322.77,591.31Z"/><path class="cls-4" d="M251.38,794.53c1.1.32,2.36,1.36,3.4.51,4.5-4.72,10.73-6.68,16.09-10C290.91,767.59,257.27,770.13,251.38,794.53Z"/><path class="cls-4" d="M241.1,736.16c3.89-1,9.45-9.67,2.28-8.94-8.11,3.36-17.72,8.84-22.65,15.65C227.61,741.86,234.3,738.15,241.1,736.16Z"/><path class="cls-4" d="M274.87,613.07c-2.27-4.85-13.31-16.43-14-5.22C263.79,614.08,283.84,631.27,274.87,613.07Z"/><path class="cls-5" d="M372.16,697.87c7.29-31-8.27-44.2,8.07-38.57,12.08,5,20.09,15.59,28.62,25C414.12,690.91,377.2,699,372.16,697.87Zm-25.84-.74c-15.18-.2-31.43-9-37-23.61,6.49-11.07,24-16.21,36.78-17.82,2-.24,2.56.64,1.78,2.68C343.06,671,343.74,684.07,346.32,697.13ZM409.93,695c13-4.9,5-8.6.31-17.19-4.1-5.17,6-6.3,7.38-10.62,1.15-6.09-7.6-2.94-10.38-1.16-4,2.42-5,2.48-8.32-1.49-2.19-2.24-5.51-4.25-6.83-7-.39-3.06,4.47-7.92,5.83-11.26,1.56-2.18-1.45-4.64-3.55-3.65-4.92,1.95-4.72,7.83-8.16,11.1-12.33-6.37-19.7.87-16.77-16.49.55-3.05-2.37-3.7-5-3.85-3.69,1.77-1.92,7.64-3.06,11.09-1.44,5.25-10.28,1.68-14.56,2.7-5.85.4-1.6-15.07-8-13.18-8.45,5.15,1.05,11.9-4.54,15.47-4.48.54-15.21,8.72-17.86,4.59-1.23-4.29-1.86-9.58-6.89-10.86a2.47,2.47,0,0,0-3.24,2.57c1.22,2.74-.61,5.7,1.34,8.23,11.47,8.08-7.58,9.23-10.39,16.33-3,5.8,6.47,2.81,6,8.28C318.84,715.88,380.28,713,409.93,695Z"/><path class="cls-4" d="M293.76,457.62c89.06-44.83,185.86-74.34,281.42-102.41,5.86-2.62-3.59-8.66-7.31-6.28C495.06,366.6,425,393.34,352.27,411.2c-25.54,6.55-50.63,15.15-75.71,23.11C272.11,437.16,290.37,455.87,293.76,457.62Zm243-52.32C524.89,393,584,378.13,593,374c9.19-1.18-11.23-18.17-13.4-10.53-19.19,13.78-45.78,16.39-67.75,25.53C455.25,406.1,400.45,428.67,344,446.28a346.51,346.51,0,0,0-33.54,11.88c-14.21,5.88-12.24,4.15-2.7,14.16,2.4,2.52,4.55,2.82,7.68,1.43,11-2.59,87.4-42.73,86.75-25.63-16.49,17.16-54.36,21.67-77,32.85-11.9,2.95-4.55,10.48,1.52,15.68,8.68,5.89,14.77,16.38,25.37,7.82,28.57-12.25,59.18-18,88.16-29.16,59.38-19.6,119.39-37.49,177.2-61.56,30.56-9.84-.94-13.4-14.14-33.59C583.86,388.93,559.2,398.67,536.73,405.3ZM344.38,528.9c-9.58,1.25-34.69-15.62-40-23.53-3.84-5.75-7.2-12-14-15-11.22-13.94-23.46-26.82-32.83-42.42-2.81-5.84-10.73-10.84-9.22-17.78,1.67-4.78,1.6-11.12,7.7-12.5C357.53,387.9,459.44,360,560.7,329.06c31.55-7.23,50.36,39.46,74.24,54.45,25.31,20.3,39.92,32.32-1.41,44.11C539.92,468,441.48,499.91,344.38,528.9Z"/><path class="cls-4" d="M475.43,278.69c-5.71-11.83-26.6-111.72-39-103-74.1,16-146.9,35.55-218,61.77-20.17,1.15,11.2,29,15.69,35.67,8.31,8.6,11,20.16,15.16,30.94,4.44,13,13.25,23.69,17.74,36.64,1.43,4.47,2.9,4.93,7.2,3.23,29.51-12.46,61.5-16.2,92.11-24.7C402.5,306,440.54,293.05,475.43,278.69Zm-288.35-50.9c-1-12.63,3.91-6.64,11.59-9.55,33.5-4.18,63.77-20.29,96.05-29.64,44.72-14.68,91.21-22.08,136.94-32.68,36.58-9.17,35.66,27.33,47.29,51,8.56,20,12.9,41.44,19.47,62.16,2.73,8.2,4.08,17.88-5.63,21.69-55.42,19.65-108.52,46.51-166.66,57.63-20,.91-53.65,25.51-69.31,14.07-13.06-16.88-24.51-36.25-31.59-56.49-3.16-10.53-9.49-19.23-16-27.77C199.27,263.87,187.35,244.75,187.08,227.79Z"/><path class="cls-4" d="M100.24,296.12C88.15,297.76,62.65,286,80.33,274.59c16.15-1.43,33-5.26,49-.59,3.92,1.23,3.36,5.58,1.63,8.52C129.78,297.74,110.82,293.68,100.24,296.12Z"/><path class="cls-4" d="M145.52,363.52c9.34-1.48,22.94,8.15,15.59,14.86-14,3.48-48.48,41.07-49,7.54C120.08,375.36,131.84,364.44,145.52,363.52Z"/><path class="cls-4" d="M162.15,483.49c3-12.28,11.46-23.49,20.48-32.3,9.69-11,24.41-2.68,14.75,10.25C188.82,470.69,170.73,514.67,162.15,483.49Z"/><path class="cls-4" d="M209.12,89.4c7.5-26.48,25.39,7.92,32.17,17.86,6.11,6.14-.19,10.88-6.63,10.62C222.38,113.59,209.13,103.51,209.12,89.4Z"/><path class="cls-4" d="M269,550.41c-.12-6.58,1.18-21.19,10.38-19.22,3.38.83,7.07,1.39,7.18,6-.67,9.42-2.52,18.78-3.61,28.17C274.52,582.4,267.07,559.16,269,550.41Z"/><path class="cls-5" d="M681.19,416.17c-36.93-25.46-72.87-57.33-109.63-81C477.89,363.73,384.71,394.52,289,415.91c-8.58,3.2-35.23,4.44-36.58,12.84,30.55,30.57,59.63,62.57,89.37,94,4,5.12,8.27,8.29,14.58,4.62,34-11.78,68-23.2,102.14-34.58C532,465.93,609.75,446.06,681.19,416.17ZM567.08,321.71c-2.58-21.73-15.49-41.47-24.45-61.18-21-43.71-34.6-90.46-54.7-134.56-12.29-39.55-8.23-25.22-46.14-20.32q-73.14,17.79-144.86,41c-28.86,9.78-58.24,17.95-87.41,26.77-7.42,3-17.16,3.8-23.2,8.89-1.1,2.82-3.45,3.88-5.6,5.2-10.64,6.52-21.44,12.79-32.17,19.16-3.94,3,1.85,8.07,2.58,11.63,27.4,64,45.36,131.87,81.84,191.86,1.94,2.88,4.41,8.74,8.71,6.46,8-4.19,16.14-8.1,24.95-10.13,52.33-10.62,103.5-25.78,154.85-40.06,41-10.46,81.95-21.48,122.06-35.12C550.2,327.62,564.62,329.33,567.08,321.71ZM150.78,194.78c-26.1-3.13,37.08-24.77,41.85-28.7,73-26,147.29-52.75,223.56-69.09,80.17-14.56,66.82-27,92.87,41.86,16.32,36.59,25.63,75.91,43.48,111.93,9.53,21.69,22.43,42.35,27.43,65.7.7,4.17,5.79,2.4,7.95,5.52,14.21,12,30.38,20.72,44.8,32.38,10.13,11.2,107.47,65.16,62.23,70.07-118.19,36.41-234.13,85.72-353.39,116-23.28-6-31.75-33.89-49.91-47.76-19.14-18.15-34.13-40.71-55.56-56.31-31-33.91-46.38-83.91-68.18-124.36-13-12.18-14.92-29.52-22-44.75-13.41-20.81-21.09-44.74-14.21-69.23.59-2.39,5.22-2.13,6.64-1.32C143.46,200.28,145.69,196.49,150.78,194.78Z"/><path class="cls-5" d="M203.91,532.2c.5-10.89,9.12-57,16.19-47.27,3.27,11-6.85,38.9-8.64,51.82C208.36,551.87,205.13,542.46,203.91,532.2Z"/><path class="cls-5" d="M79.12,360.93c-27.83-4.59,43.94-40.76,49.76-29.81C131.3,342.43,89.23,357.9,79.12,360.93Z"/><path class="cls-5" d="M115.39,466c-1.76-9.62,40.07-52.91,43.51-31.63C154.05,440.21,118.71,484.74,115.39,466Z"/><path class="cls-5" d="M675.71,424.67c-8.28-3.53-31.76-2.56-34.88-11.58C643,399.59,691.8,417.15,675.71,424.67Z"/><path class="cls-5" d="M489.48,289.89c-.34-9,7.31,1.68,11-1.74-6-27.4-23.86-54.67-35.17-81.4-6.76-14.77-13.71-29.48-17.89-45.29-.8-7-7.38-4-12.13-3.71-63.67,13.88-125.42,35.44-189.2,49.05-16.87,4.55-33.4,10.37-50.17,15.28-6.83,3.71,5.36,10.56,6.17,15.3,14.6,32.59,27.49,65.56,47.73,95,7.22,7.75,17.22,39.17,29.42,31.23C348.12,337.42,424,321.5,489.48,289.89ZM270.94,377.72c-20.91-2-29.05-29.69-39.45-45.09-23.85-30.45-30.84-69.37-48.35-103.2-11.5-15.29,69.86-34.62,81.48-40,61.15-14.28,120-37.95,182.06-47.92,20.44-3.15,18.42,33.61,28.71,46.36,14.36,29.76,28.18,59.88,38.16,91.47,1.09,4.75,6.13,10,2.17,14.56-9.17,12.77-26.51,7.2-38.78,14.7C409.66,335,339.68,357.46,270.94,377.72Z"/><path class="cls-5" d="M542,412c-32-16.91-38.81-17-71.28-2.72-13.37,5.6-26.84,11.08-39.15,18.84-9.8,6.16-9.65,4.18-3.91,14.09,3.42,3.66,4.68,14.64,11.06,12.23,14-5.65,28-11.11,41.82-17.17C500,426.88,523.58,422.83,542,412Zm-139.2,20.19c12.1-20.21,43.88-27.28,65.27-36,9.42-5.12,30.12-2,35.37-8.69.74-1.76,3.28-2,5.44-1.9,9.82.68,67,18.67,49.39,32.15-36.16,18.46-75.62,30.62-112.29,48.55-14.47,10-20.92,5.58-28.89-8.76C412.17,449.22,403.65,442.22,402.78,432.17Z"/><path class="cls-4" d="M701.14,388.12c4.12,1.51,6,5.43,7.39,9,1.15,4.69,3.17,7.11,8.26,7.6,5.94-.3,18.26,11.41,8.6,14.78-7.52,1.46-14-.78-11.92,9.82-.2,3.7,2.22,9.23-1.42,11.69-4.16.76-13.75-13.62-13.67-18.19-.23-2.88-2.49-3.6-4.89-3.63-6.33.86-17.87-12.1-7.72-14.16,3.62-1.08,8.34-.85,10.68-3.15C699.23,398.73,696.44,391.21,701.14,388.12Z"/><path class="cls-5" d="M672.43,204.93c-16.55-2.85-17-2.71-18.2,13.54-2.77,14.32-16.85,1.76-14.11-8.18,0-11.94.9-10.09-9.92-12.6-10.16-2.08-8-7,1.17-7.75,12,1.73,9.27-10.16,12.76-17.82,1-4.79,9.46-3.82,10.21.9,2,5.68-1.49,16.14,5.34,18.5s16.05,1.18,20.36,7.83C683.49,204.66,675,205.15,672.43,204.93Z"/><path class="cls-5" d="M657.36,319.33c-6.88-19.39-7.24-25.26,8-6.2,6.68,8.49,19.06.21,28.2,4.54,12,7.67-10.48,10.87-16.07,11.77-8.34,3.15,1.87,16.44-2.85,21.92-10.77,1.68-6.75-17.79-16.14-16.95-9.22,2.93-30.48,10.63-14.22-6.07C648.69,325.57,654.58,324,657.36,319.33Z"/><path class="cls-4" d="M365.32,50.69c19.43,4.66,23,31.27,4.34,39.22C338.74,99.43,326.4,41,365.32,50.69Z"/><path class="cls-4" d="M564,121c-15.9-12.54-5.54-37.31,14.43-36.74C618.54,85.13,591.39,138.28,564,121Z"/></g></svg>