<svg xmlns="http://www.w3.org/2000/svg" viewBox="0 0 1024.15 1015.24"><defs><style>.cls-1{fill:#f7f0ed;}.cls-2,.cls-6,.cls-7{fill:#1a1a1a;}.cls-3{fill:#ff7b5c;}.cls-4{fill:#d88f70;}.cls-5{fill:#cf9546;}.cls-6,.cls-7{stroke:#1a1a1a;stroke-miterlimit:10;}.cls-6{stroke-width:8.5px;}.cls-7{stroke-width:8.66px;}</style></defs><g id="strategic_thinker" data-name="strategic thinker"><circle class="cls-1" cx="511.65" cy="508.5" r="502.5"/><path class="cls-2" d="M154.92,464.85c.31-11.51-2.65-23.13-4.67-34.4-.55-3.12-1.09-6.24-1.56-9.37-.12-.81-.23-1.62-.35-2.43-.37-2.5.45,3.67.15,1.14-.21-1.79-.43-3.59-.61-5.39a136.82,136.82,0,0,1-.53-21.23c.1-1.85.25-3.69.45-5.54.07-.62.44-3.52.08-.82s.16-.95.28-1.64a99.08,99.08,0,0,1,2.63-11.43q.86-2.92,1.89-5.79c.36-1,.74-1.94,1.11-2.92.86-2.28-1.32,2.86.09-.2a110.66,110.66,0,0,1,6.46-12.17c1.15-1.87,2.36-3.69,3.62-5.48.7-1,1.42-2,2.14-3,.22-.29,1.38-1.67.13-.18-1.47,1.77.78-.92.86-1A137.05,137.05,0,0,1,178,331.24c1.94-1.87,3.93-3.68,6-5.45q1.71-1.49,3.46-2.92l1.54-1.25c.51-.42,1-.83,1.56-1.25l-1.44,1.12c3.74-2,7-4.93,10.82-7,1.68-.9,3.74-1.53,5.32-2.59.13-.09-3.15,1.25-1.67.7l1.13-.46c1-.39,2-.75,3-1.1a87.1,87.1,0,0,1,10.5-2.85c1.75-.36,3.5-.67,5.26-1,.75-.12,1.51-.21,2.26-.33-5,.83-1.41.19-.18.05,3.57-.4,7.14-.7,10.72-1,17.1-1.35,34.31-2.88,50.6-8.65a149.48,149.48,0,0,0,30.28-14.72c7.46-4.76,14.37-10.3,21.55-15.47a326.32,326.32,0,0,1,33.18-21.24q8.46-4.66,17.28-8.65c1.48-.66,3-1.27,4.46-1.95-1.26.59-3.17,1.32-1,.42l2.6-1q4.62-1.82,9.31-3.44A238.25,238.25,0,0,1,446,221.13l2.82-.42,1.21-.17c1.65-.26-2.15.28-1.91.25,2.08-.21,4.15-.52,6.22-.75,4-.44,8-.79,12.05-1.08,8.64-.61,17.3-.88,25.95-.88a546.67,546.67,0,0,1,61.07,3.71c2.62.3,5.24.6,7.86.93q2.16.25,4.32.54l1.87.24c1.48.19,2.55.31.43.05,6.07.74,12.12,1.7,18.15,2.65,8.73,1.38,17.39,3.18,26,5.31,9.39,2.33,18.69,5.06,27.86,8.13q7.37,2.48,14.63,5.25c2.18.84,4.36,1.7,6.52,2.58l2.21.9c-1.85-.77-.13-.06.2.09l2.47,1.07a285.78,285.78,0,0,1,26.57,13.24q6.21,3.53,12.2,7.44c1.93,1.27,3.85,2.57,5.74,3.91l2.37,1.71c.44.33,3.8,2.86,2,1.45s1,.84,1.47,1.2q1.28,1,2.52,2.1,2.44,2.09,4.78,4.29c1.48,1.4,3,2.82,4.34,4.32a17.83,17.83,0,0,0,1.86,2.17s-1.85-2.65-1.06-1.36c.37.6.84,1.16,1.23,1.73a78.15,78.15,0,0,1,6.12,11q.6,1.29,1.17,2.58c1.06,2.36-1.12-2.78.18.45.93,2.29,1.8,4.59,2.64,6.91,6.34,17.57,10.52,36.4,19.76,52.78,5.5,9.75,12.84,18.46,20.72,26.37,7,7,14.41,13.68,20.68,21.4.21.26,1,1,1,1.28,0,0-1.63-2.24-.64-.8.75,1.1,1.55,2.15,2.3,3.25,1.67,2.48,3.2,5.06,4.64,7.68,2.8,5.1,5.56,10.22,8.13,15.43q1.79,3.63,3.42,7.32c1.15,2.58.15.38-.05-.13.23.58.47,1.15.69,1.73q.9,2.29,1.7,4.63c.87,2.53,1.64,5.08,2.29,7.67.36,1.39.67,2.79.95,4.2.16.81.26,1.63.44,2.43.47,2.16-.19-2.32,0-.38a61.24,61.24,0,0,1,.31,6.77c0,.88-.15,1.75-.17,2.63,0,1.92.64-3.31.2-1.48-.12.51-.19,1.05-.3,1.57-.19.88-.42,1.76-.68,2.62-.2.64-1.41,3.59-.26,1s-.2.35-.46.86c-.37.74-.78,1.46-1.21,2.18-.85,1.42-1.87,2.71-2.77,4.1s1.42-1.8,1.24-1.61-.6.75-.89,1.11c-.61.74-1.23,1.46-1.85,2.19-2.26,2.61-4.59,5.14-6.8,7.79-6.38,7.63-11.45,15.5-14.71,25-2.75,8-3.55,16.6-3.51,25,.1,17.51,2.83,35,4.75,52.32.91,8.27,1.78,16.57,2,24.89a79.7,79.7,0,0,1-.26,9.65,28.55,28.55,0,0,0-.38,3.43s.45-3,.18-1.34c-.08.52-.15,1.05-.23,1.57q-.62,3.94-1.45,7.83a110.67,110.67,0,0,1-4.07,14.28,15.32,15.32,0,0,1-1.32,3.44s1.2-2.67.47-1.14c-.3.63-.57,1.27-.87,1.9-1,2.2-2.16,4.35-3.39,6.43s-2.6,4-4,6c-1,1.38.76-1,.75-1a8.28,8.28,0,0,1-1.31,1.58c-.78.91-1.59,1.79-2.42,2.65s-1.7,1.7-2.59,2.51l-1.67,1.5c1.58-1.41-1.66,1.16-2.1,1.45q-2,1.31-4,2.44c-1,.57-2.08,1.11-3.14,1.62a10.59,10.59,0,0,1-2.15,1c.1,0,2.47-.94.83-.37-2.81,1-5.57,2-8.43,2.82A138.11,138.11,0,0,1,743,696.12c-1,.15-3.53.51-1.08.18-1.56.21-3.12.4-4.69.58q-5,.57-10.09,1-9.43.7-18.91.74t-18.91-.6q-4.72-.32-9.43-.8c-1.34-.14-2.69-.29-4-.45l-2.68-.33c1.48.18,1.32.19-.06,0-11.07-1.65-22.55-5-33.8-3.77-14.18,1.56-27.15,10.23-29.87,25.1-2.33,12.7,1.37,24.94,4.48,37.17l9.59,37.7c2.85,11.19,6.27,22.39,8.26,33.77.11.64.19,1.28.31,1.92.3,1.63-.2-1.52-.19-1.53-.34.6.28,2.61.34,3.39a57,57,0,0,1,.15,7.16c0,.7-.45,2.14-.22,2.78-.1-.29.71-3.72.14-1.26-.1.44-.17.88-.27,1.32-.23,1-.57,2-.83,3-.12.47-.78,1.92.13-.16,1.06-2.4-.16.22-.34.55-.3.56-1.27,1.56-1.35,2.16.23-1.8,2-2.18.72-1-.31.29-.63.62-.92.93s-.93.66-1,.88c.25-1.34,2.54-1.64.82-.73a15.29,15.29,0,0,0-1.42.81c-1.35,1,2.66-.69.07,0-.78.19-2.52.29-3.15.72,1.48-1,2.5-.17.72-.22-.55,0-1.1,0-1.64,0-.74,0-1.48-.11-2.21-.13-1.75-.06,1.17,0,1.19.16a42,42,0,0,0-4.38-1c-1.26-.37-2.48-.86-3.73-1.27-1.65-.56,1,.33,1,.42s-1.35-.63-1.45-.68a69.51,69.51,0,0,1-7-3.86c-1-.66-2.06-1.34-3.06-2.05L603,837.6c-1.47-1.05,0-.81.51.41-.29-.67-1.87-1.53-2.44-2-1.06-.91-2.11-1.86-3.13-2.83a111.73,111.73,0,0,1-10.12-11c-.19-.23-1.27-1.7-1.35-1.68s1.69,2.24.67.87c-.76-1-1.52-2-2.27-3q-2.24-3.09-4.36-6.25c-13.16-19.54-24.67-40.23-37.31-60.12-13.44-21.17-27-42.45-41.72-62.73A155.75,155.75,0,0,0,489,673.83a131.88,131.88,0,0,0-11.2-10.07c-4.58-3.86-8.92-8-13.46-11.89-10.15-8.73-21.23-15-34.55-17.41A174.55,174.55,0,0,0,400.25,632c-2.71,0-5.42,0-8.13,0-1.1,0-2.2-.08-3.29-.17-.47,0-.93-.09-1.4-.12-2.1-.14.65,0,1.21.19-1.78-.78-4.34-.77-6.25-1.25-2.19-.56-4.34-1.23-6.46-2-.84-.31-1.67-.67-2.52-1-1.82-.65,2.8,1.3,1.07.45-.41-.2-.83-.37-1.24-.56-2.05-.95-4.07-2-6.06-3.09-3.77-2.08-7.41-4.39-11-6.82-7.33-5-14.28-10.52-21.33-15.89C320.09,590.46,304.27,579.61,286,575c-16.92-4.3-34.85-4.45-52.13-6.41l-3.3-.39c-3.52-.44,2.37.36-.25,0-2.14-.32-4.28-.64-6.4-1a114.24,114.24,0,0,1-12-2.77c-1.83-.54-3.62-1.2-5.42-1.84-2.37-.83,3.37,1.62.32.13-.8-.39-1.59-.76-2.37-1.18-1.47-.79-2.82-1.93-4.3-2.67-.12-.06,2.59,2.27,1.64,1.26-.31-.33-.71-.6-1-.9-.74-.65-1.44-1.34-2.14-2a115.35,115.35,0,0,1-9-10c-.34-.42-2.34-2.93-1-1.2s-.9-1.23-1.24-1.69q-2.26-3.12-4.4-6.33a205.18,205.18,0,0,1-14.69-26.21c-.81-1.72-1.57-5.08-2.89-6.44,1.28,1.31.83,2,.24.57l-.61-1.5c-.46-1.16-.92-2.32-1.36-3.49-1.67-4.41-3.18-8.88-4.5-13.4-1.24-4.28-2.31-8.62-3.14-13-.2-1.08-.38-2.17-.56-3.26-.58-3.46.22,2.43,0-.14-.22-2.05-.41-4.1-.52-6.16-.4-7.76-6.55-15.25-14.88-14.88-7.72.35-15.32,6.56-14.88,14.88,1.11,21.28,8.09,41.67,17,60.85,8.58,18.51,19.81,36.59,34.16,51.19,13.47,13.7,31.49,18,49.92,20.45,9.46,1.27,19,2.09,28.46,3,4.33.4,8.65.84,13,1.36,3.39.4-2.67-.42-.19,0l2.43.37c1.91.31,3.82.66,5.71,1.07a81.59,81.59,0,0,1,11.73,3.63c2.47.94-2.69-1.22.39.18,1,.45,2,.93,3,1.42q3.19,1.59,6.28,3.38a215.86,215.86,0,0,1,22.48,15.47c15.09,11.48,29.76,23.11,47.7,29.86,9.41,3.54,19.4,4.73,29.41,4.71,5.36,0,10.72.09,16.07.44,2.15.14,4.29.32,6.42.56l1.28.14c2.49.28-1.36-.17-1.51-.2,1,.23,2.06.31,3.07.5a66,66,0,0,1,9.21,2.3c.76.26,1.5.56,2.26.82,2.16.74-3.43-1.58-1.42-.61,1.25.6,2.49,1.18,3.7,1.85,2.27,1.27,4.3,2.82,6.44,4.27-.94-.64-3.16-2.53-1.11-.82l1.48,1.22c1.09.92,2.16,1.87,3.23,2.81,4.84,4.32,9.65,8.65,14.67,12.77a88.69,88.69,0,0,1,12.46,12.65l1.15,1.44c-.34-.42-1.74-2.32-.07-.08.74,1,1.47,2,2.2,3,1.92,2.66,3.79,5.37,5.64,8.08q22,32.11,42.63,65.12c12.18,19.48,23.08,40.14,37,58.44,14.64,19.22,33.62,36.89,58.59,40A37,37,0,0,0,655.09,861c6.21-8.68,7.72-20.48,6.91-30.88-.91-11.63-4-22.76-6.88-34l-9.93-39.06q-2.4-9.42-4.8-18.85c-.63-2.5-1.26-5-1.74-7.53a11.32,11.32,0,0,0-.36-2.11c0,.09.26,3,.2,1.32,0-1.4-.21-2.78-.19-4.18,0-.52.05-1,.06-1.54.09-2.77.09.73-.14,1,.18-.18,1.38-4.52.43-2-.71,1.92-.11.43.11,0,.88-1.73.63.32-.56.56a5.33,5.33,0,0,0,1-1.05c.84-1.11-2.8,1.5-.39.32a6.87,6.87,0,0,0,1.22-.67c1.1-.88-1.15.63-1.41.59a16.08,16.08,0,0,0,3.67-.93c-.06,0-3.15.24-1.53.24.49,0,1-.07,1.49-.09,1.35,0,2.7,0,4,0s2.4.21,3.6.31c2.08.18-2.94-.47-.88-.12.5.09,1,.16,1.52.24,2.89.48,5.75,1,8.64,1.53q10.95,1.85,22,2.94a267.21,267.21,0,0,0,38.48,1,252.65,252.65,0,0,0,40-4.8c11.72-2.46,23.75-6.61,33.53-13.68C812.12,695.91,823,675,827.7,652.45a124.23,124.23,0,0,0,3-27.64c-.18-8.45-1.06-16.88-2-25.27-1.94-17.62-4.76-35.35-4.74-53.11,0-1.78,0-3.55.13-5.31,0-.83.11-1.65.18-2.47,0-.34.08-.68.1-1,.16-2.62-.57,3.18-.25,1.69.44-2,.74-4,1.29-6,.3-1.08.62-2.15,1-3.21.15-.44.32-.87.47-1.3.87-2.46.43,0-.3.65,1.16-1.09,1.9-3.84,2.75-5.27,1-1.73,2.25-3.32,3.35-5,.86-1.31-1.27,1.61-1.14,1.46.33-.38.64-.81,1-1.2.48-.59,1-1.18,1.46-1.76,1.2-1.42,2.44-2.81,3.67-4.2,5.23-5.91,10.66-12,13.85-19.29,4.82-11,5.29-21.88,3.42-33.65-2-12.66-7.15-24.71-12.82-36.12-5.5-11.1-11.42-21.73-19.15-31.45-6.2-7.81-13.58-14.51-20.63-21.52a147.69,147.69,0,0,1-10.37-11.29c-.22-.28-1-.94-1-1.28.25,1.34,1.31,1.77.31.35-.76-1.09-1.54-2.17-2.28-3.28a84.39,84.39,0,0,1-4.41-7.37c-.92-1.72-1.73-3.5-2.55-5.27-1.13-2.42,1.12,2.85.12.31-.45-1.12-.9-2.24-1.33-3.38-1.65-4.33-3.13-8.73-4.58-13.14-3-9-5.74-18.16-9.18-27-3.52-9.11-7.4-18.31-13.35-26.13-6.42-8.44-14.33-15.1-22.71-21.53-15.69-12-33.33-21.43-51.44-29.27a381.93,381.93,0,0,0-60-20.49c-21.64-5.35-43.9-8.19-66-10.66a545.21,545.21,0,0,0-62-3.71c-32.18.08-64.91,3.85-95.42,14.48-26.39,9.2-50.59,23-73.16,39.31-7.55,5.46-14.84,11.26-22.79,16.15a135.26,135.26,0,0,1-14.63,7.85c-.64.3-1.29.58-1.94.87-.35.16-2,.9-.14.07s-1.37.52-2,.76q-3.44,1.31-6.93,2.38A122.73,122.73,0,0,1,262,273.32c-2,.39-4,.74-5.95,1.05-.55.09-1.11.15-1.67.25-1.65.29,2.09-.27,1.88-.24-1.1.11-2.19.27-3.29.4-7.59.87-15.22,1.29-22.82,2-17.31,1.61-34,5.08-49,14.26a144,144,0,0,0-47.72,48.71,118.34,118.34,0,0,0-15.76,53c-.92,15.05,1.2,30.14,3.83,44.93,1,5.55,2.08,11.08,3,16.65.25,1.53.73,6.43.11.37.12,1.19.29,2.38.4,3.58a57.19,57.19,0,0,1,.24,6.54c-.21,7.79,7,15.24,14.88,14.88a15.17,15.17,0,0,0,14.88-14.88Z"/><path class="cls-2" d="M694,543.92c-.64.23-64.8,22.42-96.9-17.17-12.9-15.9-21.58-30.44-30-44.49-16.77-28.06-32.6-54.57-74.25-72.19-38.63-16.35-80.2-12.86-106-7.94l-8.78-25.3a12.31,12.31,0,0,0-20.82-4l-56.78,64.41a12.07,12.07,0,0,0,6.88,19.84l84.82,16.4a12.16,12.16,0,0,0,13.94-15.81L398.27,435c21.28-3.52,52.75-5.3,80.91,6.61,31.21,13.21,41.88,31.07,58,58.1,8.59,14.39,18.33,30.69,32.77,48.51,47.74,58.88,132.25,29.24,135.83,27.95a17.22,17.22,0,0,0,9.27-7.9,17,17,0,0,0,1.06-14A17.42,17.42,0,0,0,694,543.92Z"/><path class="cls-3" d="M488,506.78a17.36,17.36,0,0,0-21.31,12l-4,14.53-14.68-4a17.38,17.38,0,0,0-21.35,11.94,17.11,17.11,0,0,0,12.08,21.1l14.79,4.06L449.49,581a17.11,17.11,0,0,0,12.14,21.06,17.42,17.42,0,0,0,19.82-8.34,16.63,16.63,0,0,0,1.49-3.66l4-14.53,14.68,4a17.42,17.42,0,0,0,19.87-8.32,17.06,17.06,0,0,0-10.6-24.72l-14.79-4,4.05-14.63A17.12,17.12,0,0,0,488,506.78Z"/><path class="cls-4" d="M630.9,417.13l-4,14.53-14.68-4a17.37,17.37,0,0,0-21.35,11.94,17.11,17.11,0,0,0,12.08,21.1l14.79,4.06-4.06,14.63a17.12,17.12,0,0,0,12.15,21.06,17.42,17.42,0,0,0,19.82-8.34,17.13,17.13,0,0,0,1.49-3.66l4-14.53,14.69,4a17.43,17.43,0,0,0,19.87-8.32,17.09,17.09,0,0,0-10.61-24.72l-14.78-4.05,4.05-14.63a17.13,17.13,0,0,0-12.15-21.07A17.37,17.37,0,0,0,630.9,417.13Z"/><path class="cls-5" d="M544.31,393.09c-25.3,0-45.88-20.35-45.88-45.36s20.58-45.36,45.88-45.36,45.89,20.34,45.89,45.36S569.62,393.09,544.31,393.09Zm0-65.75a20.39,20.39,0,1,0,20.63,20.39A20.52,20.52,0,0,0,544.31,327.34Z"/><path class="cls-6" d="M384.41,354.72c.54-10.53,5-20,12.28-28.69,12.93-15.32,11.89-27.3-3.95-41a76.46,76.46,0,0,0-41.37-18.65c-5.69-.73-10.75-1.3-9.33-7.27,1.6-6.66,7.54-4.06,12.4-3.38,31.92,4.46,53.5,19.11,64.12,43.25,2.79,6.33,4.91,6.25,11.52,4,7.39-2.47,15.43-3.79,23.32-5.13,3.55-.61,8.09-.89,8.89,3.48.66,3.65.07,6.77-5.78,7.58-33.46,4.68-53.14,20.49-59,47.1-1,4.39-3.77,5.65-8.83,5.3C382.66,360.92,383.69,357.8,384.41,354.72Z"/><path class="cls-7" d="M726.61,722.7c-28.85,2.28-52.74-8-69.29-34.06-6.52-10.26-11.91-13.33-21.12-4.18a30.45,30.45,0,0,1-16.75,8.95c-3.76.58-7.18,1.31-8.9-3.78s-.26-7.81,4.34-10.15c9.32-4.75,18.38-9.69,25.66-18.22,12.28-14.39,18.18-30.82,16.38-50.13-.59-6.33-.08-10.63,6.55-11.37,7-.78,6.78,5.55,7.3,9.83,1.64,13.71,0,27.29-6.31,39.24-5.43,10.33-4.17,19,1.62,28.3,13.82,22.19,32.86,33,57.78,30.59,5.74-.56,10-.43,11.06,6.73C736,721.43,731.8,722.56,726.61,722.7Z"/><path class="cls-7" d="M698.22,355c16.67,4.72,32.91,11.91,40,31,3.68,9.84,8.47,12.25,17.69,8.22,4.45-2,10.87-5.59,13.6,2.24,3,8.52-2.71,11.53-9.66,13.62-16.18,4.85-26.84,15.81-30.44,33-1.44,6.92-4.54,9.81-11,8.38-7.94-1.76-5.91-8-4.74-13.29A60.83,60.83,0,0,1,718.4,424c5.31-10.59,13.53-19.9,4.1-33.14-7.1-10-15.43-16.87-26.88-19.24-6.59-1.37-9.41-4.8-8.41-11.43C688.17,353.89,693.07,355,698.22,355Z"/><path class="cls-7" d="M290.7,522.62c13.95,5.87,30.14,11.6,37.59,28.57,4.47,10.19,8.6,15.61,19.93,10.4,4.3-2,10.8-5.05,12.66,3.75,1.36,6.41-1.21,10.39-7.69,12-17.72,4.43-28.84,16-32.89,34.5-1.48,6.76-5.25,9.53-11.51,7.59-7-2.16-4.42-7.72-3.14-12.32a100,100,0,0,1,5.28-15.56c11.53-24.75,5.44-40.8-19.66-50.87-2-.79-4.16-.93-6.22-1.5-5.79-1.59-7.4-5.89-6.36-11.44C279.88,521.41,285,523.19,290.7,522.62Z"/></g></svg>