<svg xmlns="http://www.w3.org/2000/svg" viewBox="0 0 1024.15 1015.24"><defs><style>.cls-1{fill:#f7f0ed;}.cls-2{fill:#010101;}.cls-3{fill:#070606;}.cls-4{fill:#fefefe;}.cls-5{fill:#031a19;}.cls-6{fill:#020202;}.cls-7{fill:#010202;}.cls-8{fill:#020303;}.cls-9{fill:#030303;}.cls-10{fill:#040404;}.cls-11{fill:#060606;}.cls-12{fill:#040304;}.cls-13{fill:#080808;}.cls-14{fill:#020302;}.cls-15{fill:#050505;}.cls-16{fill:#030202;}.cls-17{fill:#0b0b0b;}.cls-18{fill:#070707;}.cls-19{fill:#090909;}.cls-20{fill:#030e0b;}.cls-21{fill:#021712;}.cls-22{fill:#2acfaf;}.cls-23{fill:#ff7b5c;}.cls-24{fill:#b2b2b2;}.cls-25{fill:#727272;}.cls-26{fill:#020c09;}.cls-27{fill:#32bfa3;}.cls-28{fill:#010503;}.cls-29{fill:#02100c;}.cls-30{fill:#011711;}.cls-31{fill:#042522;}.cls-32{fill:#160903;}</style></defs><g id="wireframes"><circle class="cls-1" cx="509.99" cy="504.66" r="502.5"/><path class="cls-2" d="M521.64,256.38c2.18,13.48-.57,26.89-.62,40.34-.15,37.78-4,75.73,1.69,113.31,7.34,48.71,7.12,98,12.36,146.83.47,4.42,2.19,5.71,6.08,5.73,2.75,0,6.82-.64,7.1,2.72.3,3.52-3.92,4-6.76,4.45-4.18.64-5.76,2.39-5.37,6.86,1.67,19,4.63,37.9,5.94,57,2.48,36.08,6.24,72.23,3.84,108.31-2.25,33.61,1.44,66.86,2,100.27.07,4.18-1,6.3-4.93,7.65a82.76,82.76,0,0,1-21,4.1c-20.26,1.44-40.81,0-60.78,4.12-28.16,5.87-56.69,8.41-85.26,9.79-41.42,2-82.91,3.6-124.39,1.77-17.29-.76-34.54-2.47-51.8-3.88-6.17-.51-6.49-1.63-7.71-8.74-4.86-28.27-3.7-56.75-3.78-85.23-.12-45.19-5.21-90.15-6.9-135.26-2.09-55.82-8.67-111.29-11.63-167-3.16-59.58-4.94-119.21-4.87-178.86A250.17,250.17,0,0,0,163.21,258c-.8-6.19,3.81-10.74,10-11.16a761.82,761.82,0,0,1,89.39-.76,367,367,0,0,0,62.82-1.75c18-2.19,36-3.69,54.3-2.82,31,1.48,61.92-2,92.88-3,5-.16,10-.45,15-.67,6.27-.36,12.46-1.28,18.68-2.12,1.12-.16,3.47-1.28,3.42,1.29,0,2-1.63,3.17-3.71,3.4-1.11.12-2.77-1.5-3,1.4-.09,1-2.64.91-4.14.92a122.63,122.63,0,0,0-21.44,2.58c-2.65.5-5.3,1-7.92.37-4.81-1.16-9.61-.69-14.29.26-6.6,1.33-13.13,1.24-19.83,1-8.63-.36-17.3.4-25.93,1.11-1.16.09-2.48.77-3.42.12-4.67-3.19-9.25-1.2-13.87,0a24,24,0,0,1-8.94.7c-12-1.59-23.9.59-35.88.31-6.16-.14-12.84,1.16-19.09,1.54-7.32.45-14.55,1.93-22,2.1-11.49.26-23.08-.78-34.53,1a5.33,5.33,0,0,1-2-.06c-1-.22-2.33-.34-2.24-1.48.13-1.55,1.73-.76,2.77-1.3-3.71.46-7.37,3.31-10.9,0a2.52,2.52,0,0,1-2.67,2.43c-6.89.22-13.67,1.18-20.68-.87-4.13-1.21-9.08-1.15-13.55-.74-6.47.59-12.94.88-19.41,1.25-2.73.15-4.5.5-4.13,3.91s-1.25,4.81-4.77,4.67c-3.13-.12-6.57,2.32-9.11-1.44a4.66,4.66,0,0,1-.4-1.46c-.09-1.13.09-2.41-1.53-2.7a13.13,13.13,0,0,0-2-.09c-8.86-.22-9.39.31-9,9.1.13,3,.28,6,.43,9,.19,3.85,1.86,6,6,5.36,2.49-.38,5.31.78,7.37-1.55,0-1.42-1.32-2.31-1.37-3.68a2.17,2.17,0,0,1,2.41-2.38,4.56,4.56,0,0,1,1.57.45c4.66,1.73,10.41,1.59,12.6,7.54a1.08,1.08,0,0,0,2,0c1.34-3.38,4.33-2.65,6.82-2.78,19.91-1,39.82-1.91,59.77-1.8,2.49,0,4.88.89,8.52.73-.49-.06-1.16-.86-1.11-.2,0,.18-.15.17-.49.14-.79-.05-1.87.21-2.14-.72s.68-1.42,1.46-1.7c1.92-.69,3.94-.54,5.93-.66,3.5-.21,6.92.85,10.43.7,1.21,0,3,.05,2.92,1.9-.05,1.4-1.41,1.69-2.62,1.75a9,9,0,0,1-2.48,0,19.07,19.07,0,0,0,13.32-5.18c1.52-1.31,3.38-1.33,5.19-1.37,10.47-.21,20.93-.92,31.41-1.08,7.35-.11,14.77-2,22.17-1.72,8.7.36,17.16-1.45,25.77-1.74,13.94-.47,27.88-1.08,41.85-1.16,9.41-.06,18.91.3,28.31-.91a35.46,35.46,0,0,1,11.83.81c6.55,1.36,13.15.81,19.72-.09,1.66-.23,3.63-.55,4.76.75,1.29,1.47-.07,1.76-.49,1.73,3.38-2.06,7.92-2.44,12.52-2.31,4.42.13,6.42,2.6,6.39,7.7-2,1.13-4.17,1.12-6.33,1.18a216,216,0,0,1-30.41-1,214.13,214.13,0,0,0-31.92-1.17c-22.64.8-45.27,2-67.92,2.93-19,.76-37.8,3.27-56.66,5.32-1,.11-2,.27-3,.3-21.15.68-42.16,3.59-63.33,3.86-24.34.31-48.51,3.43-72.82,4.26-5.59.19-6.5,1.23-6.6,7.09-.11,6.66,0,13.32,0,20,0,9.32-.58,18.65-.05,28,.8,14.31,1.44,28.61-.33,42.9-1.07,8.66.09,17.31.41,26,.21,5.8.76,6.24,6.54,6,17-.7,34-1.59,50.95-2.21,23.31-.86,46.58-2,69.63-6a13.27,13.27,0,0,1,2-.19c36-.73,71.72-5.55,107.67-6.9,19-.72,38,.35,56.92,1.07,12.64.48,24.92-1.31,37.13-4,5.9-1.29,6.24-2.51,6.34-8.82.45-27.62-.62-55.3,1.54-82.84.92-11.69.11-23.3.87-34.91.35-2.1.35-4.28,1.49-6.22a3.85,3.85,0,0,0,.4-3.8c-2.93-6-2.89-12.11-1.14-18.32.46-1.64-.4-2.34-1.21-3.43-1-1.4-2.41-3.22-.9-4.89a4.85,4.85,0,0,1,5.08-1.1c1.93.57,3.32,1.66,3.19,3.86-.29,4.8.93,9.56.35,14.36A2.6,2.6,0,0,0,521.64,256.38Z"/><path class="cls-3" d="M521.64,256.38c-2.37,1-2.26-.76-1.82-1.92,1.81-4.74-.85-9.44.1-14.18.51-2.52-1.79-3.42-3.52-4.17-1.39-.6-2.8.45-4,1.23,2.26.45-.27,3.3,2.17,4.12,1,.35,2.2,1.82.67,4.51-2.32,4.06-1.91,10.26.16,13.9,2.9,5.07.31,8.16-1,12a.77.77,0,0,1-.94-.1c-.51-1.79-3.94-1.36-3.05-4.63.37-1.37-2.34-1-3.76-1.14-5.52-.49-10.76,1.93-16.42,1.63.94-1.81,2.91-.28,3.92-1.6-2.9-1.47-5.83,0-8.44.41-7.61,1.2-14.85-1.42-22.19-1.34-24.23.26-48.46,1.15-72.67,2.1-10.69.42-21.33,1.72-32,2.3-16.12.88-32.27,1.38-48.38,2.33-2.2.13-6.07-2.3-6.76,3.06-.14,1.09-4.66,1.9-7.24,2.32a87.66,87.66,0,0,1-9.51.5c2.61-2.1,5.88,0,8.12-3-6.89.08-13.18-1.46-19.58-.28.42,1.59,2.13.1,3.15,1.88-24.85,0-49.31.69-74,2.19.15,1.15,3.1,2.28.47,3.45-2.31,1-6.11.17-6-1.4.32-6.61-5.29-4.69-8.22-6.35-1.19-.68-2.93-.43-3.68-2,1.68-1.83,3.74-.44,5.62-.63,2.42-.25,4.82-.68,5-3.66.11-2.14-.21-4.64-3.17-4.63-2.57,0-5.79-1.1-6.7,3.09-.43,1.95.08,4-.74,5.82a1.81,1.81,0,0,0-1.89,2.06,1.43,1.43,0,0,1-.93.2c-5.19-2-2.88-6.72-3.37-10.21-.36-2.56,1.21-5.06,4.64-5,3.48,4.42,7.66-.56,11.51.73.75.25.86-2.09.5-3.45-.95-3.59.31-5,4.22-5.1,7.09-.16,14.23.07,21.24-1.56,1.17-.28,2.57.35,3.86.58,5.07.88,10.2.58,15.37,1.83,5,1.2,10.58-.16,16.65-.43l-2.7-1.23a65.89,65.89,0,0,0,16.15-.31c-1.06,2-3,.5-4,1.8.2.12.41.38.6.36q6.53-.75,13-1.55c.65-.08,1.52-.63,1.88-.37,5.2,3.67,10.64.73,15.93.57,11.64-.38,23.24-2.21,34.76-2.87,15.55-.9,31.27-2.2,46.94-.85a43,43,0,0,0,15.7-2c2.84-.82,5.85-1.82,8.19,1.25.56.75,1.41.64,2.27.5a140.61,140.61,0,0,1,32.22-1.22c7,.54,13.86-1,20.71-2.25a10.89,10.89,0,0,1,4.33,0c6.91,1.45,13.58-.82,20.27-1.2,3.95-.23,7.83-2.92,12.08-1.22,1.61.64,3.75,0,5.69-.69l-3.33-.6c3-2,7.82,1.7,9.53-3.78-7.43-.61-14.31,3.25-21.55,1.62,10-1.72,19.93-3.19,30.07-3.3,2.34,0,3.18.67,3.23,3.06C521,243.8,521.38,250.09,521.64,256.38Z"/><path class="cls-4" d="M374.11,572.13c-28.46,1.26-56.93,2.35-85.37,3.83-27.44,1.42-54.87,2.87-81.91,8.44-6,1.23-12.28.61-18.43.92-1.8.08-2.7-.94-3.55-2.25a16.42,16.42,0,0,1-2.52-8.52c-1.69-45.79-4.41-91.51-8.66-137.14-.89-9.54-.54-9.56,9.29-10.07q56.89-2.94,113.8-5.91c24.13-1.26,48-5.13,72.11-6.89q45.36-3.33,90.89-2.7a336.31,336.31,0,0,0,50.35-2.78c3.85-.53,5.4.7,6,4.44a251.1,251.1,0,0,1,3.22,28.78c1.93,38.1,6.78,76,8.33,114.12.25,6.32.12,6.48-6.41,7.15-43.45,4.45-87,6.35-130.67,8.17-5.49.22-11,.48-16.47.72Z"/><path class="cls-4" d="M358.71,699.87q-80.13,3.55-160.25,7.2c-4,.19-5.27-.58-5.56-4.82q-3.56-51.84-7.73-103.64c-.38-4.6,1.11-5.55,5.13-6,28.61-3.35,57.25-6.27,85.89-9.32a420.88,420.88,0,0,1,49.3-2.07c45.34.51,90.51-3.86,135.79-5.34,21-.69,41.8-3.6,62.7-5.33,4.79-.39,6.49.6,6.82,5.86q3.29,52.11,7.37,104.18c.39,5-1,6.81-6,7.46a319.86,319.86,0,0,1-34.82,3c-40.17.82-80,6.37-120.14,8-6.15.26-12.31.55-18.47.82Z"/><path class="cls-4" d="M513.38,271.81l.94.1A89.32,89.32,0,0,1,515,296.7c-2.19,18.44-1.56,36.91-2,55.36-.31,14.32-.5,28.64-.4,43,0,3.6-1.3,4.91-4.5,5.74a156.39,156.39,0,0,1-50.56,4.31c-25.49-1.74-51-1.07-76.36,1-24.07,1.92-48.19,3.16-72.26,5-22.74,1.72-45.28,5.54-68.14,6.17-20.3.56-40.59,1.77-60.9,2.53-7.17.27-7.25.05-7.27-7q-.16-58.87-.27-117.75c0-8.24.06-8.41,8.49-8.88q48.88-2.68,97.79-5.14c37.27-1.8,74.22-7.68,111.53-8.89,27.29-.88,54.59-3.74,81.87-1.31A353.91,353.91,0,0,0,513.38,271.81Z"/><path class="cls-4" d="M371.2,704.55c50.52-1.87,105.62-7,160.86-9.81,5.34-.27,6.23,1.34,6.73,6.26,2,19.34.22,38.58-.47,57.87-.92,25.82.16,51.65,2,77.41.36,5.19-1.91,7.25-5.93,8.8s-8.11,1.67-12.28,1.91c-17.29,1-34.68.42-51.84,3.16-13.31,2.12-26.55,4.68-39.87,6.74-20.48,3.17-41.23,2.31-61.81,4-34.07,2.82-68.19,4.27-102.36,3.12-20.77-.7-41.61-1-62.1-5.39-3.51-.76-5-1.91-5-5.72.17-11.7-1.36-23.25-3.52-34.74a34.22,34.22,0,0,1-.07-13.38c1.27-6.22,1.17-12.59.88-18.92-1-22.63-2-45.27-3.21-67.89-.22-4.12.9-5.54,5-5.71,24.47-1,48.93-2.21,73.4-3.31C303.19,707.55,334.81,706.16,371.2,704.55Z"/><path class="cls-1" d="M187.21,277.48c.36,1,2.24,2.43-.61,2.6-4,.25-7.95.36-11.91.61-2.05.13-2.52-1.22-2.81-2.75-1.29-6.71-1-13.51-1.22-20.29a2.2,2.2,0,0,1,2.33-2.57c4.13-.18,8.34-.91,12.39-.41s0,2.18,0,3.34C178.93,264.52,179.49,270.45,187.21,277.48Z"/><path class="cls-5" d="M187.21,277.48c-8.5-5.42-9.32-14.17-1.83-19.47l.18,1.25c-5.06,4.38-5.21,11.21-.34,15C185.91,275.31,187.63,275.74,187.21,277.48Z"/><path class="cls-1" d="M201.42,276.45c5-2.61,5.84-6.54,5.69-11.64-.18-5.95-5.82-6.77-8.56-11.39,11.49-.08,22.52-2.39,33.45-.8,7.82,1.14,15.58,1.08,23.35,1.18,30.82.39,61.59-.32,92.22-4.4,11.22-1.49,22.57-1.27,33.91-.83,34.68,1.33,69.2-2,103.78-3.73,7.29-.36,14.54-1.74,21.8-2.65,4.06-.51,6.73.21,6.32,5.36a51.5,51.5,0,0,0,.53,12c.73,4.72-1.2,5.52-5.42,5.41q-26.21-.68-52.42-.82c-32.83-.24-65.59,1.73-98.33,3.68-49.86,3-99.71,6.3-149.56,9.47-2,.12-3.93.18-5.89.26Z"/><path class="cls-2" d="M185.1,263c.19.32.54.65.59,1,.08.58.26,1.4-.62,1.51-.3,0-.85-.51-1-.89C183.87,263.91,184.21,263.34,185.1,263Z"/><path class="cls-2" d="M400,247.71a10.27,10.27,0,0,1-2.55-.15c-.21-1.22.91-.59,1.46-.72a3.4,3.4,0,0,1,1.29.22Z"/><path class="cls-6" d="M282.45,475.13q.46,10.23.91,20.45c.21,4.82-6.75,11.9-11.43,10.66-6.61-1.76-12.9-.27-19.26.45-12.89,1.46-25.73,3.3-38.58,5.07-2.36.32-4,.63-4.48-2.66a320.35,320.35,0,0,1-2.87-58.23c.13-2.88,1.15-3.92,3.73-4.8,20.79-7.09,42.14-7.44,63.62-5.06,6,.66,6.39,6.79,7,11.22,1,7.56.86,15.27,1.19,22.91Z"/><path class="cls-7" d="M355.38,439.39c10.14-.45,20.28-.93,30.42-1.33,5.83-.23,7,.94,7.29,6.72.75,16.62,1.4,33.25,2.29,49.86.16,3-.74,4.08-3.6,4.56-22,3.67-44,6.91-66.45,6.17-3.4-.12-4.93-.57-5-4.53-.51-17.29-1.43-34.57-2.14-51.86-.29-6.86.92-8.1,7.81-8.41l29.42-1.31Z"/><path class="cls-8" d="M467.44,499.94c-9.32.41-18.65.71-28,1.3-3,.19-3.94-.53-4.31-3.62-2.09-17.69-4.47-35.34-6.74-53-.68-5.38,1-7.37,6.2-7.1,7.05.37,13.91-.93,20.84-1.91,12.54-1.76,25.2-2.24,37.85-2.82,2.85-.13,4,.69,4.84,3.46,2.88,10,3.84,20.26,4.18,30.59.27,7.83.37,15.66.57,23.48.17,6.61-1.15,8-8,8.36-9.15.43-18.3.82-27.46,1.22Z"/><path class="cls-9" d="M249.73,556c11.43-.92,22.55.3,33.11-3.71a6.92,6.92,0,0,1,3.45-.16c1.52.25,4.17-.51,4.23,1.35.08,2.06-.87,5-3.49,5.38-10,1.56-19.91,4.77-30.11,3.66-13.42-1.46-26.57,0-39.72,2.15a28.91,28.91,0,0,1-10.41.23c-1.33-.27-2.74-.28-2.83-2.11-.11-2,1.54-1.79,2.75-2.07A181,181,0,0,1,249.73,556Z"/><path class="cls-9" d="M293.28,546.2c-19.11,4.86-38.08,5.26-57,5.57-8.41.14-16.83-1.78-25.2.77-1.78.54-3.87.09-6-1.67,6.54-3.79,12.64-7.09,20.3-5.48,9.12,1.92,18.21.86,27.23-.92,11.18-2.21,22.52-1.73,33.8-2.18C289.38,542.18,291.3,543.72,293.28,546.2Z"/><path class="cls-6" d="M374.32,550.11c-12.16.69-24.18,2.47-36.2,4.22-2.64.39-5.25.83-7.89-.07-.93-.31-2.1-.19-2.29-1.47-.25-1.72,1.2-1.77,2.27-2,7-1.48,14-3,21-4.35a213.4,213.4,0,0,1,43.16-4.16c1.49,0,3,.15,4.49.18,2.2,0,3.61.55,3.76,3.33s-1.63,3.07-3.38,3.17C390.94,549.43,382.63,549.74,374.32,550.11Z"/><path class="cls-9" d="M264.93,521c-6.79-1.22-13.37-.57-19.52,3.14a5.89,5.89,0,0,1-3.83.79c-4.76-.92-9.1-.9-13.74,1.44-2.17,1.1-5.91-.31-6.36-4.32-.36-3.15-1.2-5.86,3.79-6.6,9.17-1.37,18.68-.52,27.52-4.16,2.19-.91,3.58,1.38,5.17,2.42,2.26,1.47,4.25,2.9,7.29,2.18,1.22-.28,4.09-2.85,4.28,1.34C269.67,520.43,268.51,522.06,264.93,521Z"/><path class="cls-10" d="M205.67,539.84a29.18,29.18,0,0,1,14.18-4.65c21.43-1,42.45-6.68,64-5.59,1.79.09,5-1.84,5.28,1.28.25,2.82-2.83,3.88-5.41,4.1-9.95.83-19.92,1.47-29.87,2.27q-19.66,1.56-39.31,3.26A24.75,24.75,0,0,1,205.67,539.84Z"/><path class="cls-9" d="M505.78,543.74c-2.3,3.76-5,5.64-8.75,6-15.91,1.59-31.81,3.26-47.73,4.69-2.36.21-6.13,1.34-6.76-2.11-.57-3.1,3.3-3.22,5.35-4,6.31-2.41,13.13-2,19.71-2.84,9.75-1.22,19.56-1.89,29.34-2.83A21.66,21.66,0,0,1,505.78,543.74Z"/><path class="cls-11" d="M288.66,568.35c-4.08,3.34-8.76,3.49-13.37,3.71-9.64.46-19.3.74-28.94,1.26a85.41,85.41,0,0,0-20.18,3.06c-4.79,1.44-9.79.88-15.61.83,2.82-3,5.24-4.74,8.67-5.4a253.36,253.36,0,0,1,34.17-4.24c7.81-.42,15.62-.51,23.39-1.7C280.83,565.25,285.07,565.07,288.66,568.35Z"/><path class="cls-9" d="M343.86,510.46c5,.5,9.84.93,14-2.3a3.51,3.51,0,0,1,3.36-.26,19.81,19.81,0,0,0,14.1-.36c4.13-1.63,3.92,2.46,5.34,4.23,1.81,2.29-.43,3.21-1.87,4.12A22.21,22.21,0,0,1,366,519.26c-7.61-.22-15.23-.42-22.81-1.11-2.4-.22-5.86-.39-5.27-4.89C338.57,508.49,342.14,511.65,343.86,510.46Z"/><path class="cls-10" d="M325.46,542.11c2.34-4,7.94-5.28,35.52-9.75,12.57-2,24.83.27,37.64,1-1.85,3-4.37,4.4-7.46,4-17.67-2.33-34.72,1.5-51.84,4.88A29.28,29.28,0,0,1,325.46,542.11Z"/><path class="cls-9" d="M480,532.19c9.28-1,18.55-2,27.83-2.86,1-.09,2.45-.92,3,.64.44,1.22-.48,2.23-1.23,3.1-1.54,1.81-3.78,1.94-5.92,2.18-10.09,1.13-20.16,2.51-30.28,3.26-6.54.49-12.7,2.62-19.12,3.48a20.35,20.35,0,0,1-3.46.38c-2.65-.12-5.64-1.12-5.84-3.69s2.84-3.25,5.2-3.5c9.93-1,19.87-2,29.81-3Z"/><path class="cls-10" d="M481.42,518.66a156.41,156.41,0,0,1,22.91.14c1.31.11,3.94-.75,3.91,1.66,0,1.84-2.37,1.39-3.7,1.57-8.06,1.13-16.12,2.41-24.23,3.06-11.42.93-22.89,1.27-34.26,2.93a33.51,33.51,0,0,1-3.48.19c-2.14.08-4.61-.49-4.84-2.57-.27-2.46,2.64-1.86,4.13-2.15A343.15,343.15,0,0,1,481.42,518.66Z"/><path class="cls-10" d="M331.64,532.61c2.89-4.5,6.15-5.42,9.67-6,13.23-2.19,26.46-4.32,39.84-5.43a16.9,16.9,0,0,1,7.84.74c1,.4,2.62.75,2.47,2-.11.95-1.2,1.93-2.08,2.61a5.5,5.5,0,0,1-2.74,1.1C368.65,529.32,350.66,530.91,331.64,532.61Z"/><path class="cls-12" d="M493.43,504.32c.52,2.83-.6,4-3.69,4.18a152.23,152.23,0,0,0-31.91,4.68c-4.65,1.26-5.38-2.81-6.49-5.2-1.32-2.86,2.33-2.62,3.73-3.13,6.43-2.37,13.21-3,20-3.06,5.14,0,10.28,0,15.42-.2C492.58,501.52,493.79,501.87,493.43,504.32Z"/><path class="cls-10" d="M394.56,559.05a12.07,12.07,0,0,1-7.48,3.49c-9.74,1-19.47,2.15-29.21,3.14-5.44.56-10.88.92-16.12,2.81a10,10,0,0,1-6.35.48c-2-.61-4.2-1.76-4.06-3.75s2.72-1.15,4.2-1.34c16.79-2.15,33.59-4.2,50.4-6.29C388.86,557.23,391.75,557,394.56,559.05Z"/><path class="cls-13" d="M437.53,564.67a238.78,238.78,0,0,1,50.06-6.49c-.59,3-2.22,4.12-4.83,4.4-13.23,1.42-26.46,2.93-39.68,4.38A5.33,5.33,0,0,1,437.53,564.67Z"/><path class="cls-14" d="M247.9,607.26c21.89,1.26,42.89-5.09,64.33-7.61,5-.58,10-.57,14.92-1.33,4-.62,5.12.86,4.68,4.47a12.07,12.07,0,0,0,.06,2c.5,10.88-.49,12.22-11.45,13.69-6.43.86-12.93,1.22-19.4,1.76-29.35,2.44-58.57,5.87-87.59,11-2.6.46-3.92-.14-4.75-2.77a116.34,116.34,0,0,0-4.62-12.1c-1.1-2.46-.39-3.59,1.86-4.55a43.92,43.92,0,0,1,15.52-3.36Q234.68,607.83,247.9,607.26Z"/><path class="cls-6" d="M324.3,653.26c4.49-.43,8.94-1,13.4-1.24q32.7-1.57,65.42-2.95a158.06,158.06,0,0,0,33-5.2c10.86-2.78,22.17-2.34,33.26-3.55,12.91-1.4,25.9-2,38.78-3.8,1.38-.19,3-.88,3.56,1.43.4,1.72-.12,2.7-1.62,3.68a9.44,9.44,0,0,1-7.06,1.66,42.13,42.13,0,0,0-19.23,1.61,33.21,33.21,0,0,1-8.36,1.31c-21,.74-41.56,5.76-62.49,7.36-7.8.59-15.58.9-23.31,2.51a67.31,67.31,0,0,1-22.36.56c-12.16-1.53-24.28.63-36.4,1.32C327.31,658.16,325.06,657.34,324.3,653.26Z"/><path class="cls-6" d="M414.24,620c-2,3.89-4.69,4.61-7.86,5-21.83,2.54-43.66,5.25-65.51,7.34C311.76,635.09,283,640.16,254,643.4a38.26,38.26,0,0,1-11.94-.15c-8-1.64-15.91,0-23.77,1.43a32.71,32.71,0,0,1-8.93.64,1.87,1.87,0,0,1-2-1.81c-.12-1.18.35-1.77,1.54-2.1,3.52-1,7-2.75,10.51-3,11.21-.88,22.35-3.09,33.74-.21,6.53,1.65,13.06-1.78,19.63-2.65,22-2.92,43.9-5.9,66-7.59,13.82-1,27.25-4.46,40.92-6.44C390.91,619.86,402.19,619.79,414.24,620Z"/><path class="cls-6" d="M525,663a66.77,66.77,0,0,1-25.47,4c-14.11-.42-27.91,2.06-41.35,5.94a104.35,104.35,0,0,1-37.92,4.23c-13.15-1.07-26.23-.93-39.25,1.68-4,.81-8.3.49-12.45.61-1.23,0-2.86.55-3.22-1.38a3.75,3.75,0,0,1,1.59-4c2-1.39,4.35-1.61,6.67-1.71,19.45-.84,38.9-1.76,58.36-2.43,11-.37,21.86-1.39,32.46-4.74,8.65-2.74,17.71-2.82,26.68-3.18,8-.31,15.94-.36,23.65-3.07C518.68,657.64,522.17,658.94,525,663Z"/><path class="cls-6" d="M274.5,689.79c-7.78.75-16.9-.57-26-.87-11.66-.38-23.34-.69-34.87,1.59-2.61.52-4,0-4.51-2.82-.63-3.45,2.15-2.21,3.46-2.5,8.43-1.86,16.88-5.35,25.52-3.83,9.61,1.69,19.26.51,28.77,1.87a47.77,47.77,0,0,0,18.29-1,197,197,0,0,1,32.07-4.87A144.51,144.51,0,0,0,337,674.59a8,8,0,0,1,2-.39c2.93.11,7-.39,7.54,3,.45,2.85-3.74,2.68-5.85,3.18-10.7,2.5-21.79,2.64-32.55,5A191.76,191.76,0,0,1,274.5,689.79Z"/><path class="cls-6" d="M320.18,656.07a16.4,16.4,0,0,1-7.34,2.1c-16.36.6-32.42,3.44-48.48,6.39a31.22,31.22,0,0,1-8.41.84c-13.64-1.25-27.28-.66-40.93-.4-1.49,0-3-.21-4.48-.29-1-.06-1.92,0-2.18-1.41-.32-1.68.8-2.06,1.92-2.31a39.27,39.27,0,0,1,5.89-1c15.46-.94,31-1.26,46.37-2.85,16.39-1.7,32.66-4.47,49.22-3.9C314.63,653.39,317.85,652.55,320.18,656.07Z"/><path class="cls-15" d="M432.55,623.33c2.69-3.9,6.73-4.63,10.87-5a62.74,62.74,0,0,0,11.1-2.23c5.26-1.49,10.74,1,16.1,2,1.87.34.72,2.11-.08,2.62a8,8,0,0,1-3.77,1.1C455.51,622.34,444.25,622.81,432.55,623.33Z"/><path class="cls-15" d="M482.72,616.78c10.77-4.74,21.92-3.93,33-3.93.85,0,1.67.12,1.82,1.19a1.74,1.74,0,0,1-.89,2.07c-.9.42-1.85,1.25-2.7,1.17-7.25-.74-13.88,2.84-21,2.89C489.24,620.2,485.74,619.65,482.72,616.78Z"/><path class="cls-8" d="M281.08,395.49c-14.3.63-28.61,1.15-42.9,2-3.38.19-4.29-.81-4.37-4-.22-9.15-.88-18.3-1.07-27.45-.06-3.15-1.12-4.16-4.1-3.65-4.09.7-8.18,1.51-12.3,1.9a27.43,27.43,0,0,1-30.27-26.1c-.33-6-1-11.93.72-17.85,3.4-11.57,12.82-19.89,24.85-21.13a166.09,166.09,0,0,1,20-.86c11.09.19,19.39,8.82,21.67,22.28a93.92,93.92,0,0,1,1.39,13.89c.06,3.16,1.07,3.8,4.08,3.7,16.81-.55,33.6-1.24,50.26-3.78a119.87,119.87,0,0,1,14.43-1.09c4.51-.14,6.29,1.75,5.62,6a68.32,68.32,0,0,0-.36,15.45,263.55,263.55,0,0,1-.1,34.42c-.21,3.48-1.24,4.46-4.58,4.57-14.31.48-28.61,1.2-42.91,1.83Z"/><path class="cls-2" d="M469.47,294C462.9,299,455.88,299,449,298a16.45,16.45,0,0,0-12.21,2.57c-3.46,2.29-7.18,4.19-10.79,6.26-7.15,4.11-13.2,2.21-15.7-5.56-1.12-3.49-2.6-3.34-5.29-2.55q-25.38,7.42-50.8,14.69c-2.65.76-5.18,1.68-8.2.48-7.89-3.15-8.5-4.9-5.24-12.58,2.24-5.29,4.84-8.91,11.27-9,3.56,0,7.08-1.72,10.66-2.47,2.1-.45,4.41-1.09,6.41-.65,6.67,1.48,13.21,2.63,19.74-.56a2.65,2.65,0,0,1,2.38.38c3.19,3.29,6.13,2.5,9.18-.17a1.59,1.59,0,0,1,2.52.67c2,3.78,4.69,2.4,7.54,1.22a65.93,65.93,0,0,1,9.39-3.33c5.62-1.37,8.89.22,11.56,5.27.75,1.41,1.75.67,2.48.4a23.85,23.85,0,0,1,17.53-.1c1.74.67,3.94.26,5.92.14C461.14,292.92,465,292.6,469.47,294Z"/><path class="cls-6" d="M493.4,341.74c-18.78-2.07-36.89,2-55.09,5a136.41,136.41,0,0,1-20.37,1.87,80.62,80.62,0,0,0-20.67,2.9c-5.61,1.56-11.46,1.69-17.07-.88-9.16-4.2-18.46-2.45-27.7-.29-1.77.41-3.42,1.37-5.3,1.1-1.6-.23-3.69-.21-3.78-2.38-.08-1.75,1.15-3.05,2.94-3.61,10.58-3.27,21.23-6.12,32.24-2.13a33.46,33.46,0,0,0,21.85.49c8.34-2.54,17.06-2.72,25.71-3.16,14-.7,27.83-2.15,41.45-5.72,9.36-2.45,18.86-.12,28.29.52,2.91.19,2.07,2.71,2,4.26C497.76,343.28,494.84,341,493.4,341.74Z"/><path class="cls-6" d="M429.55,374.65a400.78,400.78,0,0,1-70.13-.17,79.6,79.6,0,0,0-10.47.16c-1.81.08-3.63-.14-4.15-1.94s1.53-2.35,2.73-3a16.92,16.92,0,0,1,9.71-1.71c36.83,3.14,73.5-1.16,110.23-2.32,9-.28,17.45-4.56,26.61-3.58,2.16.23,5.18-1.17,5.46,3.08s-3,3.85-5.32,4.18c-8.4,1.15-17,.06-25.32,2.25C453.73,375.61,438.08,373.44,429.55,374.65Z"/><path class="cls-6" d="M492,316.87c-11.5,3.24-22.18,6.26-32.87,9.26-2.56.72-5-.42-7.35-.95a64.56,64.56,0,0,0-31.51.61c-8.1,2.17-16.8,2.14-25.24,3-14.39,1.43-28.89,2.05-43,5.61a9.07,9.07,0,0,1-4.93,0c-2.05-.61-4.15-1.87-4-3.89s2.73-1.16,4.19-1.3c23.88-2.23,47.41-7.06,71.23-9.67,12.55-1.37,25.17-3.44,37.5,1.38,1.86.73,3.24-.34,4.75-.84,6.94-2.29,13.73-5,21-6.27C485.37,313.14,488.68,313.32,492,316.87Z"/><path class="cls-6" d="M518.58,740.2c.85,14.33.34,28.61-2.84,42.69-1.22,5.43-1.59,5.69-5.61,2.26-2-1.72-4-1.26-6.06-1.22-37,.79-73.72,4.28-110.48,8.57-23.09,2.69-46.23,7-69.52,6.63-23-.35-45.95,0-68.91.77a202.11,202.11,0,0,1-31.88-1.47c-2.78-.35-4-1.23-4.77-3.81-2.27-7.92-4-15.77-1.51-24,.93-3.15.76-6.58.48-9.94q-.85-10.44-1.42-20.92c-.48-8.83-.43-9,8.64-9.52,16.28-1,32.66-.17,48.89-2.36,46.82-6.35,94.06-5.54,141.1-8.2a76,76,0,0,1,11.47.52,93.18,93.18,0,0,0,22.37-.92c21.65-3.18,43.46-3.37,65.3-2.6,3.14.11,3.88,1.26,3.94,4.1C517.89,727.23,518.29,733.71,518.58,740.2Z"/><path class="cls-16" d="M269.57,823.1l-38.45,1.71c-5.54.26-7.79-3.84-9.9-7.77-1.52-2.84-3.13-5.82-.1-9.1a6.17,6.17,0,0,1,4.67-2.12,750.6,750.6,0,0,1,83.92-.91c3.32.16,4.12,1.54,4.72,4.28,1.79,8.16-.87,12-8.9,12.31Z"/><path class="cls-6" d="M317.85,850.07c-17.52,1.08-33.83,6.07-50.8,3.69a37.58,37.58,0,0,0-16.79,1.4c-8.37,2.64-16.39-.22-25.39-1.86a11.69,11.69,0,0,1,8.76-3.75c8.53-.14,16.91-1.41,25.3-2.76,1.9-.31,3.95.19,5.93.39a97.75,97.75,0,0,0,32.73-2C304.39,843.56,311.8,841.64,317.85,850.07Z"/><path class="cls-9" d="M328.2,809.14a9.54,9.54,0,0,1,7-3.15c27.69-2.09,55.39-4.23,83.09-6.27a64.37,64.37,0,0,1,7.45.35c1.48.07,2.7.43,2.58,2.24-.1,1.54-1.33,1.67-2.52,1.81-4.13.47-8.25,1.27-12.39,1.4-15.15.48-30.14,2.43-45.16,4.3C355,811.47,341.82,810.5,328.2,809.14Z"/><path class="cls-6" d="M473.85,824.07c-6,.26-12,.55-17.92.78-2.58.1-5.75-.18-5.78-3.17,0-2.65,2.83-3.82,5.58-3.9,13.95-.45,27.89-1,41.76-2.83,7.58-1,15.18-1.79,22.8-2.34,2.08-.14,5.46-.75,6,1.88s-2.88,2.71-4.65,3.59c-5.5,2.7-11.66,2.47-17.54,3.29-10,1.4-20.14,2.21-30.22,3.27Z"/><path class="cls-15" d="M331.17,834.84c1.53-2,3.75-1.94,5.85-2.08,6-.39,11.94-1,17.92-1a165.36,165.36,0,0,0,41.9-5.43c10.5-2.74,21-2.42,31.84-1-.57,3.27-2.91,4-5.48,3.92-15.61-.23-30.55,4-45.8,6.35-13.39,2-27.17,1.62-40.79,2.14A5.49,5.49,0,0,1,331.17,834.84Z"/><path class="cls-6" d="M523.31,805c-14.5,7.75-29.76,6.9-44.53,6.08a109.74,109.74,0,0,0-24.62,1.36c-1.69.28-4.38,2-5.07-.4-.61-2.11,1.1-4.52,3.4-5.59a11.9,11.9,0,0,1,4.32-.93c19.46-.92,38.91-1.76,58.37-2.7A14.8,14.8,0,0,1,523.31,805Z"/><path class="cls-9" d="M338.72,821.47c8.82-4.2,17.92-5.88,27.2-6.67,12.73-1.09,25.57-.91,38.17-3.41,1.74-.34,2.47.36,2.94,1.77a2.55,2.55,0,0,1-1.65,3.57c-3.52,1.47-6.95,3.27-10.85,3.47q-25.86,1.34-51.75,2.57C341.49,822.83,340.09,823,338.72,821.47Z"/><path class="cls-9" d="M452.14,798.17c5.54-1.95,11.24-2,16.8-2.52C486,794,503.12,793,520.27,792.76c2.44,0,4.65.17,6.05,2.49C520.14,799.09,458.16,801.63,452.14,798.17Z"/><path class="cls-10" d="M334.25,848.12a32.93,32.93,0,0,1,14.66-5.66c9.66-1.51,19.23-.08,28.8,1,1.37.15,3.86-.62,3.71,2-.13,2.29-1.43,4.09-4.09,4.19-1,0-2,0-3-.06-10-.19-19.93-.68-29.91-.05A23.46,23.46,0,0,1,334.25,848.12Z"/><path class="cls-11" d="M258.61,835.26a9.78,9.78,0,0,1-7.65,3.8c-9.42.49-18.87,2.19-28.16-.86-1.78-.59-5-.74-4.75-2.57.37-2.82,3.42-2.3,5.78-2.19,10.12.5,20.24.92,30.35,1.38C255.44,834.88,256.7,835.07,258.61,835.26Z"/><path class="cls-17" d="M272.26,832.12l42.15-1.87c1.17,0,2.66-.3,2.93,1.11s-1.41,1.62-2.39,2.08c-1.49.7-3.18,1.92-4.6,1.69-8.41-1.32-16.43.87-24.62,2-4.59.62-9.12-1.11-13.41-2.89Z"/><path class="cls-18" d="M428.27,839.91c-9.25,6-18,7.61-27.52,5.17-1.31-.33-3.47-.55-3.16-2.36.22-1.23,1.84-2.4,3.41-2.56C409.65,839.31,418.28,837.48,428.27,839.91Z"/><path class="cls-13" d="M450.19,837.12a6.26,6.26,0,0,1,5.7-4.59,72.33,72.33,0,0,1,25.09,1C471.64,841.84,460.73,836.33,450.19,837.12Z"/><path class="cls-19" d="M420.11,819.53c-2.6-.45-6.47,1-6.94-2.49s2.88-4.81,6.14-5c3.42-.18,7,.51,6.94,4.5C426.18,820,422.23,818.64,420.11,819.53Z"/><path class="cls-1" d="M320.66,259.27c-.44,1.34-3.17,1.44-2.16,3.37.71,1.35,2.48.71,3.69.51,9.28-1.51,18,2.49,27.18,2.64-3.92,2.55-8.4,1-12.5,1.44-4.83.52-9.89.52-14.73,1.11-24.64,3-49.5,2-74.12,4.39-10.56,1-21.2.88-31.68,2.68-2.47.42-4.71-1.47-7.44-.17-1.24.59-1-1.7-.63-2.67.84-2.44.65-4.9.59-7.39-.07-2.86,0-5.64-3.12-7.24a2.47,2.47,0,0,1-1.42-2.91c.42-1.12,1.73-.7,2.64-.7,9.41-.08,18.69-.89,28.25.61,6.08.95,12.81,2.86,19.43.56,2.29-.8,5.2.18,7.83.35a10.4,10.4,0,0,0,7-.31l8-.35c2.79,1.26,5.75,1.23,8.71,1.11,9.06-.38,18.13-.66,27.17-1.27C317,254.79,319.46,255.7,320.66,259.27Z"/><path class="cls-1" d="M477.31,248.33c3-.79,6-2,9.06-2.29,6.89-.73,13.88-.4,20.71-2,3.41-.79,5.19.6,5.31,4.44.57,17.2,2,14.82-13.1,14.57-12.5-.21-25.05,0-37.55-.91-3.29-.24-6.78,2.33-9.87-.7.17-.18.33-.36.48-.55,9.08-1.8,18.3-2.82,27.33-4.92,1.61-.37,3.25-.61,4.61-1.91-1.51-2.88-5.3-2.57-7.05-5C477.26,248.81,477.29,248.57,477.31,248.33Z"/><path class="cls-20" d="M393.87,258.26c-2.88,2.55-6.51,2.21-9.89,2.21-10.47,0-20.88,0-31.13,2.84-3.84,1.05-7.91,0-11.86-.62-6-.9-12-2.24-19.5-2,6.69-3.93,12.88-4.89,19-4a55.05,55.05,0,0,0,18.25-.18,101,101,0,0,1,29.76-.91C390.9,255.29,393.15,255.2,393.87,258.26Z"/><path class="cls-21" d="M425.61,256c-5.74,7.21-11.34,2.45-16.73,1.69C413.81,252.9,419.4,255.93,425.61,256Z"/><path class="cls-22" d="M468.32,248.72c0-.33,0-.66,0-1,3,.3,6.13-1.27,9,.6h0A7.54,7.54,0,0,1,468.32,248.72Z"/><path class="cls-22" d="M455.29,248.3c-1.21,2.2-2.77,2.95-4.94,1.22Z"/><path class="cls-1" d="M445.3,248.76c-2,2-4.64.8-6.95,1.29C440.38,248.05,443,249.23,445.3,248.76Z"/><path class="cls-1" d="M275.3,476.15c.3,7.15.66,14.3,0,21.46-.13,1.52,0,3.19-2.39,2.68-13.51-2.92-26.4,1.13-39.44,3.49-3.93.71-7.89,1.27-11.82,1.94-2.34.39-3.6-.32-4.28-2.84-2.76-10.25-6.41-20.23-3.51-31.27,1.34-5.1-.13-10.6-.7-15.89-.29-2.71.66-3.91,3.23-4.56a161,161,0,0,1,51-4.68c4.16.28,5.27,2.27,5.82,5.82A196.52,196.52,0,0,1,275.3,476.15Z"/><path class="cls-1" d="M356.53,447c9.15-.4,18.3-.71,27.43-1.27,3-.18,4.08.6,4.18,3.75q.72,21.45,1.92,42.89c.19,3.41-1.05,4.17-4.18,4.28-17.63.65-35.25,1.4-52.87,2.35-3.42.18-4.95-1-5.32-4.17-.27-2.3-.76-4.59-.87-6.9-.49-11-.89-21.94-1.32-32.92-.25-6.61-.24-6.62,6.59-6.92Z"/><path class="cls-1" d="M497,474.41c.22,4.83.29,9.67.7,14.48.25,2.94-.43,4.32-3.69,4.11a187.77,187.77,0,0,0-50.17,3.52c-2.47.52-3.26-.28-3.53-2.63q-2.55-22.59-5.31-45.14c-.36-2.88.5-4.24,3.36-4.91a45.27,45.27,0,0,1,10.39-1.3c12.89,0,25.52-2.27,38.19-4.19,3.62-.55,5.29,0,6.3,3.91A130.13,130.13,0,0,1,497,474.41Z"/><path class="cls-23" d="M282,390.89c-11.63.52-23.27.9-34.89,1.62-3.56.22-5.06-.52-5.16-4.42-.31-12.31-.8-24.62-1.6-36.91-.25-3.86,1.32-4.86,4.62-5.25,12.89-1.53,25.72-3.42,38.74-3.63A114.62,114.62,0,0,0,310.87,339c10.18-2.63,11.19-1.51,11.93,9,.75,10.78,1.92,21.53.22,32.35-.65,4.15-1.95,6.41-6.78,6.47-11.46.16-22.92.9-34.38,1.41Z"/><path class="cls-1" d="M218.67,357.85c-19.62.62-29.38-10-27.14-29.54a67.18,67.18,0,0,1,3-12.59,6.92,6.92,0,0,1,3-3.81c10.27-6.83,21.38-9.81,33.68-7.54,8.46,1.57,13.28,6.21,14.79,14.72a86.64,86.64,0,0,0,2.13,9.21c1.74,5.87-1,10.46-7,10.67-5,.16-6.6,2.79-7.29,6.91C232.24,356,228.79,356.89,218.67,357.85Z"/><path class="cls-24" d="M420.24,297.85c.42,2-.26,3-1.52,3.67-.21.1-1-.39-1-.66C417.54,299.27,418.71,298.62,420.24,297.85Z"/><path class="cls-25" d="M427.35,296c0-.93.37-1.43,1.1-1.44a3.21,3.21,0,0,1,1.2.49,6.61,6.61,0,0,1-1.25,1.33C428.2,296.47,427.67,296.09,427.35,296Z"/><path class="cls-4" d="M266.1,734.06c35-.93,66.65-6.55,98.67-7.18,22.31-.43,44.59-2,66.93-1.34a112.64,112.64,0,0,0,26.84-1.9c17.06-3.58,34.2-.44,51.3-.26,2.41,0,2.55,1.51,2.87,3.2,1.43,7.42.58,15,1.21,22.42.18,2.19-1.27,2.4-2.71,2.77-8.17,2.09-16.23,5-24.43-.38-3.36-2.19-7.54-.73-11.28-.43-6.27.49-12.27.21-17.84-3.06-2.36-1.38-4.44-1.13-6.94.26-5.33,3-10.23,8.56-16.1,8.22-5.57-.33-11.11-4.18-16.32-7.09-8.59-4.79-17.93-2.45-26.91-3.48-3.62-.42-7.32-.14-11-.39-6.72-.45-12.48,1.45-17.1,6.47-3.76,4.08-8.6,6.16-13.86,7.46a42.7,42.7,0,0,0-16.95,8.18c-5.84,4.73-12.46,6.73-19.89,8.25-9.07,1.84-17.8-.24-26.67.36-3.65.24-7.13-1.43-10.18-3.6-3.67-2.6-7.68-4.85-10.89-7.93-4.73-4.55-10-4.55-15.73-3.27-7.5,1.67-14.51,4.84-21.8,7.15-3,.94-4.13.41-4.61-2.79-.85-5.56.18-11,.89-16.39.42-3.17.87-6.44-.1-9.41-1.16-3.53.41-3.82,3.18-4.11C240.81,734.29,255,734.78,266.1,734.06Z"/><path class="cls-23" d="M250.9,792c-6.15.12-12.31,0-18.44.43-4.14.26-5.86-1.64-6.93-5.32-1.61-5.56.79-11.69,5.95-13.89,3.05-1.31,6.18-2.44,9.27-3.64,10.22-3.95,19.83-4.1,29.18,2.92,10.78,8.09,22.6,11.67,36.7,10.06,12.79-1.46,24.63-3.36,34.09-12.83a17.3,17.3,0,0,1,3.34-2.09c7-2.45,14.41-3.88,21-7.51a22,22,0,0,0,2.87-1.91c4.69-3.59,9.74-6.39,16-5.76,4.82.48,9.61-.34,14.39-.61,9.88-.57,18.52,3.32,27.34,6.64,4.06,1.53,8.35,2.28,12.33,4a4.79,4.79,0,0,0,5.14-1c6.53-5.62,13.82-7.93,22.43-6.28,4.56.88,9.28.19,13.93.45a43.56,43.56,0,0,1,14.42,3.21c4.76,2,9.84.86,14.76.08,5.6-.89,5.68-.87,6,4.57.56,11.06.56,11.06-10.36,11.54-15.13.67-30.26,1.57-45.4,1.95-12.35.31-24.42,2.56-36.43,4.9-12.27,2.39-24.71,3-37.06,4.22-15.69,1.55-31.36,3.27-47.05,4.87a61.28,61.28,0,0,1-13.74.06c-12.63-1.54-25.22.66-37.84.6C274.8,791.62,262.85,791.85,250.9,792Z"/><path class="cls-26" d="M483.94,254.7c-8.4,1.46-16.59,3-24.85,4.22-2.54.37-5.24-.29-7.87-.54a1.63,1.63,0,0,1-1.66-1.5,1.35,1.35,0,0,1,1.13-1.42c9.53-2.5,18.86-6.66,29-3.49C481.22,252.43,482.94,252.74,483.94,254.7Z"/><g id="R0txWp"><path class="cls-2" d="M944.17,371.3c2,10.67,2.21,21.5,2.63,32.29,1.65,41.78,2.15,83.6,2.12,125.42,0,18.2-2.78,36.14-4.4,54.19-2.15,24-3.88,48.22-2.16,72.37,1.12,15.68,1.33,31.24-.59,46.84a63.3,63.3,0,0,0,1,19.89,10.86,10.86,0,0,1,.33,2.46c-.27,7.23-2.79,9.24-9.95,8-13.8-2.43-27.65-4.13-41.73-3.41-12.53.64-24.91-1.56-37.38-2.21-36.31-1.9-72.62.4-108.93-.34-41.48-.84-83-.73-124.43.55-31,1-62,1.51-92.83,4.1-60.42,5.07-120.88,1.41-181.3,2.65-10.82.23-21.65,0-32.48,0-6.24,0-7.49-.9-8.26-7.23-1.71-14-3.27-28.11-4.87-42.17-.15-1.27-.91-3,.59-3.64,4.36-1.83,3.41-5.53,3.47-8.89,1.5-79.94,3-159.89,2.75-239.86,0-13-.47-26-3.66-38.7-1.09-3.24,1.4-4.29,3.51-4.69,2.79-.52,5.93-1.1,8.11,1.86.61.82.68,1.86-.22,2-4.77.5-1.52,3.57-1.85,5.47,6.63,48.28,1.63,96.8,3.1,145.18.36,11.64,0,11,11.52,10.69,21.3-.58,42.61-1,63.92.31a218.21,218.21,0,0,0,32.94-.22,52.74,52.74,0,0,1,7-.43c17.52.75,34.89-1.82,52.37-2.23,30.95-.74,61.93-3,92.84-1.48q48,2.36,95.86,1.54,45.68-.75,91.35-2.15,46.21-1.45,92.4-.38c25.15.62,50.28.24,75.42.65,6.85.11,7.13-.27,7.14-6.92,0-25.82.53-51.66-.14-77.46-.72-27.95-1.52-55.9-1.89-83.86a22.32,22.32,0,0,0-.82-5.92c-.26-1.93-3-3.56-.74-5.83a7,7,0,0,1,5.31-2.27C943.9,367.44,943,370.11,944.17,371.3Z"/><path class="cls-6" d="M944.17,371.3c-1.4-2.81-3.22-3.62-6.25-2s-1.76,2.85,0,4.25c-7.51,2.5-15.13,1.29-22.72.73-1.14-2.29-.77-3.14,1.95-3.06,4.43.13,8.9-.74,13.29.68-7.48-1.9-14.9-.59-22.33.24a5.65,5.65,0,0,1-2.47.13c-5.57-2-10.72-.87-15.68,1.94a5,5,0,0,1-3.64-.42c-1.41-.19,1.47-3.14-1.8-2.5-5,1-10.25-.33-15.19.51,1.39.06,3-.52,4.49,0,2.08.74,1.65,1.74-.11,2.52-10.59,1-21.18.69-31.77.2a216.6,216.6,0,0,0-23.16-2,42.59,42.59,0,0,1-5.74-.57c-.65-.07-.19.83-.22.16,0-.16.17-.23.48-.12,3.83,1.41,7.85.12,11.72.84,1.09.21,2.74-.77,3.07,1.29-1.31,1.63-3.2,1.61-5,1.7-19.06.93-38.08,2.76-57.21,2.08-12-.42-23.88.74-35.79,1.76-3.3.28-6.63.53-9.89-.37-1.81-1.09-2.61-2.25,0-3.38.58-.26,1.36,0,1.92-.41.79-.58.43-1.09-.24-1.47-.12-.06-.3-.29-.49-.06.52.19.88.94.64,1-2.84,1.21-5.65,2.9-8.85,2.47-12.72-1.69-25.47-.75-38.21-.59-3.31.05-6.42,1.18-9.81,1.06-3-.1,1.53,1.71-.18,2.5-7.35,2.65-14.86,1.17-22.31.95-3-.94-1.08-2.33,0-3.46-4.29-1.51-3.58,2.8-5.39,4.12a12.79,12.79,0,0,1-5.4.81q-25.67.07-51.35,0c-2.28,0-4.71.25-6.52-1.71a1.82,1.82,0,0,1,.83-2.42c-23.13.08-46.23-.26-69.33.73,5.7-.12,11.37.7,17.1-.44,2.29-.45,5-1.06,6.76,1.64a3.09,3.09,0,0,1-3.19,1.95c-12.57-.15-25.11,1.15-37.67.81-1.26-.48-2.82-1.23-2.17-2.71,1-2.13,3.35-.33,5.56-1.5-11.11-.59-21.28,1.94-31.57,2.92,2.14.44,4.26-.34,6.36,0,1.38.21,3.62-.49,3.41,2.27a4.44,4.44,0,0,1-3.16,1.28q-23.55.57-47,2.93a5.66,5.66,0,0,1-1.47-.2c-1.55-.7-3.65-.6-4.38-3.09a31.05,31.05,0,0,1,11.65,0,5.61,5.61,0,0,0,.06-.57c-14.59.06-29,2.31-43.56,2.56-3.35,1.58-6.77-.68-10.22.22-2.92.76-6.08-.54-9.1,1.16-1.38.77-3.55.14-5.35.24,8.29-.77,16.62-.52,24.87-1.77,5.36.55,11-.86,15.91,2.62-1.64,2.64-4.36,2-6.74,2.07-10.47.1-20.94.07-31.41,0-12.47,0-24.87,1.11-37.27,2.28a37.55,37.55,0,0,0-10.6,2.48c0-2-1.68-3-3-4.24,2.21-2,4,.87,5.82-.31-3.93-3.92-8.16-3.36-11.08,1.51-3.27-1.75-4.42-4-2.8-7.76,2-4.75,1.31-9.88.7-14.82-1.33-10.61-1.2-21.27-1.38-31.93a7.73,7.73,0,0,1,.83-4.34c1.55-2.57,3.07-4.4,5.74-1a6.3,6.3,0,0,0,6.07,2.53c13.25-1.41,26.81-.73,39.8-2.63,23-3.35,46.25-1.12,69.09-5.37,12.64-2.36,25.6-.29,38.39-1.83,40.09-4.81,80.42-3.89,120.68-4.44,62.8-.85,125.61.7,188.42-.47a391.81,391.81,0,0,0,41.8-3.38c16.69-2.11,33.28-.16,49.88.68,13.61.7,27.39.19,40.74,3.54,9.68,2.43,19.42,2.57,29.24,1.91,2.43-.16,4,.25,4.77,3A201.37,201.37,0,0,1,944.17,371.3Z"/><path class="cls-4" d="M841.05,373.25h34a10.51,10.51,0,0,1,11,.05l4,0c6.65-2.61,13.62-.65,20.41-1.36a4.15,4.15,0,0,1,3.59,1.32l23.89.3c2,13.56,1.22,27.25,1.56,40.86,1.1,44,2.28,87.94,1.85,131.94,0,3.85-1,4.91-4.92,4.91-68.8,0-137.61-1.8-206.4.26-40.31,1.2-80.61,2.39-120.93,1.45-23-.53-45.89-2.1-68.92-1.63-45.8.91-91.5,4.71-137.32,4.58-27.82-.08-55.64-1.15-83.45.21-3.14.15-4.13-.91-4.11-3.88,0-5-.27-10-.27-15q0-57,0-114c0-5.86-.3-11.67-2.14-17.26-1-3.13-.11-6.3-.63-9.41.21-3,2.25-3.17,4.74-3.51,23.11-3.1,46.34-2.61,69.56-2.83,4,0,8,.3,11.83-.84,4.28-2.79,9.28-1.56,13.92-2.34a10.58,10.58,0,0,1,5.78.2c17.32-2.49,34.86-2,52.23-3.89,5.43-2.59,11.08-2.05,16.76-1.16l42.34-1.78c1.6-1.93,3.84-1.63,5.95-1.64q16.32,0,32.65,0c2.13,0,4.33-.17,6,1.62,21.37.88,42.73,1.18,64.1,0a1.87,1.87,0,0,1,2.94-.07,156.86,156.86,0,0,0,24.32-.92c2.18-2,5-1.58,7.53-1.62,14.75-.21,29.51-.15,44.26,0a3.89,3.89,0,0,1,1.89.57c6.66.51,13.24-.63,19.84-1.15,22.2-1.73,44.5.22,66.68-1.91,7.58-.73,15.19-1.25,22.78-1.86C832.58,372.27,836.82,372.78,841.05,373.25Z"/><path class="cls-4" d="M329.91,561.27c21.66,2.73,43.47,2.53,65.23,2.3,47.47-.51,94.94-1,142.32-4.65,21-1.62,42-.82,62.93.59,34.47,2.32,68.94,1.42,103.42.3,18.49-.61,37.06,0,55.45-1.62,28.66-2.52,57.17.79,85.76.46s57-.1,85.48-.09c1.66,0,3.32.12,5,.27,2.31.21,3.4,1.29,3.44,3.86.07,5.66.52,11.29-1,16.87s-.9,11.59-1.27,17.4c-1.67,26.1-3.5,52.19-.67,78.36,1.06,9.8-.36,19.63-1.4,29.4a47.87,47.87,0,0,0,0,12c.9,6.27-1.17,8.42-7.72,7.71-4.46-.48-8.87-1.92-13.31-2-34.15-.32-68.15-4.3-102.36-3.43-57,1.46-114-1-171,.33-37.31.87-74.68,1.5-111.84,4.42-70.27,5.52-140.56,1.23-210.82,2.61-3.65.07-5-1.14-5.11-4.75a211.45,211.45,0,0,1,1.14-22c.79-9.32,1.22-18.59-.35-27.89-2.2-13.11-1.51-26.29,0-39.37,2.52-21.77,2.09-43.58,1.68-65.4-.08-4.22.5-6.56,5.5-5.82C323.52,561.64,326.74,561.27,329.91,561.27Z"/><path class="cls-1" d="M634.89,329.35c49.65,0,89,.06,128.29,0,17,0,33.84-2.81,50.77-4.12,16-1.24,31.93-1.58,47.82,1.16,8.62,1.49,17.28.34,25.93.16,2.16,0,4.47-.37,6,1.65,2.74,3.65,6.48,4.06,10.67,3.93,7.49-.24,15-.05,22.49-.25,3.14-.08,4.78.66,5.3,4.19,1.28,8.72,2.93,17.39,4.64,26,.62,3.12-.18,3.91-3.38,4.13-51.75,3.57-103.58,1.28-155.36,2.4q-28.74.63-57.37,3.13c-10.27.89-20.66.27-31,.8-66.92,3.48-133.9,2.59-200.86,3.2-12.84.12-25.54,2.18-38.28,3.55-21.7,2.31-43.51,3.16-65.31,4-23.31.87-46.63,1.34-69.94,2.12-3.06.1-4.47-.83-4.92-3.91-1.7-11.54-3.36-23-2.54-34.79.25-3.56,1.45-4.84,4.94-5.18,17.59-1.73,35.2-2.59,52.86-3.09,30.46-.86,60.89-2.51,91.21-5.64,1.33-.14,2.66-.29,4-.31C522.3,331.51,583.7,326.87,634.89,329.35Z"/><path class="cls-2" d="M719.08,378.41c-10.73,1.44-21.53.75-32.3,1-7.13.15-14.26.07-21.38.09-.69-.57-2.41,1-2.26-1.77.13-2.47,1.41-1.27,2-1.31,9-.6,18.11-1.69,27.13-1.4,6.07.2,12.29-.63,18.27,1,3.69,1,7-.73,11.24-.87l-3-1.45c2.82-.93,4.77.28,7,1.34C724,377.79,719.8,374.38,719.08,378.41Z"/><path class="cls-2" d="M574,380.47l-44.59,0c-6.87-1.74-13.78.59-20.66-.14-1.93-.21-4,.36-5.54-1.21,24.91-2.11,49.91-2,75.07-1.75C577.8,380.25,574.75,378.55,574,380.47Z"/><path class="cls-2" d="M418.12,387.33a88.8,88.8,0,0,1-19.7,2.14c-5.56.29-10.88-1.27-16.29-2.13,5.69-2.42,11.89-2.17,17.81-2.73,9-.85,18.09-.22,27.16.51H415.17C415.6,387,417.72,385.92,418.12,387.33Z"/><path class="cls-2" d="M487.11,382.28a76,76,0,0,1-16.76,1.16h-13c3.56-.92,5.92-4.26,10.48-3.45,4.17.75,8.71-1.29,13.14-1.86a43,43,0,0,1,13.61.61c-1.87,2.22-3.77,3.14-6.46,2.1C486.29,380.13,486.77,381.3,487.11,382.28Z"/><path class="cls-2" d="M798.53,372.44c-15.35,3.25-29.41,3.19-43.53,2.07C768.81,369.75,783,371.73,798.53,372.44Z"/><path class="cls-2" d="M914.06,373.27a211.16,211.16,0,0,1-24,0c4.71-3.65,9.59-3.15,15.39-2.58,5.33.52,11.61.67,17.06-1.86a2.4,2.4,0,0,1,2.74.26c2.26,1.76,5.12,1.9,8.42,2.77C926.7,373.23,920.22,371,914.06,373.27Z"/><path class="cls-2" d="M604.93,378.54a76.54,76.54,0,0,1-22.6,1.27c-.77-.08-1.63.6-1.63-.8,0-.63,0-1.59.75-1.57C589.36,377.6,597.35,376.6,604.93,378.54Z"/><path class="cls-2" d="M382.1,388.41c-8.63,1.26-17.27.73-25.91.53C364.89,389.2,373.18,382.64,382.1,388.41Z"/><path class="cls-2" d="M886.06,373.29l-11-.05c-3.17-2.23-7.09.24-10.35-2.05,8.29-.09,16.51-1,24.94-1.59C889.18,372.12,886.81,371.82,886.06,373.29Z"/><path class="cls-2" d="M326.66,388.21c3.83,1.63,7.84,0,11.93-.77,1.27-.24,2.71-.4,3.65.84a1.34,1.34,0,0,1-.15,1.29,2.87,2.87,0,0,1-3.24.51c-4.33-1.6-8.4,1.48-12.53.62-1.23-.26-3.9,2-3.82-1.09C322.55,387.65,324.9,388.61,326.66,388.21Z"/><path class="cls-2" d="M630,377.79a4.74,4.74,0,0,1-5,2.5c-3.07-.29-6.08-1.34-9.2-.05-.77.32-2.16.27-2.26-1.13-.07-.9.91-1.76,1.57-1.55C619.9,379,624.76,376.49,630,377.79Z"/><path class="cls-2" d="M841.05,373.25l-12.67.24c-5.41-.8-11.09,1.07-16.3-1.86,8.91,1,17.84.65,26.76.76A7,7,0,0,1,841.05,373.25Z"/><path class="cls-2" d="M750,374.35c-3.89,3.2-8.22.45-12,1.79-.35.12-1.24-.25-1.25-.43a2.65,2.65,0,0,1,.39-1.74c1.25-1.67,2.88-1.79,4.84-1.24C744.59,373.48,747.22,374.52,750,374.35Z"/><path class="cls-2" d="M860.25,372H842.74v-1h17.5C860.24,371.33,860.24,371.66,860.25,372Z"/><path class="cls-2" d="M641.08,380.4l-2.94.07c-2.2-2-.49-3.39,1.09-3.81,1.9-.51,4.3-1.29,5.86,1,.65,1,.11,1.53-.91,1.64S641.81,379.18,641.08,380.4Z"/><path class="cls-2" d="M758.07,372.34c-3-.52-5.55.47-8,2-1.05-2.23.17-3,2.1-2.95S756.35,370.56,758.07,372.34Z"/><path class="cls-2" d="M649.12,378.8c2.74-2,4.41-1.55,6.35.19A11.5,11.5,0,0,1,649.12,378.8Z"/><path class="cls-2" d="M317,388.84c-.14.24-.3.86-.6.94-1.1.28-1.28-.68-1.51-1.41s.28-.86.79-.85C316.37,387.53,316.88,387.87,317,388.84Z"/><path class="cls-9" d="M481,469.24c.13,20.14-8.94,35.14-25.82,45.48-14.84,9.1-31.09,14.58-48.45,11.47-11.31-2-22.33-6.38-33-11a12.14,12.14,0,0,1-3.29-2.22c-24.65-23.13-27.08-55.11-5.79-81.28,9.41-11.57,20.1-21.74,35.17-25.89,13-3.59,25.43,0,37,4.81,22.88,9.54,40.06,24.88,43.87,51.18C481,464.23,480.89,466.75,481,469.24Z"/><path class="cls-16" d="M535.4,440.51c8.41-5.6,5.88-13.89,6-21.44.18-8.77.4-9.44,9.17-10.81a247,247,0,0,1,32.81-2.88c16.64-.37,33.3-.56,50-.68,10.36-.08,20.68-.79,30.72-3.21,10.27-2.48,20.15-.15,30.17,1.07a72.87,72.87,0,0,0,18.43,0,12.9,12.9,0,0,1,6.35.67c2,.75,2.53,1.72,1.89,3.74-2.32,7.37-.23,14.08,3.25,20.57,2.44,4.56,2,5.63-3.33,6.33-10.39,1.36-20.82,2.84-31.31,2.84-26.68,0-53.09,4.44-79.73,4.68-24.46.23-48.92.05-73.38.05Z"/><path class="cls-2" d="M539.42,465.14c1.58-2.91,3.67-3.75,6.31-4.18,13.52-2.19,27.16-2.82,40.81-3.29,27-.93,53.85-2.93,80.69-5.68a67.92,67.92,0,0,1,7-.43c42.46-.14,84.85-3.26,127.36-2.72,24.42.3,49-.77,73.11-5.62,7.66-1.54,15.17-4,23.11-2,3.21.82,6.38,1.72,9.22,4-2,2.19-4.32,2.34-6.78,1.91-6.64-1.17-13.44-1.68-19.83.3-12.61,3.92-25.88,2.39-38.46,5.07a138.7,138.7,0,0,1-50,1.19c-6.89-1-14,.05-20.87,1.26a81.63,81.63,0,0,1-14.39,1.26c-35.66-.12-71.38.15-106.86,3.42q-48.3,4.45-96.69,6.15A81.54,81.54,0,0,1,539.42,465.14Z"/><path class="cls-6" d="M545.79,488.06a15.12,15.12,0,0,1,12.2-5.55q65.22-1,130.42-2.35a434,434,0,0,0,53.72-4.7C765.8,472,789.66,473,813.47,473c18.32,0,36.7.88,54.94-.84,10.2-1,20.2-1.48,30.28.28,1.07.19,2.67-.42,3.07.94s-1.13,2.23-2.11,3a7.2,7.2,0,0,1-7.49,1.17,25,25,0,0,0-15.2-.41,38.49,38.49,0,0,1-9.41,1c-15.16.07-30.33.32-45.48-.1-32.56-.92-64.88,1.54-97.13,5.7a162.86,162.86,0,0,1-20.92,1.5c-50.82,0-101.59,2-152.39,2.85C550,488.09,548.41,488.06,545.79,488.06Z"/><path class="cls-6" d="M592.84,512.19c21.63-2.16,46.14-1.59,70.52-4.61,14.79-1.83,29.94-.71,44.93-1,10.66-.17,21.29-1,31.91-2a78.7,78.7,0,0,1,23.38,1.22c7.8,1.61,15.6,2.19,23.27.3,6.64-1.64,12.84-.82,19.09,1.21,1.27.42,3.36,0,3.14,2.3-.2,2.08-2,2-3.46,2-10.47.59-21,1.45-31.45.7-6-.43-11.91-1.3-17.85-2.07-11-1.41-21.94.27-32.9,1-22.28,1.49-44.72-.53-66.9,2.14-25.54,3.07-51.1,3.73-76.76,4.1-13.79.19-27.55,2.46-41.3-.28-1.13-.22-3,.69-3.17-1.35-.08-1.43,1.29-2.27,2.46-2.92,1.82-1,3.86-.84,5.86-.84Z"/><path class="cls-6" d="M560.94,580.34c-.1-4.13,2.06-5.38,5.92-5,20.58,2.14,41.25,3.07,61.86,1.57,18.19-1.33,36.27-.85,54.4.38,13.86,1,13.77.8,15.09,14.72,1.36,14.42,3.15,28.8,4.36,43.24,1.48,17.75-3.49,21.79-18.72,20.36-41.16-3.89-82.11,1-123.14.58a15.19,15.19,0,0,1-4.4-.62c-3.33-1-5.63-2.6-2.21-6.15,1.89-2,2-4.36,2-6.94-.38-21.29.91-42.61-1.47-64,2.62-.24,4.39,1.25,6.43,1.73,2,2.22,1.62,5,1.63,7.61,0,17.14,0,34.29,0,51.44,0,7,.47,7.6,7.32,7.38,12.5-.42,25,1.5,37.41.94,21.79-1,43.58-.66,65.38-1,5.64-.08,11.25-1,16.93-1,2.94,0,4.55-1.24,4.34-4.6-.94-15.61-2.12-31.2-2.7-46.82-.06-1.5-.54-3-.58-4.45-.1-3.82-2.06-4.7-5.72-5-25.46-2.39-50.88.71-76.32.18-13.81-.29-27.59-1.11-41.35-2.24C565,582.45,562.77,582,560.94,580.34Z"/><path class="cls-8" d="M342.85,657c10.38-4.43,9.37-13.76,10.26-22.15,1.6-15.08-.15-30.31,1.93-45.39.36-2.66,1.27-4.17,3.6-5.32C365.07,581,371.87,580,379,580q50.7.12,101.41.11c7.8,0,10.16,2.15,10,10a271.3,271.3,0,0,0,4.05,51.62c2.51,14.52,3.65,11.72-10.06,12.54-20.43,1.23-40.69,4.63-61.24,4.39-24.65-.29-49.29-.23-73.94-.34-1.79,0-3.58-.16-5.37-.25Z"/><path class="cls-14" d="M885.11,648.64c-3.8,3.7-8.58,3-13,2.29-11.07-1.81-22.19-2-33.35-2-26.49.11-53,.11-79.46.16h-3.71c8.23-8.17,5.29-17.65,5.49-26.51.32-14.49.19-29,0-43.48-.05-3.29.88-5,4.2-5.2,14.94-1,30-2.41,44.8,0,7.45,1.18,14.88,1.51,22.33,2,15.63,1,31.27,1.68,46.91,2.38,8.75.4,10.29,1.78,10.78,10.86.82,15.14,1.48,30.28,2.36,45.42.28,4.83.59,9.64-.46,14.41-.14.63.27,1.94-1.13,1.48-.46-.16-.67-1-1-1.6-4.75-5.45-4.41-12.37-5.15-18.86-1.43-12.69-1.94-25.47-3.18-38.19-.35-3.7-2.33-5.86-6.06-5.93-10.8-.21-21.54-1.3-32.29-2.17-11.9-1-23.81-2-35.72-2.61-11.6-.59-23.2-1.87-34.86-1.36-2.94.13-3.92,1.28-4.23,4.19-1.7,15.77-.63,31.59-.93,47.38-.05,2.21.73,4.25,1,6.39a3.35,3.35,0,0,0,3.34,3.13c3,.15,5.86,1.14,8.89,1.15,13.6.08,27.22.9,40.79-.09,17.78-1.28,35.52.81,53.29.18C881.55,641.77,884.28,643.93,885.11,648.64Z"/><path class="cls-6" d="M337.44,678.75a283.5,283.5,0,0,1,68.69-6.11c8.51.22,17,.1,25.33-1.83,5.66-1.31,11.24.76,16.89.69,17.48-.19,35-.28,52.44-.41.67,0,1.34,0,2,0,1.8,0,4.16-.34,4.15,2.26,0,2.21-2.21,2-3.83,2.1-19.26,1.48-38.53,2.78-57.86,2.71-14.15,0-28.31.12-42.46,0a311.3,311.3,0,0,0-52.72,3.84C346,682.56,341.19,684.34,337.44,678.75Z"/><path class="cls-6" d="M752.26,666.8c2.5-1.64,5.24-1.16,7.83-1.31,18.1-1.07,36.31-1.21,54.27-3.41,11.83-1.45,23-1.5,34.4,2,6.67,2,13.55,1.16,20.3.07,8.78-1.42,17.6-.89,26.41-.77,3.83,0,6.77,2.4,10.18,4.19-1.77,2.34-3.93,2.82-6.5,2.95-21.47,1.1-42.87.9-64.26-1.81-13.42-1.71-26.91-.14-40.34.92-11.46.9-22.94.76-34.42,1C756.92,670.74,753.78,670.49,752.26,666.8Z"/><path class="cls-6" d="M712.58,671.36c-52.41,3.2-104.8,7.9-158.9,4.84,5.83-3.94,10.87-5.84,16.41-5.69,13.62.35,27.22-.24,40.87,1.46,10,1.25,20.1-1.88,30.29-2,14.14-.19,28.27-1.18,42.41-1.77a53.91,53.91,0,0,0,12.79-1.86C702.54,664.57,706.77,665.78,712.58,671.36Z"/><path class="cls-6" d="M544.37,695.6c17.36-3.79,34-7.08,51.37-3.67,11.2,2.2,22.62,1.22,33.77-.9,12.13-2.3,24.23-.79,36.35-.79,2.75,0,2.63,1.33,1.76,3.12-1.77,3.69-4.87,5.29-8.64,4-8.25-2.9-16.34-1.75-24.59-.11-12.84,2.56-25.8,2.41-38.77.87-13.46-1.6-26.88-1.8-40.17,1.49C551.26,700.6,547.58,700.15,544.37,695.6Z"/><path class="cls-6" d="M848.75,693.73a15.36,15.36,0,0,1-14.18,4c-22.6-4.18-45.27-3.59-68-1a66.25,66.25,0,0,1-8.45.43c-1.29,0-3.38.94-3.74-1.18a4.73,4.73,0,0,1,2.08-4.78,9.39,9.39,0,0,1,4.27-1.17,310.1,310.1,0,0,1,81,0C845.11,690.56,845.29,690.66,848.75,693.73Z"/><path class="cls-27" d="M885.11,648.64a7.61,7.61,0,0,0-7.44-4.92c-15.8-.15-31.64-1.29-47.37-1.05s-31.23,1.2-46.86.66c-4.15-.14-8.29-.74-12.43-1.09-2.73-.24-4-1.46-4.22-4.41a388.63,388.63,0,0,1,.28-56.38c.26-3.41,2.17-3.44,4.72-3.4,17.33.23,34.59,1.58,51.87,2.67,16.77,1.06,33.52,2.51,50.29,3.66,8.45.58,8.19.48,9.18,9.12,1.76,15.37,1.65,30.92,4.42,46.18.56,3.09,1.56,6.09,2.35,9.13A8.23,8.23,0,0,0,885.11,648.64Z"/><path class="cls-9" d="M428.16,701.29c-4.61,4.77-9.07,6.75-14.94,5.14-9.17-2.5-18.35-2-27.7-.38-14.86,2.52-29.91.84-44.88,1.08a7.33,7.33,0,0,1-2.85-.83c-1.11-.47-2.18-1.31-2-2.59s1.63-1.41,2.82-1.45c6.82-.26,13.64-.57,20.47-.77q28.71-.82,57.44-1.58A38.14,38.14,0,0,1,428.16,701.29Z"/><path class="cls-19" d="M464.91,700.39c-7.55,5.62-16.62,5.48-24.53-.19C448.82,700.56,456.48,696,464.91,700.39Z"/><path class="cls-28" d="M773.09,346.41c-3.16,4.32-6.47,6.72-11.06,7s-9,.51-13.47.6q-52.2,1.14-104.41,2.21c-3.52.08-8.45.34-8.46-3.79s4.9-3.86,8.43-3.84c39,.3,77.94.1,116.87-2.16C764.74,346.23,768.51,346.41,773.09,346.41Z"/><path class="cls-29" d="M785.2,353.07c5.8-3.92,12.36-3.76,18.74-4.37,5.18-.49,10.32.3,15.45.83,1.69.18,4.39-.1,4.31,2.28a4.54,4.54,0,0,1-4.72,4.28,49.85,49.85,0,0,1-8.47-.28C802.12,354.6,793.83,352.48,785.2,353.07Z"/><path class="cls-30" d="M853.7,353.19c-4.17,0-8.33,0-12.5,0-1.05,0-2.67.54-3-1s1-2.29,2.31-2.85a2.92,2.92,0,0,1,1-.22c8.29-.61,16.6-1.54,24.89-.13,1.45.25,3.8-.07,3.66,2.41s-2.43,1.74-3.89,1.79c-4.16.11-8.33,0-12.49,0Z"/><path class="cls-31" d="M896,351.1c3.21-2.11,6-3,9-2.05,1.3.4,3.5.14,3.34,2.1-.14,1.59-2.15,1.89-3.57,2.16A10.18,10.18,0,0,1,896,351.1Z"/><path class="cls-23" d="M455.18,506.54c-2.07,2.51-5,3.9-7.8,5.17-21.27,9.57-42.4,11.62-63.2-1.4-2.65-1.66-5.46-3.07-8.19-4.6-4.71-3.87-9.34-7.79-12.52-13.14-2.12-3.58-4.16-7.14-4.85-11.32a92.36,92.36,0,0,1-1.45-20.86,5.94,5.94,0,0,1,.27-1.56,167.11,167.11,0,0,1,9.43-18.77v0c4.5-4.5,9.6-8.36,13.06-13.92a23.68,23.68,0,0,1,14.81-11c7.78-1.76,15.52-4.67,23.82-2.79s16.23,4.34,23.26,9.29c4.3,3,9.18,5.19,13.1,8.8a10.33,10.33,0,0,1,3,2c3.51,2.38,5.79,5.83,8.09,9.26,9.76,14.52,11.72,45.27-3.85,58.7C459.33,501.82,457.29,504.22,455.18,506.54Z"/><path class="cls-1" d="M674.84,431.22c-13.69-.05-27.14,2.57-40.72,3.6-18,1.36-36,3.14-54.2-.15-9-1.63-18.59-.55-27.9-.36-3.56.07-5.21-.82-5.18-4.6a42.46,42.46,0,0,1,.13-6.95c1.38-7.9,3.88-10.23,11.92-10.36,11-.19,22-.56,33-.18,22,.75,43.84-1.55,65.65-4.21,13.42-1.63,26.87-2.17,40.17,1.29a23.11,23.11,0,0,0,6.92.78,4.82,4.82,0,0,1,5.3,3.32,47.73,47.73,0,0,1,4.26,9.75c.54,1.67,1.16,3.46-.24,5.08l.1-.09c-6,3.52-12.61.86-18.86,2.13C688.46,431.62,681.58,430.17,674.84,431.22Z"/><path class="cls-32" d="M674.84,431.22c8.54-1.35,17.19-1.19,25.78-1.85,4.47-.34,9-.16,13.38-1.23-2.84,2.67-5.9,2.81-9.84,2.49-6.54-.54-13.18,1.1-19.84.74C681.16,431.19,678,431.26,674.84,431.22Z"/><path class="cls-32" d="M713.9,428.23c1.18-3.72-1.47-6.52-2.37-9.74-.48-1.72-1.1-3.4-1.65-5.09,4.23,3,4.59,7.76,5.49,12.3C715.67,427.17,715.29,427.91,713.9,428.23Z"/><path class="cls-1" d="M560.94,580.34c26.37,3.1,52.82,3,79.32,2.4,16.14-.38,32.3.11,48.46.09,2.65,0,3.4,1,3.55,3.48q1.71,28.43,3.65,56.83c.31,4.29-2.52,3.92-5.15,4.08-20.46,1.23-41,1.08-61.44,1.49-20.66.41-41.3-.14-62-.31-4.66,0-6.28-1.28-6.23-6.18.19-20.65,0-41.31-.11-62Z"/><path class="cls-1" d="M355.91,652.3c5-3.45,4.25-8.1,4.13-12.56q-.54-21.22-1.14-42.46c-.17-6.27,1.64-9,7.68-10.86a23.77,23.77,0,0,1,6.87-1c34.32,0,68.64.1,103,0,4.22,0,5.26,1.64,5.7,5.43q3.09,26,6.71,52c.52,3.72,0,5-4.22,5.51-25.39,2.9-50.9,2.06-76.35,2.87-15,.48-29.93,1.43-44.9,2.09A14.39,14.39,0,0,1,355.91,652.3Z"/><path class="cls-1" d="M887.38,646c-3.45-2.69-6.26-3.87-9.73-3.71-18.14.82-36.24-1.61-54.35-.81-10.3.44-20.58,1-30.87.8-6.13-.1-12.26-.53-18.37-1-3.4-.27-5-1.89-5.71-5.79-2.15-11.77-1.59-23.61-.93-35.32.33-5.92.64-12,1.57-18,.4-2.59,1.69-2.75,3.69-2.85,5-.24,9.93.81,14.86,1.23,8.2.7,16.45-.17,24.55.91,14.36,1.92,28.92,1.08,43.25,3.61,5.34.94,11,.22,16.46.3,7.21.11,8.09,1.22,9.36,8.12,2.43,13.23,2.41,26.67,3.94,40C885.55,637.35,886.5,641.21,887.38,646Z"/></g></g></svg>