<svg xmlns="http://www.w3.org/2000/svg" viewBox="0 0 442 442"><g data-name="florero" style="opacity:.86"><path d="m281.5 145.15 43.2 40.9-34 35.9-44.9-42.4v61.7h-49.5v-57.1l-39.3 41.5-36-34 41-43.3-59.6 1.7-1.3-49.6 59.5-1.6-43.2-40.9 34-36 44.9 42.5V2.65h49.5v57.2l39.3-41.5 35.9 34-40.9 43.2 59.5-1.6 1.3 49.5-59.4 1.7z" style="fill:#ff7b5c"/><path d="M221 340.35a99 99 0 0 0-99 99h198.1a99.05 99.05 0 0 0-99.1-99Z" style="fill:#c1ae8d"/><path d="M221 340.35a99 99 0 0 0 99-99H122a99 99 0 0 0 99 99Z" style="fill:#6dc0c2"/></g></svg>