<svg xmlns="http://www.w3.org/2000/svg" viewBox="0 0 442 442"><defs><style>.cls-1{opacity:0.86;}.cls-2{fill:#ff7b5c;}.cls-3{fill:#c1ae8d;}.cls-4{fill:#6dc0c2;}</style></defs><g id="learning"><g id="florero"><g id="florero-2" data-name="florero" class="cls-1"><polygon class="cls-2" points="281.5 145.15 324.7 186.05 290.7 221.95 245.8 179.55 245.8 241.25 196.3 241.25 196.3 184.15 157 225.65 121 191.65 162 148.35 102.4 150.05 101.1 100.45 160.6 98.85 117.4 57.95 151.4 21.95 196.3 64.45 196.3 2.65 245.8 2.65 245.8 59.85 285.1 18.35 321 52.35 280.1 95.55 339.6 93.95 340.9 143.45 281.5 145.15"/><path class="cls-3" d="M221,340.35a99,99,0,0,0-99,99H320.1A99.05,99.05,0,0,0,221,340.35Z"/><path class="cls-4" d="M221,340.35a99,99,0,0,0,99-99H122A99,99,0,0,0,221,340.35Z"/></g></g></g></svg>