<svg xmlns="http://www.w3.org/2000/svg" viewBox="0 0 1024.15 1015.24"><defs><style>.cls-1{fill:#f7f0ed;}.cls-2{fill:#fff;}.cls-3{fill:#1a1a1a;}.cls-4{fill:#ddb946;}.cls-5{fill:#f4ede4;}.cls-6{fill:#262626;}.cls-7{fill:#2d2d2d;}.cls-8{fill:#ff7b5c;}</style></defs><g id="analytical_intuitive" data-name="analytical&amp;intuitive"><circle class="cls-1" cx="504.65" cy="514.5" r="502.5"/><path class="cls-2" d="M570.57,835.6c-7.84,27-21.16,47.2-49.87,51.88-12.59,2.06-24.17-1.14-35.61-6.35-8-3.67-6.33-10.29-6.34-16.43-.08-41.23,0-82.46,0-123.69,0-176.72.38-353.43-.34-530.14-.11-27.08,22.3-49.62,44.67-54.66,28-6.33,55.32,7.53,64.73,33.91,4.07,11.4,8.41,16.75,21.64,18,26.3,2.4,44.48,24.07,45.56,51.44.38,9.85,2.8,12.45,13.31,11.4,37.81-3.76,66.78,25.29,62.71,60.72-1.32,11.51-6.13,18.29-17,22.45-26.44,10.07-41.87,30.41-50.08,56.78-1.11,3.55-2.33,7.32-2.18,10.93.21,5.13-3.85,12.86,5.68,13.92,8.61.95,8.74-6.12,9.67-11.83,3.88-24,18-40.77,38.06-52.78,15.37-9.22,32.08-14.23,47.85-1.23s23.65,30.3,19.48,51.27c-1.56,7.81-4.7,15.29-6.9,23-3.77,13.17-.2,17,12.95,14.06,21.46-4.78,38.86,2.74,48.6,21,8.89,16.66,4.71,37.16-10.4,51-11.54,10.54-10.65,16.54,3.41,23.07,34.21,15.9,43.19,47.17,22.58,77.55-5.77,8.52-14,13.5-23.13,16.29-49.15,15.06-96.53-13.31-106.72-63.85-1.32-6.54-3.26-9.9-10.12-8.82-8,1.26-6.8,7.58-5.92,12.52,5.94,33.37,23.61,57.62,55.35,71.27,24.83,10.68,33,23.82,32.13,49.15-.75,21.49-15,43.07-35.21,49.23-11.24,3.43-12.44,7.61-9.34,18.07,12,40.36-22.52,68.46-50.61,69.43-8.19.29-12.52,3.12-16,10.2-18.83,38.62-51.67,40.08-85.72,26.78-10.37-4-13.83-19.86-18.87-31.13C576.68,845.62,576.54,840.53,570.57,835.6ZM515.9,793c-1.17,6-1,11.05,6.76,11.63,8,.59,9.22-4.27,10.08-11,3.77-29.24,20.3-48.36,47.74-58.63,11.51-4.3,21.16-3.55,30.91,5.29,11.26,10.22,25.46,15.58,40.65,17.16,4.74.5,11.5,2.36,12.45-5.89.91-7.8-3.6-9.47-10.57-10.39-21.26-2.81-37.44-13.74-49.81-31.49-7.32-10.52-10.33-22.17-13.05-34.07-1.35-5.88-3.89-8.23-9.83-7.54s-6,4.8-6.35,9.26a37.1,37.1,0,0,0,5.36,21.5c7.49,12.88,2.81,18.3-9.91,23.19C538,734.48,520.84,759.31,515.9,793Zm12.93-437.25c-.81,4.33-2,8.72,4.78,9.3,5.68.49,8.82-1.28,9.9-7.45,6.59-37.43,28.66-59.66,66.2-66.23,6.56-1.15,7.23-5.54,6.48-10.68-.9-6.13-6-5.74-10-4.89-8.85,1.89-17.88,3.75-26.16,7.23-7.41,3.11-9.8,3.21-12.93-5.7-11.91-33.93-36.12-54.54-71.93-60.81-5.45-1-12.11-4.62-13.9,4.75-1.61,8.39,4.07,9.21,10.46,10.22,18.63,3,33.79,12.52,46.41,26.23,17.77,19.29,18.93,36.15,4.43,57.68C534.4,327.61,529.43,341,528.83,355.78ZM554,471.6c-5.15,0-10.06-1-11,5-1,6.39,1.82,9.69,8.42,11,11.45,2.28,19.78,8.92,26.88,18.52,9.43,12.75,1.21,21.72-4.1,31.91a57.29,57.29,0,0,0-4.65,13.63c-1.17,5.06-3.2,11.1,4.74,12.8,6.41,1.37,9.51-1.41,11-8.08,3.6-16.58,14.26-27.13,30.45-31.8,7-2,12.63-4.9,9.66-13.11-2.72-7.54-9.15-4-13.6-2.16-9.23,3.88-14,1.56-17.7-7.92C586.9,483.06,570.66,476.14,554,471.6Z"/><path class="cls-3" d="M169.94,770.09a2.22,2.22,0,0,0-2-1c-4.83-8.32-13.41-12.51-20.38-18.48l-.06-.12c-2.18-9.72-7-18.19-12.56-26.28q-.36-7.68-.73-15.34c1.28-11.08,3-22.1,7.18-32.52,2.32-5.73,1.31-9.85-5.51-9.56-20.29.86-36.51-8.81-52.48-19.38l-.53.69.57-.65c-5.13-10.57-13.33-19.57-16-31.37-.34-2.22-.67-4.43-1-6.65-.85-25.53,6.36-47.47,28.67-62.23,7.88-5.21,6.15-10.54,2.66-17.6C77,487.8,95.1,451,140.47,442.39c5.08-1,11.25-1.94,9.26-8-7.54-22.83,1.27-42.66,9.76-62.73a4,4,0,0,0,.76-2.62l3.24-3.57-.06.13c10.41-6.08,20.79-12.19,31.22-18.21,4.45-2.57,4.94-6.76,4.41-11.09-2.07-17,3.41-32.53,9.36-48l-.06,0,3.08-3.31a2.59,2.59,0,0,0,1-2,51.54,51.54,0,0,0,19.91-19.48l4.69-1.41c10.42-2.18,20.78-4.7,31.28-6.39,5.28-.84,6.75-3.61,8-8.23,7.65-28.18,26.3-45.61,53.9-54,5.07-1.53,10.48-2.17,13-8,6.32-14.44,16.9-25.71,27.89-36.64l4.78-1.6c16.15-7.73,33.52-6.78,50.71-7.11,2.62.57,5.24,1.14,7.87,1.69l27.42,18,0,0c7.47,15.32,9.31,16,20.28,3.74,30.93-34.52,92.71-34,116.86,14.15,3.69,7.38,9.18,13,17.67,15,11.06,2.53,20.62,8.43,30.47,13.67a2.45,2.45,0,0,0,1.26,1.75l3.2,3.22,0,0c2.12,4.21,4.92,7.75,9.39,9.68l0,.13c3.13,9.35,5.57,19,12.06,26.85a1.47,1.47,0,0,0,.7,1.86c16.57,9.17,37,9.32,51.92,22.4l-.07-.08c11.55,14.14,22.77,29.94,21,48.18C744.37,344.38,758,351.77,776,357.59a1.66,1.66,0,0,0,.89,1.66c.3,4,2.59,6.06,6.52,6.45l-.07-.1,5.68,7.62a1.94,1.94,0,0,0,.72,2q4.8,12.71,9.59,25.42c.24,2.2.47,4.4.71,6.6-1,7.39-1.66,14.86-3.11,22.17s1.27,12.2,8.47,12.21c17.59,0,29.46,10.75,41.91,20.7v.08q4.73,9.58,9.43,19.17v.37c-.26,17.95,1.92,36.38-11.44,51.52-4,4.5-.52,7.78,3,10.53,5,3.91,10,7.69,15.09,11.52l.11,0,3.42,3.33a1.38,1.38,0,0,0,1.52,1q5.52,12.54,11,25.11a2.68,2.68,0,0,0,.29,2.29c3.24,22.5-6.68,41.12-17.55,59.45-13.44,11.51-26.74,22.4-46.37,21.9-11.23-.29-7.7,8.68-6.32,15.44,5,24.33,7,50.18-13.56,67-19.25,15.8-27.63,32.83-29.85,57.16-1.94,21.24-15.35,38.45-37.28,45-21.69,6.49-36.74,21.26-52.28,36.38-19,18.48-60,20.58-81.66,5.62-5.26-3.64-11.07-6.58-16-10.58-7-5.67-12.68-4-18.17,1.89-21.84,23.3-48.68,20.94-75.94,14.14-7.5-1.87-13.43-2.15-21.28.23C436,909.21,408.63,911,385.64,888.41c-6.95-6.83-13.33-5.79-21.21,0-28.95,21.1-59.7,23-91.68,6.67-8.54-4.37-11.13-14.28-18.93-19.19-1.34-7.22-4.77-13.78-12.25-14.75C229.77,859.57,220,853,209,849.87l-.2,0a11.24,11.24,0,0,0-9.11-7l-3-3c-.58-3.3-2.09-5.84-5.59-6.72,0,0-.53-.46-.54-.45-6.82-16.19-13-32.49-11.17-50.65C180,775.61,177.76,770.41,169.94,770.09ZM570.57,835.6c6,4.93,6.11,10,8,14.32,5,11.27,8.5,27.08,18.87,31.13,34,13.3,66.89,11.84,85.72-26.78,3.44-7.08,7.77-9.91,16-10.2,28.09-1,62.59-29.07,50.61-69.43-3.1-10.46-1.9-14.64,9.34-18.07,20.21-6.16,34.46-27.74,35.21-49.23.87-25.33-7.3-38.47-32.13-49.15-31.74-13.65-49.41-37.9-55.35-71.27-.88-4.94-2.07-11.26,5.92-12.52,6.86-1.08,8.8,2.28,10.12,8.82,10.19,50.54,57.57,78.91,106.72,63.85,9.09-2.79,17.36-7.77,23.13-16.29,20.61-30.38,11.63-61.65-22.58-77.55-14.06-6.53-14.95-12.53-3.41-23.07,15.11-13.8,19.29-34.3,10.4-51-9.74-18.26-27.14-25.78-48.6-21-13.15,2.93-16.72-.89-12.95-14.06,2.2-7.7,5.34-15.18,6.9-23,4.17-21-3.57-38.16-19.48-51.27s-32.48-8-47.85,1.23c-20,12-34.18,28.82-38.06,52.78-.93,5.71-1.06,12.78-9.67,11.83-9.53-1.06-5.47-8.79-5.68-13.92-.15-3.61,1.07-7.38,2.18-10.93,8.21-26.37,23.64-46.71,50.08-56.78,10.89-4.16,15.7-10.94,17-22.45,4.07-35.43-24.9-64.48-62.71-60.72-10.51,1.05-12.93-1.55-13.31-11.4-1.08-27.37-19.26-49-45.56-51.44-13.23-1.21-17.57-6.56-21.64-18-9.41-26.38-36.68-40.24-64.73-33.91-22.37,5-44.78,27.58-44.67,54.66.72,176.71.35,353.42.34,530.14,0,41.23-.08,82.46,0,123.69,0,6.14-1.7,12.76,6.34,16.43,11.44,5.21,23,8.41,35.61,6.35C549.41,882.8,562.73,862.65,570.57,835.6ZM462.46,629.4c0-79.79-.15-159.58.18-239.36.05-11.24-2.47-17.63-14.89-19.81a54.15,54.15,0,0,1-29.63-15c-7.48-7.55-16.61-8.37-26.75-5-28,9.3-44,29.15-50.88,57.08-1.46,6,.36,14.33-9.93,12.15-9.46-2-6.57-10-5.61-15.76,3.91-23.27,16.3-41.39,35-55.59,10-7.55,26.67-8.33,31.37-17.47,5.16-10.05-7.53-23.09-7.68-36.12,0-3.92-1.45-7.58,3.65-8.87,4.37-1.1,8.88-1.3,10.89,3.8a91.76,91.76,0,0,1,3.35,12.32c6.1,25.5,22.54,41.71,46.1,51.71,9.43,4,15.12,3.68,15-9-.37-48.73-.28-97.46-.33-146.19,0-7.68-1.5-16.14-6.33-20.94-37.8-37.59-87.52-22.59-99.36,17.57-2.62,8.86-6.77,12.59-16.66,13.44-26.25,2.25-47.29,22.26-48.42,47.5C290.9,270.9,285,272.74,272,272.33c-34.76-1.11-61.85,24.51-56.06,58.08,3.93,22.82-1.64,29.62-22.11,35.83-18.12,5.5-29.23,21.89-30.45,41.58-1.26,20.42,3.14,38.34,23.82,50,23.34,13.14,34.39,35.77,38.88,61.63.86,5,3.51,11.08-4.81,12.67-8.15,1.55-9.51-3.31-10.56-10.06-3-19.26-13-34.94-27.27-47.89-21.22-19.3-50.56-20.42-68-3C98.64,488,101,510.55,122.2,533.09c7.9,8.41,7.27,14.89-3.73,19.64-15,6.47-28.41,12.93-33.69,31.62-8.22,29.07,4.5,55.62,33.56,64.38,8.69,2.62,16.73,2,25.16-.16,9.57-2.5,16.19,1.77,22,9.34,6.16,8.08-1.42,11.36-4.57,16.22-20.45,31.56-8.88,70,25.8,83.29,9.8,3.77,13.1,7.65,10.25,18.76-8.88,34.68,15.78,69.67,51.4,68.46,8.75-.29,12.11,4.52,15.26,11.3,7.88,17,20.7,28.17,39.42,32,20.86,4.33,46.11-4.74,55.93-22.91,9.29-17.2,1-33.53-8.93-47.65-12.09-17.19-28.85-28.54-50.35-31-6.77-.76-11.81-2.1-10.79-10.19s7.75-6.32,12.55-5.9A73.4,73.4,0,0,1,343.62,788c10.24,8.79,20.91,9.28,32.75,3.83,24.48-11.28,39.94-29.46,45.06-56.3,1.1-5.72,1.23-14.36,11-12.34s6.36,9.59,5.09,15.56c-5.77,27-19.78,48.31-44.07,62.11-8.28,4.71-21.74,6.7-24.31,13.26s6.14,17.24,8.47,26.46c5.34,21.11,16.89,36.51,37.22,45.19,14.43,6.16,29,3.82,42-1.92,10.83-4.79,5.43-17.36,5.48-26.37C462.64,781.48,462.48,705.44,462.46,629.4Z"/><path class="cls-4" d="M866.94,558.8l-3.42-3.33Z"/><path class="cls-4" d="M163.49,365.49l-3.24,3.57Z"/><path class="cls-4" d="M211.44,285.07l-3.08,3.31Z"/><path class="cls-5" d="M337.3,535.54c-5.74.56-10.83-1.16-12,4.94-1,5.35.57,9.49,6.36,11,2.06.55,4.26.68,6.22,1.44,25.11,9.7,31.2,25.16,19.67,49a94.15,94.15,0,0,0-5.28,15c-1.28,4.43-3.86,9.78,3.14,11.87,6.27,1.86,10-.8,11.51-7.31,4.05-17.84,15.18-29,32.91-33.22,6.48-1.56,9.05-5.4,7.7-11.57-1.87-8.48-8.37-5.51-12.68-3.61-11.33,5-15.46-.2-19.94-10C367.44,546.72,351.25,541.2,337.3,535.54ZM462.47,629.4c0,76,.17,152.08-.21,228.12-.05,9,5.35,21.58-5.48,26.37-13,5.74-27.55,8.08-42,1.92-20.33-8.68-31.88-24.08-37.22-45.19-2.33-9.22-11.08-19.8-8.47-26.46s16-8.55,24.31-13.26c24.29-13.8,38.3-35.13,44.07-62.11,1.27-6,4.65-13.54-5.09-15.56s-9.87,6.62-11,12.34c-5.12,26.84-20.58,45-45.06,56.3-11.84,5.45-22.51,5-32.75-3.83a73.4,73.4,0,0,0-42.17-17.67c-4.8-.42-11.52-2.29-12.55,5.9s4,9.43,10.79,10.19c21.5,2.43,38.26,13.78,50.35,31,9.92,14.12,18.22,30.45,8.93,47.65C349.15,883.25,323.9,892.32,303,888c-18.72-3.88-31.54-15.07-39.42-32-3.15-6.78-6.51-11.59-15.26-11.3-35.62,1.21-60.28-33.78-51.4-68.46,2.85-11.11-.45-15-10.25-18.76-34.68-13.34-46.25-51.73-25.8-83.29,3.15-4.86,10.73-8.14,4.57-16.22-5.79-7.57-12.41-11.84-22-9.34-8.43,2.2-16.47,2.78-25.16.16C89.28,640,76.56,613.42,84.78,584.35c5.28-18.69,18.71-25.15,33.69-31.62,11-4.75,11.63-11.23,3.73-19.64C101,510.55,98.64,488,115.45,471.21c17.47-17.47,46.81-16.35,68,3,14.23,12.95,24.24,28.63,27.27,47.89,1.05,6.75,2.41,11.61,10.56,10.06,8.32-1.59,5.67-7.7,4.81-12.67-4.49-25.86-15.54-48.49-38.88-61.63-20.68-11.65-25.08-29.57-23.82-50,1.22-19.69,12.33-36.08,30.45-41.58,20.47-6.21,26-13,22.11-35.83-5.79-33.57,21.3-59.19,56.06-58.08,12.95.41,18.86-1.43,19.53-16.51,1.13-25.24,22.17-45.25,48.42-47.5,9.89-.85,14-4.58,16.66-13.44,11.84-40.16,61.56-55.16,99.36-17.57,4.83,4.8,6.33,13.26,6.33,20.94.05,48.73,0,97.46.33,146.19.1,12.72-5.59,13-15,9-23.56-10-40-26.21-46.1-51.71a91.76,91.76,0,0,0-3.35-12.32c-2-5.1-6.52-4.9-10.89-3.8-5.1,1.29-3.69,5-3.65,8.87.15,13,12.84,26.07,7.68,36.12-4.7,9.14-21.41,9.92-31.37,17.47-18.72,14.2-31.11,32.32-35,55.59-1,5.74-3.85,13.76,5.61,15.76,10.29,2.18,8.47-6.18,9.93-12.15,6.84-27.93,22.84-47.78,50.88-57.08,10.14-3.37,19.27-2.55,26.75,5a54.15,54.15,0,0,0,29.63,15c12.42,2.18,14.94,8.57,14.89,19.81C462.31,469.82,462.46,549.61,462.47,629.4Z"/><g id="JaOLEx.tif"><path class="cls-3" d="M465.15,515.57c-2.06,3.73-6.06,4-9.48,5.29-5.81,2.12-8,7.1-5.34,12.69,4.44,9.43,5.1,8.49-2.86,16.31-2.45,2.4-4.83,4.86-7.28,7.25-2.23,2.17-4.7,2.83-7.57,1.18-1.3-.74-2.8-1.15-4-2-3-2-6-2.14-8.84-.07a11.25,11.25,0,0,0-3.44,3.67,42.24,42.24,0,0,0-2.53,6.91,5.09,5.09,0,0,1-5.21,3.93c-5.68,0-11.36,0-17,0a5.28,5.28,0,0,1-5.51-4c-.69-2.25-1.73-4.4-2.3-6.67s-2-3.19-3.89-4.21c-2.89-1.54-5.27-1.18-8.08.22-8.79,4.4-8.84,4.3-15.76-2.63-2.57-2.58-5.13-5.16-7.72-7.72a5.45,5.45,0,0,1-1.21-7c1-1.9,1.84-3.86,2.92-5.71s.86-3.36.35-5.38c-1-4.14-3.84-5.62-7.49-6.82-8.11-2.66-8.06-2.79-8.06-11.2,0-3.75.08-7.5,0-11.24-.09-3.39,1.37-5.44,4.63-6.37,2.06-.58,4-1.52,6.07-2.06s3.06-1.75,4.06-3.6c1.72-3.19,1.32-5.82-.26-8.93-4.18-8.24-4.05-8.31,2.36-14.72,2.73-2.72,5.48-5.43,8.17-8.18a5.56,5.56,0,0,1,7-1.26c1.54.75,3.19,1.32,4.63,2.21a7.71,7.71,0,0,0,8.36.4,7.33,7.33,0,0,0,4.08-4.42c1.35-3.83,1.74-8.32,6.06-10.45H410.5a37,37,0,0,1,3.61,5c1,2.08,1.49,4.45,2.39,6.62a4.91,4.91,0,0,0,1.89,2.35c3.33,1.8,6.73,3.22,10.34.38,1.06-.84,2.54-1.12,3.73-1.83,2.88-1.7,5.25-1.05,7.44,1.28,3.21,3.43,6.5,6.8,9.75,10.21s3.55,5,1.45,9.42c-.73,1.55-1.44,3.1-2.17,4.65a8.22,8.22,0,0,0,4.38,10.8c4.21,1.61,9,2.15,11.84,6.38Zm-40.54-9.77a24.94,24.94,0,1,0-24.88,25.05A25.11,25.11,0,0,0,424.61,505.8Z"/><path class="cls-6" d="M465.15,684.63c-1.72,1.45-3.41,3-5.19,4.33a4.69,4.69,0,0,1-2.1.75c-7.82,1.16-12.37,5.76-14.05,13.33a5.67,5.67,0,0,0,.24,3.24c1.64,3.72,3.43,7.37,5.25,11a4.91,4.91,0,0,1-.92,6.17c-5.42,5.49-10.86,11-16.37,16.35-2.12,2.08-4.59,2.6-7.32,1-1.29-.75-2.84-1.12-4-2-5.86-4.42-11.75-3.88-17.65-.22a5.89,5.89,0,0,0-2.39,2.61c-1.35,3.6-2.41,7.31-3.62,11a6,6,0,0,1-6.22,4.52q-11.25-.08-22.5,0a5.43,5.43,0,0,1-5.77-4.09c-1.26-3.75-2.52-7.51-4.07-11.14a7.43,7.43,0,0,0-2.94-2.83c-1.05-.68-2.56-.69-3.54-1.43-3.89-2.93-7.44-1.79-11.13.39-2.3,1.36-4.8,2.36-7.21,3.52a5.21,5.21,0,0,1-6.46-1.09q-8.32-8.28-16.61-16.58a4.76,4.76,0,0,1-.91-6.14,35.68,35.68,0,0,0,1.73-3.44c1.22-3.07,2.8-5.5,6.41-6.42,1.82-.46,3.47-2.08,4.9-3.48q10.33-10.12,20.48-20.43c5.9-6,6.77-11.66,3-19.27-1.55-3.17-3.15-6.32-4.71-9.48s.62-8.78,3.95-10c3.81-1.41,7.66-2.73,11.48-4.12,6.69-2.43,10.22-7.29,10.34-14.34.16-10,.18-19.93,0-29.89-.07-2.91-1.18-5.79-1.87-8.94a23.45,23.45,0,0,1,2.81-.33c7.29,0,14.57,0,21.86,0,3.43,0,5.78,1.22,6.56,4.78.21.94.62,1.82.91,2.74,3.28,10.14,3.27,10.17,13,13.77a4.18,4.18,0,0,0,2.93-.31c3.44-1.72,6.83-3.55,10.19-5.44,2.82-1.59,5.28-1.28,7.56,1q7.93,8,15.92,15.9c2.13,2.1,2.45,4.29,1,6.95-1.65,3.12-3.09,6.35-4.62,9.53-.28.57-.59,1.14-.82,1.74-.73,1.89,3.93,12.17,5.85,12.88,2.41.89,4.8,1.84,7.25,2.57a18.35,18.35,0,0,1,9.37,5.68Zm-80.84,20.65a33.39,33.39,0,1,0-33.53-33.41A33.29,33.29,0,0,0,384.31,705.28Z"/><path class="cls-7" d="M321.15,406.57c-2.06,3.73-6.06,4-9.48,5.29-5.81,2.12-8,7.1-5.34,12.69,4.44,9.43,5.1,8.49-2.86,16.31-2.45,2.4-4.83,4.86-7.28,7.25-2.23,2.17-4.7,2.83-7.57,1.18-1.3-.74-2.8-1.15-4-2-3-2-6-2.14-8.84-.07a11.25,11.25,0,0,0-3.44,3.67,42.24,42.24,0,0,0-2.53,6.91,5.09,5.09,0,0,1-5.21,3.93c-5.68,0-11.36.05-17,0a5.28,5.28,0,0,1-5.51-4c-.69-2.25-1.73-4.4-2.3-6.67s-2-3.19-3.89-4.21c-2.89-1.54-5.27-1.18-8.08.22-8.79,4.4-8.84,4.3-15.76-2.63-2.57-2.58-5.13-5.16-7.72-7.72a5.45,5.45,0,0,1-1.21-7c1-1.9,1.84-3.86,2.92-5.71s.86-3.36.35-5.38c-1-4.14-3.84-5.62-7.49-6.82-8.11-2.66-8.06-2.79-8.06-11.2,0-3.75.08-7.5,0-11.24-.09-3.39,1.37-5.44,4.63-6.37,2.06-.58,4-1.52,6.07-2.06s3.06-1.75,4.06-3.6c1.72-3.19,1.32-5.82-.26-8.93-4.18-8.24-4-8.31,2.36-14.72,2.73-2.72,5.48-5.43,8.17-8.18a5.56,5.56,0,0,1,7-1.26c1.54.75,3.19,1.32,4.63,2.21a7.71,7.71,0,0,0,8.36.4,7.33,7.33,0,0,0,4.08-4.42c1.35-3.83,1.74-8.32,6.06-10.45H266.5a37,37,0,0,1,3.61,5c1,2.08,1.49,4.45,2.39,6.62a4.91,4.91,0,0,0,1.89,2.35c3.33,1.8,6.73,3.22,10.34.38,1.06-.84,2.54-1.12,3.73-1.83,2.88-1.7,5.25-1.05,7.44,1.28,3.21,3.43,6.5,6.8,9.75,10.21s3.55,5,1.45,9.42c-.73,1.55-1.44,3.1-2.17,4.65a8.22,8.22,0,0,0,4.38,10.8c4.21,1.61,9,2.15,11.84,6.38Zm-40.54-9.77a24.94,24.94,0,1,0-24.88,25.05A25.11,25.11,0,0,0,280.61,396.8Z"/><path class="cls-3" d="M312.84,699.7c-1.44-.56-2.55-.92-3.6-1.43-4.82-2.31-9.59-4.74-14.46-6.94a5,5,0,0,0-3.47,0c-3.78,1.48-7.51,3.08-11.15,4.88a6.25,6.25,0,0,0-2.88,2.91c-2,5.07-3.8,10.22-5.51,15.4-1,3-2.81,4.27-5.94,4.25q-14.15-.12-28.28,0c-3,0-4.77-1.34-5.71-4.13-1.74-5.16-3.47-10.34-5.45-15.42a7.5,7.5,0,0,0-3.06-3.21c-1.72-1-3.91-1.34-5.56-2.46-5.06-3.45-9.73-2.77-14.66.4-2.94,1.9-6.31,3.13-9.48,4.69a5.39,5.39,0,0,1-6.74-1.15q-10.35-10.32-20.69-20.67a5.56,5.56,0,0,1-1.17-7c2.41-4.89,4.88-9.77,7.09-14.75a5.85,5.85,0,0,0,0-4q-2.07-5.55-4.69-10.87a6.23,6.23,0,0,0-2.9-2.9c-4.77-1.89-9.66-3.48-14.5-5.2-4-1.43-5.12-2.91-5.13-7.05,0-9.21.06-18.42,0-27.63,0-3.52,1.52-5.61,4.76-6.71,5-1.69,9.94-3.33,14.8-5.28a6.56,6.56,0,0,0,3-3.15c1.35-2.78,2-5.89,3.51-8.6a7.31,7.31,0,0,0-.07-8c-2.4-4.16-4.23-8.64-6.41-12.93a4.84,4.84,0,0,1,1-6.14q10.43-10.49,20.92-20.9,3.21-3.16,7.33-.9c4.58,2.54,9.2,5,13.92,7.3a5.73,5.73,0,0,0,4,0c3.2-1.19,6.16-3.09,9.41-4a6.66,6.66,0,0,0,5-5.09c1.37-4.5,3-8.9,4.6-13.34,1.11-3.2,3.25-4.85,6.74-4.83q14,.09,28,0c3.09,0,5,1.28,6,4.28,1.67,5.07,3.63,10.06,5.27,15.14a5.3,5.3,0,0,0,3.55,3.67c3.5,1.31,6.85,3,10.36,4.31a6.1,6.1,0,0,0,4.11,0c4.79-2.12,9.5-4.44,14.16-6.84,2.76-1.42,5.06-1.18,7.26,1q10.31,10.36,20.69,20.66c2,2,2,4.07.8,6.42-2.37,4.8-4.79,9.57-6.92,14.47a6.35,6.35,0,0,0,0,4.32,99.9,99.9,0,0,0,4.6,10.57,6.73,6.73,0,0,0,3.09,3.1c5,2,10,3.72,15.11,5.37,3.07,1,4.5,2.76,4.45,6.11-.14,9.1,0,18.21-.06,27.31,0,4.27-.77,5.33-4.87,6.79-4.74,1.69-9.46,3.42-14.24,5a5.62,5.62,0,0,0-4,3.69c-1.3,3.5-3.05,6.84-4.32,10.36a5.9,5.9,0,0,0,.14,4.08c2.27,5,4.76,9.81,7.27,14.66,1.61,3.09,1.19,5.63-1.32,8.09-6.65,6.53-13.17,13.19-19.82,19.72A25.31,25.31,0,0,1,312.84,699.7ZM251,569.21a42.36,42.36,0,1,0,42.49,42.11A42.39,42.39,0,0,0,251,569.21Z"/></g><path class="cls-8" d="M734.06,96.19a172.06,172.06,0,0,0-65.65,21,170,170,0,0,0-51.15,44.79c-6.56,8.54-12.47,17.56-19,26.08l2.33-3c-5.12,6.6-10.63,13-17.21,18.13l3-2.33a50.78,50.78,0,0,1-10.74,6.47l3.56-1.5a40.7,40.7,0,0,1-9.85,2.78l3.95-.54c-5.94.79-11.78-.2-17.73-.33-9.06-.2-17.66,2.35-24.45,8.48-9.75,8.79-10.34,22.41-9.38,34.55.47,5.79,1,11.61.35,17.39l.53-3.95a29,29,0,0,1-1.74,6.79l1.5-3.56a32.85,32.85,0,0,1-4.14,7l2.32-3c-3.43,4.42-7.57,8.19-11.31,12.34a55.43,55.43,0,0,0-11.93,19.57c-4.13,12.24-2.2,25.26-.81,37.75.72,6.51,1.25,13.07.44,19.59l.53-3.95A38.27,38.27,0,0,1,495,366l1.5-3.55c-2.29,5.26-5.55,9.93-7.7,15.28a26.07,26.07,0,0,0-.51,18.21c2.68,7.26,8,13.62,15.86,15.42a17.91,17.91,0,0,0,12.25-1.4c1.23-.59,2.43-1.25,3.66-1.85,2.45-1.19,4.94-2.31,7.45-3.37l-3.55,1.5a150.85,150.85,0,0,1,27.33-8.45l-18.84-14.35,1.13,35.71a15,15,0,0,0,9.15,13.6c5.75,2.43,11.63.93,16.25-3.08q4-3.42,8.08-6.62l-3,2.33a181.09,181.09,0,0,1,39.22-22.87l-3.55,1.5a181.18,181.18,0,0,1,45.92-12.6l-4,.53q5.19-.68,10.39-1.07l-10.52-4.36a17.2,17.2,0,0,1,1.93,2l-2.33-3a15,15,0,0,1,1.61,2.67l-1.5-3.56a15.22,15.22,0,0,1,1,3.44l-.53-4a18.8,18.8,0,0,1,0,4.74l.53-3.95a25.75,25.75,0,0,1-1.66,6l1.5-3.55a34.31,34.31,0,0,1-4.24,7.2l2.33-3a34.66,34.66,0,0,1-5.95,5.91l3-2.33c-7.66,5.69-17,8.54-25.08,13.64a53.4,53.4,0,0,0-14.8,13.73c-3.81,5.2-6.11,11.63-7.59,17.87-3.11,13.14-4.84,26.76-6.28,40.16a375.55,375.55,0,0,0-2.16,37.79q0,5.43.08,10.88c0,1.74.06,3.48.15,5.22a25,25,0,0,0,1.8,8.13l7.69,20.64c1.38,3.71,3.31,6.84,6.83,8.9a15.27,15.27,0,0,0,11.47,1.5c7.12-2.31,13.31-10.5,10.4-18.31q-4.47-12-8.92-24l.53,4a381.46,381.46,0,0,1,3-64.27l-.53,4q1.25-9.29,2.94-18.48c1-5.49,2.05-11,4.16-16.18l-1.5,3.56a31.79,31.79,0,0,1,4-6.87l-2.32,3a34,34,0,0,1,5.41-5.31l-3,2.32c10.27-7.91,23.19-11.13,33.13-19.64,5.94-5.08,10.07-11.89,12.85-19.11,2.5-6.49,3.07-14.7.54-21.27a28.23,28.23,0,0,0-7.46-11.46,15.89,15.89,0,0,0-10.9-4.33c-.86,0-1.74.14-2.6.22-1.74.15-3.47.34-5.2.55a210.78,210.78,0,0,0-23.41,4,197.57,197.57,0,0,0-41.4,15.1,193.28,193.28,0,0,0-41.15,27.63l25.4,10.52-1.13-35.71c-.32-10.11-9.22-16.36-18.84-14.35a164.11,164.11,0,0,0-42,15.17l7.51-2-.53-.05,4,.54a9.34,9.34,0,0,1-1.49-.4l3.56,1.5a9.31,9.31,0,0,1-1.31-.73l3,2.32a9.74,9.74,0,0,1-1.47-1.4l2.33,3a12,12,0,0,1-1.36-2.29l1.5,3.56a13.77,13.77,0,0,1-.86-3.2l.53,4a13.57,13.57,0,0,1,0-3.31l-.54,4a20.39,20.39,0,0,1,1.24-4l-1.5,3.55c1.31-3,3.09-5.67,4.64-8.52a51.38,51.38,0,0,0,4.53-11.05,65,65,0,0,0,1.8-20.52c-.67-11.66-3.49-23.32-2-35l-.53,4a37.14,37.14,0,0,1,2.49-9.25l-1.5,3.56a36.28,36.28,0,0,1,4.28-7.16l-2.33,3c3.85-4.93,8.57-9.06,12.61-13.82,5.1-6,9.59-12.73,11-20.61a75.53,75.53,0,0,0,.7-20c-.43-5.54-1.07-11.15-.33-16.69l-.53,4a23.63,23.63,0,0,1,1.27-4.91l-1.5,3.56a17.18,17.18,0,0,1,1.93-3.42l-2.32,3a16.37,16.37,0,0,1,2.5-2.56l-3,2.33a17.65,17.65,0,0,1,3.87-2.26l-3.55,1.5a21.63,21.63,0,0,1,4.76-1.16l-4,.53a68.4,68.4,0,0,1,12.14.29,62.34,62.34,0,0,0,14.24-.67,52.28,52.28,0,0,0,20.15-7.9c13.17-8.52,22.78-20.91,31.87-33.47,4.57-6.31,9-12.75,13.71-18.93l-2.33,3a153.73,153.73,0,0,1,27.17-27.08l-3,2.33a158.46,158.46,0,0,1,35-20.37l-3.56,1.5a153.89,153.89,0,0,1,38.34-10.5l-3.95.53c1.15-.15,2.31-.29,3.47-.42,4.07-.46,7.52-1.36,10.52-4.36a15.12,15.12,0,0,0,4.36-10.53c-.17-3.84-1.44-7.84-4.36-10.52-2.72-2.49-6.68-4.79-10.52-4.36Z"/><path class="cls-8" d="M524.15,487.55a344.41,344.41,0,0,1-12-46.57l-8.91,15.69c3.6-.8,7.2-1.59,10.85-2.09l-3.39.45a43.72,43.72,0,0,1,11.37-.18l-3.39-.45a26.39,26.39,0,0,1,6.3,1.67l-3.05-1.29a25.26,25.26,0,0,1,5.27,3l-2.58-2a21,21,0,0,1,3.73,3.69l-2-2.58a17.56,17.56,0,0,1,2.08,3.55l-1.29-3a15.48,15.48,0,0,1,1,3.65l-.46-3.39a16.79,16.79,0,0,1,0,4.25l.45-3.4a15.74,15.74,0,0,1-1,3.76l1.28-3a20.23,20.23,0,0,1-2.63,4.43l2-2.58a48.21,48.21,0,0,1-8.72,8.16l2.58-2c-6.54,5.05-13.88,9.63-19.13,16.12-4.35,5.37-8.07,11.33-8.13,18.52A17.54,17.54,0,0,0,503,517.25c4.06,2.29,8.53,2.57,13.07,2.71l21.32.66-12.3-9.37c.08.39.14.78.2,1.17l-.45-3.39a20.32,20.32,0,0,1,0,5l.46-3.39a24.51,24.51,0,0,1-1.62,6l1.28-3.05a33.47,33.47,0,0,1-4.26,7.2l2-2.58a48.73,48.73,0,0,1-8.71,8.51l2.58-2c-7.7,5.91-16.34,10.7-23.26,17.6-7.55,7.53-12.75,18-12.66,28.77a28.76,28.76,0,0,0,1.43,9.16,31.62,31.62,0,0,0,6.05,10.43c1.91,2.28,6.12,3.87,9,3.74a13.17,13.17,0,0,0,9-3.74,18.52,18.52,0,0,1,1.54-1.4l-2.58,2a16.64,16.64,0,0,1,3.58-2.08l-3,1.28a17.68,17.68,0,0,1,4.35-1.15l-3.39.45a18.76,18.76,0,0,1,4.17,0l-3.39-.45a16.93,16.93,0,0,1,4,1.05L508.37,589a15.79,15.79,0,0,1,3.28,1.91l-2.58-2a17,17,0,0,1,2.64,2.65l-2-2.58a18.11,18.11,0,0,1,2.22,3.84l-1.29-3.05a17.77,17.77,0,0,1,1.14,4.29l-.45-3.39a17.4,17.4,0,0,1,0,4.08l.45-3.39a15.86,15.86,0,0,1-1,3.65l1.29-3a22.75,22.75,0,0,1-3,5l2-2.59c-2.46,3.12-5.41,5.83-7.86,9-1.16,1.48-2.37,3-3.38,4.54a27.94,27.94,0,0,0-2.43,5.16,23.73,23.73,0,0,0-1.3,7.42,14.2,14.2,0,0,0,.09,2.16,34.08,34.08,0,0,0,.86,5.49,32.36,32.36,0,0,0,1.88,4.75,11.8,11.8,0,0,0,1,1.84,20.81,20.81,0,0,0,7.07,6.83,17.61,17.61,0,0,0,4.59,1.8,20.42,20.42,0,0,0,8.24,0,9.86,9.86,0,0,0,2.56-.85,12,12,0,0,0,5.1-3.93,16.48,16.48,0,0,0,2.43-4.76c.45-1.26.87-2.54,1.32-3.81.89-2.53,1.83-5,2.86-7.53l-1.28,3A61,61,0,0,1,540.54,612l-2,2.58a55.31,55.31,0,0,1,9.73-9.67l-2.58,2a68.65,68.65,0,0,1,14.85-8.52l-3,1.29c9.91-4.17,20.5-6.45,31.12-7.89l-3.39.45c5.25-.7,10.52-1.2,15.8-1.57q3.9-.27,7.8-.46a47.82,47.82,0,0,1,8.29,0l-3.39-.46a13.79,13.79,0,0,1,3.29.88l-3-1.29a10.59,10.59,0,0,1,1.94,1.16l-2.58-2a10.28,10.28,0,0,1,1.35,1.37l-2-2.58a9.59,9.59,0,0,1,1.09,1.92l-1.28-3.05a11.68,11.68,0,0,1,.65,2.47l-.46-3.39a13.41,13.41,0,0,1,0,3.29l.45-3.39a14.29,14.29,0,0,1-.88,3.23l1.29-3a14.23,14.23,0,0,1-1.73,3l2-2.58a21.16,21.16,0,0,1-3.59,3.55l2.58-2c-4.83,3.7-10.74,6-16.23,8.57q-9.28,4.3-18.73,8.28l3-1.28q-21.74,9.17-44.11,16.65c-8.15,2.72-17.74,4.65-23.82,11.22a26.46,26.46,0,0,0-6.72,13.81,63.27,63.27,0,0,0-.93,13.39,65.28,65.28,0,0,0,6.85,25.72,57.32,57.32,0,0,0,7,10.61,24.71,24.71,0,0,0,12.65,8.44c9.07,2.3,18.14-1.69,26.43-5a118.17,118.17,0,0,0,12.21-5.48,70.49,70.49,0,0,0,10.93-7.45A45.18,45.18,0,0,0,596,662.66a34.69,34.69,0,0,0,1.4-13.16,33.89,33.89,0,0,0-1.52-8c-1-2.69-2.28-5.19-3.43-7.79l1.29,3a13.65,13.65,0,0,1-.86-2.72l.45,3.39a8.48,8.48,0,0,1-.05-1.51l-.45,3.39a6,6,0,0,1,.27-1.09l-1.29,3a5.41,5.41,0,0,1,.57-1l-2,2.58a5.6,5.6,0,0,1,.77-.77l-2.59,2a7.94,7.94,0,0,1,1.6-.91l-3,1.28a43.18,43.18,0,0,1,10-2.19l-3.39.45a71.16,71.16,0,0,1,17.8-.05c3,.38,7-1.69,9-3.73a12.75,12.75,0,0,0,0-18l-2.58-2a12.75,12.75,0,0,0-6.44-1.74,79.54,79.54,0,0,0-27.2,1.58,29.8,29.8,0,0,0-7.7,2.72,16.94,16.94,0,0,0-8.24,10.34,18.87,18.87,0,0,0,.45,11c1,2.6,2.25,5,3.35,7.54l-1.29-3a21.41,21.41,0,0,1,1.42,5.27l-.45-3.39a24.42,24.42,0,0,1,0,6.16l.46-3.39a30.09,30.09,0,0,1-2,7.14l1.29-3a34.28,34.28,0,0,1-4.18,7.17l2-2.58a38,38,0,0,1-6.67,6.62l2.58-2a66.62,66.62,0,0,1-14.51,8.17l3-1.29c-2.85,1.2-5.74,2.3-8.65,3.35a47.15,47.15,0,0,1-9.34,2.81l3.39-.46a12.53,12.53,0,0,1-3.12,0l3.39.46a11.12,11.12,0,0,1-2.33-.68l3.05,1.29a13.55,13.55,0,0,1-2.29-1.36l2.59,2a20.74,20.74,0,0,1-3.53-3.6l2,2.58a48.47,48.47,0,0,1-6-10.38l1.29,3a51.3,51.3,0,0,1-3.53-12.87l.46,3.39a49.53,49.53,0,0,1,0-12.93l-.46,3.39a23.63,23.63,0,0,1,1.41-5.62l-1.29,3a13.42,13.42,0,0,1,1.42-2.5l-2,2.59a12.8,12.8,0,0,1,2.13-2.16l-2.58,2a20,20,0,0,1,4.32-2.45l-3,1.29c4.33-1.8,8.93-3,13.38-4.51q7-2.35,13.94-4.87,14.22-5.16,28.16-11c10.1-4.24,20.11-8.65,30-13.37a53.25,53.25,0,0,0,12.9-8.23,26.23,26.23,0,0,0,8.5-16.08,23.69,23.69,0,0,0-.49-9.8,21.75,21.75,0,0,0-5.37-9.32c-5-5.12-12.3-6.77-19.26-6.58-7.53.2-15.09.77-22.57,1.6-16.74,1.84-33.39,5.06-48.42,13a68.54,68.54,0,0,0-18.94,14.54,67.07,67.07,0,0,0-8.57,11.8,105.08,105.08,0,0,0-6.81,15.48c-.8,2.17-1.55,4.36-2.3,6.55l8.91-8.91a9,9,0,0,1-1,.21l3.39-.45a8.42,8.42,0,0,1-1.23,0l3.39.45a5.71,5.71,0,0,1-1.35-.35l3.05,1.29a6.87,6.87,0,0,1-1.41-.83l2.58,2a8.58,8.58,0,0,1-1.2-1.21l2,2.58A11.1,11.1,0,0,1,521,620l1.28,3a14.23,14.23,0,0,1-1-3.52l.45,3.39a15,15,0,0,1,0-3.73l-.46,3.39a12.79,12.79,0,0,1,.73-2.73l-1.29,3a19.49,19.49,0,0,1,2.53-4.07l-2,2.58c3.39-4.34,7.41-8,10.63-12.57a28.52,28.52,0,0,0,4-8.5,24.91,24.91,0,0,0,1-9.13,38.47,38.47,0,0,0-.89-5.92,36.49,36.49,0,0,0-2.32-5.95,25.36,25.36,0,0,0-5.3-7.31,28.26,28.26,0,0,0-19.33-7.94,28.89,28.89,0,0,0-20.93,8.5h18c-.16-.18-.31-.36-.45-.55l2,2.58a16.26,16.26,0,0,1-1.94-3.29l1.28,3a18.26,18.26,0,0,1-1.17-4.3l.46,3.39a21.58,21.58,0,0,1,0-5.62l-.46,3.4a27.59,27.59,0,0,1,1.88-6.67l-1.29,3a31.36,31.36,0,0,1,3.69-6.37l-2,2.59a47.49,47.49,0,0,1,8.8-8.43l-2.58,2c6.46-4.95,13.45-9.15,19.7-14.39a48.37,48.37,0,0,0,14.78-21.3,33.44,33.44,0,0,0,.76-17.25l-1.28-3.05a9.77,9.77,0,0,0-3.29-3.58,12.85,12.85,0,0,0-7.73-2.74l-13.14-.4c-4.1-.13-8.33,0-12.4-.47l3.4.45a9,9,0,0,1-1.77-.44l3,1.29a6.07,6.07,0,0,1-1.24-.7l2.58,2a5.68,5.68,0,0,1-.73-.74l2,2.58a5.67,5.67,0,0,1-.5-.86l1.28,3.05a6.51,6.51,0,0,1-.36-1.29L520,503a8.13,8.13,0,0,1,0-2.09l-.46,3.39a12.7,12.7,0,0,1,.79-2.77l-1.29,3a25.33,25.33,0,0,1,3.17-5.23l-2,2.58a55.14,55.14,0,0,1,9.87-9.25l-2.58,2c4.6-3.55,9.41-6.87,13.77-10.72a36.63,36.63,0,0,0,4.56-4.76,42.52,42.52,0,0,0,3.6-4.95,36.38,36.38,0,0,0,2.5-5.56,16.68,16.68,0,0,0,.79-2.95,31.71,31.71,0,0,0,.64-6.31,28.42,28.42,0,0,0-3.92-13.77,34.77,34.77,0,0,0-20.91-15.22c-10.65-2.74-21.57-.67-32.08,1.68a12.79,12.79,0,0,0-7.62,5.87l-1.29,3a12.79,12.79,0,0,0,0,6.78,344.41,344.41,0,0,0,12,46.57,13.51,13.51,0,0,0,5.86,7.63,12.76,12.76,0,0,0,17.45-4.58c1.56-2.95,2.37-6.57,1.29-9.83Z"/><path class="cls-8" d="M838.46,347.8c-1.8,4.74-1.61,9.77-.8,14.67a29.56,29.56,0,0,0,4.27,10.8,38.74,38.74,0,0,0,10.17,10.56,47,47,0,0,0,11.3,5.74,61.29,61.29,0,0,0,9.15,2.61,34.83,34.83,0,0,0,7.57,1.09,17.5,17.5,0,0,0,12.2-5c4.68-4.64,5.51-11.4,4.15-17.56-1.05-4.77-3.86-8.52-6.83-12.23a52.55,52.55,0,0,0-9.67-8.93,53.61,53.61,0,0,0-12-6.4,9.69,9.69,0,0,0-5.09-.23,9.52,9.52,0,0,0-4.74,1.52c-4.87,3.75-9.24,7.48-12.56,12.76-3.45,5.49-5.13,13.18-2.61,19.38a9.49,9.49,0,0,0,2.28,4.33,9.61,9.61,0,0,0,3.58,3.29,12.74,12.74,0,0,0,17.45-4.58c1.5-2.83,2.55-6.72,1.29-9.83a9.27,9.27,0,0,1-.61-2.13l.45,3.39a10.21,10.21,0,0,1,0-2.47L867,372a12.09,12.09,0,0,1,.79-2.76l-1.28,3a19.13,19.13,0,0,1,2.4-3.94l-2,2.58a37.56,37.56,0,0,1,6.42-6.18l-2.58,2,.3-.23-9.82,1.28.36.15-3-1.28a40.83,40.83,0,0,1,8.89,5.2l-2.58-2a41.57,41.57,0,0,1,7,7l-2-2.58a19.9,19.9,0,0,1,2.61,4.14l-1.28-3.05a12.74,12.74,0,0,1,.85,3.07l-.45-3.39a9.62,9.62,0,0,1,0,1.78l.45-3.39a6.19,6.19,0,0,1-.34,1.33l1.29-3.05a5,5,0,0,1-.54.92l2-2.59a6.35,6.35,0,0,1-.58.58l2.58-2a5.58,5.58,0,0,1-.73.46l3-1.29a5.13,5.13,0,0,1-1.21.37l3.4-.45a9.48,9.48,0,0,1-2.13,0l3.39.45a57,57,0,0,1-13.2-3.61l3.05,1.28a33.76,33.76,0,0,1-7.43-4.24l2.58,2a23.94,23.94,0,0,1-4.07-4l2,2.58a22.63,22.63,0,0,1-2.85-4.84l1.28,3.05a20.36,20.36,0,0,1-1.37-5l.45,3.39a17,17,0,0,1,0-4.34l-.46,3.39a16,16,0,0,1,.84-3.18c1.11-2.92.24-7.23-1.28-9.82a12.74,12.74,0,0,0-17.45-4.58l-2.59,2a12.85,12.85,0,0,0-3.28,5.63Z"/><path class="cls-8" d="M735.65,384.62c-3.95.45-5.2.54-8.71,2.32a18.27,18.27,0,0,0-4.24,3.1,23.2,23.2,0,0,0-5.52,9.22c-1.56,4.24-1.81,9.07-1.88,13.56-.13,9.19,1.08,18.37,1.59,27.53a75.49,75.49,0,0,1-.14,13.86l.53-4a18.71,18.71,0,0,1-1.19,4.78l1.5-3.55a8.66,8.66,0,0,1-1,1.77l2.32-3a6.31,6.31,0,0,1-.89.9l3-2.33a4.92,4.92,0,0,1-.94.55l3.56-1.5a37.94,37.94,0,0,1-5,1.22c-2.47.64-4.92,1.38-7.35,2.15-6.1,1.94-12.11,4.15-18,6.58a200.24,200.24,0,0,0-21.67,10.11c-5.72,3.22-11.64,7-16.12,11.84a30.27,30.27,0,0,0-6.76,11,24.77,24.77,0,0,0-1,6.69,39.44,39.44,0,0,0,1,9.93,43.46,43.46,0,0,0,3.26,9,29.73,29.73,0,0,0,3.18,5.38A51.76,51.76,0,0,0,669,535.08a29.16,29.16,0,0,0,10.46,4.55,51.15,51.15,0,0,0,10.47.84A165.52,165.52,0,0,0,712,537.83c12.54-2.11,24.91-5.15,37.44-7.28,1-.17,2-.33,3-.47l-4,.53c6.7-.88,13.39-1.89,20.1-2.79l-4,.53c3.86-.5,7.88-1.06,11.77-.57l-4-.53a8.45,8.45,0,0,1,2,.52l-3.55-1.5a2.66,2.66,0,0,1,.56.33l-3-2.33a3.43,3.43,0,0,1,.33.33l-2.33-3a3.63,3.63,0,0,1,.44.73l-1.5-3.56a7.17,7.17,0,0,1,.47,1.82l-.53-4a21.31,21.31,0,0,1-.17,5.41l.54-3.95a69.56,69.56,0,0,1-4.8,17.15l1.5-3.55a17.25,17.25,0,0,1-1.69,3.35l2.32-3a1,1,0,0,1-.18.18l3-2.33a3.56,3.56,0,0,1-.69.38l3.56-1.5a27.59,27.59,0,0,1-6.67,1.39l4-.53c-12.41,1.66-25,2-37.51,2.55-3.61.14-7.23.2-10.84.45-12.36.87-25,4.15-35.77,10.42-5.37,3.12-10.79,7.39-13.88,12.91a22,22,0,0,0-3,11.19c.1,4.26,1.59,7.19,3.39,10.89l-1.5-3.56,0,.16-.53-4a.76.76,0,0,1,0,.3l.53-4,0,.13,1.5-3.55-.08.13,2.33-3a1.25,1.25,0,0,1-.23.23l3-2.32a4.4,4.4,0,0,1-.74.41l3.56-1.5c-1,.4-2.07.65-3.11,1a24,24,0,0,0-7.8,3.87c-6.2,4.79-7.86,12.24-8.06,19.73A74.85,74.85,0,0,0,660,603.94a49.5,49.5,0,0,0,11.43,21,34,34,0,0,0,24.73,10.43c11.47-.15,20.94-6.2,31.13-10.59l-3.56,1.5A57,57,0,0,1,738,622.43l-4,.53a99.66,99.66,0,0,1,15.35-.73,137.22,137.22,0,0,1,14.9.83l-3.95-.54a15,15,0,0,1,2.72.68l-3.55-1.5a9.69,9.69,0,0,1,1.57.88l-3-2.33a8.79,8.79,0,0,1,1,1l-2.33-3a7.77,7.77,0,0,1,.63,1l-1.5-3.56a5.87,5.87,0,0,1,.39,1.42l-.53-4a6.36,6.36,0,0,1,0,1.07l.53-4a7.91,7.91,0,0,1-.37,1.43l1.5-3.56a10.67,10.67,0,0,1-1.22,2.09l2.33-3a18,18,0,0,1-2.88,2.84l3-2.33a23.42,23.42,0,0,1-4.78,2.81l3.56-1.5c-11.75,4.84-23.92,9.3-36.57,11l4-.54a63,63,0,0,1-16.58-.06l4,.53c-18.25-2.46-35.88-9-54.42-9.49a60.83,60.83,0,0,0-14.92,1.44,29.84,29.84,0,0,0-5,1.59c-3.47,1.44-7,2.79-9.76,5.51s-3.91,6.11-5.32,9.63c-.89,2.23-1.69,4.51-2.46,6.8q-3.09,9.12-5.6,18.43c-.7,2.64-1.37,5.29-1.9,8a40.24,40.24,0,0,0-1.14,8.93c.17,6,3.52,11.49,7,16.26A135.29,135.29,0,0,0,631,701.89c1.73,1.79,3.49,3.55,5.26,5.29a22.09,22.09,0,0,0,6,4.5,29.37,29.37,0,0,0,15.2,2.74c8.73-.82,17-3.24,25.15-6.27,7.86-2.9,16.21-5.66,23.32-10.09a56.18,56.18,0,0,1,6.86-3.84l-3.55,1.5a28.51,28.51,0,0,1,7-1.9l-4,.54a30.14,30.14,0,0,1,7.29,0l-4-.53a30.61,30.61,0,0,1,7.51,2l-3.56-1.5a28.54,28.54,0,0,1,5.86,3.45l-3-2.32.38.3-3.83-14.48a40,40,0,0,1-2.64,9.54l1.5-3.55a43.77,43.77,0,0,1-5.46,9.32l2.32-3a45.6,45.6,0,0,1-8,8l3-2.33a43.63,43.63,0,0,1-9.33,5.45l3.55-1.5a40.08,40.08,0,0,1-10,2.74l4-.53c-.59.07-1.19.14-1.8.19-4,.35-7.58,1.42-10.52,4.36a15.14,15.14,0,0,0-4.36,10.52c.17,3.85,1.44,7.84,4.36,10.52,2.76,2.54,6.64,4.71,10.52,4.36a56.12,56.12,0,0,0,25.28-8.08A60.9,60.9,0,0,0,740,708.89a57.87,57.87,0,0,0,5.66-11.79,37.51,37.51,0,0,0,1.41-4.75c.17-.74.31-1.48.44-2.22a34.68,34.68,0,0,0,.66-4.85,15.56,15.56,0,0,0-4.36-10.52,32,32,0,0,0-7.06-5,50.22,50.22,0,0,0-8-3.42,40.55,40.55,0,0,0-14.05-1.92,44.74,44.74,0,0,0-17.85,4.53c-4.16,2-7.76,4.9-12,6.74l3.55-1.5c-5,2.05-10.12,4-15.21,5.83A91.66,91.66,0,0,1,655,685l3.95-.53a25.25,25.25,0,0,1-6.5.16l4,.53a11.6,11.6,0,0,1-2.71-.69l3.56,1.5a7.75,7.75,0,0,1-1.58-.9l3,2.33a79.88,79.88,0,0,1-7.37-7.35,119.59,119.59,0,0,1-7.9-9.09l2.33,3a52.49,52.49,0,0,1-6.23-10l1.5,3.55a2.12,2.12,0,0,1-.12-.45l.53,4a10.53,10.53,0,0,1,.13-2.51l-.54,4a106.34,106.34,0,0,1,3.28-14q2.31-8.19,5.06-16.25c.76-2.2,1.54-4.4,2.44-6.55l-1.5,3.56a10.38,10.38,0,0,1,1.05-2.11l-2.33,3,.14-.15-3,2.33a18.47,18.47,0,0,1,3.15-1.64l-3.55,1.5a31.64,31.64,0,0,1,8.07-2.14l-4,.53a64.86,64.86,0,0,1,16.7.42l-4-.54c10.92,1.51,21.57,4.44,32.36,6.61a142.48,142.48,0,0,0,18.38,2.64c6.91.46,13.91-.54,20.68-1.87a138.89,138.89,0,0,0,21-6.19c8.13-3,16.57-5.7,23-11.81a23.37,23.37,0,0,0,7.42-15.67c.4-7.11-3.78-13.9-9.71-17.59-4.52-2.82-9.78-3.3-15-3.62-3.5-.22-7-.42-10.5-.51a99,99,0,0,0-27,2.55c-8.38,2.13-15.79,6.6-23.69,10l3.56-1.5a35.52,35.52,0,0,1-8.44,2.46l4-.53a22.33,22.33,0,0,1-5.54,0l4,.53a20,20,0,0,1-4.73-1.3l3.55,1.5a20.66,20.66,0,0,1-4.06-2.38l3,2.32a23.29,23.29,0,0,1-4.13-4.17l2.33,3a32.89,32.89,0,0,1-4-7.06l1.5,3.56a52.45,52.45,0,0,1-3.46-13.2l.53,4a56.61,56.61,0,0,1-.31-13.39l-.54,4a13.28,13.28,0,0,1,.81-3.09l-1.5,3.55a7.44,7.44,0,0,1,.64-1.13l-2.33,3a4.34,4.34,0,0,1,.54-.51l-3,2.33a6.89,6.89,0,0,1,1.25-.68l-3.56,1.5c3-1.21,6.06-1.68,8.89-3.41a16.19,16.19,0,0,0,7.73-13.65,15.22,15.22,0,0,0-2.36-8.14,8.61,8.61,0,0,1-.7-1.26l1.5,3.56a6.09,6.09,0,0,1-.33-1.18l.53,4a7,7,0,0,1,0-1.45l-.53,4a8.11,8.11,0,0,1,.46-1.72l-1.5,3.56a11.75,11.75,0,0,1,1.49-2.48l-2.32,3a21.17,21.17,0,0,1,3.54-3.41l-3,2.32a46.68,46.68,0,0,1,10.15-5.71l-3.56,1.5a73.61,73.61,0,0,1,18.14-4.91l-4,.53c6.61-.87,13.35-.81,20-1.1,9.28-.42,18.58-.86,27.83-1.8a99.43,99.43,0,0,0,13.31-1.9,18.26,18.26,0,0,0,12.74-10.11,86.67,86.67,0,0,0,5.82-16.57c1.49-6.34,2.77-13.51.91-19.93a18.06,18.06,0,0,0-13-12.66,36.46,36.46,0,0,0-11.22-.73c-7.17.53-14.24,1.93-21.35,2.91l4-.53c-6.51.87-12.94,1.72-19.37,3-7.75,1.56-15.48,3.22-23.25,4.66-4.44.83-8.89,1.59-13.37,2.2l4-.54c-5.46.74-11.18,1.49-16.69.78l4,.54a12.85,12.85,0,0,1-3.24-.82l3.55,1.5a32.7,32.7,0,0,1-6.59-4l3,2.33a34.19,34.19,0,0,1-6-6l2.33,3a30.26,30.26,0,0,1-3.73-6.39l1.5,3.55a26.87,26.87,0,0,1-1.73-6.16l.53,4a23.21,23.21,0,0,1-.1-5.71l-.53,4a7.75,7.75,0,0,1,.52-1.9l-1.5,3.55a13,13,0,0,1,1.69-2.81l-2.33,3a30,30,0,0,1,5.24-5l-3,2.33c7.57-5.81,16.45-9.93,25.19-13.64l-3.56,1.5a229.49,229.49,0,0,1,21.87-8c6.49-2,13.91-2.6,18.73-7.94,5.77-6.4,7-14.95,7-23.26.06-6.67-.59-13.33-1.1-20-.53-6.85-1.25-13.93-.35-20.79l-.54,4a18.17,18.17,0,0,1,1.12-4.48l-1.5,3.55a8.23,8.23,0,0,1,.91-1.61l-2.33,3a6,6,0,0,1,1-1l-3,2.33a4.63,4.63,0,0,1,.92-.52l-3.55,1.5a4.77,4.77,0,0,1,1.05-.27l-4,.53.14,0A16.53,16.53,0,0,0,746.17,410a15.1,15.1,0,0,0,4.36-10.52c-.17-3.85-1.44-7.84-4.36-10.52-2.72-2.5-6.69-4.8-10.52-4.36Z"/><path class="cls-3" d="M537.82,351.78c.61-14.8,5.58-28.17,13.78-40.35,14.5-21.53,13.34-38.39-4.43-57.68-12.62-13.71-27.78-23.27-46.41-26.23-6.39-1-12.07-1.83-10.46-10.22,1.79-9.37,8.45-5.7,13.9-4.75,35.81,6.27,60,26.88,71.93,60.81,3.13,8.91,5.52,8.81,12.93,5.7,8.28-3.48,17.31-5.34,26.16-7.23,4-.85,9.07-1.24,10,4.89.75,5.14.08,9.53-6.48,10.68-37.54,6.57-59.61,28.8-66.2,66.23-1.08,6.17-4.22,7.94-9.9,7.45C535.86,360.5,537,356.11,537.82,351.78Z"/><path class="cls-3" d="M524.9,789c4.94-33.72,22.13-58.55,54.43-71,12.72-4.89,17.4-10.31,9.91-23.19a37.1,37.1,0,0,1-5.36-21.5c.34-4.46.42-8.58,6.35-9.26s8.48,1.66,9.83,7.54c2.72,11.9,5.73,23.55,13.05,34.07,12.37,17.75,28.55,28.68,49.81,31.49,7,.92,11.48,2.59,10.57,10.39-1,8.25-7.71,6.39-12.45,5.89-15.19-1.58-29.39-6.94-40.65-17.16-9.75-8.84-19.4-9.59-30.91-5.29-27.44,10.27-44,29.39-47.74,58.63-.86,6.72-2.09,11.58-10.08,11C523.88,800.08,523.73,795,524.9,789Z"/><path class="cls-3" d="M563,467.6c16.68,4.54,32.92,11.46,40,29.82,3.68,9.48,8.47,11.8,17.7,7.92,4.45-1.87,10.88-5.38,13.6,2.16,3,8.21-2.71,11.1-9.66,13.11-16.19,4.67-26.85,15.22-30.45,31.8-1.45,6.67-4.55,9.45-11,8.08-7.94-1.7-5.91-7.74-4.74-12.8a57.29,57.29,0,0,1,4.65-13.63c5.31-10.19,13.53-19.16,4.1-31.91-7.1-9.6-15.43-16.24-26.88-18.52-6.6-1.32-9.43-4.62-8.42-11C552.92,466.57,557.83,467.6,563,467.6Z"/><path class="cls-3" d="M346.3,531.54c13.95,5.66,30.14,11.18,37.59,27.52,4.48,9.81,8.61,15,19.94,10,4.31-1.9,10.81-4.87,12.68,3.61,1.35,6.17-1.22,10-7.7,11.57-17.73,4.26-28.86,15.38-32.91,33.22-1.48,6.51-5.24,9.17-11.51,7.31-7-2.09-4.42-7.44-3.14-11.87a94.15,94.15,0,0,1,5.28-15c11.53-23.82,5.44-39.28-19.67-49-2-.76-4.16-.89-6.22-1.44-5.79-1.53-7.4-5.67-6.36-11C335.47,530.38,340.56,532.1,346.3,531.54Z"/><path class="cls-8" d="M490.84,795.81a120.5,120.5,0,0,0-3.48,31.82c.07,2.23.18,4.48.43,6.71a41.54,41.54,0,0,0,1.6,8.92c2.12,6.12,6.06,12,12.17,14.77a27.23,27.23,0,0,0,10.53,2.65,30.6,30.6,0,0,0,8.15-.89,41.46,41.46,0,0,0,8-3,30.81,30.81,0,0,0,4.75-2.68c7.85-5.39,14.18-12.45,20.21-19.75s12.07-15,19.67-20.95l-2.58,2a52.85,52.85,0,0,1,11.54-6.89l-3.05,1.29a37.07,37.07,0,0,1,8.76-2.46l-3.39.46a30.51,30.51,0,0,1,7.93,0l-3.4-.45a14.45,14.45,0,0,1,3.6.93l-3-1.29a9.48,9.48,0,0,1,1.41.83l-2.58-2a8.09,8.09,0,0,1,1.27,1.28l-2-2.59a8.3,8.3,0,0,1,.84,1.48l-1.28-3a11.86,11.86,0,0,1,.71,2.69l-.46-3.39a59.58,59.58,0,0,1,0,8.45,67.8,67.8,0,0,0,.54,9.55,90.24,90.24,0,0,0,2.22,12.33,88.3,88.3,0,0,0,4.32,11.88c2.76,6.42,6.5,13,12,17.56a43.91,43.91,0,0,0,5.66,4.11,51.3,51.3,0,0,0,6.79,3.1,45.6,45.6,0,0,0,11.14,2.47,47.1,47.1,0,0,0,18-1.47,59.23,59.23,0,0,0,9.78-3.79,39.38,39.38,0,0,0,6.44-3.89,51.18,51.18,0,0,0,14.13-15.14c3.68-6.28,5.41-13,6.24-20.15a49,49,0,0,0-1.61-18.2,56.27,56.27,0,0,0-3.94-10,50.91,50.91,0,0,0-5.85-8.72,31.73,31.73,0,0,0-5.12-5.24,46.5,46.5,0,0,0-5-3.65,45.4,45.4,0,0,0-6-2.77,33.3,33.3,0,0,0-19-1.6,21.34,21.34,0,0,0-8.11,3.46c-3.36,2.42-6.41,5.32-8.13,9.17a26.48,26.48,0,0,0-2.46,9.06,25.18,25.18,0,0,0,.46,7,16.06,16.06,0,0,0,.94,3.52,29,29,0,0,0,12.81,15.7,34.26,34.26,0,0,0,10.54,4.15c8.19,1.72,16.13,1.22,24.33-.09a98.94,98.94,0,0,0,19-5.28c4.07-1.53,8.08-3.23,12.07-5,2.88-1.25,5.86-2.41,8.63-3.88,5.68-3,9.89-8.88,9.89-15.45a17.53,17.53,0,0,0-2.37-8.79,22.7,22.7,0,0,0-6.88-7,44.67,44.67,0,0,0-7.6-4c-3.1-1.45-6.21-2.9-9.32-4.31-25.55-11.63-52.28-21.91-80.77-22a116.61,116.61,0,0,0-21.66,2.07,95.07,95.07,0,0,0-20.72,6.67,37.31,37.31,0,0,0-9.53,5.94A21,21,0,0,0,552,781.24c-1.23,9.16,3.79,17.57,10.45,23.48,5.18,4.6,11.13,8.53,16.81,12.49,5.09,3.55,10.27,7,15.62,10.16,11.17,6.62,23.33,12.35,36.08,15.1a84.24,84.24,0,0,0,20.82,2,106.34,106.34,0,0,0,23-3.75c6.83-1.81,13.57-4,20.33-6,7.51-2.27,15.29-4.14,22.45-7.36,7.34-3.3,12.55-10.43,14.47-18.14a54.42,54.42,0,0,0,.92-18.22c-.63-6.72-1.54-14.11-5.64-19.75a22.75,22.75,0,0,0-4-4.63,24.12,24.12,0,0,0-8.86-4.88,35.77,35.77,0,0,0-12.07-1l-20.71,1.05a13.44,13.44,0,0,0-9,3.74,12.77,12.77,0,0,0,0,18c2.42,2.22,5.63,3.91,9,3.73l14.05-.71c4.32-.22,8.79-.79,13.09-.31l-3.39-.45a14.4,14.4,0,0,1,3.23.8l-3-1.29a11.28,11.28,0,0,1,2.25,1.26l-2.58-2a11.76,11.76,0,0,1,2.06,2.05l-2-2.58A15.72,15.72,0,0,1,707,787.3l-1.28-3a30.41,30.41,0,0,1,1.81,7.41l-.46-3.39a58.15,58.15,0,0,1,.36,14.85l.45-3.39a23,23,0,0,1-1.46,5.6l1.28-3a15.71,15.71,0,0,1-2,3.41l2-2.59a14.11,14.11,0,0,1-2.4,2.36l2.59-2a18.4,18.4,0,0,1-3.68,2l3-1.29c-4,1.63-8.37,2.69-12.55,4l-13.63,4.12c-8.62,2.61-17.26,5.31-26.2,6.55l3.39-.45a69.54,69.54,0,0,1-18.23,0l3.39.46a88.13,88.13,0,0,1-22-6.25l3.05,1.28a154.28,154.28,0,0,1-22.81-12.31c-7.28-4.67-14.42-9.64-21.3-14.87l2.58,2a36,36,0,0,1-6.35-6.11l2,2.58a18.37,18.37,0,0,1-2.32-3.88l1.29,3a12.09,12.09,0,0,1-.74-2.71l.46,3.39a10.33,10.33,0,0,1,0-2.08l-.46,3.39a10.28,10.28,0,0,1,.68-2.44l-1.28,3.05a10.32,10.32,0,0,1,1.14-1.89l-2,2.58a13.77,13.77,0,0,1,2.12-2.06l-2.58,2a34.7,34.7,0,0,1,7.37-3.91l-3,1.28a85.07,85.07,0,0,1,21.39-5.71l-3.39.46a111.47,111.47,0,0,1,28.91.21l-3.39-.45c16.28,2.21,31.9,7.55,47,13.9l-3.05-1.29c5.09,2.15,10.14,4.41,15.16,6.72,2.47,1.14,4.94,2.3,7.4,3.45a36,36,0,0,1,6.33,3.39l-2.58-2a11.06,11.06,0,0,1,1.75,1.67l-2-2.59a7.67,7.67,0,0,1,.84,1.36l-1.29-3a5.28,5.28,0,0,1,.32,1.18l-.45-3.4a5.89,5.89,0,0,1,0,.94l.46-3.39a5.53,5.53,0,0,1-.25,1l1.29-3.05a5.12,5.12,0,0,1-.68,1.15l2-2.58a7.33,7.33,0,0,1-1,.95l2.58-2a28.26,28.26,0,0,1-5.61,2.87c-2.26,1-4.52,2-6.8,3l3.05-1.29c-8.92,3.75-18.11,7-27.74,8.31l3.39-.46a52.48,52.48,0,0,1-13.31.23l3.39.46a29.63,29.63,0,0,1-7.05-1.83l3.05,1.29a22.35,22.35,0,0,1-4.54-2.58l2.58,2a17.51,17.51,0,0,1-3-3l2,2.58a17.59,17.59,0,0,1-2.15-3.65l1.28,3a16.45,16.45,0,0,1-1.1-4l.46,3.39a13.82,13.82,0,0,1,0-3.4l-.46,3.39a13.21,13.21,0,0,1,.72-2.62l-1.28,3.05a11.82,11.82,0,0,1,1.56-2.66l-2,2.58a12.41,12.41,0,0,1,1.78-1.77l-2.58,2a12.59,12.59,0,0,1,2.6-1.53l-3,1.29a14.76,14.76,0,0,1,3.53-1L642,802a20.32,20.32,0,0,1,5,0l-3.39-.45a25.84,25.84,0,0,1,6.33,1.73L646.89,802a24.85,24.85,0,0,1,5.42,3.14l-2.58-2A31,31,0,0,1,655,808.5l-2-2.59a37.92,37.92,0,0,1,4.79,8.27l-1.29-3a40.77,40.77,0,0,1,2.68,9.93l-.46-3.39a40.19,40.19,0,0,1,0,10.28l.45-3.39a36.74,36.74,0,0,1-2.5,9.21l1.29-3a35.17,35.17,0,0,1-4.25,7.28l2-2.58a37.71,37.71,0,0,1-6.65,6.65l2.58-2a40.58,40.58,0,0,1-8.76,5.1l3-1.29a40,40,0,0,1-9.77,2.7l3.39-.46a37.08,37.08,0,0,1-9.76,0l3.39.46a34.62,34.62,0,0,1-8.52-2.33l3,1.28a26.46,26.46,0,0,1-5.72-3.35l2.58,2a26.07,26.07,0,0,1-4.16-4.24l2,2.58a50.91,50.91,0,0,1-6.14-11l1.29,3a69.39,69.39,0,0,1-4.78-17.55l.46,3.39a69.83,69.83,0,0,1-.48-12.35c.26-5.38-.26-10.59-2.75-15.46a18.69,18.69,0,0,0-3.06-4.12,16.75,16.75,0,0,0-2.11-1.75,17.51,17.51,0,0,0-2.33-1.64c-3.66-1.94-7.13-2.51-11.21-2.95a40.52,40.52,0,0,0-14,1.28c-9.17,2.31-17.22,7.49-24.37,13.5-6,5-10.93,11.08-15.86,17.08-5.59,6.81-11.23,13.7-18.23,19.13l2.58-2a31.74,31.74,0,0,1-6.54,3.83l3-1.28a24.92,24.92,0,0,1-6.16,1.75l3.39-.45a17.43,17.43,0,0,1-4,0l3.39.45a12.41,12.41,0,0,1-3.11-.82l3,1.29a11.75,11.75,0,0,1-2.25-1.3l2.58,2a12.33,12.33,0,0,1-2-2l2,2.58a14.17,14.17,0,0,1-1.69-2.95l1.28,3a23.87,23.87,0,0,1-1.39-5.64l.45,3.39a97.86,97.86,0,0,1,.37-24.66l-.45,3.4a107.58,107.58,0,0,1,2.13-11.27,13.37,13.37,0,0,0-1.29-9.83,12.76,12.76,0,0,0-23.31,3Z"/><path class="cls-8" d="M770,855.53l1,4a13.15,13.15,0,0,0,15.69,8.91l3-1.28a12.88,12.88,0,0,0,4.58-4.58l1.28-3.05a12.79,12.79,0,0,0,0-6.78l-1-4a9.53,9.53,0,0,0-2.28-4.34,9.69,9.69,0,0,0-3.58-3.29,9.51,9.51,0,0,0-4.74-1.51,9.69,9.69,0,0,0-5.09.23l-3,1.28a12.8,12.8,0,0,0-4.58,4.58l-1.29,3a13,13,0,0,0,0,6.78Z"/><path class="cls-8" d="M785.47,212.39a13.16,13.16,0,0,0,9-3.73,12.75,12.75,0,0,0,0-18,12.75,12.75,0,0,0-18,0,12.77,12.77,0,0,0,0,18,13.27,13.27,0,0,0,9,3.73Z"/></g></svg>