<svg xmlns="http://www.w3.org/2000/svg" viewBox="0 0 442 442"><defs><style>.cls-1{fill:none;}.cls-2{fill:#6dc0c2;}.cls-3{fill:#f2ba24;isolation:isolate;opacity:0.86;}</style></defs><g id="learning"><path class="cls-1" d="M320.73,269.77v0Z"/><path class="cls-2" d="M419.9,269.82a49.59,49.59,0,1,1-99.17,0v-.05"/><path class="cls-2" d="M221.48,269.77v.05a49.59,49.59,0,1,1-99.17,0"/><path class="cls-2" d="M271.15,220.24a49.57,49.57,0,0,1,49.58,49.53H221.57A49.57,49.57,0,0,1,271.15,220.24Z"/><path class="cls-1" d="M320.73,168.77v0Z"/><path class="cls-2" d="M419.9,168.82a49.59,49.59,0,1,1-99.17,0v0"/><path class="cls-2" d="M221.48,168.77v0a49.59,49.59,0,1,1-99.17,0"/><path class="cls-2" d="M271.15,119.24a49.57,49.57,0,0,1,49.58,49.53H221.57A49.57,49.57,0,0,1,271.15,119.24Z"/><path class="cls-3" d="M22.1,221.08A149.21,149.21,0,0,0,171.36,370.34V71.66A149.44,149.44,0,0,0,22.1,221.08Z"/></g></svg>