<svg xmlns="http://www.w3.org/2000/svg" viewBox="0 0 442 442"><defs><style>.cls-1{fill:none}.cls-2{fill:#6dc0c2}</style></defs><g id="learning"><path d="M320.73 269.77Z" class="cls-1"/><path d="M419.9 269.82a49.59 49.59 0 1 1-99.17 0v-.05M221.48 269.77v.05a49.59 49.59 0 1 1-99.17 0M271.15 220.24a49.57 49.57 0 0 1 49.58 49.53h-99.16a49.57 49.57 0 0 1 49.58-49.53Z" class="cls-2"/><path d="M320.73 168.77Z" class="cls-1"/><path d="M419.9 168.82a49.59 49.59 0 1 1-99.17 0M221.48 168.77a49.59 49.59 0 1 1-99.17 0M271.15 119.24a49.57 49.57 0 0 1 49.58 49.53h-99.16a49.57 49.57 0 0 1 49.58-49.53Z" class="cls-2"/><path d="M22.1 221.08a149.21 149.21 0 0 0 149.26 149.26V71.66A149.44 149.44 0 0 0 22.1 221.08Z" style="fill:#f2ba24;isolation:isolate;opacity:.86"/></g></svg>